<svg width="321" height="212" viewBox="0 0 321 212" fill="none" xmlns="http://www.w3.org/2000/svg">
<g clip-path="url(#clip0_15_10779)">
<path d="M183.803 1.47522C189.254 5.45543 192.094 9.72866 196.977 9.2866C201.86 8.84454 206.632 6.63425 210.033 7.81307C213.434 8.99189 216.847 17.2453 220.935 17.54C225.023 17.8347 230.476 13.5615 231.956 12.6774C233.437 11.7933 229.798 25.5005 222.984 27.1213C216.169 28.7422 212.641 20.4888 208.041 24.0252C203.441 27.5617 199.132 31.2472 193.798 30.0684C188.464 28.8896 181.88 26.8266 181.88 26.8266L183.803 1.47522Z" fill="#EF8D42"/>
<path d="M183.348 114.141C182.957 114.141 182.582 113.986 182.305 113.709C182.028 113.433 181.872 113.058 181.872 112.667V1.47522C181.872 1.08397 182.027 0.708742 182.304 0.432085C182.581 0.155427 182.957 0 183.348 0C183.74 0 184.116 0.155427 184.393 0.432085C184.67 0.708742 184.825 1.08397 184.825 1.47522V112.667C184.825 113.058 184.669 113.433 184.392 113.709C184.115 113.986 183.74 114.141 183.348 114.141Z" fill="#3B3B4C"/>
<path d="M185.149 190.214C172.714 190.288 66.2638 190.214 66.2638 190.214C68.095 179.692 75.5079 147.427 80.2555 147.219C81.6018 147.158 90.5983 146.523 101.44 146.389C128.867 146.05 174.433 145.906 176.007 148.265C177.495 150.496 186.897 168.976 188.906 180.653C189.858 186.188 189.149 190.192 185.149 190.214Z" fill="#EF9A03"/>
<path d="M124.611 189.377C124.43 189.631 124.192 189.839 123.916 189.985C123.64 190.13 123.333 190.208 123.021 190.214C116.478 190.468 60.9636 190.214 60.9636 190.214C63.4713 179.02 66.9099 161.693 71.5947 152.75C73.4598 149.194 75.5148 146.97 77.7902 146.97C85.7983 146.97 112.742 144.079 115.518 149.727C118.349 155.496 128.567 184.099 124.611 189.377Z" fill="#FFAF22"/>
<path opacity="0.05" d="M124.611 189.377C124.43 189.631 124.192 189.839 123.916 189.985C123.64 190.13 123.333 190.209 123.021 190.214C116.478 190.468 60.9636 190.214 60.9636 190.214C63.4713 179.02 66.9099 161.693 71.5947 152.75C89.2487 163.445 113.821 177.943 124.611 189.377Z" fill="#0F1934"/>
<path d="M259.774 190.214C247.339 190.288 140.888 190.214 140.888 190.214C142.72 179.692 150.131 147.427 154.88 147.219C156.225 147.158 165.223 146.523 176.064 146.389C203.492 146.05 249.058 145.906 250.631 148.265C252.12 150.496 261.522 168.976 263.531 180.653C264.482 186.188 263.775 190.192 259.774 190.214Z" fill="#EF9A03"/>
<path opacity="0.17" d="M152.41 146.97C147.594 147.647 143.693 149.827 141.863 153.502C140.034 157.178 131.5 190.256 131.5 190.256L138.452 190.232L152.41 146.97Z" fill="#0F1934"/>
<path d="M199.236 189.377C199.055 189.631 198.817 189.839 198.54 189.985C198.264 190.13 197.958 190.208 197.645 190.214C191.102 190.468 135.588 190.214 135.588 190.214C138.096 179.02 141.533 161.693 146.219 152.75C148.084 149.194 150.138 146.97 152.415 146.97C160.421 146.97 187.367 144.079 190.142 149.727C192.974 155.496 203.191 184.099 199.236 189.377Z" fill="#FFAF22"/>
<path opacity="0.05" d="M199.236 189.377C199.055 189.631 198.817 189.839 198.54 189.985C198.264 190.13 197.958 190.209 197.645 190.214C191.102 190.468 135.588 190.214 135.588 190.214C138.096 179.02 141.533 161.693 146.219 152.75C163.873 163.445 188.445 177.943 199.236 189.377Z" fill="#0F1934"/>
<path opacity="0.07" d="M263.531 180.653C246.525 163.656 208.256 155.884 183.048 146.44H190C217.427 146.101 249.06 145.908 250.633 148.267C252.12 150.496 261.522 168.976 263.531 180.653Z" fill="#0F1934"/>
<path d="M142.976 234.362C130.539 234.436 24.0904 234.362 24.0904 234.362C25.9199 223.839 33.3328 191.575 38.0821 191.367C39.4266 191.306 48.4334 190.671 59.2646 190.535C86.6918 190.197 132.258 190.054 133.833 192.414C135.32 194.644 144.722 213.124 146.731 224.801C147.682 230.334 146.974 234.34 142.976 234.362Z" fill="#EF9A03"/>
<path d="M82.4377 233.525C82.2566 233.779 82.0183 233.987 81.7421 234.132C81.4659 234.278 81.1594 234.356 80.8473 234.362C74.3024 234.616 18.7901 234.362 18.7901 234.362C21.2995 223.168 24.7364 205.841 29.4212 196.899C31.2863 193.342 33.3413 191.116 35.6184 191.116C43.6248 191.116 70.5705 188.227 73.3445 193.875C76.1743 199.644 86.3917 228.248 82.4377 233.525Z" fill="#FFAF22"/>
<path opacity="0.05" d="M82.4377 233.525C82.2566 233.779 82.0183 233.987 81.7421 234.132C81.4659 234.278 81.1594 234.356 80.8473 234.362C74.3024 234.616 18.7901 234.362 18.7901 234.362C21.2995 223.168 24.7364 205.841 29.4212 196.899C47.0736 207.593 71.6455 222.094 82.4377 233.525Z" fill="#0F1934"/>
<path d="M216.074 233.996C203.637 234.071 97.189 233.996 97.189 233.996C99.0185 223.473 106.431 191.21 111.181 191.001C112.525 190.94 121.524 190.305 132.365 190.171C159.792 189.833 205.358 189.689 206.932 192.048C208.421 194.279 217.822 212.759 219.832 224.435C220.781 229.968 220.074 233.974 216.074 233.996Z" fill="#EF9A03"/>
<path opacity="0.17" d="M108.71 190.761C103.895 191.438 99.9934 193.618 98.1639 197.293C96.3344 200.969 87.8007 234.047 87.8007 234.047L94.7525 234.023L108.71 190.761Z" fill="#0F1934"/>
<path d="M155.536 233.159C155.355 233.413 155.117 233.622 154.841 233.767C154.565 233.912 154.258 233.991 153.946 233.996C147.403 234.25 91.8887 233.996 91.8887 233.996C94.3964 222.802 97.8333 205.476 102.52 196.533C104.385 192.976 106.438 190.752 108.715 190.752C116.722 190.752 143.667 187.861 146.443 193.51C149.275 199.278 159.499 227.882 155.536 233.159Z" fill="#FFAF22"/>
<path opacity="0.05" d="M155.536 233.159C155.355 233.413 155.117 233.621 154.841 233.767C154.565 233.912 154.258 233.991 153.946 233.996C147.403 234.25 91.8887 233.996 91.8887 233.996C94.3964 222.802 97.8333 205.476 102.52 196.533C120.174 207.227 144.747 221.725 155.536 233.159Z" fill="#0F1934"/>
<path d="M228.53 146.431C216.093 146.506 109.644 146.431 109.644 146.431C111.474 135.91 118.887 103.645 123.636 103.436C124.981 103.375 133.979 102.74 144.819 102.606C172.246 102.268 217.812 102.124 219.387 104.483C220.874 106.714 230.276 125.194 232.285 136.87C233.237 142.404 232.528 146.409 228.53 146.431Z" fill="#EF9A03"/>
<path d="M167.99 145.595C167.809 145.849 167.572 146.057 167.296 146.202C167.02 146.347 166.713 146.426 166.401 146.431C159.857 146.685 104.344 146.431 104.344 146.431C106.854 135.237 110.29 117.911 114.975 108.968C116.84 105.411 118.895 103.187 121.173 103.187C129.179 103.187 156.125 100.296 158.899 105.945C161.728 111.714 171.946 140.317 167.99 145.595Z" fill="#FFAF22"/>
<path opacity="0.05" d="M167.99 145.595C167.809 145.849 167.572 146.057 167.296 146.202C167.02 146.347 166.713 146.426 166.401 146.431C159.857 146.685 104.344 146.431 104.344 146.431C106.854 135.238 110.29 117.911 114.975 108.968C132.628 119.662 157.2 134.16 167.99 145.595Z" fill="#0F1934"/>
<path opacity="0.07" d="M232.285 136.87C215.279 119.874 177.01 112.102 151.803 102.657H158.754C186.182 102.319 217.814 102.126 219.389 104.485C220.878 106.714 230.276 125.194 232.285 136.87Z" fill="#0F1934"/>
<path d="M284.691 233.996C272.255 234.071 165.806 233.996 165.806 233.996C167.636 223.473 175.049 191.21 179.798 191.001C181.142 190.94 190.141 190.305 200.98 190.171C228.408 189.833 273.974 189.689 275.549 192.048C277.036 194.279 286.438 212.759 288.447 224.435C289.398 229.968 288.69 233.974 284.691 233.996Z" fill="#EF9A03"/>
<path opacity="0.17" d="M177.328 190.761C172.512 191.438 168.611 193.618 166.781 197.293C164.952 200.969 156.418 234.047 156.418 234.047L163.37 234.023L177.328 190.761Z" fill="#0F1934"/>
<path d="M224.154 233.159C223.972 233.413 223.734 233.621 223.458 233.767C223.182 233.912 222.875 233.991 222.563 233.996C216.018 234.25 160.506 233.996 160.506 233.996C163.015 222.802 166.452 205.476 171.137 196.533C173.002 192.976 175.057 190.752 177.334 190.752C185.341 190.752 212.286 187.861 215.06 193.51C217.89 199.278 228.108 227.882 224.154 233.159Z" fill="#FFAF22"/>
<path opacity="0.05" d="M224.154 233.159C223.972 233.413 223.734 233.621 223.458 233.767C223.182 233.912 222.875 233.991 222.563 233.996C216.018 234.25 160.506 233.996 160.506 233.996C163.015 222.802 166.452 205.476 171.137 196.533C188.789 207.227 213.361 221.725 224.154 233.159Z" fill="#0F1934"/>
<path opacity="0.07" d="M288.447 224.435C271.442 207.439 233.182 199.666 207.964 190.222H214.916C242.343 189.883 273.976 189.69 275.551 192.05C277.036 194.279 286.438 212.759 288.447 224.435Z" fill="#0F1934"/>
<path opacity="0.14" d="M114.384 101.78C120.14 112.289 130.878 127.789 129.923 130.104C128.986 132.379 134.267 135.663 133.514 136.899C132.762 138.135 130.673 139.555 127.6 142.351C124.528 145.147 120.791 147.957 122.019 143.835C123.246 139.712 125.723 135.705 124.562 134.162C123.401 132.619 111.666 112.493 112.03 111.297C112.395 110.101 114.384 101.78 114.384 101.78Z" fill="#0A0A0A"/>
<path d="M133.089 55.8213C131.671 74.6214 128.197 77.0773 126.826 79.982C125.454 82.8867 115.635 98.2538 115.915 98.8296C116.194 99.4055 119.475 103.877 120.803 103.149C122.131 102.42 130.988 88.2439 133.499 82.9172C136.01 77.5905 140.154 57.6065 140.154 57.6065C140.154 57.6065 140.832 48.8263 136.366 49.7426C132.996 50.437 133.089 55.8213 133.089 55.8213Z" fill="#143068"/>
<path opacity="0.17" d="M133.089 55.8213C131.671 74.6214 128.197 77.0773 126.826 79.982C125.454 82.8867 115.635 98.2537 115.915 98.8296C116.194 99.4055 119.475 103.877 120.803 103.149C122.131 102.42 130.988 88.2439 133.499 82.9172C136.01 77.5905 140.154 57.6065 140.154 57.6065C140.154 57.6065 140.766 48.5722 136.366 49.7426C133.787 50.4285 133.089 55.8213 133.089 55.8213Z" fill="#191939"/>
<path d="M124.96 135.954C123.463 134.336 120.226 129.816 120.226 129.816L124.74 126.129L129.54 132.963L128.08 137.4L124.96 135.954Z" fill="#FAAAA2"/>
<path d="M124.04 135.495C123.475 135.773 124.04 136.059 124.457 136.911C125.403 138.865 119.524 143.798 118.753 144.682C118.355 145.137 119.589 148.139 121.873 146.236C123.848 144.59 130.193 139.343 132.343 137.527C132.562 137.344 132.715 137.093 132.776 136.814C132.838 136.535 132.804 136.243 132.682 135.984C131.773 134.093 129.65 131.75 129.003 132.194C127.843 132.666 126.386 134.343 124.04 135.495Z" fill="#211B2D"/>
<path d="M150.606 88.5064C130.78 86.0793 106.013 83.6133 102.681 88.5623C98.4539 94.851 118.716 136.938 121.988 134.648C125.261 132.358 130.164 130.659 129.053 128.766C127.943 126.872 108.385 95.786 113.38 96.0146C118.375 96.2433 146.535 101.451 148.457 100.342C150.38 99.2327 150.606 88.5064 150.606 88.5064Z" fill="#3B3B4D"/>
<path opacity="0.18" d="M150.606 88.5064C130.78 86.0793 106.013 83.6133 102.681 88.5623C98.4539 94.851 118.716 136.938 121.988 134.648C125.261 132.358 130.164 130.659 129.053 128.766C127.943 126.872 108.385 95.786 113.38 96.0146C118.375 96.2433 146.535 101.451 148.457 100.342C150.38 99.2327 150.606 88.5064 150.606 88.5064Z" fill="#0A0A0A"/>
<path d="M158.975 80.839L164.317 80.8712C165.142 80.8712 165.803 81.8264 165.796 82.9917L165.777 86.2301C165.777 86.2376 165.774 86.2447 165.768 86.25C165.763 86.2553 165.756 86.2584 165.749 86.2589H164.755C164.751 86.2589 164.747 86.2581 164.744 86.2567C164.74 86.2552 164.737 86.2531 164.735 86.2504C164.732 86.2477 164.73 86.2446 164.728 86.2411C164.727 86.2376 164.726 86.2338 164.726 86.2301L164.74 83.9486C164.74 83.0764 164.25 82.365 163.634 82.3616L159.639 82.3396C159.024 82.3396 158.522 83.0408 158.517 83.9131L158.503 86.1945C158.503 86.202 158.5 86.2091 158.495 86.2144C158.489 86.2197 158.482 86.2229 158.475 86.2233H157.481C157.477 86.2235 157.473 86.223 157.47 86.2216C157.466 86.2202 157.463 86.2181 157.46 86.2154C157.457 86.2127 157.455 86.2094 157.454 86.2058C157.453 86.2022 157.452 86.1983 157.452 86.1945L157.471 82.9578C157.478 81.7841 158.151 80.839 158.975 80.839Z" fill="#211B2D"/>
<path d="M164.316 80.8644C165.142 80.8644 165.803 81.8213 165.796 82.9866L165.772 86.225C165.772 86.2323 165.769 86.2392 165.763 86.2442C165.758 86.2493 165.751 86.2521 165.743 86.2521H164.75C164.742 86.2517 164.735 86.2485 164.73 86.2432C164.725 86.2379 164.721 86.2308 164.721 86.2233L164.735 83.9418C164.735 83.0696 164.245 82.3582 163.629 82.3548L163.207 80.9118C163.206 80.9076 163.205 80.9032 163.206 80.8988C163.207 80.8945 163.208 80.8904 163.211 80.8869C163.214 80.8834 163.217 80.8806 163.221 80.8787C163.225 80.8769 163.23 80.876 163.234 80.8762L164.316 80.8644Z" fill="#211B2D"/>
<path d="M178.223 87.6358V102.659C178.223 102.875 178.18 103.089 178.097 103.288C178.015 103.488 177.893 103.669 177.74 103.821C177.588 103.974 177.406 104.095 177.206 104.177C177.007 104.26 176.793 104.302 176.576 104.302H176.556L149.7 104.641C146.67 104.641 146.691 102.503 146.691 101.611L146.273 87.4106C146.273 86.518 147.354 84.1705 149.778 84.2061L173.674 84.1959H174.571C176.536 84.1959 178.223 85.6169 178.223 87.6358Z" fill="#66383D"/>
<path d="M178.223 87.6358V102.659C178.223 102.875 178.18 103.089 178.097 103.288C178.015 103.488 177.893 103.669 177.74 103.821C177.588 103.974 177.406 104.095 177.206 104.177C177.007 104.26 176.792 104.302 176.576 104.302C176.57 104.302 176.565 104.301 176.56 104.297C176.555 104.294 176.551 104.289 176.549 104.283C176.242 103.392 176.041 101.99 176.197 99.7831C176.553 94.4259 175.01 88.3557 173.68 84.2332C173.679 84.2289 173.679 84.2244 173.679 84.22C173.68 84.2156 173.682 84.2114 173.685 84.2078C173.687 84.2042 173.691 84.2012 173.695 84.1991C173.699 84.1971 173.703 84.196 173.707 84.1959H174.565C176.536 84.1959 178.223 85.6169 178.223 87.6358Z" fill="#7E4F54"/>
<path opacity="0.18" d="M118.739 102.905C110.569 101.594 150.027 108.619 152.276 103.172L129.615 103.386C128.47 103.396 119.663 102.417 118.739 102.905Z" fill="#0A0A0A"/>
<path d="M109.582 147.954C108.7 145.935 107.13 140.602 107.13 140.602L112.603 138.6L114.891 146.631L112.05 150.344L109.582 147.954Z" fill="#FAAAA2"/>
<path d="M108.863 147.217C108.239 147.293 108.681 147.751 108.79 148.692C109.043 150.848 101.867 153.577 100.848 154.158C100.322 154.458 100.509 157.698 103.284 156.651C105.69 155.745 113.409 152.871 116.035 151.863C116.304 151.761 116.531 151.572 116.68 151.327C116.83 151.082 116.893 150.793 116.861 150.508C116.625 148.423 115.392 145.51 114.633 145.722C113.388 145.786 111.459 146.894 108.863 147.217Z" fill="#211B2D"/>
<path d="M155.418 89.338C155.967 92.8135 156.333 99.1158 153.044 102.529C151.257 104.392 148.386 105.388 143.874 104.605C136.785 103.376 105.623 102.403 105.819 104.012C106.016 105.621 115.823 142.039 114.558 143.726C113.293 145.413 106.208 147.214 105.643 145.251C105.078 143.288 92.1532 101.741 97.1856 96.1332C101.424 91.4078 136.219 90.8488 139.622 89.145C143.025 87.4411 155.418 89.338 155.418 89.338Z" fill="#3B3B4D"/>
<path d="M138.53 54.4425L144.013 52.8183C143.869 50.5335 143.125 46.4025 142.596 44.3921C142.247 43.0684 141.551 41.862 140.578 40.8979L139.561 43.1641L137.199 44.1804C137.199 44.1804 137.407 44.2058 137.563 44.8578C137.821 45.93 138.072 49.2174 136.482 50.8874C135.502 51.9189 138.53 54.4425 138.53 54.4425Z" fill="#FFAFA6"/>
<path opacity="0.14" d="M137.609 44.9323C137.835 46.1298 137.779 47.1003 137.662 48.2012C140.858 49.3529 141.851 46.1501 140.975 44.4005C140.648 43.7467 139.569 43.159 139.569 43.159C139.569 43.159 137.177 42.6408 137.609 44.9323Z" fill="#191939"/>
<path d="M143.622 47.1342C141.55 46.6736 140.371 50.1643 138.723 50.3946C137.723 50.5352 138.186 48.9787 137.684 48.5316C137.374 48.2504 137.085 47.8964 136.704 48.6044C130.468 60.1775 136.612 86.1437 136.612 86.1437C136.612 86.1437 141.506 89.792 151.726 89.6531C157.951 89.5684 153.737 83.7387 153.454 82.2702C153.171 80.8018 148.157 52.1544 148.157 52.1544C148.157 52.1544 146.836 49.7917 143.622 47.1342Z" fill="white"/>
<path d="M132.37 63.3701C132.748 65.2772 133.291 68.9187 133.582 71.4627C133.943 74.6096 133.701 76.5523 133.64 77.7802C133.498 80.5663 133.686 84.1638 134.871 86.7873C136.139 89.5938 137.194 88.9112 138.377 87.6511C140.412 85.4866 139.225 80.1853 137.977 72.8938C136.79 65.9496 134.849 61.9203 135.237 56.0923C135.429 53.389 136.035 50.7311 137.034 48.2114C130.166 51.0687 132.163 62.3048 132.37 63.3701Z" fill="#143068"/>
<path d="M140.624 67.4367C140.624 67.4994 140.634 67.5603 140.641 67.6213C140.665 67.85 140.692 68.0786 140.721 68.2988C140.721 68.3581 140.738 68.4191 140.748 68.4783C140.758 68.5376 140.768 68.602 140.778 68.6629C141.397 72.174 144.217 76.9452 145.509 79.9752C145.553 80.0819 145.597 80.1852 145.638 80.2869C145.7 80.4393 145.756 80.5866 145.807 80.7289C145.861 80.8763 145.914 81.0219 145.963 81.1659C145.997 81.2624 146.031 81.3607 146.063 81.4572L146.175 81.796C146.216 81.923 146.255 82.0483 146.294 82.1737C148.201 88.3489 147.091 92.2715 149.807 94.8917C152.252 97.246 164.696 103.889 169.447 99.5274C170.803 98.2859 167.722 96.0214 164.699 93.0913L164.67 93.0625C163.535 91.9948 162.501 90.8239 161.583 89.565C158.617 85.3307 157.306 80.3597 156.326 76.6047C155.574 73.7254 155.309 69.9569 154.922 65.5956C154.821 64.4473 154.712 63.2583 154.583 62.0388C154.197 58.2839 151.258 53.4009 149.514 51.7072C145.365 47.6931 143.686 47.1681 143.686 47.1681C143.661 48.5857 142.16 53.0842 141.233 58.2314C141.095 58.9868 140.973 59.7557 140.87 60.5314C140.87 60.5314 140.87 60.5467 140.87 60.5535C140.563 62.862 140.424 65.223 140.624 67.4367Z" fill="#143068"/>
<path opacity="0.17" d="M140.624 67.4367C140.624 67.4993 140.634 67.5603 140.641 67.6213C140.661 67.855 140.688 68.0837 140.721 68.2988C140.721 68.3581 140.738 68.419 140.748 68.4783C140.758 68.5376 140.768 68.6019 140.778 68.6629C141.417 72.1723 144.22 76.9452 145.509 79.9752C145.555 80.0819 145.599 80.1852 145.638 80.2868C145.7 80.4393 145.756 80.5866 145.807 80.7289C145.862 80.8762 145.914 81.0219 145.963 81.1659C145.997 81.2624 146.031 81.3607 146.063 81.4572L146.175 81.7959C146.216 81.923 146.255 82.0483 146.294 82.1736C153.547 91.2841 144.841 94.0669 148.7 92.8525C147.588 91.7719 153.832 86.623 153.447 82.2617L152.656 62.2184L141.231 58.2314L141.092 58.1823C141.07 58.6565 140.975 59.4949 140.868 60.5314C140.868 60.5314 140.868 60.5467 140.868 60.5534C140.678 62.5215 140.444 65.1891 140.624 67.4367Z" fill="#191939"/>
<path d="M138.752 103.552C138.064 104.786 138.074 103.562 137.396 105.311C136.746 107.005 136.349 108.301 134.903 109.068C133.716 109.7 131.809 110.887 132.619 112.66C133.348 114.259 136.154 112.884 136.923 112.19C139.868 109.524 139.02 112.359 140.264 112.11C141.509 111.861 139.673 110.699 141.112 107.926C141.975 106.262 142.698 106.631 142.82 105.83C142.942 105.029 138.752 103.552 138.752 103.552Z" fill="#FFAFA6"/>
<path d="M142.145 59.0901C145.792 77.3737 144.519 81.6079 143.705 84.7142C142.891 87.8205 136.049 104.72 136.439 105.239C136.829 105.757 140.871 109.549 142.035 108.59C143.198 107.632 149.325 92.0734 150.809 86.3808C152.293 80.6883 152.717 60.2808 152.717 60.2808C152.717 60.2808 152.055 52.5693 147.55 53.2434C143.045 53.9175 142.145 59.0901 142.145 59.0901Z" fill="#143068"/>
<path opacity="0.18" d="M138.827 51.6395C139.062 51.5599 139.986 56.0431 142.34 58.0756C142.982 58.6516 143.731 59.0968 144.544 59.3865C146.96 60.1961 151.228 60.5518 154.419 61.0074C154.151 59.8133 153.954 58.9614 153.096 57.5099C150.667 57.603 146.738 57.4794 145.494 56.9865C144.598 56.625 143.762 56.1305 143.015 55.5198C141.635 54.4155 140.58 53.0419 139.812 51.8885C139.422 51.3007 139.532 50.5995 138.922 50.4065C138.12 50.1558 138.523 51.7394 138.827 51.6395Z" fill="#191939"/>
<path d="M137.806 50.4946C137.849 50.3566 137.919 50.2287 138.013 50.119C138.107 50.0092 138.223 49.9199 138.353 49.8564C138.483 49.7929 138.624 49.7567 138.769 49.7499C138.913 49.7432 139.058 49.766 139.193 49.8171C139.803 50.0119 139.785 50.2761 140.176 50.8638C141.351 52.6304 143.205 54.9118 145.858 55.9619C148.512 57.012 155.741 55.1404 159.546 57.1305C163.351 59.1206 163.583 63.0856 169.17 65.6228C174.757 68.16 181.717 67.4215 183.36 68.1905C185.003 68.9594 185.943 69.625 185.712 70.294C185.481 70.9631 184.311 71.8573 182.967 72.0064C181.622 72.1554 170.759 69.9485 168.046 68.7883C163.619 66.9066 160.809 61.6748 157.919 60.5976C155.028 59.5204 148.329 59.5017 144.909 58.3534C141.095 57.073 139.186 51.7005 138.884 51.8021C138.582 51.9038 138.299 52.002 137.836 51.7412C137.518 51.5701 137.675 50.8757 137.806 50.4946Z" fill="#FFAE00"/>
<path d="M135.385 35.5509C134.595 37.2971 131.422 40.0477 132.641 40.4745C133.86 40.9013 130.968 44.1617 132.248 44.6631C135.349 45.8774 139.663 45.1712 140.607 43.806C141.551 42.4409 142.835 38.1355 142.835 38.1355L135.385 35.5509Z" fill="#FFAFA6"/>
<path d="M138.003 38.4235C136.972 38.1898 136.858 38.4117 136.283 37.8307C135.708 37.2498 137.248 36.7213 136.031 36.0506C134.813 35.3799 133.423 34.7973 133.813 33.2712C134.379 31.0694 136.158 32.0704 137.241 32.7326C137.94 33.1595 138.708 31.5894 140.192 32.194C141.355 32.6666 140.97 33.3068 141.989 33.776C142.604 34.0588 144.22 33.4525 144.941 34.5686C146.277 36.64 144.12 37.8392 145.11 39.8953C146.268 42.2936 140.79 44.5954 140.471 43.9704C140.102 43.2404 141.578 41.7025 141.165 41.0725C140.541 40.124 140.175 40.8133 139.22 41.2317C138.203 41.6805 136.772 41.2317 138.172 40.1562C139.573 39.0807 138.935 38.6352 138.003 38.4235Z" fill="#191939"/>
<path d="M269.781 186.018C281.443 184.621 283.108 180.598 285.271 168.165C286.782 179.97 288.712 184.447 300.567 185.793C290.224 189.158 286.59 190.381 284.747 204.026C282.199 190.21 279.927 188.987 269.781 186.018Z" fill="white"/>
<path d="M66.2638 143.715C76.3099 142.512 77.7444 139.053 79.6095 128.334C80.91 138.496 82.5716 142.361 92.7856 143.521C83.8755 146.421 80.7472 147.473 79.1568 159.227C76.9627 147.324 75.0044 146.27 66.2638 143.715Z" fill="white"/>
<path d="M188.861 195.859C199.115 194.673 200.58 191.25 202.484 180.653C203.812 190.708 205.509 194.521 215.935 195.667C206.84 198.535 203.644 199.576 202.021 211.199C199.782 199.427 197.784 198.382 188.861 195.859Z" fill="white"/>
<path d="M238.342 156.831C243.11 156.336 243.79 154.913 244.675 150.505C245.294 154.688 246.082 156.273 250.93 156.751C246.701 157.937 245.214 158.377 244.461 163.213C243.41 158.316 242.482 157.882 238.342 156.831Z" fill="white"/>
<path d="M189.81 85.6712C194.578 85.175 195.26 83.7522 196.145 79.3435C196.762 83.527 197.55 85.114 202.398 85.5899C198.169 86.784 196.684 87.2176 195.929 92.0531C194.888 87.1549 193.959 86.7213 189.81 85.6712Z" fill="white"/>
</g>
<defs>
<clipPath id="clip0_15_10779">
<rect width="321" height="245" fill="white"/>
</clipPath>
</defs>
</svg>
