<svg width="235" height="191" viewBox="0 0 235 191" fill="none" xmlns="http://www.w3.org/2000/svg">
<path d="M181.252 2.59131H192.533C193.851 2.59131 195.116 3.11497 196.048 4.04708C196.98 4.9792 197.503 6.24342 197.503 7.56163V147.465C197.503 148.783 196.98 150.048 196.048 150.98C195.116 151.912 193.851 152.435 192.533 152.435H181.678C180.36 152.435 179.095 151.912 178.163 150.98C177.231 150.048 176.707 148.783 176.707 147.465V7.13776C176.707 6.54077 176.825 5.9496 177.053 5.39801C177.281 4.84642 177.616 4.34521 178.038 3.92301C178.46 3.50082 178.961 3.16591 179.513 2.93741C180.064 2.70891 180.655 2.59131 181.252 2.59131Z" fill="#143068"/>
<path opacity="0.58" d="M197.503 9.66057V145.366C197.503 147.241 196.758 149.039 195.433 150.365C194.107 151.691 192.309 152.436 190.434 152.437H183.775C182.847 152.438 181.927 152.255 181.069 151.9C180.211 151.545 179.431 151.024 178.775 150.367C178.118 149.711 177.598 148.931 177.243 148.073C176.888 147.214 176.706 146.295 176.707 145.366V9.0562C176.708 7.37774 177.361 5.76515 178.528 4.55943C179.696 3.35372 181.287 2.64942 182.964 2.59546C183.034 2.59546 183.101 2.59546 183.172 2.59546H190.434C190.516 2.59546 190.596 2.59546 190.678 2.59546C192.509 2.6589 194.245 3.431 195.518 4.749C196.791 6.067 197.503 7.82793 197.503 9.66057Z" fill="#32324C"/>
<path d="M234.652 98.5125C234.743 105.475 233.031 111.75 229.516 117.337C226.001 122.924 220.808 127.333 213.938 130.563C207.067 133.795 198.898 135.47 189.429 135.588C178.075 135.733 168.681 133.705 161.248 129.504C156.023 126.536 151.593 122.349 148.335 117.3C145.005 112.192 141.498 108.275 141.435 103.412C141.395 100.583 143.099 96.8362 145.034 94.7892C146.969 92.7423 150.517 91.9575 153.55 91.9178C156.011 91.8905 158.1 92.6411 159.826 94.1931C161.552 95.745 163.024 98.0517 164.269 101.123C165.773 104.775 167.404 107.806 169.127 110.249C170.85 112.691 173.273 114.68 176.387 116.24C179.502 117.8 183.563 118.548 188.581 118.479C195.489 118.392 201.08 116.713 205.355 113.441C209.629 110.17 211.737 106.126 211.679 101.31C211.625 97.4925 210.43 94.3982 208.069 92.0532C205.708 89.7082 202.676 87.9224 198.972 86.7205C195.268 85.5186 190.317 84.236 184.132 82.9042C175.837 81.0747 168.889 78.8992 163.29 76.3778C157.69 73.8564 153.223 70.3815 149.889 65.9531C146.566 61.5202 144.86 55.9815 144.771 49.3371C144.687 43.0035 146.343 37.3568 149.742 32.3969C153.14 27.4371 158.09 23.5912 164.591 20.8592C171.096 18.1336 178.773 16.7148 187.623 16.6026C194.688 16.5179 200.808 17.3187 205.982 19.0051C211.156 20.6915 215.464 22.9668 218.905 25.8309C222.345 28.6869 224.871 31.7032 226.482 34.8801C228.092 38.0569 228.918 41.1608 228.958 44.1917C228.994 46.9661 227.53 54.3211 222.582 56.2942C218.219 58.0334 218.812 57.0517 215.882 57.0859C213.209 57.1159 214.104 54.5453 212.696 53.2245C211.288 51.9036 209.759 49.7432 208.103 46.7295C205.95 42.4133 203.398 39.055 200.446 36.6549C197.494 34.2547 192.766 33.0975 186.261 33.1832C180.245 33.2597 175.409 34.643 171.755 37.3331C168.1 40.0231 166.296 43.2236 166.343 46.9346C166.372 49.2373 167.026 51.2213 168.302 52.873C169.578 54.5248 171.328 55.9455 173.536 57.1269C175.671 58.2701 177.92 59.1866 180.246 59.8616C182.501 60.5115 186.228 61.4596 191.426 62.7057C197.931 64.1405 203.825 65.7403 209.107 67.5051C214.388 69.2699 218.892 71.4381 222.618 74.0096C226.288 76.5226 229.292 79.8917 231.369 83.8258C233.48 87.8121 234.574 92.7077 234.652 98.5125Z" fill="#143068"/>
<g opacity="0.58">
<path d="M234.652 98.5125C234.743 105.475 233.031 111.75 229.516 117.337C226.001 122.924 220.808 127.333 213.938 130.563C207.067 133.795 198.898 135.47 189.429 135.588C178.075 135.733 168.681 133.705 161.248 129.504C156.023 126.536 151.593 122.349 148.335 117.3C145.005 112.192 141.498 108.275 141.435 103.412C141.395 100.583 143.099 96.8362 145.034 94.7892C146.969 92.7423 150.517 91.9575 153.55 91.9178C156.011 91.8905 158.1 92.6411 159.826 94.1931C161.552 95.745 163.024 98.0517 164.269 101.123C165.773 104.775 167.404 107.806 169.127 110.249C170.85 112.691 173.273 114.68 176.387 116.24C179.502 117.8 183.563 118.548 188.581 118.479C195.489 118.392 201.08 116.713 205.355 113.441C209.629 110.17 211.737 106.126 211.679 101.31C211.625 97.4925 210.43 94.3982 208.069 92.0532C205.708 89.7082 202.676 87.9224 198.972 86.7205C195.268 85.5186 190.317 84.236 184.132 82.9042C175.837 81.0747 168.889 78.8992 163.29 76.3778C157.69 73.8564 153.223 70.3815 149.889 65.9531C146.566 61.5202 144.86 55.9815 144.771 49.3371C144.687 43.0035 146.343 37.3568 149.742 32.3969C153.14 27.4371 158.09 23.5912 164.591 20.8592C171.096 18.1336 178.773 16.7148 187.623 16.6026C194.688 16.5179 200.808 17.3187 205.982 19.0051C211.156 20.6915 215.464 22.9668 218.905 25.8309C222.345 28.6869 224.871 31.7032 226.482 34.8801C228.092 38.0569 228.918 41.1608 228.958 44.1917C228.994 46.9661 227.53 54.3211 222.582 56.2942C218.219 58.0334 218.812 57.0517 215.882 57.0859C213.209 57.1159 214.104 54.5453 212.696 53.2245C211.288 51.9036 209.759 49.7432 208.103 46.7295C205.95 42.4133 203.398 39.055 200.446 36.6549C197.494 34.2547 192.766 33.0975 186.261 33.1832C180.245 33.2597 175.409 34.643 171.755 37.3331C168.1 40.0231 166.296 43.2236 166.343 46.9346C166.372 49.2373 167.026 51.2213 168.302 52.873C169.578 54.5248 171.328 55.9455 173.536 57.1269C175.671 58.2701 177.92 59.1866 180.246 59.8616C182.501 60.5115 186.228 61.4596 191.426 62.7057C197.931 64.1405 203.825 65.7403 209.107 67.5051C214.388 69.2699 218.892 71.4381 222.618 74.0096C226.288 76.5226 229.292 79.8917 231.369 83.8258C233.48 87.8121 234.574 92.7077 234.652 98.5125Z" fill="#32324C"/>
</g>
<path d="M232.841 101.478C232.922 107.661 231.581 113.301 228.818 118.398C228.47 119.042 228.099 119.677 227.705 120.301C224.194 125.895 219.002 130.304 212.129 133.528C206.581 136.137 200.188 137.733 192.951 138.313C191.842 138.404 190.714 138.47 189.566 138.509C188.925 138.532 188.274 138.549 187.619 138.555C176.264 138.7 166.871 136.672 159.439 132.471C154.214 129.503 149.783 125.317 146.526 120.267C143.195 115.162 141.498 110.173 141.435 105.3C141.435 104.92 141.448 104.547 141.473 104.181C141.669 101.824 142.607 99.7677 144.283 97.9956C146.222 95.9609 148.708 94.924 151.739 94.8848C154.201 94.8575 156.291 95.6095 158.016 97.1601C159.74 98.7107 161.214 101.019 162.458 104.091C163.962 107.741 165.593 110.773 167.318 113.216C169.042 115.658 171.463 117.646 174.577 119.209C177.69 120.772 181.754 121.515 186.772 121.446C193.679 121.355 199.27 119.675 203.546 116.408C205.929 114.585 207.639 112.523 208.676 110.221C209.507 108.352 209.914 106.322 209.868 104.277C209.816 100.46 208.621 97.3652 206.259 95.0202C203.896 92.6752 200.866 90.8894 197.162 89.6875C193.457 88.4856 188.506 87.2017 182.323 85.8726C174.028 84.0413 167.08 81.8649 161.479 79.3435C155.878 76.8221 151.412 73.3477 148.079 68.9202C144.754 64.4872 143.047 58.9485 142.96 52.3041C142.875 45.9724 144.532 40.3256 147.93 35.364L148.052 35.1903C151.44 30.3134 156.35 26.525 162.781 23.8249C169.284 21.1011 176.961 19.6827 185.811 19.5697C192.878 19.4849 198.997 20.2857 204.171 21.9721C209.344 23.6585 213.651 25.9338 217.093 28.7979C220.534 31.6557 223.059 34.6721 224.67 37.8471C226.281 41.0221 227.106 44.126 227.146 47.1588C227.182 49.9318 226.231 52.4418 224.294 54.6888C223.784 55.2859 223.209 55.8247 222.581 56.2954C220.981 57.4805 219.118 58.088 216.994 58.1181C214.319 58.1482 212.295 57.5124 210.882 56.1915C209.468 54.8706 207.946 52.7102 206.289 49.6966C204.135 45.3785 201.583 42.0203 198.631 39.6219C195.68 37.2236 190.953 36.0677 184.452 36.1543C178.436 36.2309 173.6 37.6137 169.946 40.3029C168.892 41.0652 167.933 41.9517 167.091 42.9432C165.359 45.0198 164.506 47.3393 164.534 49.9017C164.562 52.2043 165.217 54.1897 166.493 55.8415C167.769 57.4932 169.519 58.9139 171.727 60.0953C173.862 61.2416 176.112 62.1605 178.438 62.8368C180.692 63.4863 184.426 64.4366 189.616 65.6809C196.122 67.1157 202.017 68.7155 207.299 70.4803C212.582 72.2451 217.085 74.4133 220.81 76.9848C224.481 79.4978 227.484 82.867 229.561 86.8011C231.67 90.781 232.764 95.6733 232.841 101.478Z" fill="#143068"/>
<g opacity="0.75">
<path d="M212.502 82.8345C210.387 81.2238 207.579 79.5829 205.151 79.5118" stroke="white" stroke-width="2" stroke-miterlimit="10" stroke-linecap="round"/>
<path d="M210.19 122.797C213.943 120.826 224.078 114.397 224.426 102.378C224.611 96.0336 221.712 89.9024 216.906 85.8331" stroke="white" stroke-width="2" stroke-miterlimit="10" stroke-linecap="round"/>
</g>
<path d="M195.124 8.73902V145.05C195.124 145.979 194.941 146.898 194.586 147.755C194.23 148.613 193.71 149.392 193.053 150.048C192.397 150.704 191.618 151.224 190.76 151.579C189.902 151.934 188.983 152.117 188.055 152.117H181.399C180.471 152.117 179.552 151.934 178.694 151.579C177.836 151.224 177.057 150.704 176.401 150.048C175.744 149.392 175.223 148.613 174.868 147.755C174.513 146.898 174.33 145.979 174.33 145.05V8.73902C174.329 7.89022 174.496 7.0497 174.821 6.26544C175.146 5.48119 175.622 4.76856 176.222 4.16824C176.822 3.56793 177.534 3.09168 178.318 2.76669C179.102 2.44171 179.943 2.27435 180.792 2.27417H188.659C189.509 2.27363 190.349 2.44049 191.134 2.7652C191.918 3.08992 192.631 3.56612 193.232 4.16656C193.832 4.767 194.308 5.4799 194.632 6.26449C194.957 7.04908 195.124 7.88995 195.123 8.73902H195.124Z" fill="#143068"/>
<path d="M211.83 23.7743C206.971 22.9963 206.283 20.8031 205.404 14.0073C204.753 20.4503 203.941 22.8951 198.994 23.6102C203.301 25.463 204.815 26.1344 205.557 33.5851C206.647 26.0441 207.592 25.381 211.83 23.7743Z" fill="white"/>
<path d="M161.861 108.634C157.592 107.95 156.987 106.023 156.215 100.053C155.643 105.713 154.93 107.857 150.584 108.489C154.368 110.116 155.697 110.705 156.352 117.251C157.306 110.627 158.14 110.045 161.861 108.634Z" fill="white"/>
<path d="M25.9417 176.397C31.2347 179.268 81.2962 174.191 86.1489 171.324C91.0017 168.457 64.0949 135.817 64.0949 135.817L37.4096 149.716L25.9417 176.397Z" fill="white"/>
<path d="M160.474 54.527C161.438 51.6481 159.912 48.5426 157.067 47.5906C154.222 46.6386 151.134 48.2006 150.171 51.0795C149.208 53.9584 150.733 57.064 153.579 58.016C156.424 58.968 159.511 57.4059 160.474 54.527Z" fill="#3C3C49"/>
<path d="M161.424 54.1378C162.396 51.2538 160.873 48.1376 158.022 47.1775C155.172 46.2174 152.074 47.777 151.102 50.661C150.131 53.545 151.654 56.6612 154.504 57.6213C157.355 58.5814 160.453 57.0218 161.424 54.1378Z" fill="white"/>
<path opacity="0.27" d="M156.035 55.6285C157.547 55.185 158.413 53.6002 157.969 52.0886C157.526 50.577 155.941 49.7111 154.429 50.1546C152.918 50.598 152.052 52.1829 152.495 53.6945C152.939 55.2061 154.524 56.0719 156.035 55.6285Z" fill="#3C3C49"/>
<path d="M150.436 47.8794C149.889 47.811 149.516 48.7135 149.497 49.1319C149.493 49.1701 149.493 49.2086 149.497 49.2468C149.565 49.579 152.338 50.8247 152.831 51.1884C152.831 51.1884 153.581 50.0685 153.743 49.8593C153.796 49.791 153.521 49.5613 153.105 49.2823C152.267 48.7108 150.847 47.9314 150.436 47.8794Z" fill="#D7D7DD"/>
<path d="M150.436 47.8794C149.889 47.811 149.516 48.7135 149.497 49.1319C149.493 49.1701 149.493 49.2086 149.497 49.2468C149.565 49.579 152.338 50.8247 152.831 51.1884C152.831 51.1884 153.581 50.0685 153.743 49.8593C153.796 49.791 153.521 49.5613 153.105 49.2823C152.267 48.7108 150.847 47.9314 150.436 47.8794Z" fill="#D7D7DD"/>
<path opacity="0.22" d="M150.436 47.8794C149.889 47.811 149.516 48.7135 149.497 49.1319C150.446 47.9491 151.77 48.9077 152.885 49.5913L153.112 49.2823C152.267 48.7108 150.847 47.9314 150.436 47.8794Z" fill="#3C3C49"/>
<path d="M156.958 54.8648C158.965 54.2192 160.069 52.0687 159.423 50.0615C158.778 48.0544 156.627 46.9506 154.62 47.5962C152.613 48.2418 151.509 50.3923 152.155 52.3994C152.8 54.4066 154.951 55.5103 156.958 54.8648Z" fill="#E5E5E5"/>
<path d="M155.791 47.9723C156.477 47.9722 157.146 48.1896 157.7 48.5933C158.255 48.9971 158.668 49.5664 158.878 50.2193C159.089 50.8723 159.087 51.5753 158.873 52.2272C158.659 52.8791 158.244 53.4464 157.687 53.8474C157.131 54.2484 156.461 54.4626 155.775 54.459C155.089 54.4555 154.422 54.2344 153.869 53.8276C153.316 53.4209 152.907 52.8493 152.7 52.1953C152.493 51.5412 152.498 50.8382 152.716 50.1874C152.928 49.5406 153.341 48.9778 153.893 48.5798C154.446 48.1819 155.11 47.9692 155.791 47.9723ZM155.791 47.5621C154.872 47.5611 153.987 47.906 153.311 48.5282C152.635 49.1503 152.218 50.0041 152.143 50.9198C152.068 51.8354 152.34 52.7457 152.906 53.4696C153.471 54.1935 154.289 54.678 155.195 54.8266C156.102 54.9752 157.031 54.7771 157.799 54.2716C158.566 53.7662 159.114 52.9904 159.336 52.0988C159.557 51.2071 159.434 50.2648 158.992 49.4594C158.55 48.654 157.821 48.0445 156.95 47.7522C156.577 47.6267 156.185 47.5626 155.791 47.5621Z" fill="#3C3C49"/>
<path opacity="0.22" d="M158.962 49.9168C157.194 50.0111 156.401 50.7508 156.152 50.9874C155.903 51.2239 155.392 51.1775 155.43 50.6879C155.449 50.4418 156.387 49.2632 155.252 47.7618C156.491 47.6743 156.677 47.7618 157.347 48.2117C158.017 48.6615 158.181 48.6834 158.342 48.8871C158.576 49.2133 158.783 49.5576 158.962 49.9168Z" fill="#3C3C49"/>
<path d="M155.598 50.8412C155.517 50.8138 155.429 50.8113 155.346 50.8338C155.264 50.8563 155.189 50.9029 155.133 50.9677C155.077 51.0324 155.041 51.1124 155.03 51.1976C155.019 51.2827 155.034 51.3691 155.072 51.4459C155.111 51.5227 155.171 51.5863 155.246 51.6288C155.32 51.6712 155.406 51.6906 155.491 51.6844C155.577 51.6782 155.659 51.6467 155.727 51.594C155.794 51.5413 155.845 51.4696 155.872 51.3881C155.908 51.2793 155.899 51.1607 155.848 51.0582C155.797 50.9557 155.707 50.8777 155.598 50.8412Z" fill="#3C3C49"/>
<path d="M34.3563 139.357C34.4931 141.134 34.6777 143.079 34.9293 145.202C35.8673 153.167 37.8458 180.031 37.3632 197.096C36.8791 214.077 38.3832 253.801 38.3832 259.886C43.5395 262.146 46.7336 261.442 54.1078 259.886C54.1078 259.886 55.4163 227.109 56.8698 198.414C58.0485 175.116 58.3876 177.451 62.6674 147.784C62.7166 147.92 63.7613 150.811 65.279 155.258C68.5279 164.75 73.9562 181.334 76.5597 193.341C80.6166 212.074 78.5 260.905 80.1969 262.589C85.2561 265.569 93.8198 265.859 96.106 261.72C96.106 261.72 97.0754 201.333 95.2746 191.875C94.055 185.449 83.7561 122.425 81.4644 105.496C81.4644 105.496 36.1011 95.6041 34.7105 111.102C34.5368 113.021 34.4633 114.949 34.4903 116.876C34.5273 119.283 34.3933 121.511 34.2634 123.958C34.0419 127.956 33.8313 132.519 34.3563 139.357Z" fill="#143068"/>
<path opacity="0.46" d="M58.6679 139.265C58.6687 139.273 58.6687 139.282 58.6679 139.29C58.7119 139.264 58.7544 139.236 58.7951 139.205C58.7513 139.222 58.7088 139.242 58.6679 139.265Z" fill="#1F1F3B"/>
<path opacity="0.54" d="M62.6619 147.784C62.7112 147.92 64.7048 153.527 66.217 157.98L64.4395 140.05C64.4395 140.05 64.5092 141.127 62.6619 147.784Z" fill="#1F1F3B"/>
<path opacity="0.5" d="M35.267 147.185C35.4652 147.141 43.0158 145.312 46.3576 141.867C50.3639 137.741 47.0495 127.783 48.7381 121.767C48.7381 121.767 39.1174 123.446 34.2538 123.967C34.0418 127.956 34.8007 144.598 35.267 147.185Z" fill="#1F1F3B"/>
<path d="M136.565 54.2568C146.534 50.8384 150.775 54.0394 151.742 52.6037C152.828 50.9874 145.823 48.3184 148.324 47.4843C152.23 46.1812 152.165 50.8712 154.897 49.2113C161.077 45.4538 149.2 39.6398 143.548 41.9643C140.375 43.2674 136.327 46.4342 131.206 46.3015C126.085 46.1689 136.565 54.2568 136.565 54.2568Z" fill="#E8A49E"/>
<path d="M54.6821 43.6488L45.5304 42.533C44.8385 38.5404 47.8385 29.4776 47.926 25.7939C48.0231 21.7534 52.3261 17.3888 52.3261 17.3888L56.5321 25.195L56.5034 25.4575L56.4514 25.9156C56.4514 25.9156 56.6647 29.8714 57.492 33.0942C57.7655 34.1607 58.1046 35.1452 58.5271 35.8836C59.4979 37.5764 59.4842 40.3029 61.8224 42.7655C63.574 44.6101 54.6821 43.6488 54.6821 43.6488Z" fill="#EFAEA6"/>
<path opacity="0.11" d="M57.492 33.0983C52.8198 35.3791 49.4246 30.1298 50.5185 28.4739C51.2309 27.3801 54.0244 24.6604 54.0244 24.6604L56.4993 25.4589L56.4474 25.917C56.4474 25.917 56.6648 29.8728 57.492 33.0983Z" fill="#1F1F3B"/>
<path d="M57.5932 13.2472C61.3657 20.7868 64.806 20.8223 62.2627 22.1596C60.3033 23.1906 65.692 28.4713 63.5617 29.4818C58.3986 31.9321 50.8303 30.8669 49.0171 28.5246C47.204 26.1823 45.1434 18.5429 45.1434 18.5429L57.5932 13.2472Z" fill="#EFAEA6"/>
<path d="M52.765 19.0064C54.503 18.4936 54.7299 18.8792 55.6365 17.7935C56.543 16.7079 53.8247 15.9052 55.8238 14.5967C57.8229 13.2881 60.1323 12.1231 59.2504 9.44311C57.9719 5.56667 54.1283 6.18608 52.3562 7.46592C51.2172 8.28633 50.6019 6.9012 48.1366 8.11404C46.2031 9.07119 46.9511 10.1651 45.2651 11.1003C44.2464 11.661 41.3859 10.7312 40.303 12.7863C38.293 16.5971 42.1667 18.5292 40.746 22.2853C39.0888 26.6608 48.8134 29.7893 49.2783 28.6462C49.8129 27.3117 46.2332 25.5369 47.6935 24.0164C49.0691 22.5847 49.3576 23.4612 51.06 24.1203C52.8772 24.8231 55.2673 23.8783 52.7103 22.1062C50.1534 20.3341 51.1912 19.4713 52.765 19.0064Z" fill="#1F1F3B"/>
<path d="M46.426 34.3508C50.1493 32.71 51.5085 39.0654 55.4711 38.7783C57.5645 38.6279 56.9751 37.7952 57.7955 36.6945C58.3069 36.0108 58.7705 35.271 59.8698 36.1024C82.2233 52.9878 69.7148 106.063 72.7134 109.178C75.1609 111.725 59.7522 120.449 49.0965 119.51C34.4849 118.221 33.0123 102.79 32.9808 99.8046C32.9494 96.8197 34.4453 45.7641 34.4453 45.7641C34.4453 45.7641 41.0004 40.9018 46.426 34.3508Z" fill="#83BFD1"/>
<path d="M134.791 44.7811C133.107 45.3704 107.958 54.9336 101.565 54.4223C92.1298 53.6661 75.3865 39.5181 59.8726 36.0997C59.8726 36.0997 59.8985 39.4921 62.3338 47.9779C65.5566 59.1902 63.5384 90.1977 66.9541 103.841C71.3734 121.48 74.0506 166.251 77.9312 169.665C79.7457 171.263 92.4347 172.523 94.7496 166.694C96.2236 162.97 79.5118 88.2451 78.0679 82.8659C77.5018 80.7711 76.0948 67.9727 78.5 65.7439C80.8054 63.6081 95.045 69.8938 103.271 68.9627C109.812 68.2216 138.569 56.0357 139.628 54.6615C140.702 53.2627 137.65 43.7774 134.791 44.7811Z" fill="white"/>
<path d="M52.6884 75.0487C53.2354 82.7674 52.0526 94.1917 51.1392 100.599C49.4984 112.148 53.971 163.482 50.1999 168.902C45.6493 175.438 32.6868 179.315 25.9417 176.401C22.325 174.841 29.6444 112.503 30.4977 101.262C30.5278 100.857 30.5574 100.456 30.5865 100.058C30.9202 95.4086 31.0884 91.297 30.659 88.792C30.3732 87.1293 30.1121 85.7592 29.8796 84.5532C29.8195 84.2483 29.7607 83.9529 29.7032 83.6644C29.5665 82.9424 29.4298 82.2724 29.293 81.6134C28.8309 79.3149 28.4289 77.2132 27.9804 73.8195C27.7616 72.1554 27.5305 70.1823 27.2735 67.7238C26.4982 60.2293 27.0711 49.7267 29.9138 45.6916C36.6754 36.0901 46.426 34.3577 46.426 34.3577C47.487 38.8781 51.5153 58.6213 52.6884 75.0487Z" fill="white"/>
<path opacity="0.1" d="M34.9745 74.3636C34.9745 74.3636 37.1403 92.2883 30.4909 100.931C30.8245 96.2823 30.9927 92.1707 30.5634 89.6657C30.2776 88.0016 30.0164 86.6315 29.784 85.4269C29.7238 85.1215 29.665 84.8257 29.6076 84.5395L34.9745 74.3636Z" fill="#1F1F3B"/>
<path d="M41.1275 114.066C44.5896 117.709 49.5613 139.909 44.7318 141.565C39.9023 143.221 7.86526 152.954 5.63375 150.28C3.58272 147.819 -1.966 126.26 0.719479 123.754C3.40496 121.247 38.3969 111.193 41.1275 114.066Z" fill="#83BFD1"/>
<path d="M40.8649 127.942C41.7004 133.045 44.256 132.628 46.5477 132.249C47.6415 132.097 47.8316 130.198 46.3221 130.358C44.1343 130.596 43.9032 130.313 42.7984 126.623C41.6156 122.674 41.9616 121.736 44.457 121.027C45.7614 120.655 45.2336 118.609 44.0181 118.946C42.8025 119.284 44.0181 118.946 44.0181 118.946C38.4748 120.074 39.9625 122.421 40.8649 127.942Z" fill="#1F1F3B"/>
<path d="M26.8537 130.18C27.3008 133.201 29.9644 139.16 31.2538 139.913C34.1253 141.591 35.3559 141.815 34.9074 143.381C34.4589 144.946 30.7684 143.605 31.3277 144.501C31.8869 145.396 33.1175 147.744 30.3213 148.863C27.5251 149.981 19.5903 152.007 20.1414 145.395C20.8127 137.34 17.568 136.109 17.0088 132.195C16.4823 128.503 26.8537 130.18 26.8537 130.18Z" fill="#EFAEA6"/>
<path d="M43.0568 54.7025C26.8578 93.3986 26.3669 88.9752 25.3031 94.7659C23.9959 101.876 28.2949 131.429 28.7803 132.915C29.2657 134.401 18.1478 138.271 16.9281 136.898C15.7084 135.525 10.2636 101.147 9.87255 93.4888C9.43773 85.0577 27.7438 49.2509 29.9945 45.6643C32.2452 42.0777 43.8431 38.9164 44.5814 44.606C45.3198 50.2955 43.0568 54.7025 43.0568 54.7025Z" fill="white"/>
<path d="M49.4601 24.6864C50.1083 27.3815 59.0056 46.6201 65.9873 44.6115C72.969 42.6028 59.4459 29.036 59.4459 29.036" stroke="white" stroke-width="2" stroke-miterlimit="10"/>
<path d="M53.6005 33.6823C55.3493 36.8395 61.1797 45.8941 66.2786 44.6115C71.8847 43.2031 62.0685 31.8213 62.0685 31.8213" stroke="#3B3B4D" stroke-width="2" stroke-linecap="round" stroke-linejoin="round"/>
<path d="M49.5039 26.5829C50.2395 26.5829 50.8357 25.9995 50.8357 25.2798C50.8357 24.5601 50.2395 23.9767 49.5039 23.9767C48.7684 23.9767 48.1721 24.5601 48.1721 25.2798C48.1721 25.9995 48.7684 26.5829 49.5039 26.5829Z" fill="white"/>
<path d="M58.0526 28.5861C58.0526 28.5861 59.2134 30.6836 59.4295 30.6754C60.7736 30.6262 63.0885 29.7183 63.3634 29.5583C63.6382 29.3983 62.975 27.8423 62.975 27.8423L60.738 26.7361L58.0526 28.5861Z" fill="#EFAEA6"/>
<path d="M66.4727 44.9027C69.9143 49.5845 81.2401 63.7722 92.9994 64.4559C104.759 65.1395 117.325 53.2148 126.636 49.5886C134.607 46.4834 141.246 43.2072 150.565 48.8421" stroke="#3B3B4D" stroke-width="2" stroke-linecap="round" stroke-linejoin="round"/>
<path d="M150.495 49.9633C150.495 49.9633 149.41 49.4642 149.483 49.0636C149.557 48.663 149.88 47.5239 150.577 47.7359C151.275 47.9478 152.099 48.6424 152.27 48.7723C152.441 48.9022 152.634 49.0636 152.634 49.0636C152.436 49.3879 152.268 49.7293 152.132 50.0836C152.059 50.2818 152.013 50.4887 151.995 50.6989C151.995 50.6989 150.972 50.2382 150.495 49.9633Z" fill="#D7D7DD"/>
<path d="M55.9346 12.4664C52.9934 15.223 47.3708 19.7435 41.0113 20.3328" stroke="white" stroke-width="2" stroke-linecap="round" stroke-linejoin="round"/>
<path d="M62.2399 15.5446C64.3717 14.2336 64.2867 10.2224 62.0501 6.58541C59.8134 2.94839 56.2721 1.06275 54.1403 2.37372C52.0085 3.68468 52.0936 7.69583 54.3302 11.3329C56.5668 14.9699 60.1081 16.8555 62.2399 15.5446Z" fill="white"/>
<path d="M59.0871 12.8078C59.7477 12.4015 59.6704 11.0757 58.9145 9.84639C58.1585 8.61711 57.0101 7.94992 56.3495 8.35619C55.6889 8.76246 55.7661 10.0883 56.5221 11.3176C57.2781 12.5469 58.4264 13.2141 59.0871 12.8078Z" fill="#9F9FA5"/>
</svg>
