<svg width="250" height="180" viewBox="0 0 250 180" fill="none" xmlns="http://www.w3.org/2000/svg">
<path d="M82.7525 124.744C75.9424 124.732 69.7809 124.559 64.216 124.264L63.5496 124.229C25.2095 122.124 15.4153 114.273 15.4153 114.273C9.57751 84.6669 4.56661 57.1344 2.55347 35.633C2.29109 32.8446 2.08173 30.16 1.9254 27.5791C1.21504 15.8198 1.65113 6.35481 3.68483 0C13.7683 7.21053 57.6061 22.2953 57.6061 22.2953C57.1467 36.2652 64.1324 66.1976 71.1701 90.5609C71.4106 91.3919 71.6506 92.2148 71.8901 93.0293C76.1179 107.445 80.2745 119.574 82.7525 124.744Z" fill="#AFAEAE"/>
<path d="M93.3122 117.988C86.5268 118.564 80.3735 118.926 74.799 119.114L74.1325 119.136C35.7527 120.356 25.3195 113.376 25.3195 113.376C16.9461 84.394 9.57234 57.4018 5.70103 36.1459C5.19912 33.3895 4.75846 30.7327 4.37905 28.1756C2.6539 16.5192 2.26718 7.05693 3.74412 0.548523C14.4118 6.86357 59.3906 18.1017 59.3906 18.1017C60.1421 32.0593 69.6921 61.2744 78.8116 84.937C79.1224 85.7452 79.4333 86.5456 79.7441 87.3382C85.2062 101.327 90.3967 113.051 93.3122 117.988Z" fill="#C1C1C1"/>
<path d="M100.65 111.872C93.9141 112.871 87.7952 113.617 82.2495 114.153L81.5844 114.217C43.3581 117.837 32.508 111.53 32.508 111.53C22.3326 83.1213 13.2831 56.6392 8.09808 35.6769C7.42429 32.9588 6.81815 30.335 6.27967 27.8053C3.82908 16.286 2.85131 6.8594 3.91822 0.272827C14.9603 5.90769 60.5548 14.3072 60.5548 14.3072C62.1785 28.1893 73.5373 56.7503 84.12 79.7958C84.4811 80.582 84.8413 81.3591 85.2006 82.1271C91.5184 95.7514 97.4316 107.127 100.65 111.872Z" fill="#DBDBDB"/>
<path d="M107.191 105.871C100.532 107.293 94.4722 108.421 88.9689 109.299L88.3107 109.405C50.3875 115.421 39.1617 109.808 39.1617 109.808C27.22 82.0956 16.5235 56.2348 10.0275 35.6413C9.18545 32.9699 8.41567 30.389 7.71811 27.8986C4.54756 16.559 2.98012 7.21053 3.63013 0.574585C15.0123 5.5032 61.036 11.0201 61.036 11.0201C63.5291 24.7734 76.6611 52.5637 88.6714 74.8988C89.0809 75.6612 89.4896 76.4164 89.8973 77.1642C97.064 90.3566 103.681 101.338 107.191 105.871Z" fill="#EAEAEA"/>
<path d="M113.537 99.0619C106.976 100.888 100.997 102.386 95.5598 103.604L94.9084 103.749C57.4226 112.07 45.8814 107.154 45.8814 107.154C32.2639 80.2237 20.0068 55.0705 12.2642 34.9117C11.2586 32.2961 10.3325 29.7673 9.48588 27.3254C5.62829 16.1942 3.49311 6.96365 3.73583 0.2948C15.3923 4.52129 61.6738 7.21461 61.6738 7.21461C65.0021 20.7909 79.8071 47.7255 93.1599 69.2858C93.617 70.0172 94.0705 70.7458 94.5203 71.4717C102.481 84.1965 109.756 94.7531 113.537 99.0619Z" fill="white"/>
<path opacity="0.03" d="M94.9084 103.753C57.4227 112.07 45.8814 107.154 45.8814 107.154C32.264 80.2237 20.0069 55.0705 12.2643 34.9117C33.623 62.5662 67.5761 93.6464 94.9084 103.753Z" fill="#1F1F39"/>
<path d="M21.5359 26.216C21.3864 26.216 21.2095 26.1995 21.0052 26.1831C20.7903 26.1638 20.5766 26.1336 20.3648 26.0926C20.1426 26.0501 19.9205 25.9993 19.6997 25.939C19.4832 25.8813 19.2735 25.8004 19.0743 25.6976C18.8152 25.5708 18.5903 25.3835 18.4187 25.1515C18.2471 24.9195 18.1338 24.6496 18.0884 24.3647L16.4126 15.9679C16.3579 15.7762 16.3705 15.5715 16.4482 15.3878C16.5276 15.2472 16.6496 15.1353 16.7965 15.0683C17.1299 14.9149 17.487 14.8194 17.8525 14.7858C18.3052 14.7318 18.7613 14.7121 19.217 14.7269C20.3406 14.7589 21.2548 15.0414 21.9597 15.5743C22.6645 16.1073 23.1267 16.9132 23.3461 17.992C23.4571 18.45 23.4347 18.9301 23.2816 19.3757C23.1476 19.7372 22.878 20.0323 22.5301 20.1985C23.0314 20.4005 23.4728 20.7271 23.8123 21.1475C24.2106 21.6332 24.4774 22.2131 24.5871 22.8315C24.8249 24.02 24.6772 24.8885 24.1442 25.4371C23.6112 25.9856 22.7418 26.2452 21.5359 26.216ZM19.2979 19.2688L20.2578 19.2962C20.6349 19.3072 20.8914 19.2194 21.023 19.0329C21.1547 18.8464 21.1862 18.5666 21.1122 18.195C21.058 17.8896 20.8983 17.613 20.661 17.4133C20.3906 17.2039 20.0567 17.0936 19.7148 17.1007C19.5776 17.1007 19.4336 17.1007 19.2636 17.1007C19.1324 17.1044 19.0017 17.1186 18.8728 17.1432L19.2979 19.2688ZM20.1728 23.6571C20.3324 23.7152 20.4988 23.753 20.6679 23.7695C20.864 23.7928 21.0505 23.8079 21.226 23.8134C21.3736 23.8268 21.5223 23.8093 21.6628 23.7621C21.8033 23.7149 21.9324 23.6389 22.0419 23.5391C22.2353 23.3471 22.2901 23.0427 22.2065 22.6231C22.127 22.2272 21.9743 21.9429 21.7485 21.7701C21.4741 21.5831 21.1479 21.4872 20.8159 21.4958L19.7353 21.4657L20.1728 23.6571Z" fill="#EF8D42"/>
<path d="M28.8242 26.0679C28.6838 26.1139 28.539 26.1456 28.3922 26.1625C28.193 26.1927 27.9916 26.2051 27.7902 26.1996C27.6048 26.1968 27.4205 26.1705 27.2417 26.1214C27.0814 26.0761 26.9333 25.9955 26.8083 25.8855C26.6689 25.7577 26.5577 25.6022 26.4819 25.4289C26.3755 25.1865 26.2982 24.9324 26.2516 24.6719L24.3605 15.178C24.4524 15.1575 24.5991 15.1287 24.802 15.093C24.9975 15.0578 25.196 15.0427 25.3945 15.0478C25.5799 15.0505 25.7642 15.0768 25.943 15.1259C26.1033 15.1712 26.2513 15.2518 26.3764 15.3618C26.516 15.4898 26.6276 15.6453 26.7041 15.8185C26.81 16.0609 26.8869 16.315 26.9331 16.5754L28.8242 26.0679Z" fill="#EF8D42"/>
<path d="M31.7866 26.2791C31.5984 26.2729 31.4135 26.2274 31.244 26.1454C31.0744 26.0635 30.9238 25.9469 30.802 25.8033C30.5008 25.4525 30.3025 25.0254 30.2288 24.5691L28.3734 15.2741C28.4652 15.2521 28.612 15.2247 28.8149 15.1877C29.0108 15.1525 29.2098 15.1374 29.4087 15.1424C29.5941 15.1458 29.7783 15.1721 29.9573 15.2206C30.1171 15.2667 30.265 15.3472 30.3906 15.4565C30.5297 15.5845 30.6408 15.74 30.717 15.9131C30.8229 16.1555 30.8998 16.4096 30.946 16.6701L32.364 23.7723L35.3809 23.8587C35.4872 24.0294 35.579 24.2088 35.6552 24.3949C35.7525 24.6177 35.8256 24.8504 35.8732 25.0888C35.9647 25.5688 35.9573 25.9052 35.8513 26.0981C35.7986 26.1907 35.7201 26.2659 35.6254 26.3146C35.5306 26.3633 35.4238 26.3834 35.3178 26.3724L31.7866 26.2791Z" fill="#EF8D42"/>
<path d="M38.5434 26.4738C38.3549 26.4678 38.1698 26.4224 37.9999 26.3404C37.8301 26.2585 37.6793 26.1418 37.5574 25.9979C37.2567 25.6469 37.0584 25.2199 36.9842 24.7637L35.1301 15.4715C35.222 15.4495 35.3687 15.4221 35.5703 15.3851C35.7662 15.3499 35.9652 15.3348 36.1641 15.3398C36.3494 15.344 36.5336 15.3702 36.7127 15.418C36.8727 15.4638 37.0206 15.5444 37.146 15.6538C37.2855 15.7816 37.3966 15.9372 37.4724 16.1105C37.5796 16.353 37.657 16.6077 37.7028 16.8689L39.1194 23.9697L42.1363 24.0575C42.2424 24.2278 42.3342 24.4067 42.4106 24.5923C42.5066 24.8155 42.5793 25.048 42.6273 25.2862C42.7233 25.7661 42.7164 26.1026 42.6067 26.2955C42.554 26.3881 42.4755 26.4633 42.3808 26.512C42.2861 26.5607 42.1792 26.5808 42.0732 26.5698L38.5434 26.4738Z" fill="#EF8D42"/>
<path d="M45.47 22.3118C45.0485 22.1216 44.6609 21.9287 44.3071 21.733C43.9612 21.5428 43.6417 21.3082 43.3567 21.035C43.068 20.7543 42.8247 20.4305 42.6354 20.0751C42.4163 19.6519 42.2615 19.1985 42.176 18.7298C41.973 17.7113 42.0983 16.9045 42.5517 16.3094C43.0052 15.7142 43.7494 15.4322 44.7843 15.4633C45.1464 15.4719 45.5067 15.5179 45.8594 15.6004C46.177 15.6728 46.4817 15.793 46.7631 15.9569C47.02 16.1088 47.2446 16.3096 47.4241 16.548C47.6051 16.7914 47.7284 17.0727 47.7848 17.3708C47.8469 17.6323 47.8469 17.9047 47.7848 18.1662C47.7313 18.3677 47.638 18.5566 47.5105 18.7216C47.2456 18.5268 46.9542 18.3707 46.6452 18.2581C46.2924 18.1225 45.9191 18.0483 45.5413 18.0386C45.1463 18.0277 44.872 18.0944 44.7185 18.2389C44.643 18.3082 44.5879 18.3968 44.5591 18.4952C44.5303 18.5936 44.529 18.6979 44.5553 18.797C44.5877 18.971 44.6793 19.1284 44.8144 19.2427C44.9883 19.3814 45.1826 19.4925 45.3904 19.5718L46.1488 19.8982C46.9626 20.2277 47.7025 20.7163 48.3251 21.3354C48.88 21.904 49.253 22.6683 49.4441 23.6282C49.6471 24.6467 49.5177 25.4622 49.056 26.0747C48.5943 26.6873 47.7921 26.9771 46.6493 26.9442C46.2596 26.9344 45.8724 26.8782 45.496 26.7768C45.1482 26.6845 44.8156 26.5422 44.5086 26.3545C44.2238 26.1817 43.9744 25.9565 43.7736 25.6907C43.576 25.4254 43.441 25.1188 43.3787 24.7939C43.3064 24.5014 43.3226 24.194 43.4253 23.9107C43.5053 23.7011 43.6336 23.5131 43.7997 23.3622C44.1126 23.6437 44.4617 23.8821 44.8378 24.0712C45.2159 24.2697 45.6341 24.3799 46.061 24.3935C46.4902 24.4058 46.7755 24.3235 46.9153 24.1494C46.9843 24.0632 47.0325 23.9624 47.0563 23.8547C47.08 23.747 47.0787 23.6353 47.0525 23.5281C47.0157 23.3124 46.9016 23.1174 46.7316 22.9796C46.5248 22.8262 46.3012 22.6969 46.0651 22.5942L45.47 22.3118Z" fill="#EF8D42"/>
<path opacity="0.27" d="M65.5776 34.6155L19.739 36.4778L19.7637 34.5922L65.6023 32.7313L65.5776 34.6155Z" fill="#3B3B4C"/>
<path opacity="0.27" d="M67.0055 40.9607L21.1669 42.823L21.1916 40.9374L67.0302 39.0765L67.0055 40.9607Z" fill="#3B3B4C"/>
<path opacity="0.27" d="M70.1555 47.7914L24.3183 49.6523L24.3416 47.7681L70.1802 45.9058L70.1555 47.7914Z" fill="#3B3B4C"/>
<path opacity="0.27" d="M72.4457 54.8524L26.6071 56.7147L26.6317 54.8305L72.469 52.9682L72.4457 54.8524Z" fill="#3B3B4C"/>
<path opacity="0.27" d="M76.377 62.1535L30.5397 64.0158L30.5644 62.1302L76.4016 60.2693L76.377 62.1535Z" fill="#3B3B4C"/>
<path opacity="0.27" d="M79.9713 68.8964L34.1328 70.7587L34.1574 68.8731L79.996 67.0121L79.9713 68.8964Z" fill="#3B3B4C"/>
<path opacity="0.27" d="M63.5499 77.7758L39.1852 78.7645L39.2085 76.8803L63.5746 75.8902L63.5499 77.7758Z" fill="#3B3B4C"/>
<path d="M57.428 35.718L52.5447 35.9155L52.5913 32.3171L57.4747 32.1196L57.428 35.718Z" fill="white"/>
<path d="M39.4252 37.3047L33.9412 37.5282L34.0043 32.638L39.4883 32.4145L39.4252 37.3047Z" fill="white"/>
<path d="M50.9144 42.3293L45.1314 42.5638L45.1698 39.5619L50.9528 39.3275L50.9144 42.3293Z" fill="white"/>
<path d="M62.7545 47.6638L59.6703 47.7886L59.7197 43.931L62.8039 43.8049L62.7545 47.6638Z" fill="white"/>
<path d="M40.5989 50.1254L34.3442 50.3791L34.3977 46.2473L40.6524 45.9922L40.5989 50.1254Z" fill="white"/>
<path d="M50.3409 56.4788L47.8026 56.5817L47.8478 53.119L50.3862 53.0162L50.3409 56.4788Z" fill="white"/>
<path d="M64.356 55.9098L61.5544 56.0236L61.5996 52.5596L64.4013 52.4457L64.356 55.9098Z" fill="white"/>
<path d="M77.0808 63.2519L66.0593 63.6989L66.1278 58.3863L77.1507 57.9393L77.0808 63.2519Z" fill="white"/>
<path d="M64.8993 44.8525L71.4529 44.5865L71.4036 48.4455L64.8499 48.7115L64.8993 44.8525Z" fill="white"/>
<path d="M72.547 66.9532L80.0002 66.6501L79.9577 69.9057L72.5045 70.2088L72.547 66.9532Z" fill="white"/>
<path d="M46.8863 71.2496L42.1744 71.4402L42.2347 66.7283L46.9467 66.5363L46.8863 71.2496Z" fill="white"/>
<path d="M96.7268 61.3581C97.756 61.3581 98.5904 60.746 98.5904 59.9909C98.5904 59.2358 97.756 58.6237 96.7268 58.6237C95.6975 58.6237 94.8631 59.2358 94.8631 59.9909C94.8631 60.746 95.6975 61.3581 96.7268 61.3581Z" fill="white"/>
<path opacity="0.14" d="M86.4733 57.6294C70.7989 50.5972 67.0537 50.5944 63.9175 49.2011C60.7812 47.8078 51.6453 45.6891 53.3581 37.989L70.2256 47.8092L86.4733 57.6294Z" fill="#1F1F39"/>
<path d="M133.184 89.59C131.295 88.9441 128.292 88.4079 127.89 88.3475C127.489 88.2872 126.902 92.633 127.294 93.0197C127.686 93.4064 133.961 94.3787 134.954 94.4281C135.947 94.4775 133.483 92.5219 133.532 91.3796C133.582 90.2373 133.184 89.59 133.184 89.59Z" fill="#EFAEA6"/>
<path d="M141.53 43.2481C139.869 37.616 132.594 34.7979 125.278 36.9536C117.962 39.1094 113.379 45.4244 115.038 51.0566C115.609 52.9929 116.843 54.5946 118.513 55.7781C118.593 55.8355 118.653 55.9157 118.687 56.0081C118.72 56.1006 118.725 56.201 118.7 56.2962C118.675 56.3913 118.622 56.4767 118.548 56.5411C118.474 56.6056 118.382 56.646 118.284 56.6571C112.103 57.3963 104.982 58.1793 101.828 58.3315C101.348 58.366 100.866 58.366 100.387 58.3315C98.0923 58.0422 93.2556 56.9821 92.5699 56.8313C92.5164 56.819 92.4612 56.8162 92.4067 56.8231C90.6871 57.037 88.6534 57.2701 86.4112 57.5087L86.3166 57.5197C86.3701 57.5512 86.4222 57.5842 86.4743 57.6171C87.8799 60.0032 89.2965 62.3606 90.698 64.6452C95.4539 64.2407 99.2895 63.8224 100.698 63.3987C100.823 63.3603 100.927 63.3232 101.013 63.2876C101.999 62.8597 103.579 62.3276 105.402 61.7791C109.241 60.6505 114.147 59.5342 116.856 59.5027C119.378 59.4739 124.458 58.6195 127.866 57.9942H127.904C129.051 57.8862 130.184 57.6675 131.288 57.3414C135.061 56.2279 138.107 54.0104 139.946 51.3514C141.674 48.8624 142.333 45.9757 141.53 43.2481ZM137.032 50.3092C135.652 52.3045 133.373 53.9734 130.538 54.7962C125.053 56.413 119.594 54.2984 118.35 50.0747C117.106 45.8509 120.544 41.1157 126.029 39.4975C131.515 37.8793 136.973 39.9939 138.219 44.219C138.821 46.2692 138.325 48.4359 137.032 50.3092Z" fill="#3B3B4C"/>
<path d="M132.222 85.9381C131.689 82.7511 129.877 79.4461 126.937 76.8351C126.053 76.0493 117.072 69.8303 114.801 68.7305C112.361 67.5497 108.394 64.4491 105.397 61.7901C103.975 60.5284 102.774 59.3683 102.064 58.5606C101.989 58.478 101.91 58.3997 101.826 58.3261C99.6062 56.3431 88.3872 50.1172 79.3967 45.0981C74.7615 42.5062 70.7229 40.2366 68.825 39.0367C63.4767 35.6563 57.7568 35.1572 52.0383 36.2213C51.9403 36.2397 51.8503 36.2876 51.7803 36.3586C51.7103 36.4296 51.6637 36.5203 51.6469 36.6186C51.63 36.7169 51.6436 36.8179 51.6859 36.9082C51.7282 36.9985 51.7971 37.0737 51.8834 37.1237C56.5213 39.8266 74.7108 50.4408 86.3041 57.5266C86.3576 57.5581 86.4097 57.591 86.4618 57.6239C88.357 58.78 90.0699 59.8414 91.5152 60.7547C91.5621 60.7832 91.6129 60.8044 91.6661 60.8178C92.3518 60.9714 97.183 62.0726 99.3827 62.7884C99.8311 62.9628 100.266 63.169 100.685 63.4055C103.472 64.8852 109.583 68.6166 114.861 71.9216C114.944 71.9736 115.01 72.0497 115.05 72.1397C115.089 72.2298 115.101 72.3297 115.082 72.4263C115.064 72.5229 115.017 72.6118 114.948 72.6813C114.878 72.7508 114.789 72.7976 114.692 72.8157C112.678 73.175 110.879 74.1006 109.539 75.6091C105.64 79.9974 107.101 87.6632 112.804 92.7276C118.507 97.792 126.29 98.3405 130.19 93.9495C132.089 91.8225 132.721 88.9345 132.222 85.9381ZM127.621 91.6621C124.696 94.9533 118.857 94.5419 114.581 90.746C110.305 86.9502 109.208 81.1987 112.132 77.9075C115.056 74.6163 120.895 75.0277 125.171 78.8222C127.376 80.7805 128.736 83.2585 129.135 85.6515C129.51 87.8978 129.037 90.0672 127.621 91.6621Z" fill="#3B3B4C"/>
<path opacity="0.18" d="M244.422 178.217C244.422 179.04 217.996 180 187.549 180C157.103 180 132.421 179.333 132.421 178.512C132.421 177.691 157.106 177.023 187.549 177.023C217.993 177.023 244.422 177.394 244.422 178.217Z" fill="#32323F"/>
<path opacity="0.12" d="M112.002 177.858C112.002 178.845 85.5761 179.99 55.1281 179.99C24.6801 179.99 0 179.191 0 178.208C0 177.224 24.6842 176.425 55.1281 176.425C85.572 176.425 112.002 176.871 112.002 177.858Z" fill="#32323F"/>
<path d="M149.294 168.316C149.592 166.291 150.973 161.322 150.973 161.322L156.267 162.429L154.125 169.882L150.065 171.418L149.294 168.316Z" fill="white"/>
<path d="M149.089 167.384C148.561 167.138 148.684 167.714 148.309 168.511C147.447 170.335 140.455 168.968 139.367 168.922C138.807 168.9 137.356 171.543 140.063 172.076C142.402 172.543 149.894 174.062 152.458 174.556C152.719 174.607 152.989 174.57 153.227 174.451C153.464 174.332 153.656 174.137 153.771 173.898C154.609 172.138 155.068 169.235 154.366 169.029C153.357 168.472 151.29 168.405 149.089 167.384Z" fill="#1F1F39"/>
<path d="M243.903 135.81C241.857 135.741 236.759 134.925 236.759 134.925L237.266 129.54L244.914 130.834L246.893 134.698L243.903 135.81Z" fill="white"/>
<path d="M242.996 136.117C242.811 136.666 243.37 136.482 244.204 136.767C246.113 137.419 245.535 144.519 245.615 145.605C245.657 146.166 248.445 147.311 248.679 144.562C248.88 142.184 249.552 134.569 249.756 131.966C249.778 131.701 249.712 131.436 249.567 131.212C249.422 130.989 249.207 130.82 248.956 130.732C247.112 130.097 244.178 129.965 244.052 130.685C243.603 131.755 243.766 133.817 242.996 136.117Z" fill="#1F1F39"/>
<path d="M174.766 94.8518C170.956 109.782 160.504 129.573 159.031 133.85C157.558 138.127 149.386 164.101 149.294 165.605C154.265 167.737 157.589 168.294 157.589 168.294C158.917 164.751 165.841 141.84 167.556 138.315C170.558 132.144 186.37 108.158 186.37 108.158C194.247 112.786 203.284 123.905 210.944 129.05C221.572 135.256 239.677 136.334 239.677 136.334C241.845 132.587 242.251 128.997 241.671 128.35C236.837 126.826 220.231 125.219 216.264 120.884C212.959 117.275 201.578 95.3345 191.658 88.0458C190.662 87.3135 184.875 91.2836 181.691 93.3804C178.507 95.4772 174.766 94.8518 174.766 94.8518Z" fill="#3B3B4C"/>
<path opacity="0.46" d="M183.839 106.64C183.838 106.644 183.838 106.647 183.839 106.651C183.819 106.639 183.8 106.627 183.782 106.612C183.802 106.62 183.82 106.63 183.839 106.64Z" fill="#1F1F39"/>
<path opacity="0.65" d="M186.372 108.158C186.311 108.254 182.395 114.278 180.028 117.79C182.359 109.536 184.042 106.238 184.246 106.29C184.45 106.342 184.785 106.815 186.372 108.158Z" fill="#1F1F39"/>
<path opacity="0.46" d="M207.751 108.18C205.541 106.918 200.367 106.613 198.45 106.01C196.636 105.44 188.748 102.034 188.738 98.8452L203.298 101.108C205.209 103.227 206.141 105.476 207.751 108.18Z" fill="#1F1F39"/>
<path d="M169.59 68.6468L173.362 65.804C172.649 63.8389 172.04 58.8348 171.061 57.207C169.984 55.4243 169.854 55.5916 169.854 55.5916L167.598 58.492L166.536 59.8633C166.536 59.8633 167 60.5751 167.18 62.004C167.306 63.0037 167.293 64.3517 166.886 66.0536C166.582 67.3166 169.59 68.6468 169.59 68.6468Z" fill="#EFAEA6"/>
<path opacity="0.14" d="M166.536 59.8524C166.886 60.5966 167.111 61.3928 167.204 62.2097C170.301 62.3976 171.08 59.7865 170.127 59.2956C169.532 58.9898 167.598 58.4865 167.598 58.4865L166.536 59.8524Z" fill="#1F1F39"/>
<path d="M165.179 51.3569C164.621 53.0148 161.988 55.8028 163.133 56.0812C164.278 56.3595 161.948 59.5836 163.155 59.9209C166.081 60.7437 169.936 59.7152 170.67 58.3864C171.403 57.0576 172.178 53.0285 172.178 53.0285L165.179 51.3569Z" fill="#EFAEA6"/>
<path d="M167.816 53.7307C166.856 53.6113 166.776 53.8239 166.202 53.3481C165.627 52.8722 166.978 52.251 165.811 51.7518C164.644 51.2526 163.33 50.8481 163.547 49.4205C163.86 47.3635 165.566 48.1164 166.611 48.621C167.282 48.9447 167.845 47.4485 169.241 47.8627C170.338 48.1891 170.049 48.8062 171.024 49.1394C171.608 49.3424 173.02 48.6443 173.776 49.5947C175.176 51.3555 173.326 52.6404 174.413 54.4204C175.682 56.4967 170.915 59.083 170.574 58.5455C170.171 57.9146 171.373 56.3828 170.94 55.848C170.288 55.0417 170.018 55.7013 169.189 56.1689C168.301 56.6695 166.964 56.3828 168.14 55.2858C169.315 54.1887 168.683 53.8362 167.816 53.7307Z" fill="#1F1F39"/>
<path d="M172.169 60.9275C170.236 61.0564 170.103 64.4203 168.718 65.0415C167.879 65.4214 167.883 63.9445 167.326 63.6702C166.984 63.5042 166.778 63.3136 166.487 63.9856C161.453 75.5049 177.684 96.8046 177.684 96.8046C177.684 96.8046 188.164 98.4681 192.82 97.7495C198.434 96.8842 196.215 95.5745 195.59 94.3609C194.964 93.1472 177.43 64.1543 177.43 64.1543C177.43 64.1543 175.667 62.4291 172.169 60.9275Z" fill="white"/>
<path d="M167.246 63.2615C157.82 66.4924 155.178 82.9856 151.692 84.9987C148.206 87.0119 134.236 88.5642 133.126 88.7741C132.017 88.9839 132.884 95.2194 133.613 95.2194C135.755 95.2194 152.318 94.5954 155.883 92.2024C161.505 88.4312 162.974 79.5051 164.562 79.8356C166.022 80.1401 167.945 85.8599 168.539 88.338C169.133 90.816 168.159 97.1406 174.451 99.919C177.025 101.056 179.855 100.255 180.565 98.8452C181.783 96.4289 176.824 91.0285 173.855 84.9603C171.029 79.1815 168.29 76.1426 167.136 70.9328C166.26 66.9916 167.246 63.2615 167.246 63.2615Z" fill="#143068"/>
<path d="M208.272 100.221C205.233 105.266 192.626 102.642 189.879 101.204C186.596 99.4856 186.801 95.3071 182.733 89.8217C181.348 87.954 178.294 85.0878 176.354 82.3767C175.857 81.705 175.429 80.9856 175.076 80.2292C174.033 77.8896 173.437 75.1552 173.082 72.4715C172.396 67.2686 172.61 62.2947 172.24 60.9398C172.24 60.9398 173.843 60.97 178.511 63.422C180.472 64.4518 184.302 67.9789 185.607 71.1701C187.654 76.1672 189.111 80.5459 190.882 83.4943C192.707 86.536 195.133 90.5527 198.82 93.5052C202.852 96.7374 209.455 98.2528 208.272 100.221Z" fill="#143068"/>
<path opacity="0.17" d="M169.165 76.4114C168.163 76.8763 162.26 72.0327 159.205 71.1605C155.922 70.2225 164.634 66.5446 164.334 66.4979C168.859 66.1853 164.904 68.9403 166.996 70.5983C167.931 74.0705 168.966 76.0713 169.165 76.4114Z" fill="#1F1F39"/>
<path d="M127.888 88.3475C129.607 88.6136 130.348 88.497 130.348 89.9136C130.348 91.3302 130.699 92.8209 129.251 92.8209C127.803 92.8209 126.242 92.5219 126.391 91.7773C126.541 91.0326 127.026 88.2132 127.888 88.3475Z" fill="#EFAEA6"/>
<path opacity="0.17" d="M176.354 82.3781C175.858 81.7064 175.429 80.987 175.076 80.2305C174.033 77.891 173.437 75.1566 173.082 72.4728L180.8 73.7496C180.301 74.5984 176.082 78.781 176.354 82.3781Z" fill="#1F1F39"/>
<path d="M145.115 50.6698C144.6 49.7894 144.366 49.1874 143.525 48.1287C142.712 47.1029 142.653 47.7255 142.323 46.5914C141.923 45.2297 138.976 44.0983 138.218 44.2245C136.969 44.4315 136.435 46.6435 136.629 47.3649C137.061 48.9885 139.654 48.4811 140.54 49.4726C141.426 50.4641 141.759 51.9849 142.21 52.3524C142.661 52.72 145.115 50.6698 145.115 50.6698Z" fill="#EFAEA6"/>
<path d="M175.532 64.7508C171.506 68.031 161.734 64.3394 159.293 63.2588C156.611 62.0657 145.629 49.703 144.362 47.4115C142.081 48.5977 140.357 50.9167 140.041 52.2565C139.724 53.5963 151.312 67.7225 156.148 70.0689C159.84 71.8516 176.775 75.3252 181.546 75.3252C182.643 75.3252 185.395 75.4706 184.666 71.3771C183.936 67.2837 175.532 64.7508 175.532 64.7508Z" fill="#143068"/>
<path opacity="0.18" d="M169.035 65.2911C169.205 65.1732 170.999 68.5467 173.361 69.6287C174.013 69.9396 174.719 70.1195 175.44 70.158C177.565 70.2403 181.788 69.519 184.449 69.135C183.952 68.2395 182.831 67.041 181.803 66.0783C179.884 66.7242 176.747 68.1147 175.632 68.0133C174.83 67.9341 174.044 67.7344 173.301 67.4208C171.93 66.8586 170.77 66.007 169.884 65.2637C169.433 64.8852 169.356 64.2969 168.822 64.2859C168.12 64.2695 168.815 65.4434 169.035 65.2911Z" fill="#1F1F39"/>
<path d="M167.949 64.615C167.951 64.4944 167.977 64.3755 168.027 64.2656C168.076 64.1557 168.148 64.057 168.237 63.9758C168.326 63.8946 168.431 63.8326 168.545 63.7934C168.659 63.7543 168.78 63.739 168.9 63.7483C169.434 63.7593 169.48 63.976 169.933 64.3545C171.289 65.4941 173.308 66.8873 175.679 67.0972C178.05 67.307 183.394 64.1172 186.908 64.818C190.421 65.5187 191.54 68.6413 196.607 69.3599C201.674 70.0785 207.072 67.8514 208.567 68.0845C210.061 68.3177 210.97 68.6262 210.943 69.2173C210.916 69.8083 210.189 70.7984 209.149 71.2345C208.11 71.6706 198.893 72.4536 196.452 72.167C192.467 71.6994 188.986 68.1682 186.421 67.9844C183.855 67.8007 178.487 69.3558 175.481 69.242C172.13 69.113 169.338 65.2568 169.118 65.409C168.899 65.5613 168.35 65.6614 168.032 65.4337C167.784 65.2637 167.931 64.951 167.949 64.615Z" fill="#F4AD00"/>
<path d="M96.5816 59.6546C96.7821 58.4196 95.9434 57.2559 94.7084 57.0554C93.4734 56.8549 92.3097 57.6936 92.1092 58.9286C91.9087 60.1636 92.7474 61.3273 93.9824 61.5278C95.2174 61.7283 96.3811 60.8896 96.5816 59.6546Z" fill="white"/>
</svg>
