<svg width="331" height="426" viewBox="0 0 331 426" fill="none" xmlns="http://www.w3.org/2000/svg">
<path d="M324.293 76.924C324.536 77.4543 324.647 78.0521 324.615 78.6512C324.583 79.2504 324.407 79.8274 324.109 80.3186C323.06 82.0502 320.798 84.7762 316.012 87.7098C311.226 90.6435 308.005 91.2797 306.175 91.3121C305.656 91.3222 305.144 91.1661 304.697 90.861C304.25 90.5559 303.884 90.1137 303.641 89.5833L301.149 84.1437L321.799 71.4844L324.293 76.924Z" fill="#FFC933"></path>
<path d="M321.798 71.4834L324.293 76.922C324.535 77.4528 324.647 78.0507 324.615 78.6499C324.583 79.2491 324.408 79.8265 324.11 80.3186C323.131 81.9311 321.102 84.4057 316.962 87.104H316.953C316.651 87.3079 316.336 87.5069 316.011 87.706C311.225 90.6406 308.004 91.2749 306.179 91.3083C305.659 91.3186 305.147 91.1625 304.699 90.8573C304.251 90.552 303.885 90.1095 303.641 89.5786L301.149 84.1447L321.798 71.4834Z" fill="#FFC933"></path>
<path d="M321.798 71.4817L324.293 76.9194C324.536 77.4502 324.647 78.0483 324.615 78.6477C324.583 79.2472 324.408 79.8247 324.11 80.3169C323.131 81.9294 321.102 84.4039 316.962 87.1014H316.954C316.651 87.3052 316.337 87.5043 316.012 87.7033C314.528 88.6285 312.986 89.422 311.398 90.0769C309.8 90.7208 308.486 91.0513 307.443 91.2008C307.024 91.262 306.601 91.297 306.178 91.3056C305.659 91.316 305.146 91.1599 304.698 90.8546C304.25 90.5493 303.884 90.1068 303.64 89.5759L301.149 84.142L321.798 71.4817Z" fill="#FFC933"></path>
<path d="M321.798 71.4834L324.293 76.922C324.536 77.4528 324.647 78.0507 324.615 78.6499C324.583 79.2491 324.408 79.8265 324.111 80.3186C323.131 81.9311 321.103 84.4057 316.962 87.104C317.474 86.6125 320.23 83.4113 317.106 74.3599L321.798 71.4834Z" fill="#FFA329"></path>
<g opacity="0.7">
<path d="M307.018 80.5415L311.395 90.0815C309.797 90.7254 308.483 91.0559 307.44 91.2054L303.529 82.6789L307.018 80.5415Z" fill="white"></path>
</g>
<path d="M306.133 92.4857C305.437 92.4882 304.753 92.2704 304.157 91.8559C303.56 91.4414 303.072 90.8459 302.747 90.134L300.252 84.6935C300.126 84.4186 300.1 84.0972 300.178 83.7999C300.257 83.5026 300.435 83.2536 300.673 83.1076L321.322 70.4482C321.44 70.376 321.569 70.3312 321.701 70.3166C321.834 70.3019 321.968 70.3177 322.095 70.3629C322.223 70.4081 322.341 70.4819 322.444 70.58C322.547 70.6782 322.632 70.7988 322.694 70.9349L325.19 76.3745C325.522 77.0954 325.675 77.9086 325.631 78.7238C325.588 79.539 325.349 80.3242 324.943 80.9921C323.812 82.859 321.427 85.7202 316.49 88.7472C311.552 91.7742 308.168 92.4504 306.195 92.4847L306.133 92.4857ZM302.521 84.6306L304.541 89.0339C304.698 89.372 304.932 89.6539 305.218 89.8487C305.504 90.0435 305.83 90.1439 306.162 90.1388C307.911 90.1083 310.956 89.4816 315.536 86.6737C320.116 83.8658 322.274 81.3017 323.281 79.6463C323.473 79.3324 323.585 78.9632 323.606 78.5799C323.627 78.1965 323.556 77.8139 323.4 77.4747L321.38 73.0704L302.521 84.6306Z" fill="#000072"></path>
<path d="M321.797 71.4844C322.707 73.4684 318.823 77.9117 313.121 81.4073C307.418 84.9028 302.056 86.1277 301.149 84.1437C300.243 82.1597 304.124 77.7164 309.826 74.2199C315.528 70.7233 320.889 69.4994 321.799 71.4844" fill="#FFC933"></path>
<path d="M303.323 86.2641C301.433 86.2641 300.604 85.4707 300.251 84.6935C298.792 81.5131 303.944 76.5022 309.348 73.1837C312.192 71.4407 315.055 70.1844 317.41 69.6462C320.92 68.8442 322.221 69.9043 322.694 70.9349C323.167 71.9655 323.195 73.8047 320.652 76.7136C318.945 78.6662 316.439 80.7007 313.596 82.4447C310.754 84.1886 307.89 85.4431 305.534 85.9822C304.806 86.1584 304.066 86.2528 303.323 86.2641V86.2641ZM319.636 71.7083C319.02 71.7202 318.405 71.8006 317.802 71.9484C315.635 72.4437 312.97 73.6181 310.297 75.2573C304.173 79.0119 301.703 82.8523 302.043 83.5943C302.108 83.7362 302.867 84.1991 305.138 83.68C307.306 83.1847 309.97 82.0094 312.643 80.3711C315.316 78.7329 317.652 76.8412 319.223 75.0449C320.87 73.1599 320.964 72.177 320.898 72.0341C320.857 71.9445 320.514 71.7083 319.638 71.7083H319.636Z" fill="#000072"></path>
<path d="M318.657 73.4094C319.157 74.5 316.35 77.3555 312.378 79.791C308.407 82.2265 304.789 83.3151 304.289 82.2207C303.789 81.1263 306.596 78.2756 310.568 75.8391C314.54 73.4027 318.156 72.315 318.657 73.4084" fill="#FFC933"></path>
<path d="M318.656 73.4086C318.821 73.761 318.633 74.3011 318.176 74.9478C317.523 74.0067 313.991 75.0992 310.135 77.4633C307.451 79.1082 305.299 80.9455 304.341 82.3066C304.322 82.2785 304.305 82.2485 304.289 82.2171C303.79 81.1275 306.596 78.2719 310.565 75.8403C314.534 73.4086 318.156 72.3161 318.656 73.4086Z" fill="#FFA329"></path>
<path d="M305.311 83.2275C304.609 83.2275 304.08 83.0141 303.841 82.4931C302.939 80.5253 307.496 77.064 310.33 75.3219C312.282 74.1247 314.22 73.2065 315.785 72.736C317.64 72.1778 318.727 72.3093 319.105 73.1351C319.483 73.9609 318.968 75.0733 317.528 76.5363C316.314 77.7746 314.57 79.108 312.616 80.3063C310.533 81.5835 307.258 83.2275 305.311 83.2275ZM317.695 73.5513C316.643 73.5513 314.153 74.3047 310.805 76.3582C306.596 78.9394 304.619 81.3711 304.74 81.9512C305.081 82.3769 307.93 81.8559 312.141 79.27C316.332 76.6983 318.31 74.278 318.208 73.6856C318.134 73.5989 317.957 73.5513 317.695 73.5513V73.5513Z" fill="#000072"></path>
<path d="M18.3668 36.0103L1.15332 50.4226C1.15332 50.4226 4.18845 81.9316 37.6798 79.4457L49.1042 59.6401C49.1042 59.6401 27.7487 60.9827 18.3668 36.0103Z" fill="#58D841"></path>
<path d="M40.4385 68.3623L37.47 73.3958C37.47 73.3958 35.5222 73.0491 34.3533 73.9951C33.3709 74.797 33.0307 75.3919 32.5883 76.1558C20.3512 75.7386 13.3886 69.9336 9.45361 63.9346C13.4842 68.0036 19.157 71.5655 26.848 72.0619C32.6304 72.4335 37.0735 70.7767 40.4395 68.3634" fill="#459E30"></path>
<path d="M40.4385 68.3623L37.47 73.3958C37.47 73.3958 35.5222 73.0491 34.3533 73.9951C33.3709 74.797 33.0307 75.3919 32.5883 76.1558C20.3512 75.7386 13.3886 69.9336 9.45361 63.9346C13.4842 68.0036 19.157 71.5655 26.848 72.0619C32.6304 72.4335 37.0735 70.7767 40.4395 68.3634" fill="#459E30"></path>
<path d="M49.1023 59.6487L37.6798 79.4522C4.18845 81.9445 1.15332 50.4302 1.15332 50.4302L18.3658 36.0178C26.2536 57.0155 42.6122 59.4125 47.6157 59.6411C48.5624 59.6823 49.1023 59.6498 49.1023 59.6498" fill="#58D841"></path>
<path d="M49.1023 59.6487L37.6798 79.4521C4.18845 81.9445 1.15332 50.4302 1.15332 50.4302C1.15332 50.4302 7.83004 70.4287 26.8469 71.6467C38.47 72.3955 44.6884 64.9379 47.6157 59.64C48.5624 59.6812 49.1023 59.6487 49.1023 59.6487" fill="#46B72E"></path>
<path d="M32.5893 76.1547C14.686 75.549 8.07953 63.4068 5.70898 55.9991C6.38294 55.5245 7.20874 54.8071 7.534 53.5013C7.94362 51.8498 7.41402 50.323 7.41402 50.323L15.2699 43.7432C15.2699 43.7432 16.0667 45.3469 17.273 45.8573C18.3491 46.3125 19.2068 46.2344 19.9848 46.0881C26.2997 56.3014 33.3448 59.7788 40.5642 61.7272C40.2671 62.3698 40.1968 63.1359 40.6298 63.8284C41.1669 64.6866 42.4192 65.002 42.4192 65.002L37.4719 73.3958C37.4719 73.3958 35.5222 73.048 34.3552 73.9961C33.371 74.7948 33.0308 75.3929 32.5902 76.1558" fill="#4BB236"></path>
<path d="M34.0469 80.9249C18.6257 80.9249 10.2843 73.3286 5.93686 66.6772C0.859254 58.9086 0.0400126 50.9135 0.00720551 50.5776C-0.0155539 50.3432 0.0158279 50.1059 0.098154 49.8901C0.18048 49.6742 0.310811 49.4875 0.475879 49.3488L17.6884 34.9364C17.8282 34.8191 17.9891 34.7396 18.1591 34.7038C18.3291 34.6679 18.5038 34.6767 18.6705 34.7293C18.8372 34.7819 18.9915 34.8771 19.1221 35.0078C19.2528 35.1386 19.3564 35.3015 19.4253 35.4847C23.1747 45.4542 29.2749 52.3266 37.5648 55.9069C43.7907 58.5955 48.9892 58.3202 49.0417 58.318C49.2555 58.3051 49.4682 58.3611 49.656 58.4798C49.8439 58.5985 49.9995 58.7753 50.1054 58.9903C50.2114 59.2054 50.2636 59.4502 50.2562 59.6976C50.2488 59.9449 50.182 60.185 50.0634 60.391L38.639 80.1967C38.5404 80.3674 38.4092 80.5096 38.2554 80.6122C38.1016 80.7148 37.9295 80.7751 37.7523 80.7883C36.475 80.8808 35.2399 80.9263 34.0469 80.9249ZM2.40494 51.0306C2.73301 53.1285 3.97406 59.2901 7.84155 65.1623C14.0721 74.6214 23.8936 78.9938 37.039 78.1594L46.9748 60.9394C43.5153 60.6796 40.1068 59.84 36.8562 58.447C30.9415 55.9145 22.9628 50.3284 17.9049 38.0529L2.40494 51.0306Z" fill="#000072"></path>
<path d="M16.5616 51.6147C16.5616 52.2577 16.3967 52.8862 16.0877 53.4208C15.7787 53.9554 15.3395 54.3721 14.8257 54.6181C14.3118 54.8642 13.7464 54.9286 13.2009 54.8031C12.6555 54.6777 12.1544 54.3681 11.7611 53.9134C11.3679 53.4588 11.1 52.8795 10.9915 52.2489C10.883 51.6183 10.9387 50.9646 11.1516 50.3706C11.3644 49.7766 11.7248 49.2689 12.1873 48.9116C12.6497 48.5544 13.1934 48.3638 13.7495 48.3638C14.4953 48.3638 15.2106 48.7063 15.7379 49.3159C16.2653 49.9256 16.5616 50.7525 16.5616 51.6147Z" fill="#2E8E1A"></path>
<path d="M38.6017 66.6491C38.8304 67.7652 37.7169 69.0851 36.1149 69.5965C34.513 70.108 33.0292 69.6193 32.7995 68.5032C32.5699 67.387 33.6834 66.0682 35.2863 65.5557C36.8892 65.0431 38.373 65.5329 38.6017 66.6491Z" fill="#2E8E1A"></path>
<path d="M32.5857 77.0453H32.567C14.1472 76.4222 7.38046 63.7881 4.98741 56.3132C4.9254 56.1198 4.92347 55.9074 4.98195 55.7125C5.04043 55.5176 5.15568 55.3522 5.30798 55.2447C5.9032 54.8254 6.54528 54.2608 6.79368 53.2617C7.12175 51.9396 6.69994 50.6685 6.69994 50.6555C6.63772 50.4716 6.6299 50.2691 6.67772 50.0795C6.72554 49.89 6.8263 49.724 6.96428 49.6076L14.8202 43.0278C14.9076 42.9545 15.0073 42.9034 15.1129 42.8776C15.2186 42.8518 15.3277 42.852 15.4332 42.8782C15.5388 42.9043 15.6384 42.9559 15.7256 43.0294C15.8128 43.103 15.8856 43.197 15.9394 43.3052C16.1268 43.6726 16.7755 44.7031 17.5404 45.0271C18.3905 45.388 19.0598 45.3663 19.8631 45.2146C20.0048 45.1878 20.1501 45.2074 20.2826 45.2711C20.4152 45.3349 20.5296 45.4403 20.613 45.5754C27.0432 55.9784 34.0873 59.07 40.7415 60.8656C40.8565 60.8966 40.9638 60.9578 41.055 61.0445C41.1462 61.1311 41.219 61.2408 41.2676 61.3652C41.3163 61.4895 41.3395 61.6252 41.3356 61.7616C41.3317 61.898 41.3006 62.0315 41.2449 62.1518C40.9412 62.8096 41.1784 63.1878 41.2561 63.3113C41.5177 63.7296 42.2122 64.0406 42.5881 64.1392C42.7107 64.171 42.8247 64.237 42.9202 64.3314C43.0157 64.4257 43.0897 64.5457 43.1359 64.6807C43.1822 64.8158 43.1991 64.9618 43.1853 65.1062C43.1715 65.2506 43.1274 65.3888 43.0568 65.5089L38.1076 73.8974C38.0261 74.0356 37.9125 74.1445 37.7798 74.2114C37.6471 74.2783 37.5008 74.3006 37.3577 74.2756C36.9003 74.1965 35.544 74.1206 34.8016 74.7242C33.9467 75.4177 33.6702 75.8967 33.2503 76.6227C33.1768 76.7495 33.0781 76.854 32.9625 76.9276C32.8469 77.0011 32.7176 77.0415 32.5857 77.0453V77.0453ZM31.9492 75.6604L32.5894 76.1557L31.9492 75.6604ZM6.64745 56.3479C9.06768 63.4013 15.5166 74.5042 32.1901 75.2487C32.5735 74.6072 33.0009 74.0058 33.912 73.2667C34.9431 72.4312 36.3491 72.3998 37.0925 72.4562L41.2233 65.4548C40.794 65.2164 40.3244 64.862 40.0048 64.3538C39.6413 63.7848 39.4873 63.0727 39.5764 62.3729C33.2418 60.5589 26.0336 57.1714 19.6306 47.0481C18.7442 47.1788 17.8435 47.0586 17.0061 46.6981C16.1559 46.3372 15.4997 45.5873 15.0873 44.9968L8.3028 50.6794C8.44434 51.3783 8.57369 52.5313 8.27093 53.7515C7.96442 54.9987 7.28204 55.806 6.64745 56.3479Z" fill="#000072"></path>
<path d="M27.6594 65.8711C25.9985 68.4718 20.7072 68.6886 18.48 65.3076C15.4683 60.7401 18.1491 57.4458 19.3489 56.8888C22.3203 55.5072 23.7039 57.8858 25.3236 59.0312C26.9433 60.1766 29.5285 62.9485 27.6594 65.8711Z" fill="#2E8E1A"></path>
<path d="M58.9779 388.32C58.62 388.834 58.1269 389.239 57.5531 389.49C56.9793 389.742 56.3473 389.829 55.7268 389.744C53.5402 389.445 49.7633 388.319 44.3961 384.586C39.029 380.853 36.6655 377.701 35.6268 375.756C35.3309 375.204 35.1935 374.581 35.2298 373.955C35.2661 373.33 35.4748 372.727 35.8326 372.213L39.5031 366.938L62.6464 383.047L58.9779 388.32Z" fill="#FFC933"></path>
<path d="M62.6479 383.047L58.9783 388.314C58.62 388.828 58.1268 389.234 57.553 389.485C56.9793 389.737 56.3471 389.826 55.7262 389.742C53.6897 389.46 50.2736 388.466 45.4889 385.312L45.48 385.305C45.1241 385.078 44.7663 384.836 44.4016 384.582C39.0344 380.848 36.6719 377.695 35.6332 375.754C35.336 375.202 35.1973 374.578 35.2324 373.952C35.2675 373.325 35.475 372.721 35.832 372.205L39.5016 366.937L62.6479 383.047Z" fill="#FFC933"></path>
<path d="M62.6503 383.046L58.9808 388.313C58.6222 388.827 58.129 389.232 57.5552 389.484C56.9815 389.735 56.3495 389.824 55.7287 389.74C53.6921 389.459 50.2761 388.463 45.4913 385.31L45.4824 385.303C45.1276 385.076 44.7688 384.834 44.404 384.58C42.7269 383.429 41.1394 382.152 39.6551 380.761C38.1751 379.354 37.1434 378.102 36.4318 377.058C36.143 376.638 35.8775 376.202 35.6367 375.752C35.3394 375.2 35.2007 374.576 35.2358 373.95C35.2709 373.323 35.4784 372.719 35.8354 372.203L39.505 366.935L62.6503 383.046Z" fill="#FFC933"></path>
<path d="M62.6482 383.047L58.9787 388.315C58.6203 388.829 58.1272 389.234 57.5534 389.486C56.9796 389.737 56.3475 389.826 55.7266 389.742C53.6901 389.46 50.274 388.467 45.4893 385.312C46.2287 385.627 50.7192 387.054 57.3944 379.383L62.6482 383.047Z" fill="#FFA329"></path>
<g opacity="0.7">
<path d="M46.0871 371.517L39.6505 380.761C38.1706 379.354 37.1389 378.102 36.4272 377.058L42.18 368.793L46.0871 371.517Z" fill="white"></path>
</g>
<path d="M56.1967 391C55.9839 391 55.7713 390.985 55.5606 390.956C53.204 390.635 49.2333 389.442 43.7002 385.589C38.167 381.736 35.6693 378.427 34.5502 376.33C34.1461 375.579 33.9583 374.731 34.0078 373.88C34.0573 373.029 34.3421 372.209 34.8305 371.51L38.501 366.236C38.5925 366.104 38.7094 365.991 38.8449 365.904C38.9804 365.818 39.1317 365.759 39.2902 365.731C39.6096 365.674 39.9386 365.745 40.2056 365.929L63.3479 382.038C63.4799 382.13 63.5926 382.246 63.6794 382.382C63.7663 382.517 63.8256 382.668 63.854 382.827C63.8825 382.985 63.8794 383.147 63.8451 383.304C63.8108 383.461 63.7459 383.61 63.654 383.742L59.9825 389.016C59.5592 389.628 58.9935 390.129 58.3341 390.474C57.6746 390.82 56.9412 391 56.1967 391V391ZM39.811 368.643L36.8402 372.917C36.6107 373.245 36.4771 373.631 36.4541 374.032C36.4311 374.432 36.5197 374.831 36.71 375.184C37.7039 377.044 39.965 380.013 45.0986 383.587C50.2322 387.161 53.8013 388.25 55.8915 388.535C56.2885 388.591 56.6932 388.535 57.0606 388.375C57.4281 388.215 57.7438 387.956 57.9728 387.627V387.627L60.9446 383.353L39.811 368.643Z" fill="#000072"></path>
<path d="M62.6498 383.047C61.31 384.971 55.0434 382.924 48.6535 378.475C42.2636 374.025 38.1677 368.86 39.5094 366.936C40.8512 365.012 47.1149 367.059 53.5058 371.508C59.8966 375.957 63.9906 381.121 62.6498 383.046" fill="#FFC933"></path>
<path d="M60.7263 384.988C59.808 384.988 58.6391 384.797 57.1661 384.315C54.412 383.42 51.141 381.699 47.9545 379.481C44.768 377.264 42.0228 374.792 40.2228 372.524C37.5393 369.145 37.8066 367.241 38.5024 366.242C39.1981 365.244 40.8878 364.333 44.9907 365.673C47.7448 366.567 51.0168 368.289 54.2033 370.507C60.2592 374.723 65.8013 380.665 63.6554 383.748C63.2111 384.385 62.3564 384.988 60.7263 384.988ZM41.4195 367.441C40.8232 367.441 40.5608 367.568 40.5121 367.64C40.4127 367.778 40.4037 368.811 42.1411 371.002C43.797 373.09 46.3583 375.388 49.3539 377.474C52.3496 379.559 55.394 381.162 57.9265 381.989C60.5842 382.857 61.5493 382.486 61.6447 382.349C62.1417 381.63 59.6668 377.293 52.7989 372.516C49.8032 370.429 46.7588 368.828 44.2263 368.001C42.9074 367.566 42.0039 367.441 41.4185 367.441H41.4195Z" fill="#000072"></path>
<path d="M59.1289 380.597C58.3934 381.653 54.1921 380 49.7453 376.906C45.2985 373.812 42.2909 370.446 43.0254 369.388C43.76 368.331 47.9622 369.985 52.409 373.079C56.8558 376.173 59.8634 379.539 59.1289 380.597Z" fill="#FFC933"></path>
<path d="M59.1302 380.598C58.8926 380.939 58.2893 380.995 57.4405 380.815C57.9524 379.666 54.9895 376.398 50.668 373.391C47.6604 371.297 44.7681 369.865 42.9761 369.489C42.9917 369.454 43.0104 369.421 43.0317 369.389C43.7662 368.333 47.9655 369.986 52.4123 373.077C56.8591 376.168 59.8667 379.537 59.1332 380.597" fill="#FFA329"></path>
<path d="M58.2694 381.528C57.5945 381.528 56.7089 381.311 55.6037 380.876C53.7878 380.162 51.5833 378.93 49.3947 377.406C46.2142 375.196 41.1959 370.946 42.5228 369.037C43.0803 368.236 44.3973 368.259 46.5491 369.105C48.364 369.819 50.5695 371.051 52.7581 372.575C54.9467 374.098 56.8679 375.737 58.168 377.192C59.7096 378.916 60.1876 380.143 59.63 380.945C59.3587 381.335 58.9085 381.528 58.2694 381.528ZM43.8914 369.655C43.7621 369.642 43.6323 369.673 43.5226 369.742C43.3139 370.312 45.3753 373.121 50.0944 376.401C54.7917 379.671 58.1292 380.637 58.6242 380.244C58.823 379.647 56.7556 376.849 52.0584 373.585C48.0092 370.763 44.9698 369.657 43.8914 369.657V369.655Z" fill="#000072"></path>
<path d="M296.35 423.718C277.546 415.826 267.535 422.195 267.535 422.195C267.535 422.195 269.142 411.765 278.772 407.167C289.767 401.915 287.429 385.442 292.791 375.981C292.791 375.981 296.134 376.826 299.62 376.233C304.575 375.389 311.158 371.286 319.068 371.823C319.068 371.823 316.65 373.839 315.299 384.399C314.719 388.943 315.701 412.929 296.35 423.718Z" fill="#58D841"></path>
<path d="M319.072 371.823C319.072 371.823 316.654 373.839 315.3 384.402C314.72 388.943 315.704 412.931 296.35 423.719C296.131 423.626 295.914 423.536 295.696 423.45C277.321 415.971 267.536 422.198 267.536 422.198C267.536 422.198 267.917 419.729 269.419 416.671C270.997 413.436 273.825 409.533 278.772 407.17C284.922 404.229 286.902 397.775 288.385 391.01C289.563 385.684 290.431 380.15 292.792 375.982C292.792 375.982 296.136 376.827 299.618 376.231C304.369 375.424 310.611 371.625 318.09 371.783C318.412 371.783 318.737 371.8 319.068 371.825" fill="#58D841"></path>
<path d="M319.072 371.823C319.072 371.823 316.653 373.839 315.3 384.402C314.719 388.943 315.703 412.931 296.349 423.719C296.13 423.626 295.914 423.536 295.696 423.45C303.999 409.721 288.02 407.743 283.119 408.491C277.129 409.417 269.633 416.459 269.421 416.664C270.999 413.429 273.827 409.526 278.774 407.163C284.924 404.221 286.904 397.768 288.387 391.003C294.65 397.55 307.116 399.553 311.964 383.252C313.583 377.809 316.063 374.101 318.092 371.776C318.414 371.776 318.739 371.793 319.07 371.817" fill="#46B72E"></path>
<path d="M311.548 384.558C310.486 394.107 312.024 404.074 298.997 415.328C298.702 415.216 298.327 415.051 297.858 414.923C296.395 408.87 286.738 407.94 283.124 408.491C282.719 408.554 282.317 408.641 281.92 408.753C284.254 407.439 286.559 406.027 288.007 403.604C289.728 400.725 290.684 397.154 291.469 393.535C297.898 397.614 307.197 397.221 311.548 384.558Z" fill="#46B72E"></path>
<path d="M277.135 414.278C277.425 414.941 277.398 415.522 277.26 416.171C280.834 416.246 286.468 415.914 291.392 416.632C292.553 415.794 293.771 415.066 295.307 414.807C297.151 414.494 298.296 415.06 299.001 415.325C314.102 402.284 309.63 390.967 312.325 380.025C311.585 380.209 310.349 380.665 309.486 379.96C308.782 379.384 308.792 378.664 308.849 377.717C305.294 378.686 302.03 380.264 298.638 380.857C298.367 381.633 297.891 382.907 296.462 383.706C295.341 384.328 294.365 384.221 293.606 384.138C291.779 390.224 291.258 398.139 288.003 403.601C285.06 408.544 278.53 409.259 275.499 413.586C276.171 413.504 276.81 413.549 277.128 414.276" fill="#4BB236"></path>
<path d="M311.548 384.558C310.486 394.107 312.024 404.074 298.997 415.328C298.702 415.216 298.327 415.051 297.858 414.923C296.395 408.87 286.738 407.94 283.124 408.491C282.719 408.554 282.317 408.641 281.92 408.753C284.254 407.439 286.559 406.027 288.007 403.604C289.728 400.725 290.684 397.154 291.469 393.535C297.898 397.614 307.197 397.221 311.548 384.558Z" fill="#459E30"></path>
<path d="M303.142 401.567C301.928 405.86 296.966 408.17 294.356 406.532C291.841 404.948 293.07 401.117 294.18 398.708C294.634 397.717 295.015 396.46 295.66 395.397C297.874 395.991 300.207 396.026 302.439 395.274C303.399 396.707 303.908 398.847 303.142 401.567Z" fill="#459E30"></path>
<path d="M305.438 383.446C305.905 384.863 305.011 386.57 303.446 387.263C301.881 387.955 300.226 387.368 299.759 385.951C299.292 384.535 300.186 382.827 301.751 382.136C303.316 381.445 304.971 382.031 305.438 383.446Z" fill="#2E8E1A"></path>
<path d="M290.246 410.626C290.516 411.972 289.166 413.484 287.231 414.003C285.296 414.523 283.509 413.859 283.239 412.506C282.969 411.153 284.317 409.649 286.253 409.13C288.188 408.612 289.976 409.274 290.246 410.626Z" fill="#2E8E1A"></path>
<path d="M291.391 417.815C291.349 417.815 291.307 417.811 291.266 417.805C287.748 417.291 283.775 417.325 280.586 417.353C279.374 417.363 278.228 417.375 277.243 417.353C277.089 417.35 276.938 417.307 276.8 417.227C276.663 417.146 276.542 417.031 276.449 416.89C276.355 416.748 276.29 416.584 276.259 416.41C276.228 416.235 276.232 416.055 276.27 415.882C276.377 415.391 276.367 415.131 276.227 414.811C276.223 414.799 276.217 414.788 276.21 414.778C276.21 414.778 276.085 414.707 275.617 414.763C275.416 414.788 275.213 414.743 275.034 414.634C274.855 414.525 274.708 414.358 274.612 414.152C274.515 413.947 274.474 413.713 274.492 413.48C274.511 413.247 274.588 413.026 274.715 412.845C276.289 410.597 278.658 409.271 280.948 407.989C283.428 406.6 285.772 405.287 287.174 402.933C289.205 399.521 290.14 394.976 291.044 390.581C291.519 388.278 292.01 385.891 292.651 383.753C292.726 383.504 292.87 383.29 293.062 383.147C293.254 383.004 293.482 382.939 293.709 382.963C294.433 383.041 295.172 383.117 296.029 382.64C297.139 382.021 297.477 381.057 297.7 380.415C297.768 380.226 297.876 380.06 298.016 379.934C298.155 379.808 298.32 379.725 298.495 379.695C300.42 379.358 302.306 378.687 304.304 377.982C305.694 377.489 307.129 376.974 308.619 376.574C308.775 376.531 308.937 376.532 309.093 376.576C309.249 376.619 309.394 376.704 309.516 376.824C309.638 376.944 309.734 377.096 309.796 377.267C309.858 377.437 309.885 377.623 309.874 377.808C309.814 378.785 309.886 378.844 310.079 379.001C310.469 379.321 311.252 379.108 311.823 378.952L312.11 378.876C312.283 378.833 312.462 378.842 312.631 378.903C312.8 378.964 312.952 379.074 313.073 379.223C313.194 379.372 313.279 379.555 313.321 379.753C313.362 379.952 313.359 380.159 313.311 380.356C312.611 383.196 312.413 386.062 312.204 389.095C311.643 397.225 311.008 406.44 299.613 416.279C299.482 416.393 299.329 416.468 299.168 416.499C299.007 416.53 298.841 416.516 298.685 416.458L298.436 416.363C297.773 416.102 296.865 415.744 295.448 415.983C294.031 416.222 292.924 416.921 291.927 417.643C291.766 417.757 291.58 417.816 291.391 417.815ZM282.963 414.975C285.578 414.975 288.462 415.044 291.159 415.407C292.231 414.66 293.534 413.91 295.158 413.635C296.384 413.414 297.638 413.541 298.812 414.005C309.056 404.953 309.619 396.794 310.163 388.9C310.33 386.475 310.502 383.985 310.955 381.509C310.285 381.559 309.545 381.456 308.895 380.924C308.38 380.528 308.017 379.918 307.882 379.22C306.869 379.534 305.872 379.888 304.893 380.228C303.094 380.865 301.237 381.523 299.356 381.91C298.858 383.167 297.99 384.177 296.907 384.762C296.104 385.207 295.218 385.417 294.328 385.374C293.838 387.164 293.442 389.094 293.024 391.121C292.077 395.728 291.097 400.491 288.849 404.267C287.141 407.135 284.442 408.648 281.831 410.109C280.244 410.997 278.718 411.851 277.515 412.954C277.737 413.175 277.917 413.446 278.044 413.751C278.217 414.143 278.326 414.569 278.364 415.007C279.048 415.007 279.791 415.007 280.561 414.995C281.33 414.984 282.131 414.975 282.963 414.975Z" fill="#000072"></path>
<path d="M296.348 425.491C296.169 425.491 295.992 425.455 295.825 425.385C278.017 417.91 268.36 423.695 268.265 423.754C268.011 423.912 267.723 423.984 267.435 423.962C267.147 423.94 266.871 423.825 266.637 423.629C266.403 423.434 266.222 423.167 266.113 422.858C266.004 422.549 265.973 422.211 266.023 421.882C266.094 421.417 267.897 410.439 278.185 405.526C284.402 402.557 285.884 395.477 287.453 387.981C288.402 383.445 289.383 378.755 291.507 375.006C291.678 374.706 291.923 374.472 292.211 374.337C292.498 374.201 292.815 374.169 293.119 374.246C293.147 374.253 296.247 375.012 299.396 374.476C300.984 374.206 302.859 373.538 304.845 372.831C308.785 371.427 313.686 369.678 319.157 370.051C319.833 370.097 320.469 370.602 320.625 371.365C320.781 372.128 320.559 372.841 320.002 373.237C319.753 373.535 317.93 375.972 316.821 384.659C316.763 385.108 316.717 385.887 316.663 386.788C316.199 394.587 314.965 415.309 297.02 425.314C296.81 425.431 296.58 425.492 296.348 425.491ZM278.681 417.982C283.267 417.982 289.141 418.897 296.252 421.794C312.046 412.559 313.171 393.698 313.597 386.544C313.657 385.537 313.704 384.728 313.78 384.14C314.444 378.946 315.375 375.655 316.216 373.597C312.395 373.854 308.901 375.098 305.747 376.223C303.646 376.97 301.661 377.677 299.84 377.987C297.326 378.419 294.909 378.156 293.559 377.931C292.065 381.012 291.271 384.814 290.433 388.818C288.831 396.472 287.016 405.147 279.35 408.806C273.826 411.442 271.183 416.105 269.973 419.255C271.977 418.609 274.889 417.982 278.685 417.982H278.681Z" fill="#000072"></path>
<path d="M294.356 406.532C296.971 408.172 301.93 405.858 303.141 401.564C304.649 396.223 301.228 393.113 299.144 393.226C295.739 393.409 295.129 396.648 294.18 398.711C293.072 401.119 291.843 404.954 294.356 406.532Z" fill="#2E8E1A"></path>
<path d="M303.142 401.567C301.928 405.86 296.966 408.17 294.356 406.532C291.841 404.948 293.07 401.117 294.18 398.708C294.634 397.717 295.015 396.46 295.66 395.397C297.874 395.991 300.207 396.026 302.439 395.274C303.399 396.707 303.908 398.847 303.142 401.567Z" fill="#2A7A16"></path>
</svg>
