<svg width="373" height="358" viewBox="0 0 373 358" fill="none" xmlns="http://www.w3.org/2000/svg">
<g clip-path="url('#clip0_499_4418')">
<path d="M176.535 57.5122C176.535 57.5122 169.03 11.5439 136.645 10.2907C110.542 9.28084 90.0829 28.7898 95.0501 54.2936C101.439 87.1063 133.584 93.3215 133.584 93.3215" fill="#60567C"></path>
<g opacity="0.3">
<path d="M94.5424 51.0042C96.8632 30.6992 115.544 16.5058 138.364 17.3939C157.201 18.1241 167.95 33.3849 173.762 46.71C169.352 33.0396 158.844 11.1507 136.64 10.2922C111.676 9.32186 91.8698 27.1336 94.5424 51.0042Z" fill="white"></path>
</g>
<path d="M124.293 93.3215C123.855 93.321 123.422 93.2291 123.022 93.0518C113.367 88.7757 96.4932 78.1183 91.9715 54.8956C89.5964 42.6988 92.5271 31.0316 100.226 22.0435C108.814 12.011 122.143 6.58366 136.766 7.15271C163.77 8.19872 174.638 37.5379 178.057 50.1047C178.247 50.8991 178.12 51.7362 177.704 52.4387C177.288 53.1412 176.614 53.6537 175.826 53.8676C175.038 54.0815 174.198 53.98 173.484 53.5846C172.77 53.1891 172.238 52.5309 172 51.7494C168.946 40.5213 159.374 14.3086 136.525 13.4287C123.813 12.9353 112.325 17.5651 104.991 26.1288C98.5659 33.6301 96.13 43.4192 98.132 53.6934C101.912 73.1004 115.136 82.6839 125.567 87.3087C126.224 87.6006 126.762 88.1099 127.09 88.7513C127.417 89.3927 127.514 90.1271 127.365 90.8317C127.216 91.5362 126.829 92.168 126.27 92.6213C125.71 93.0746 125.012 93.3218 124.293 93.3215Z" fill="#232333"></path>
<path d="M134.035 66.7469C144.002 66.7469 152.082 58.6619 152.082 48.6885C152.082 38.7151 144.002 30.6301 134.035 30.6301C124.067 30.6301 115.987 38.7151 115.987 48.6885C115.987 58.6619 124.067 66.7469 134.035 66.7469Z" fill="white"></path>
<path d="M61.9977 111.177C67.2297 105.777 70.5385 98.802 71.4126 91.3314C73.6431 72.4704 60.1716 55.3691 41.3203 53.1324C22.469 50.8957 5.37977 64.3819 3.15424 83.2429C0.928705 102.104 14.3871 119.205 33.2334 121.439C38.2999 122.046 43.438 121.512 48.2714 119.874L63.0135 126.835L61.9977 111.177Z" fill="white"></path>
<g opacity="0.5">
<path d="M40.5426 59.7111C58.1513 61.7981 71.0623 76.86 70.8683 94.2095C71.1416 93.0153 71.3523 91.8075 71.4995 90.5912C73.7316 71.7171 60.2601 54.6126 41.4088 52.3857C22.5576 50.1589 5.46831 63.6319 3.2362 82.4929C3.09251 83.7154 3.01351 84.9445 2.99951 86.1753C6.85392 69.2501 22.929 57.6158 40.5426 59.7111Z" fill="white"></path>
</g>
<path d="M63.0169 129.741C62.5884 129.741 62.1652 129.646 61.7776 129.463L48.071 122.993C42.7669 124.598 37.1719 124.999 31.6931 124.168C26.2144 123.337 20.9897 121.294 16.3994 118.188C11.809 115.082 7.96849 110.991 5.15723 106.213C2.34597 101.435 0.634707 96.0897 0.147984 90.5665C-0.33874 85.0432 0.41132 79.4808 2.34358 74.2841C4.27583 69.0874 7.34167 64.3872 11.318 60.5254C15.2943 56.6636 20.0811 53.7374 25.3299 51.9598C30.5788 50.1822 36.1577 49.5978 41.6607 50.2493C62.0718 52.667 76.7103 71.2501 74.2925 91.6735C73.4095 99.335 70.1511 106.528 64.9745 112.242L65.913 126.646C65.9387 127.042 65.8827 127.44 65.7487 127.814C65.6147 128.188 65.4055 128.531 65.1339 128.821C64.8623 129.111 64.5342 129.342 64.1698 129.501C63.8054 129.659 63.4125 129.741 63.0152 129.741H63.0169ZM48.2748 116.968C48.7033 116.969 49.1265 117.064 49.5141 117.246L59.7986 122.101L59.0984 111.367C59.0722 110.962 59.1307 110.556 59.2703 110.176C59.4098 109.795 59.6273 109.448 59.9087 109.156C65.2357 103.624 68.3519 96.3302 68.668 88.6544C68.9842 80.9787 66.4783 73.4531 61.6243 67.5009C56.7703 61.5488 49.9048 57.5828 42.3262 56.353C34.7475 55.1232 26.9813 56.7149 20.4961 60.827C14.011 64.9391 9.25659 71.2866 7.13217 78.6689C5.00775 86.0512 5.66057 93.9566 8.96716 100.89C12.2737 107.823 18.0049 113.304 25.0766 116.295C32.1483 119.286 40.0704 119.581 47.3445 117.123C47.6439 117.02 47.9583 116.968 48.2748 116.968Z" fill="#232333"></path>
<g opacity="0.25">
<path d="M62.2574 110.896C56.3779 113.982 49.8191 115.543 43.1809 115.436C36.5428 115.33 30.0373 113.56 24.2596 110.287C18.4819 107.015 13.6166 102.345 10.1087 96.7053C6.60078 91.0653 4.56236 84.6352 4.17991 78.0032C3.70303 79.7206 3.36011 81.4725 3.15427 83.2431C0.915585 102.104 14.3871 119.205 33.2335 121.439C38.2999 122.046 43.4381 121.512 48.2714 119.875L63.0135 126.835L61.9928 111.178C62.0848 111.086 62.1703 110.99 62.2574 110.896Z" fill="#181558"></path>
</g>
<path d="M38.6063 107.957H35.72C35.1477 107.957 34.5987 107.73 34.194 107.325C33.7893 106.92 33.5619 106.371 33.5619 105.798V103.155C31.2262 102.826 29.004 102.015 27.4556 100.908C27.0733 100.635 26.7906 100.244 26.6503 99.7955C26.51 99.3467 26.5198 98.8644 26.6782 98.4217L27.7778 95.3494C27.8885 95.0407 28.068 94.7612 28.3027 94.5322C28.5374 94.3031 28.8212 94.1306 29.1324 94.0275C29.4437 93.9245 29.7743 93.8937 30.0992 93.9376C30.4241 93.9814 30.7347 94.0986 31.0076 94.2804C32.6186 95.318 34.4912 95.8759 36.4071 95.8889C37.9275 95.8889 39.6944 95.2787 39.6944 93.5568C39.6944 92.6374 39.3986 91.5371 35.8647 90.103C31.4711 88.381 26.9576 85.8433 26.9576 80.1708C26.9576 75.9161 29.6697 72.4409 33.8758 71.0923V68.1582C33.8758 67.8745 33.9317 67.5936 34.0403 67.3315C34.1488 67.0694 34.3079 66.8312 34.5085 66.6307C34.7091 66.4301 34.9472 66.2711 35.2092 66.1627C35.4713 66.0543 35.7521 65.9986 36.0356 65.9988H38.8759C39.4483 65.9988 39.9972 66.2263 40.4019 66.6313C40.8066 67.0362 41.034 67.5855 41.034 68.1582V70.6367C42.7584 70.8885 44.4184 71.4692 45.9239 72.3472C46.3648 72.605 46.7 73.0109 46.8697 73.4928C47.0395 73.9747 47.0328 74.5012 46.851 74.9786L45.7004 78.0048C45.5897 78.2967 45.4171 78.5612 45.1945 78.7799C44.9719 78.9987 44.7046 79.1666 44.4109 79.2721C44.1173 79.3776 43.8042 79.4182 43.4934 79.3911C43.1825 79.364 42.8813 79.2698 42.6103 79.115C41.1923 78.2595 39.5634 77.818 37.9078 77.8404C36.1934 77.8404 35.2105 78.49 35.2105 79.6232C35.2105 80.4603 35.5228 81.1823 39.5547 82.8516C43.4847 84.4568 47.995 87.0883 47.995 93.2393C47.995 97.698 45.1531 101.333 40.7546 102.732V105.801C40.7537 106.372 40.5273 106.919 40.1248 107.323C39.7223 107.727 39.1764 107.955 38.6063 107.957Z" fill="#16B768"></path>
<path d="M178.143 263.613L151.065 330.518C151.065 330.518 67.9903 343.07 32.8848 263.291L81.0871 221.188C81.0871 221.188 81.2087 221.516 81.4454 222.135C82.8409 225.664 88.3833 238.481 99.2759 250.078C114.301 266.107 139.531 279.818 178.143 263.613Z" fill="#60567C"></path>
<g opacity="0.25">
<path d="M178.143 263.613L151.065 330.518C151.065 330.518 67.9903 343.07 32.8848 263.291L81.0871 221.188C81.0871 221.188 81.2087 221.516 81.4454 222.135C75.0647 237.289 62.3361 274.831 82.0437 296.033C107.149 323.04 147.998 303.894 134.127 284.695C122.585 268.726 101.582 261.505 99.2809 250.078C114.301 266.107 139.531 279.818 178.143 263.613Z" fill="#181558"></path>
</g>
<path d="M138.55 334.324C126.995 334.317 115.492 332.792 104.335 329.786C80.7369 323.372 48.6968 306.851 30.074 264.533C29.8106 263.933 29.7452 263.265 29.8874 262.625C30.0296 261.986 30.3719 261.408 30.8646 260.977L79.0604 218.873C79.4381 218.544 79.8907 218.311 80.3787 218.197C80.8668 218.082 81.3755 218.089 81.8604 218.216C82.3453 218.343 82.7919 218.587 83.161 218.926C83.5301 219.266 83.8107 219.69 83.9782 220.163C84.0867 220.467 95.262 251.106 122.276 263.033C138.219 270.07 156.615 269.312 176.954 260.773C177.705 260.457 178.551 260.453 179.306 260.762C180.06 261.07 180.661 261.666 180.976 262.418C181.292 263.169 181.296 264.016 180.987 264.77C180.679 265.525 180.084 266.126 179.333 266.442C157.355 275.67 137.307 276.407 119.746 268.636C96.2006 258.215 84.0456 235.647 79.874 226.327L36.6224 264.11C50.8829 295.135 74.1951 315.228 105.946 323.852C130.197 330.441 150.406 327.505 150.606 327.471C151.005 327.41 151.413 327.429 151.805 327.527C152.197 327.624 152.566 327.797 152.891 328.037C153.216 328.277 153.49 328.579 153.699 328.925C153.907 329.271 154.045 329.655 154.105 330.054C154.166 330.454 154.147 330.861 154.049 331.254C153.952 331.646 153.779 332.015 153.539 332.34C153.299 332.665 152.998 332.94 152.652 333.149C152.306 333.357 151.923 333.496 151.523 333.556C151.111 333.617 146.249 334.324 138.55 334.324Z" fill="#232333"></path>
<path d="M274.61 421.739C274.096 424.042 273.381 426.295 272.473 428.473C259.488 459.706 209.143 471.268 168.981 462.04L137.804 448.764C133.422 445.682 118.044 435.643 113.105 418.174C112.323 415.419 111.697 412.622 111.231 409.796C107.332 386.328 114.298 361.01 129.311 329.41C138.641 309.79 151.067 287.739 165.94 262.214L253.765 244.01C250.545 281.228 257.795 310.021 265.052 336.034C273.249 365.433 281.461 391.287 274.61 421.739Z" fill="white"></path>
<path d="M222.704 434.403C232.477 420.641 243.579 393.433 239.333 346.958C247.507 345.971 263.942 430.005 272.465 428.469C255.144 431.583 238.528 433.607 222.704 434.403Z" fill="#E8E8E8"></path>
<path d="M265.047 336.041C213.067 364.875 152.47 349.789 129.308 329.416C133.515 320.563 138.358 311.215 143.772 301.273C150.347 289.184 157.769 276.228 165.935 262.22L253.758 244.02C251.345 271.894 254.805 295.046 259.746 315.841C261.4 322.808 263.227 329.513 265.047 336.041Z" fill="#60567C"></path>
<g opacity="0.25">
<path d="M259.743 315.841C246.215 321.433 230.609 324.629 213.978 324.629C185.998 324.629 160.887 315.583 143.769 301.274C150.343 289.186 157.766 276.229 165.932 262.222L253.755 244.022C251.348 271.894 254.8 295.046 259.743 315.841Z" fill="#181558"></path>
</g>
<path d="M268.37 311.8C259.001 316.751 248.318 320.441 236.782 322.563L231.818 275.082C237.944 278.535 253.226 290.607 268.37 311.8Z" fill="#545468"></path>
<path d="M169.329 460.515C196.544 463.877 226.141 462.994 250.159 448.437C258.87 442.967 266.584 435.234 270.011 425.379C280.81 390.114 265.902 354.54 257.532 320.229C251.237 295.383 248.408 269.379 250.793 243.767L254.363 246.943C232.461 251.495 188.378 260.337 166.463 264.771L168.177 263.537L155.424 286.295C138.289 318.252 115.417 356.874 113.494 393.413C113.104 405.71 114.737 418.619 121.609 429.093C124.968 434.272 129.275 438.961 133.884 443.168C135.457 444.6 137.063 445.983 138.719 447.452C139.016 447.715 139.206 448.079 139.252 448.473C139.298 448.867 139.197 449.264 138.968 449.589C138.74 449.913 138.4 450.142 138.013 450.231C137.627 450.321 137.221 450.265 136.874 450.074C128.964 445.922 121.67 440.005 116.505 432.527C108.632 421.201 106.66 406.673 106.997 393.167C107.881 370.873 116.275 349.624 125.647 329.691C136.936 305.996 150.223 283.387 163.692 260.908C163.872 260.591 164.119 260.316 164.415 260.103C164.711 259.89 165.05 259.743 165.408 259.673L209.271 250.336L253.157 241.099C253.539 241.019 253.933 241.014 254.317 241.086C254.701 241.159 255.067 241.306 255.394 241.52C255.721 241.734 256.002 242.01 256.222 242.333C256.442 242.656 256.596 243.019 256.676 243.402C255.68 259.284 255.76 275.266 258.167 291.038C261.258 313.004 267.983 333.885 273.781 355.344C280.202 379.235 284.301 406.126 275.463 430.058C267.038 449.728 246.166 460.369 226.293 464.974C214.406 467.731 202.155 468.757 189.999 467.785C182.752 467.127 175.524 465.852 168.631 463.57C168.267 463.44 167.963 463.181 167.777 462.843C167.591 462.504 167.536 462.108 167.622 461.732C167.708 461.355 167.93 461.023 168.245 460.798C168.559 460.574 168.945 460.474 169.329 460.515Z" fill="#232333"></path>
<path d="M287.281 438.411C280.78 441.678 261.503 442.715 255.931 435.944C256.902 426.869 255.178 418.004 250.507 417.501C247.093 417.133 241.756 419.679 241.756 419.679C241.756 419.679 235.63 414.036 245.931 401.219C245.931 401.219 246.273 398.933 246.491 394.999C247.001 385.521 246.784 366.502 239.328 346.962L231.815 275.082C242.198 280.933 278.895 311.557 296.648 369.423C299.278 377.975 300.414 386.71 300.506 394.991C300.76 416.662 293.799 435.139 287.281 438.411Z" fill="#60567C"></path>
<g opacity="0.25">
<path d="M268.37 311.8C259.001 316.751 248.318 320.441 236.782 322.563L231.818 275.082C237.944 278.535 253.226 290.607 268.37 311.8Z" fill="#181558"></path>
</g>
<path d="M233.324 272.397C241.592 277.392 248.52 283.997 255.157 290.885C274.552 311.443 288.882 336.514 297.893 363.224C301.03 372.209 303.087 381.667 303.481 391.198C304.203 405.342 301.542 429.535 290.766 439.747C284.322 444.875 268.502 444.916 260.851 442.418C258.244 441.582 252.614 439.035 252.881 435.617C253.297 431.366 253.316 426.311 251.75 422.473C250.941 420.812 250.634 420.381 249.163 420.58C247.355 420.762 245.006 421.583 243.081 422.453C242.529 422.725 241.907 422.821 241.299 422.729C240.69 422.637 240.124 422.361 239.677 421.938C233.515 415.073 238.668 405.232 243.533 399.29L242.889 400.77C243.612 391.91 243.875 382.91 243.124 374.023C242.382 365.014 240.628 356.118 237.894 347.503C237.776 347.127 237.806 346.721 237.978 346.368C238.151 346.014 238.451 345.74 238.819 345.601C239.187 345.462 239.594 345.47 239.956 345.622C240.319 345.774 240.609 346.059 240.768 346.419C242.647 350.709 244.221 355.126 245.479 359.637C249.105 373.22 250.979 387.667 248.967 401.674C248.896 402.219 248.672 402.732 248.323 403.155C246.35 405.638 244.595 408.302 243.673 410.995C242.836 413.148 242.766 415.976 243.837 417.427L240.435 416.914C244.585 415.2 250.058 412.838 254.233 415.807C259.751 420.348 259.516 429.974 258.985 436.28L258.301 434.002C263.443 439.253 278.091 438.405 284.707 436.171C290.121 434.431 293.374 423.483 294.801 418.164C298.002 405.063 298.307 391.421 295.693 378.19C290.486 356.093 280.491 335.1 267.795 316.364C260.07 305.139 251.147 294.673 240.908 285.698C237.591 282.81 233.97 279.918 230.247 277.734C226.838 275.683 229.667 270.462 233.319 272.409L233.324 272.397Z" fill="#232333"></path>
<path d="M258.717 299.567C258.717 299.567 229.877 323.895 193.956 328.031C174.094 330.318 189.28 319.165 189.28 319.165C189.28 319.165 195.321 317.609 203.235 314.261C212.111 310.526 223.316 304.541 230.995 295.993C232.234 294.628 233.377 293.179 234.417 291.656C247.532 272.401 258.717 299.567 258.717 299.567Z" fill="#0096F0"></path>
<g opacity="0.25">
<path d="M258.717 299.567C258.717 299.567 229.877 323.895 193.956 328.031C174.094 330.317 189.28 319.165 189.28 319.165C189.28 319.165 195.321 317.609 203.235 314.26C204.315 316.88 207.18 319.601 214.723 317.879C228.377 314.772 245.679 303.899 230.995 295.987C232.234 294.621 233.377 293.172 234.417 291.65C247.532 272.4 258.717 299.567 258.717 299.567Z" fill="#181558"></path>
</g>
<path d="M189.341 330.423C185.068 330.423 182.717 329.436 181.904 327.354C180.434 323.607 185.712 319.211 188.048 317.496C188.262 317.342 188.504 317.23 188.759 317.167C189.072 317.086 220.175 308.871 232.695 290.497C236.516 284.889 240.701 282.282 245.124 282.742C254.164 283.685 260.006 297.245 260.642 298.789C260.81 299.197 260.843 299.647 260.739 300.076C260.634 300.504 260.397 300.888 260.06 301.172C258.862 302.182 230.325 325.951 194.19 330.118C192.581 330.311 190.962 330.413 189.341 330.423ZM185.834 325.793C186.296 326.033 188.059 326.615 193.715 325.971C224.547 322.42 250.368 303.488 256.165 298.955C254.179 294.801 249.653 287.385 244.69 286.87C241.896 286.589 239.023 288.589 236.13 292.832C223.375 311.552 194.169 320.004 190.203 321.079C188.067 322.704 186.095 324.831 185.834 325.788V325.793Z" fill="#232333"></path>
<path d="M170.015 326.064C148.269 311.262 150.085 281.51 150.085 281.51C150.085 281.51 164.275 251.706 164.275 275.014C164.275 280.991 165.179 286.867 166.533 292.293C167.735 297.077 169.293 301.764 171.195 306.315C174.766 314.93 178.389 320.546 178.389 320.546C178.389 320.546 186.547 337.315 170.015 326.064Z" fill="#0096F0"></path>
<g opacity="0.25">
<path d="M170.015 326.064C148.269 311.262 150.085 281.51 150.085 281.51C150.085 281.51 164.275 251.706 164.275 275.014C164.275 280.991 165.179 286.867 166.533 292.293C164.326 290.635 161.078 288.525 158.76 288.441C154.921 288.291 156.921 304.097 162.284 308.67C165.965 311.818 169.411 308.621 171.195 306.31C174.766 314.925 178.389 320.542 178.389 320.542C178.389 320.542 186.547 337.315 170.015 326.064Z" fill="#181558"></path>
</g>
<path d="M178.37 332.029C176.121 332.029 173.041 330.638 168.836 327.783C146.374 312.488 147.924 282.65 148.001 281.387C148.018 281.121 148.085 280.86 148.2 280.619C152.063 272.506 157.653 263.059 162.336 264.118C165.873 264.919 166.35 270.077 166.35 275.016C166.35 297.783 179.992 319.204 180.132 319.422C180.178 319.492 180.219 319.565 180.255 319.64C181.504 322.208 184.082 328.465 181.054 331.085C180.308 331.723 179.351 332.06 178.37 332.029ZM152.145 282.032C152.048 285.486 152.004 311.29 171.184 324.349C175.95 327.591 177.758 327.89 178.306 327.878C178.519 326.901 177.732 324 176.572 321.568C175.344 319.637 162.194 298.378 162.196 275.024C162.196 270.396 161.609 268.782 161.336 268.281C159.535 269.108 155.414 275.254 152.147 282.025L152.145 282.032Z" fill="#232333"></path>
<path d="M189.275 415.968C189.275 415.968 174.811 437.433 169.939 440.112C165.067 442.791 150.604 417.659 150.604 417.659C150.604 417.659 150.713 416.386 150.946 414.083C152.018 403.812 155.766 373.062 164.844 343.485C166.257 338.88 167.802 334.284 169.495 329.806C181.478 298.028 185.743 332.469 185.743 332.469C185.743 332.469 186.622 389.279 189.275 415.968Z" fill="#0096F0"></path>
<g opacity="0.25">
<path d="M189.275 415.968C189.275 415.968 174.811 437.433 169.939 440.112C165.067 442.791 150.604 417.659 150.604 417.659C150.604 417.659 150.713 416.386 150.946 414.083C156.745 419.943 164.467 429.948 168.358 428.341C175.822 425.277 183.024 414.754 182.924 411.162C182.773 405.511 180.406 346.264 180.406 346.264C180.406 346.264 170.901 346.935 164.844 343.485C166.257 338.88 167.802 334.284 169.495 329.806C181.478 298.028 185.743 332.469 185.743 332.469C185.743 332.469 186.622 389.279 189.275 415.968Z" fill="#181558"></path>
</g>
<path d="M169.125 442.413C166.108 442.413 162.257 438.851 156.749 431.096C152.513 425.136 148.949 418.958 148.798 418.697C148.588 418.331 148.494 417.909 148.529 417.488C148.57 416.995 152.703 368.477 167.554 329.071C171.586 318.371 175.174 313.808 179.175 314.29C185.21 315.011 187.306 328.188 187.804 332.207C187.813 332.282 187.818 332.357 187.819 332.433C187.829 332.998 188.729 389.465 191.346 415.763C191.394 416.245 191.272 416.729 191.001 417.131C189.492 419.373 176.104 439.099 170.948 441.938C170.392 442.251 169.764 442.414 169.125 442.413ZM152.728 417.187C159.168 428.262 166.665 437.934 169.047 438.227C172.299 436.267 181.64 423.521 187.127 415.424C184.606 389.234 183.701 335.47 183.655 332.612C182.755 325.5 180.343 318.621 178.673 318.422C178.652 318.433 176.06 318.269 171.441 330.54C157.727 366.944 153.271 411.34 152.728 417.187Z" fill="#232333"></path>
<path d="M162.426 319.279C162.426 319.279 169.293 309.383 172.239 309.996C176.424 310.868 183.503 313.313 190.674 313.812C194.8 314.1 197.543 325.16 197.389 326.336C197.06 328.803 186.136 340.33 184.811 340.48C183.487 340.63 168.968 339.513 166.691 337.582C164.415 335.651 161.642 324.338 162.426 319.279Z" fill="#0096F0"></path>
<g opacity="0.5">
<path d="M197.382 326.333C197.298 326.951 196.56 328.132 195.457 329.573C194.635 326.013 192.262 319.349 189.073 319.132C181.904 318.639 174.818 316.185 170.635 315.315C168.55 314.879 164.518 319.693 162.318 322.551C162.24 321.454 162.273 320.352 162.418 319.262C162.418 319.262 169.287 309.366 172.232 309.986C176.415 310.856 183.501 313.3 190.673 313.803C194.797 314.101 197.541 325.16 197.382 326.333Z" fill="white"></path>
</g>
<g opacity="0.25">
<path d="M197.382 326.332C197.065 328.799 186.13 340.328 184.806 340.477C183.483 340.625 168.96 339.514 166.685 337.58C164.41 335.646 161.641 324.336 162.411 319.272C162.411 319.272 162.788 318.736 163.398 317.915C164.219 322.629 165.834 327.484 167.255 328.689C169.532 330.615 184.047 331.737 185.369 331.585C186.365 331.477 192.724 324.997 196.003 320.711C196.943 323.334 197.45 325.818 197.382 326.332Z" fill="#181558"></path>
</g>
<path d="M184.726 342.56C182.26 342.56 168.272 341.656 165.343 339.174C162.255 336.556 159.558 324.208 160.366 318.961C160.414 318.648 160.533 318.351 160.713 318.091C164.204 313.062 169.109 307.228 172.658 307.96C173.928 308.225 175.391 308.618 177.082 309.059C181.027 310.101 185.925 311.397 190.814 311.738C192.293 311.84 193.665 312.657 194.9 314.167C197.804 317.719 199.666 324.981 199.445 326.606C199.369 327.194 199.134 328.985 193.005 335.681C186.923 342.332 185.608 342.485 185.046 342.551C184.987 342.557 184.878 342.56 184.726 342.56ZM164.416 320.061C163.892 325.137 166.678 334.814 168.032 336.015C169.743 337.251 181.63 338.436 184.282 338.437C186.478 336.913 194.445 328.202 195.304 326.087C195.115 323.785 192.397 316.032 190.526 315.902C185.245 315.535 180.131 314.183 176.022 313.096C174.449 312.68 173.082 312.318 171.944 312.075C170.687 312.394 167.273 316.025 164.416 320.061Z" fill="#232333"></path>
<g opacity="0.5">
<path d="M167.622 359.352C167.622 359.352 156.321 411.31 165.225 408.843C173.085 406.666 171.755 348.272 167.622 359.352Z" fill="white"></path>
</g>
<path d="M226.948 291.115C275.69 293.049 353.018 288.319 356.923 210.884C359.438 160.95 350.513 97.8164 295.465 53.4187C291.762 51.4122 288.068 49.0389 275.926 40.5245C263.338 31.9377 248.247 23.6486 231.618 4.71526C216.25 -3.42911 210.497 22.3132 219.455 36.0066C204.399 37.3125 175.127 4.86986 165.664 18.8857C162.493 23.5828 163.618 35.9079 172.18 43.8385C155.638 48.2462 143.744 57.9431 143.744 57.9431C111.26 79.1396 104.041 114.13 94.1298 140.541C87.1886 159.037 75.8094 176.046 76.3486 199.991C77.6635 258.615 163.968 288.609 226.948 291.115Z" fill="white"></path>
<g opacity="0.25">
<path d="M354.663 227.916C340.97 289.02 271.84 292.893 226.95 291.107C166.747 288.721 85.2424 261.212 77.0093 207.591C103.594 248.05 173.532 269.026 227.496 271.164C268.719 272.795 329.032 269.98 354.663 227.916Z" fill="#181558"></path>
</g>
<path d="M227.011 289.54C241.455 288.337 255.831 288.431 270.17 286.765C297.705 283.64 327.382 274.147 342.477 249.387C349.92 237.46 352.888 223.426 353.506 209.421C354.739 180.834 352.04 151.74 342.247 124.776C333.338 98.3672 313.596 72.2697 293.831 56.425C284.843 51.394 277.023 45.0768 268.426 39.5359C254.08 30.3834 240.361 19.8 229.261 6.77425L230.149 7.47652C219.723 1.9192 217.305 17.9135 218.705 25.0744C219.243 28.3851 220.349 31.5939 222.075 34.2681C223.416 36.1874 222.031 38.9833 219.72 39.1166C207.384 39.8501 190.955 24.9494 179.159 20.2358C173.855 17.9234 167.653 16.8396 167.227 24.456C166.823 30.6811 169.777 37.3091 174.357 41.5704C174.65 41.8687 174.881 42.2218 175.037 42.6095C175.194 42.9972 175.272 43.4119 175.268 43.83C175.264 44.248 175.178 44.6611 175.014 45.0458C174.851 45.4305 174.613 45.7791 174.315 46.0718C173.94 46.4373 173.482 46.7065 172.98 46.8563C170.539 47.5701 168.105 48.325 165.735 49.2888C158.678 52.0847 151.833 55.8674 145.83 60.4988C135.933 67.163 127.312 75.6643 120.902 85.8266C110.889 101.087 105.545 118.583 99.5819 135.736C95.739 147.357 89.9007 158.564 85.568 169.889C67.0849 217.367 95.4727 247.816 136.921 267.128C147.922 272.141 159.321 276.136 170.681 280.818C171.04 280.963 171.333 281.234 171.506 281.581C171.678 281.928 171.717 282.326 171.616 282.7C171.515 283.073 171.28 283.397 170.956 283.609C170.632 283.821 170.242 283.907 169.859 283.851C145.204 279.935 121.841 268.846 102.121 253.49C87.164 241.575 75.1126 224.567 73.2207 205.076C71.8631 192.325 74.3976 179.235 78.9604 167.395C82.2691 158.613 86.375 150.487 89.8087 141.903C93.1667 133.387 95.8672 124.662 99.0132 115.975C107.338 91.7984 119.863 69.283 141.913 55.1487C149.227 49.4533 161.045 43.3647 171.356 40.7908C171.356 40.7908 170.041 46.1524 170.025 46.1228C165.518 41.8859 162.476 36.323 161.341 30.2403C159.974 23.7422 161.389 14.9745 168.858 12.7345C178.72 9.85963 192.668 20.744 200.99 25.4099C204.073 27.2668 207.159 29.0561 210.27 30.4985C212.954 31.7139 216.322 33.0691 219.167 32.8635L216.832 37.7186C211.361 28.9131 210.421 17.1603 214.839 7.75611C216.812 3.51288 221.352 -0.273135 226.391 0.0146815C228.921 0.103493 231.158 0.925826 233.094 1.93236C233.432 2.10781 233.734 2.34615 233.983 2.63463C244.892 15.1341 258.114 25.104 272.105 33.9507C280.475 39.2629 288.471 45.6163 297.107 50.3973C320.708 68.829 338.779 94.2111 348.868 122.383C359.011 150.273 361.923 180.304 360.457 209.75C359.275 242.173 344.213 268.605 313.982 282.035C293.4 291.229 271.028 294.079 248.84 294.37C241.488 294.342 234.153 293.86 226.894 292.687C225.038 292.35 225.213 289.707 227.019 289.549L227.011 289.54Z" fill="#232333"></path>
<path d="M231.171 223.709C231.171 223.709 199.519 214.638 210.924 178.209C222.33 141.78 231.27 140.637 250.198 144.347C269.127 148.057 295.797 169.969 303.805 184.447C311.813 198.925 309.811 222.36 303.772 230.356C298.82 236.915 285.332 239.331 266.737 235.335C248.142 231.338 237.958 226.809 231.171 223.709Z" fill="#60567C"></path>
<path d="M141.282 201.645C141.282 201.645 164.622 202.797 168.45 170.109C172.278 137.421 166.835 134.066 153.407 131.976C139.98 129.886 115.917 140.508 106.257 150.12C96.5972 159.731 90.6684 179.329 92.1214 187.454C93.3131 194.123 101.326 199.728 114.618 201.494C127.911 203.261 135.922 202.326 141.282 201.645Z" fill="#60567C"></path>
<path d="M306.685 127.124C308.368 124.744 296.942 97.0548 276.849 102.002C269.488 103.811 270.404 110.283 274.505 112.506C278.408 114.621 284.602 114.771 289.626 117.153C299.421 121.794 305.001 129.504 306.685 127.124Z" fill="#686779"></path>
<path d="M135.343 109.194C134.255 107.043 146.967 85.7759 162.807 92.2657C168.61 94.6439 167.081 99.8312 163.45 101.147C159.998 102.403 154.913 101.772 150.513 103.109C141.934 105.717 136.431 111.354 135.343 109.194Z" fill="#686779"></path>
<g opacity="0.5">
<path d="M188.366 189.166C188.038 191.608 183.789 192.11 180.761 191.672C177.733 191.235 173.766 189.534 174.086 187.098C174.25 185.845 181.392 186.88 181.392 186.88C181.392 186.88 188.531 187.913 188.366 189.166Z" fill="white"></path>
</g>
<path d="M307.033 95.8707C286.98 76.7926 289.073 62.0844 294.973 52.6555C302.427 40.7481 314.962 27.4922 333.174 29.6056C359.123 32.6104 376.352 55.0255 367.538 79.4668C362.278 94.0731 352.392 102.163 343.32 106.625C333.133 111.645 321.887 110.003 307.033 95.8707Z" fill="#60567C"></path>
<g opacity="0.3">
<path d="M288.76 64.4691C296.264 51.3348 309.955 34.8438 330.631 37.2401C352.259 39.7498 368.107 55.1159 369.045 74.1907C373.812 51.8808 357.241 32.3932 333.176 29.6072C308.231 26.7224 293.938 52.639 288.76 64.4691Z" fill="white"></path>
</g>
<path d="M287.587 63.2405C291.112 48.8382 302.881 33.8915 316.89 28.3572C324.502 25.3244 333.023 25.5333 340.84 27.6813C356.353 31.6696 370.097 44.2677 372.51 60.5745C374.522 72.5806 370.125 84.7248 363.115 94.3345C355.995 103.859 345.312 110.452 333.961 113.482C329.934 114.457 328.342 108.627 332.306 107.423C342.477 104.686 351.767 98.984 358.094 90.5649C368.837 76.0557 370.585 57.2556 356.994 43.9239C349.745 36.8026 339.129 32.8389 329.022 32.7402C318.576 32.8439 309.752 38.9604 303.029 46.9172C298.366 52.4811 294.723 58.5763 290.453 64.5151C289.483 65.9476 287.166 64.9181 287.587 63.2356V63.2405Z" fill="#232333"></path>
<path d="M88.8914 160.572L104.066 166.298C104.066 166.298 110.591 183.91 106.755 217.436C103.303 247.565 90.0814 267.483 90.0814 267.483L75.9031 270.1L64.353 239.244L88.8914 160.572Z" fill="#5DAA55"></path>
<path d="M75.9031 272.455C75.4239 272.455 74.9562 272.308 74.5624 272.035C74.1686 271.761 73.8674 271.374 73.699 270.925L62.1489 240.07C61.9649 239.58 61.9499 239.042 62.1062 238.542L86.6528 159.871C86.7487 159.565 86.9061 159.282 87.1152 159.039C87.3243 158.796 87.5808 158.598 87.8689 158.457C88.1571 158.317 88.4709 158.236 88.7911 158.221C89.1114 158.206 89.4313 158.257 89.7313 158.37L104.904 164.096C105.219 164.215 105.505 164.4 105.743 164.639C105.98 164.878 106.163 165.165 106.28 165.481C106.554 166.221 112.956 184.007 109.1 217.706C105.629 248.048 92.6028 267.955 92.0506 268.789C91.8759 269.052 91.6501 269.277 91.3866 269.451C91.1231 269.625 90.8274 269.744 90.517 269.801L76.3387 272.417C76.195 272.443 76.0492 272.456 75.9031 272.455ZM66.8399 239.175L77.417 267.432L88.6367 265.362C91.0775 261.34 101.457 242.976 104.416 217.173C107.634 189.049 103.402 172.216 102.174 168.106L90.3954 163.665L66.8399 239.175Z" fill="#232333"></path>
<path d="M32.8882 166.019L88.8913 160.572C88.8913 160.572 109.317 224.987 75.9063 270.106L30.3931 267.161C30.3931 267.161 42.1059 242.961 41.0441 209.418C40.2863 185.543 32.8882 166.019 32.8882 166.019Z" fill="#83D67C"></path>
<path d="M41.7461 259.885C47.0794 243.523 49.5413 226.361 49.0226 209.158C48.5575 194.478 45.7353 181.433 43.444 173.019L82.9053 169.18C85.1841 179.032 86.5444 189.075 86.9684 199.179C87.4434 211.035 86.5082 222.224 84.1873 232.434C81.6939 243.407 77.5814 253.278 71.9387 261.837L41.7461 259.885Z" fill="#54B74F"></path>
<path d="M48.9206 178.829C51.9522 175.796 51.9522 170.877 48.9206 167.844C45.8889 164.81 40.9736 164.81 37.942 167.844C34.9103 170.877 34.9103 175.796 37.9419 178.829C40.9736 181.863 45.8889 181.863 48.9206 178.829Z" fill="#83D67C"></path>
<path d="M43.4309 177.074C45.4943 177.074 47.167 175.401 47.167 173.336C47.167 171.271 45.4943 169.598 43.4309 169.598C41.3675 169.598 39.6948 171.271 39.6948 173.336C39.6948 175.401 41.3675 177.074 43.4309 177.074Z" fill="#54B74F"></path>
<path d="M90.4805 169.656C90.7445 165.374 87.4895 161.689 83.2102 161.425C78.9309 161.161 75.2478 164.418 74.9838 168.699C74.7199 172.981 77.9749 176.667 82.2542 176.931C86.5335 177.195 90.2165 173.938 90.4805 169.656Z" fill="#83D67C"></path>
<path d="M86.4622 169.325C86.4324 170.064 86.1842 170.777 85.7492 171.375C85.3141 171.972 84.7117 172.427 84.0182 172.682C83.3246 172.938 82.571 172.981 81.8527 172.808C81.1344 172.634 80.4836 172.251 79.9827 171.708C79.4817 171.164 79.1531 170.484 79.0384 169.754C78.9237 169.023 79.0281 168.275 79.3383 167.604C79.6485 166.933 80.1506 166.369 80.7812 165.984C81.4117 165.598 82.1424 165.408 82.8807 165.438C83.8707 165.479 84.8041 165.911 85.4758 166.639C86.1475 167.368 86.5023 168.334 86.4622 169.325Z" fill="#54B74F"></path>
<path d="M74.089 269.032C78.0676 267.433 79.9976 262.91 78.3999 258.929C76.8021 254.948 72.2816 253.017 68.303 254.615C64.3244 256.214 62.3944 260.737 63.9921 264.718C65.5899 268.699 70.1104 270.631 74.089 269.032Z" fill="#83D67C"></path>
<path d="M74.0582 264.217C75.3931 262.642 75.1997 260.283 73.6262 258.948C72.0528 257.612 69.6951 257.806 68.3603 259.38C67.0255 260.954 67.2189 263.313 68.7923 264.649C70.3658 265.985 72.7234 265.791 74.0582 264.217Z" fill="#54B74F"></path>
<path d="M45.8173 266.337C49.4264 264.022 50.476 259.217 48.1617 255.605C45.8473 251.994 41.0454 250.944 37.4363 253.26C33.8271 255.575 32.7775 260.38 35.0919 263.991C37.4062 267.603 42.2081 268.653 45.8173 266.337Z" fill="#83D67C"></path>
<path d="M42.7175 263.388C44.6879 262.775 45.789 260.68 45.1768 258.709C44.5646 256.737 42.4709 255.635 40.5004 256.248C38.53 256.86 37.4289 258.955 38.0411 260.927C38.6534 262.899 40.747 264 42.7175 263.388Z" fill="#54B74F"></path>
<path d="M79.3693 217.63C79.5212 207.846 74.0176 199.827 67.0767 199.719C60.1358 199.611 54.3859 207.455 54.234 217.239C54.0821 227.023 59.5857 235.043 66.5266 235.15C73.4675 235.258 79.2174 227.414 79.3693 217.63Z" fill="#83D67C"></path>
<path d="M58.1482 215.86L63.4293 216.201L63.6085 215.831L64.7015 213.528C66.0964 210.683 68.1565 209.349 70.8817 209.525C72.635 209.635 74.0315 210.353 75.0714 211.68C76.1113 213.006 76.5694 214.651 76.4455 216.614L76.4192 217.035L78.5807 217.175L78.5166 218.186L76.3535 218.046C75.6697 222.086 73.8069 224.004 70.765 223.803C70.3229 223.765 69.8837 223.699 69.4501 223.605L68.957 220.906C69.6283 221.15 70.3273 221.31 71.0378 221.382C73.2185 221.523 74.4857 220.382 74.8397 217.959L68.9224 217.576C67.3664 221.444 65.0998 223.282 62.1226 223.09C58.5273 222.859 56.6886 220.756 56.6064 216.78L54.8789 216.67L54.9447 215.658L56.5883 215.763C56.8612 211.549 58.884 209.563 62.6568 209.806L63.02 212.468C62.6229 212.318 62.2069 212.225 61.784 212.191C59.6779 212.052 58.4659 213.275 58.1482 215.86ZM58.1679 216.877C58.139 216.972 58.1187 217.07 58.1071 217.17C58.015 218.595 58.7273 219.356 60.2439 219.452C61.321 219.521 62.2343 218.767 62.9839 217.188L58.1679 216.877ZM74.9021 216.941C74.7476 215.118 73.9258 214.157 72.4366 214.06C71.1721 213.977 70.1448 214.819 69.3547 216.584L74.9021 216.941Z" fill="#54B74F"></path>
<path d="M75.9047 272.455H75.7519L30.237 269.504C29.8517 269.48 29.4783 269.362 29.1496 269.159C28.8209 268.957 28.5471 268.676 28.3522 268.343C28.1573 268.009 28.0474 267.633 28.0321 267.247C28.0168 266.861 28.0967 266.477 28.2645 266.13C28.378 265.891 39.7111 242.004 38.6821 209.486C37.9491 186.319 30.7531 167.045 30.6807 166.853C30.5528 166.514 30.5045 166.151 30.5395 165.791C30.5745 165.431 30.6919 165.084 30.8827 164.777C31.0735 164.469 31.3324 164.21 31.6394 164.019C31.9465 163.828 32.2933 163.71 32.6531 163.675L88.6645 158.226C89.1999 158.176 89.7364 158.31 90.1849 158.607C90.6334 158.904 90.9669 159.345 91.13 159.858C91.3421 160.527 96.3421 176.51 97.2741 198.317C98.1386 218.535 95.466 247.642 77.79 271.504C77.5714 271.799 77.2872 272.038 76.9599 272.203C76.6325 272.368 76.2712 272.454 75.9047 272.455ZM33.8908 265.021L74.7689 267.666C102.996 228.304 90.0732 173.716 87.1754 163.105L36.0983 168.073C38.1825 174.42 42.8012 190.44 43.3995 209.338C44.246 236.452 37.0138 257.342 33.8908 265.021Z" fill="#232333"></path>
<path d="M98.2716 228.087C97.2272 236.232 94.9921 244.18 91.6378 251.675C90.5073 254.163 89.2244 256.58 87.7965 258.911C87.7439 258.996 87.6611 259.057 87.565 259.083C87.4688 259.109 87.3665 259.097 87.2786 259.05C87.1908 259.003 87.1239 258.925 87.0916 258.831C87.0593 258.737 87.0639 258.634 87.1045 258.543C87.3796 257.921 87.6618 257.305 87.951 256.694C91.0275 249.946 93.556 242.961 95.5119 235.807C96.2302 233.205 96.8729 230.58 97.5024 227.945C97.6076 227.487 98.339 227.592 98.2749 228.085L98.2716 228.087Z" fill="#232333"></path>
<path d="M97.7674 175.44C100.545 186.944 101.263 198.943 100.208 210.719C100.164 211.198 99.4209 211.181 99.4242 210.681C99.3585 201.876 99.0626 193.083 98.1093 184.331C97.8019 181.418 97.442 178.497 96.9965 175.614C96.9061 175.142 97.6342 174.956 97.7625 175.449L97.7674 175.44Z" fill="#232333"></path>
<path d="M101.281 175.569C107.126 201.366 104.117 229.973 93.5167 254.163L91.324 259.034C91.3047 259.085 91.2754 259.13 91.2377 259.169C91.2 259.207 91.1549 259.237 91.1051 259.258C91.0553 259.278 91.0018 259.288 90.9481 259.286C90.8943 259.285 90.8414 259.273 90.7926 259.25C90.7437 259.228 90.7001 259.195 90.6643 259.155C90.6284 259.115 90.6012 259.068 90.5843 259.017C90.5674 258.966 90.5612 258.912 90.566 258.858C90.5708 258.805 90.5866 258.753 90.6123 258.705C94.0246 250.551 96.9848 242.203 98.9539 233.588C100.939 225.123 102.157 216.084 102.608 207.403C103.002 196.841 102.608 186.141 100.52 175.768C100.508 175.718 100.505 175.666 100.512 175.615C100.519 175.564 100.536 175.515 100.563 175.47C100.589 175.426 100.624 175.387 100.665 175.356C100.706 175.325 100.753 175.303 100.803 175.29C100.853 175.277 100.905 175.274 100.956 175.281C101.007 175.289 101.056 175.306 101.101 175.332C101.145 175.358 101.184 175.393 101.215 175.434C101.246 175.476 101.269 175.523 101.281 175.573V175.569Z" fill="#232333"></path>
<path d="M41.1085 213.661C41.1085 213.661 72.2791 215.209 94.9749 210.504C94.9749 210.504 94.1054 224.903 92.5291 231.615C92.5291 231.615 66.2451 235.384 39.8691 232.256C39.8691 232.256 41.2959 220.724 41.1085 213.661Z" fill="white"></path>
<path d="M62.2785 235.842C55.1466 235.842 47.3589 235.513 39.5958 234.595C39.2875 234.558 38.9894 234.461 38.7187 234.309C38.448 234.157 38.2101 233.953 38.0187 233.708C37.8273 233.463 37.6861 233.183 37.6033 232.884C37.5205 232.585 37.4977 232.272 37.5363 231.963C37.5494 231.85 38.94 220.522 38.7592 213.719C38.7504 213.395 38.8086 213.073 38.9302 212.772C39.0519 212.471 39.2343 212.199 39.466 211.973C39.6988 211.747 39.9752 211.572 40.2782 211.457C40.5811 211.342 40.9043 211.29 41.228 211.305C41.537 211.321 72.3673 212.785 94.501 208.195C94.855 208.121 95.2212 208.131 95.571 208.222C95.9209 208.313 96.2452 208.483 96.5186 208.72C96.792 208.956 97.0073 209.253 97.1476 209.586C97.288 209.92 97.3498 210.281 97.3281 210.642C97.292 211.239 96.4274 225.321 94.8232 232.149C94.7149 232.61 94.4701 233.028 94.1209 233.348C93.7717 233.668 93.3342 233.875 92.8656 233.942C92.6749 233.973 79.3628 235.842 62.2785 235.842ZM42.4755 230.176C63.7479 232.373 84.6866 230.204 90.5693 229.492C91.4734 224.712 92.1062 217.461 92.4136 213.397C73.6511 216.762 50.947 216.357 43.47 216.111C43.3927 221.053 42.824 226.954 42.4755 230.176Z" fill="#232333"></path>
<path d="M104.225 232.022L92.5288 231.615C92.5288 231.615 94.9088 219.021 94.9746 210.504L107.171 213.439C107.171 213.439 106.485 224.363 104.225 232.022Z" fill="white"></path>
<path d="M104.227 234.374H104.143L92.4468 233.966C92.1074 233.954 91.7746 233.869 91.4713 233.716C91.168 233.564 90.9012 233.347 90.6894 233.081C90.4775 232.816 90.3255 232.508 90.2439 232.178C90.1622 231.848 90.1528 231.504 90.2163 231.17C90.241 231.045 92.5586 218.684 92.621 210.479C92.6238 210.124 92.7066 209.775 92.8631 209.457C93.0197 209.139 93.2461 208.86 93.5253 208.642C93.8045 208.423 94.1294 208.271 94.4757 208.196C94.822 208.121 95.1808 208.125 95.5254 208.208L107.721 211.143C108.262 211.271 108.739 211.585 109.07 212.031C109.401 212.477 109.564 213.025 109.529 213.579C109.5 214.036 108.8 224.858 106.492 232.682C106.348 233.171 106.05 233.601 105.641 233.906C105.233 234.211 104.737 234.375 104.227 234.374ZM95.3183 229.351L102.444 229.6C103.727 224.465 104.391 218.332 104.666 215.255L97.2315 213.466C96.9176 219.224 95.9215 225.766 95.3183 229.355V229.351Z" fill="#232333"></path>
<path d="M73.9306 245.741C66.4026 255.872 45.7006 256.068 45.7006 256.068C45.7006 256.068 39.7357 256.806 32.7928 262.418C32.7928 262.418 27.5052 251.727 28.7675 233.912C29.0745 229.622 29.7069 225.361 30.6594 221.166C35.5904 199.366 51.4863 187.324 71.7511 195.838C77.8853 198.419 80.862 203.71 81.9024 209.954C84.1099 223.283 77.4958 240.953 73.9306 245.741Z" fill="#60567C"></path>
<g opacity="0.3">
<path d="M81.7398 223.225C81.7838 221.149 81.6397 219.073 81.3092 217.023C80.2687 210.773 77.2871 205.487 71.1546 202.902C50.8996 194.391 34.9938 206.438 30.0628 228.23C29.4294 231.05 28.9528 233.746 28.6328 236.318C28.6575 235.529 28.7068 234.733 28.7627 233.912C29.0695 229.621 29.7025 225.36 30.6562 221.166C35.579 199.363 51.4782 187.324 71.7479 195.838C77.8805 198.415 80.8539 203.708 81.8943 209.951C82.5929 214.128 82.4137 218.73 81.7398 223.225Z" fill="white"></path>
</g>
<g opacity="0.25">
<path d="M73.9306 245.741C66.4026 255.872 45.7006 256.068 45.7006 256.068C45.7006 256.068 39.7357 256.806 32.7928 262.418C32.7928 262.418 27.5052 251.727 28.7675 233.912C32.4921 237.417 39.7176 241.149 53.6461 241.374C73.7975 241.703 81.0247 224.181 81.8959 209.951C84.1099 223.283 77.4958 240.953 73.9306 245.741Z" fill="#181558"></path>
</g>
<path d="M32.7895 265.496C32.5683 265.497 32.3478 265.473 32.132 265.424C31.6817 265.325 31.2594 265.126 30.8966 264.841C30.5338 264.556 30.2397 264.193 30.0363 263.779C29.6945 263.09 21.7555 246.614 27.6612 220.485C30.6001 207.492 37.2307 197.746 46.3317 193.059C54.1983 189.006 63.3963 188.983 72.9329 192.99C78.6857 195.404 82.4991 199.953 84.289 206.509C88.3029 221.206 80.576 241.955 76.3994 247.573C68.421 258.301 48.4898 259.074 45.9635 259.128C45.1565 259.275 40.2961 260.304 34.7208 264.807C34.175 265.252 33.4932 265.495 32.7895 265.496ZM59.0883 196.171C55.6304 196.146 52.2176 196.956 49.1391 198.532C41.6801 202.374 36.1788 210.655 33.6491 221.849C29.7586 239.063 32.4279 251.782 34.2442 257.574C40.283 253.684 45.0727 253.043 45.3093 253.013C45.426 252.998 45.5435 252.991 45.6611 252.99C51.0014 252.931 66.0426 251.181 71.4667 243.909C74.5996 239.698 81.835 220.857 78.3702 208.136C77.0848 203.432 74.5305 200.335 70.5611 198.667C66.5916 197 62.7405 196.171 59.0948 196.171H59.0883Z" fill="#232333"></path>
<path d="M61.4061 205.859C68.3095 204.828 79.3944 203.437 84.3402 209.611C85.6404 211.007 85.6009 213.257 84.0115 214.416C83.6815 214.66 83.3067 214.837 82.9085 214.936C82.5103 215.035 82.0966 215.054 81.6908 214.993C81.2851 214.932 80.8954 214.792 80.5439 214.58C80.1925 214.368 79.8862 214.089 79.6426 213.758C79.023 212.532 78.4378 211.735 76.569 210.938C72.0669 209.083 66.6593 208.88 61.7874 208.964C59.8249 209.06 59.4863 206.226 61.4061 205.839V205.859Z" fill="#232333"></path>
<path d="M60.3163 227.603C65.5218 226.664 70.7766 226.335 75.8868 228.174C78.5874 229.172 84.1906 232.638 80.8178 236.027C80.5165 236.299 80.1646 236.508 79.7824 236.643C79.4002 236.778 78.9951 236.837 78.5903 236.815C78.1855 236.794 77.7889 236.693 77.4231 236.518C77.0574 236.343 76.7297 236.097 76.4588 235.795C75.7307 234.753 74.9795 233.845 73.6333 233.08C69.8841 230.995 65.0287 230.613 60.7585 230.71C58.7976 230.843 58.3949 228.024 60.3081 227.603H60.3163Z" fill="#232333"></path>
<path d="M169.349 226.182C172.336 233.672 178.767 238.45 185.265 237.356C190.896 236.414 195.041 231.342 196.31 224.769C196.827 222.02 196.85 219.2 196.379 216.443C194.663 206.201 186.91 198.971 179.058 200.29C171.206 201.609 166.238 210.971 167.954 221.202C168.234 222.908 168.702 224.579 169.349 226.182Z" fill="#232333"></path>
<path d="M169.349 226.182C172.336 233.672 178.767 238.45 185.265 237.356C190.896 236.414 195.041 231.342 196.31 224.769C192.073 223.36 186.706 223.562 182.367 226.733C182.367 226.733 176.489 222.319 169.349 226.182Z" fill="#FF67A0"></path>
<path d="M183.44 240.654C174.749 240.654 166.69 232.675 164.855 221.725C163.914 216.097 164.727 210.486 167.156 205.937C169.722 201.103 173.769 197.999 178.549 197.198C183.329 196.398 188.166 198.011 192.167 201.743C195.939 205.262 198.536 210.295 199.479 215.931C201.476 227.86 195.337 238.866 185.794 240.466C185.016 240.594 184.229 240.657 183.44 240.654ZM180.911 203.274C180.464 203.274 180.018 203.31 179.578 203.384C176.765 203.856 174.318 205.805 172.691 208.874C170.914 212.219 170.33 216.415 171.047 220.688C172.474 229.202 178.621 235.294 184.75 234.264C190.88 233.235 194.708 225.474 193.283 216.961C192.566 212.685 190.653 208.91 187.88 206.328C185.737 204.33 183.301 203.274 180.911 203.274Z" fill="#232333"></path>
<path d="M205.232 211.64C205.625 221.191 197.507 224.883 189.288 222.507C181.1 220.14 179.362 211.216 179.426 208.297C179.426 208.297 175.579 224.12 165.219 217.535C160.748 214.691 158.166 208.015 162.004 202.049C162.004 202.049 158.422 185.753 182.369 189.398C206.315 193.042 205.232 211.64 205.232 211.64Z" fill="white"></path>
<g opacity="0.25">
<path d="M205.088 214.429C203.937 221.89 196.649 224.641 189.285 222.511C181.102 220.143 179.358 211.214 179.423 208.298C179.423 208.298 175.579 224.121 165.217 217.531C161.613 215.245 159.239 210.459 160.465 205.565C161.297 206.5 162.252 207.318 163.304 207.996C176.453 216.352 181.342 196.271 181.342 196.271C181.269 199.968 183.478 211.296 193.87 214.308C197.816 215.449 201.754 215.484 205.088 214.429Z" fill="#181558"></path>
</g>
<path d="M206.407 211.591C208.158 223.829 194.944 228.615 185.403 223.574C179.946 220.579 176.994 214.336 177.064 208.252L181.744 208.654C181.497 210.462 180.98 212.224 180.21 213.879C175.526 224.733 160.707 223.077 158.185 211.653C157.352 207.953 158.45 203.876 161.016 201.397C161.906 200.517 163.407 201.494 162.988 202.65C160.672 208.453 163.409 216.959 170.549 215.944C173.974 215.425 175.855 211.944 176.833 208.848C176.943 208.507 177.038 208.135 177.104 207.877C177.242 207.326 177.574 206.843 178.039 206.516C178.504 206.189 179.071 206.04 179.636 206.096C180.202 206.153 180.728 206.411 181.119 206.823C181.51 207.235 181.74 207.775 181.767 208.343C181.879 209.796 182.192 211.226 182.697 212.592C183.683 215.313 185.353 217.775 187.834 219.217C191.496 221.229 196.772 221.625 200.206 219.316C202.518 217.811 203.856 214.941 204.052 211.688C204.134 210.282 206.208 210.208 206.404 211.591H206.407Z" fill="#232333"></path>
<path d="M183.779 191.141C182.262 195.269 181.948 199.736 181.774 204.101C181.733 205.557 181.716 207.061 181.774 208.458C181.785 208.768 181.734 209.078 181.625 209.369C181.516 209.661 181.351 209.927 181.139 210.155C180.927 210.382 180.673 210.565 180.39 210.694C180.107 210.823 179.802 210.895 179.492 210.906C178.864 210.928 178.254 210.699 177.796 210.271C177.337 209.843 177.067 209.25 177.045 208.622C177.201 206.884 177.681 205.233 178.031 203.58C178.761 200.593 179.616 197.638 180.793 194.791C181.374 193.361 182.08 191.985 182.903 190.679C182.964 190.563 183.069 190.476 183.195 190.437C183.32 190.398 183.456 190.41 183.572 190.472C183.688 190.533 183.775 190.638 183.814 190.764C183.853 190.889 183.84 191.025 183.779 191.141Z" fill="#232333"></path>
<path d="M200.092 191.477C198.748 201.218 181.007 202.999 181.007 202.999C181.007 202.999 166.984 195.422 168.798 186.738C169.831 181.804 183.649 183.882 183.649 183.882C183.649 183.882 200.782 186.477 200.092 191.477Z" fill="#232333"></path>
<g opacity="0.5">
<path d="M190.551 189.033C190.202 191.556 185.797 192.046 182.669 191.572C179.541 191.098 175.45 189.322 175.799 186.802C175.976 185.508 183.36 186.626 183.36 186.626C183.36 186.626 190.728 187.738 190.551 189.033Z" fill="white"></path>
</g>
<path d="M219.759 187.723C223.891 174.143 238.682 165.708 251.96 172.619C263.217 178.755 264.616 193.633 263.768 205.002C263.484 207.662 259.731 207.917 259.074 205.348C256.912 197.542 254.935 184.474 247.423 180.842C238.478 176.645 229.659 182.543 223.93 189.865C222.334 191.904 219.032 190.184 219.759 187.727V187.723Z" fill="#232333"></path>
<path d="M151.578 180.017C149.096 171.376 143.959 159.613 133.395 162.943C125.706 165.575 121.914 173.247 118.274 180.497C118.032 180.999 117.623 181.402 117.116 181.634C116.609 181.866 116.038 181.914 115.499 181.77C114.961 181.625 114.491 181.296 114.169 180.841C113.847 180.386 113.694 179.832 113.737 179.276C114.174 173.685 115.841 168.032 119.245 162.942C124.651 154.357 136.584 149.901 145.779 155.376C154.03 160.57 156.974 170.598 156.279 179.707C155.966 182.364 152.219 182.577 151.581 180.015L151.578 180.017Z" fill="#232333"></path>
<path d="M335.886 82.0671C342.934 75.0149 342.934 63.5809 335.886 56.5287C328.838 49.4764 317.411 49.4764 310.363 56.5287C303.315 63.5809 303.315 75.0148 310.363 82.0671C317.411 89.1193 328.838 89.1193 335.886 82.0671Z" fill="white"></path>
</g>
<defs>
<clipPath id="clip0_499_4418">
<rect width="373" height="550" fill="white"></rect>
</clipPath>
</defs>
</svg>
