<svg width="400" height="358" viewBox="0 0 400 358" fill="none" xmlns="http://www.w3.org/2000/svg">
<g clip-path="url('#clip0_693_2969')">
<rect width="400" height="380" rx="24" fill="white"></rect>
<path d="M161.681 71L157.457 64.232H155.513V71H152.777V54.056H158.753C160.689 54.056 162.153 54.528 163.145 55.472C164.153 56.416 164.657 57.664 164.657 59.216C164.657 60.544 164.281 61.632 163.529 62.48C162.793 63.328 161.721 63.872 160.313 64.112L164.753 71H161.681ZM155.513 62.288H158.537C160.745 62.288 161.849 61.312 161.849 59.36C161.849 58.432 161.577 57.712 161.033 57.2C160.505 56.672 159.673 56.408 158.537 56.408H155.513V62.288ZM179.409 63.752C179.409 64.2 179.377 64.592 179.313 64.928H169.137C169.185 66.288 169.561 67.296 170.265 67.952C170.969 68.608 171.841 68.936 172.881 68.936C173.793 68.936 174.561 68.704 175.185 68.24C175.825 67.776 176.217 67.16 176.361 66.392H179.289C179.113 67.32 178.745 68.144 178.185 68.864C177.625 69.584 176.897 70.152 176.001 70.568C175.105 70.968 174.105 71.168 173.001 71.168C171.721 71.168 170.585 70.896 169.593 70.352C168.617 69.808 167.849 69.024 167.289 68C166.729 66.976 166.449 65.768 166.449 64.376C166.449 63 166.729 61.8 167.289 60.776C167.849 59.752 168.617 58.968 169.593 58.424C170.585 57.88 171.721 57.608 173.001 57.608C174.297 57.608 175.425 57.88 176.385 58.424C177.361 58.952 178.105 59.688 178.617 60.632C179.145 61.56 179.409 62.6 179.409 63.752ZM176.649 63.68C176.681 62.816 176.529 62.096 176.193 61.52C175.873 60.928 175.425 60.496 174.849 60.224C174.289 59.936 173.673 59.792 173.001 59.792C171.929 59.792 171.033 60.12 170.313 60.776C169.593 61.432 169.201 62.4 169.137 63.68H176.649ZM187.547 57.632C188.667 57.632 189.627 57.888 190.427 58.4C191.227 58.912 191.827 59.624 192.227 60.536V57.776H194.963V77.288H192.227V68.096C191.811 69.056 191.203 69.808 190.403 70.352C189.603 70.896 188.651 71.168 187.547 71.168C186.395 71.168 185.347 70.888 184.403 70.328C183.459 69.768 182.715 68.984 182.171 67.976C181.643 66.952 181.379 65.768 181.379 64.424C181.379 63.08 181.643 61.896 182.171 60.872C182.715 59.848 183.459 59.056 184.403 58.496C185.347 57.92 186.395 57.632 187.547 57.632ZM188.195 60.032C187.027 60.032 186.067 60.424 185.315 61.208C184.563 61.976 184.187 63.048 184.187 64.424C184.187 65.8 184.555 66.864 185.291 67.616C186.043 68.368 187.011 68.744 188.195 68.744C188.931 68.744 189.603 68.576 190.211 68.24C190.819 67.888 191.307 67.384 191.675 66.728C192.043 66.072 192.227 65.288 192.227 64.376C192.227 63.48 192.043 62.704 191.675 62.048C191.307 61.392 190.819 60.896 190.211 60.56C189.603 60.208 188.931 60.032 188.195 60.032ZM210.438 57.776V71H207.678V68.12C207.342 69.096 206.758 69.856 205.926 70.4C205.094 70.928 204.126 71.192 203.022 71.192C201.486 71.192 200.254 70.696 199.326 69.704C198.398 68.712 197.934 67.296 197.934 65.456V57.776H200.67V65.168C200.67 66.368 200.974 67.296 201.582 67.952C202.19 68.592 203.022 68.912 204.078 68.912C205.166 68.912 206.038 68.56 206.694 67.856C207.35 67.152 207.678 66.128 207.678 64.784V57.776H210.438ZM226.003 63.752C226.003 64.2 225.971 64.592 225.907 64.928H215.731C215.779 66.288 216.155 67.296 216.859 67.952C217.563 68.608 218.435 68.936 219.475 68.936C220.387 68.936 221.155 68.704 221.779 68.24C222.419 67.776 222.811 67.16 222.955 66.392H225.883C225.707 67.32 225.339 68.144 224.779 68.864C224.219 69.584 223.491 70.152 222.595 70.568C221.699 70.968 220.699 71.168 219.595 71.168C218.315 71.168 217.179 70.896 216.187 70.352C215.211 69.808 214.443 69.024 213.883 68C213.323 66.976 213.043 65.768 213.043 64.376C213.043 63 213.323 61.8 213.883 60.776C214.443 59.752 215.211 58.968 216.187 58.424C217.179 57.88 218.315 57.608 219.595 57.608C220.891 57.608 222.019 57.88 222.979 58.424C223.955 58.952 224.699 59.688 225.211 60.632C225.739 61.56 226.003 62.6 226.003 63.752ZM223.243 63.68C223.275 62.816 223.123 62.096 222.787 61.52C222.467 60.928 222.019 60.496 221.443 60.224C220.883 59.936 220.267 59.792 219.595 59.792C218.523 59.792 217.627 60.12 216.907 60.776C216.187 61.432 215.795 62.4 215.731 63.68H223.243ZM232.988 57.608C234.54 57.608 235.78 58.008 236.708 58.808C237.652 59.592 238.228 60.648 238.436 61.976H235.844C235.732 61.256 235.42 60.68 234.908 60.248C234.412 59.8 233.748 59.576 232.916 59.576C232.228 59.576 231.692 59.744 231.308 60.08C230.94 60.4 230.756 60.84 230.756 61.4C230.756 61.816 230.892 62.152 231.164 62.408C231.436 62.664 231.772 62.864 232.172 63.008C232.588 63.152 233.172 63.312 233.924 63.488C234.916 63.712 235.716 63.944 236.324 64.184C236.948 64.424 237.476 64.808 237.908 65.336C238.356 65.848 238.58 66.552 238.58 67.448C238.58 68.552 238.156 69.448 237.308 70.136C236.476 70.824 235.348 71.168 233.924 71.168C232.276 71.168 230.94 70.784 229.916 70.016C228.908 69.248 228.3 68.176 228.092 66.8H230.756C230.836 67.52 231.156 68.104 231.716 68.552C232.276 69 233.012 69.224 233.924 69.224C234.58 69.224 235.092 69.056 235.46 68.72C235.844 68.368 236.036 67.928 236.036 67.4C236.036 66.936 235.892 66.568 235.604 66.296C235.316 66.024 234.956 65.816 234.524 65.672C234.092 65.512 233.5 65.352 232.748 65.192C231.788 64.968 231.004 64.744 230.396 64.52C229.804 64.296 229.292 63.936 228.86 63.44C228.444 62.928 228.236 62.24 228.236 61.376C228.236 60.256 228.652 59.352 229.484 58.664C230.332 57.96 231.5 57.608 232.988 57.608ZM247.972 68.624V71H246.292C244.884 71 243.812 70.664 243.076 69.992C242.356 69.304 241.996 68.168 241.996 66.584V60.104H240.1V57.776H241.996V54.488H244.756V57.776H247.948V60.104H244.756V66.632C244.756 67.384 244.892 67.904 245.164 68.192C245.452 68.48 245.948 68.624 246.652 68.624H247.972Z" fill="#222222"></path>
<rect x="40" y="105" width="320" height="60" rx="30" fill="#F4F4F5"></rect>
<g clip-path="url('#clip1_693_2969')">
<path d="M71.6714 137.254C71.1739 137.585 70.5959 137.761 70 137.761C69.4041 137.761 68.8262 137.585 68.3286 137.254L60.1332 131.79C60.0877 131.76 60.0434 131.728 60 131.695V140.648C60 141.675 60.833 142.49 61.8411 142.49H78.1588C79.1853 142.49 80 141.657 80 140.648V131.695C79.9565 131.728 79.9121 131.76 79.8665 131.79L71.6714 137.254Z" fill="#5F5F82"></path>
<path d="M60.7832 130.815L68.9786 136.279C69.2889 136.485 69.6444 136.589 70 136.589C70.3555 136.589 70.7111 136.485 71.0214 136.279L79.2168 130.815C79.7072 130.488 80 129.941 80 129.351C80 128.336 79.1743 127.51 78.1595 127.51H61.8405C60.8257 127.51 60 128.336 60 129.352C60 129.941 60.2928 130.488 60.7832 130.815Z" fill="#5F5F82"></path>
</g>
<path d="M92.624 130.904V134.76H96.912V135.88H92.624V139.816H97.392V141H91.168V129.72H97.392V130.904H92.624ZM104.254 134.52V135.752H97.8537V134.52H104.254ZM117.921 132.072C118.945 132.072 119.766 132.403 120.385 133.064C121.014 133.715 121.329 134.659 121.329 135.896V141H119.873V136.024C119.873 135.16 119.66 134.499 119.233 134.04C118.817 133.581 118.241 133.352 117.505 133.352C116.737 133.352 116.118 133.608 115.649 134.12C115.19 134.621 114.961 135.363 114.961 136.344V141H113.505V136.024C113.505 135.16 113.292 134.499 112.865 134.04C112.438 133.581 111.862 133.352 111.137 133.352C110.358 133.352 109.734 133.608 109.265 134.12C108.806 134.621 108.577 135.363 108.577 136.344V141H107.121V132.216H108.577V134.216C108.79 133.523 109.169 132.995 109.713 132.632C110.268 132.259 110.902 132.072 111.617 132.072C112.364 132.072 113.009 132.264 113.553 132.648C114.108 133.021 114.502 133.576 114.737 134.312C114.982 133.597 115.393 133.048 115.969 132.664C116.545 132.269 117.196 132.072 117.921 132.072ZM127.19 132.104C128.043 132.104 128.763 132.317 129.35 132.744C129.947 133.171 130.363 133.741 130.598 134.456V132.216H132.054V141H130.598V138.76C130.363 139.475 129.947 140.045 129.35 140.472C128.763 140.899 128.043 141.112 127.19 141.112C126.411 141.112 125.718 140.931 125.11 140.568C124.502 140.205 124.022 139.688 123.67 139.016C123.329 138.333 123.158 137.533 123.158 136.616C123.158 135.699 123.329 134.899 123.67 134.216C124.022 133.533 124.502 133.011 125.11 132.648C125.718 132.285 126.411 132.104 127.19 132.104ZM127.606 133.4C126.71 133.4 125.99 133.688 125.446 134.264C124.913 134.829 124.646 135.613 124.646 136.616C124.646 137.619 124.913 138.408 125.446 138.984C125.99 139.549 126.71 139.832 127.606 139.832C128.182 139.832 128.694 139.699 129.142 139.432C129.601 139.165 129.958 138.792 130.214 138.312C130.47 137.821 130.598 137.256 130.598 136.616C130.598 135.976 130.47 135.411 130.214 134.92C129.958 134.429 129.601 134.056 129.142 133.8C128.694 133.533 128.182 133.4 127.606 133.4ZM134.115 129.64C134.115 129.373 134.206 129.16 134.387 129C134.568 128.829 134.808 128.744 135.107 128.744C135.406 128.744 135.646 128.829 135.827 129C136.008 129.16 136.099 129.373 136.099 129.64C136.099 129.907 136.008 130.125 135.827 130.296C135.646 130.456 135.406 130.536 135.107 130.536C134.808 130.536 134.568 130.456 134.387 130.296C134.206 130.125 134.115 129.907 134.115 129.64ZM135.827 132.216V141H134.371V132.216H135.827ZM139.624 129.16V141H138.168V129.16H139.624ZM149.518 132.104C150.371 132.104 151.091 132.317 151.678 132.744C152.275 133.171 152.691 133.741 152.926 134.456V132.216H154.382V141H152.926V138.76C152.691 139.475 152.275 140.045 151.678 140.472C151.091 140.899 150.371 141.112 149.518 141.112C148.739 141.112 148.046 140.931 147.438 140.568C146.83 140.205 146.35 139.688 145.998 139.016C145.657 138.333 145.486 137.533 145.486 136.616C145.486 135.699 145.657 134.899 145.998 134.216C146.35 133.533 146.83 133.011 147.438 132.648C148.046 132.285 148.739 132.104 149.518 132.104ZM149.934 133.4C149.038 133.4 148.318 133.688 147.774 134.264C147.241 134.829 146.974 135.613 146.974 136.616C146.974 137.619 147.241 138.408 147.774 138.984C148.318 139.549 149.038 139.832 149.934 139.832C150.51 139.832 151.022 139.699 151.47 139.432C151.929 139.165 152.286 138.792 152.542 138.312C152.798 137.821 152.926 137.256 152.926 136.616C152.926 135.976 152.798 135.411 152.542 134.92C152.286 134.429 151.929 134.056 151.47 133.8C151.022 133.533 150.51 133.4 149.934 133.4ZM160.299 132.104C161.153 132.104 161.873 132.317 162.459 132.744C163.057 133.171 163.473 133.741 163.707 134.456V129.16H165.163V141H163.707V138.76C163.473 139.475 163.057 140.045 162.459 140.472C161.873 140.899 161.153 141.112 160.299 141.112C159.521 141.112 158.827 140.931 158.219 140.568C157.611 140.205 157.131 139.688 156.779 139.016C156.438 138.333 156.267 137.533 156.267 136.616C156.267 135.699 156.438 134.899 156.779 134.216C157.131 133.533 157.611 133.011 158.219 132.648C158.827 132.285 159.521 132.104 160.299 132.104ZM160.715 133.4C159.819 133.4 159.099 133.688 158.555 134.264C158.022 134.829 157.755 135.613 157.755 136.616C157.755 137.619 158.022 138.408 158.555 138.984C159.099 139.549 159.819 139.832 160.715 139.832C161.291 139.832 161.803 139.699 162.251 139.432C162.71 139.165 163.067 138.792 163.323 138.312C163.579 137.821 163.707 137.256 163.707 136.616C163.707 135.976 163.579 135.411 163.323 134.92C163.067 134.429 162.71 134.056 162.251 133.8C161.803 133.533 161.291 133.4 160.715 133.4ZM171.081 132.104C171.934 132.104 172.654 132.317 173.241 132.744C173.838 133.171 174.254 133.741 174.489 134.456V129.16H175.945V141H174.489V138.76C174.254 139.475 173.838 140.045 173.241 140.472C172.654 140.899 171.934 141.112 171.081 141.112C170.302 141.112 169.609 140.931 169.001 140.568C168.393 140.205 167.913 139.688 167.561 139.016C167.219 138.333 167.049 137.533 167.049 136.616C167.049 135.699 167.219 134.899 167.561 134.216C167.913 133.533 168.393 133.011 169.001 132.648C169.609 132.285 170.302 132.104 171.081 132.104ZM171.497 133.4C170.601 133.4 169.881 133.688 169.337 134.264C168.803 134.829 168.537 135.613 168.537 136.616C168.537 137.619 168.803 138.408 169.337 138.984C169.881 139.549 170.601 139.832 171.497 139.832C172.073 139.832 172.585 139.699 173.033 139.432C173.491 139.165 173.849 138.792 174.105 138.312C174.361 137.821 174.489 137.256 174.489 136.616C174.489 135.976 174.361 135.411 174.105 134.92C173.849 134.429 173.491 134.056 173.033 133.8C172.585 133.533 172.073 133.4 171.497 133.4ZM179.718 133.992C180.006 133.384 180.427 132.915 180.982 132.584C181.536 132.243 182.198 132.072 182.966 132.072V133.656H182.518C181.696 133.656 181.024 133.869 180.502 134.296C179.979 134.712 179.718 135.405 179.718 136.376V141H178.262V132.216H179.718V133.992ZM192.482 136.12C192.482 136.429 192.461 136.696 192.418 136.92H185.394C185.426 137.923 185.709 138.675 186.242 139.176C186.786 139.677 187.448 139.928 188.226 139.928C188.93 139.928 189.517 139.752 189.986 139.4C190.466 139.037 190.76 138.557 190.866 137.96H192.418C192.312 138.568 192.072 139.112 191.698 139.592C191.336 140.072 190.861 140.445 190.274 140.712C189.688 140.979 189.026 141.112 188.29 141.112C187.448 141.112 186.701 140.931 186.05 140.568C185.4 140.205 184.888 139.688 184.514 139.016C184.152 138.333 183.97 137.533 183.97 136.616C183.97 135.699 184.152 134.899 184.514 134.216C184.888 133.533 185.4 133.011 186.05 132.648C186.701 132.285 187.448 132.104 188.29 132.104C189.144 132.104 189.885 132.285 190.514 132.648C191.154 133.011 191.64 133.496 191.97 134.104C192.312 134.712 192.482 135.384 192.482 136.12ZM191.01 136.216C191.042 135.565 190.936 135.021 190.69 134.584C190.445 134.147 190.109 133.821 189.682 133.608C189.256 133.395 188.792 133.288 188.29 133.288C187.49 133.288 186.818 133.539 186.274 134.04C185.73 134.531 185.437 135.256 185.394 136.216H191.01ZM197.139 132.104C198.131 132.104 198.925 132.365 199.523 132.888C200.131 133.4 200.499 134.093 200.627 134.968H199.235C199.171 134.445 198.952 134.019 198.579 133.688C198.216 133.347 197.725 133.176 197.107 133.176C196.584 133.176 196.173 133.304 195.875 133.56C195.587 133.805 195.443 134.141 195.443 134.568C195.443 134.888 195.539 135.149 195.731 135.352C195.933 135.544 196.179 135.693 196.467 135.8C196.765 135.896 197.171 136.003 197.683 136.12C198.333 136.269 198.856 136.424 199.251 136.584C199.656 136.733 199.997 136.979 200.275 137.32C200.563 137.661 200.707 138.12 200.707 138.696C200.707 139.411 200.435 139.992 199.891 140.44C199.357 140.888 198.643 141.112 197.747 141.112C196.701 141.112 195.848 140.861 195.187 140.36C194.525 139.859 194.136 139.16 194.019 138.264H195.427C195.48 138.797 195.709 139.229 196.115 139.56C196.531 139.891 197.075 140.056 197.747 140.056C198.248 140.056 198.637 139.928 198.915 139.672C199.203 139.416 199.347 139.08 199.347 138.664C199.347 138.323 199.245 138.051 199.043 137.848C198.84 137.645 198.589 137.491 198.291 137.384C197.992 137.277 197.581 137.165 197.059 137.048C196.408 136.899 195.885 136.749 195.491 136.6C195.107 136.451 194.776 136.216 194.499 135.896C194.232 135.565 194.099 135.123 194.099 134.568C194.099 133.832 194.371 133.24 194.915 132.792C195.459 132.333 196.2 132.104 197.139 132.104ZM205.404 132.104C206.396 132.104 207.191 132.365 207.788 132.888C208.396 133.4 208.764 134.093 208.892 134.968H207.5C207.436 134.445 207.218 134.019 206.844 133.688C206.482 133.347 205.991 133.176 205.372 133.176C204.85 133.176 204.439 133.304 204.14 133.56C203.852 133.805 203.708 134.141 203.708 134.568C203.708 134.888 203.804 135.149 203.996 135.352C204.199 135.544 204.444 135.693 204.732 135.8C205.031 135.896 205.436 136.003 205.948 136.12C206.599 136.269 207.122 136.424 207.516 136.584C207.922 136.733 208.263 136.979 208.54 137.32C208.828 137.661 208.972 138.12 208.972 138.696C208.972 139.411 208.7 139.992 208.156 140.44C207.623 140.888 206.908 141.112 206.012 141.112C204.967 141.112 204.114 140.861 203.452 140.36C202.791 139.859 202.402 139.16 202.284 138.264H203.692C203.746 138.797 203.975 139.229 204.38 139.56C204.796 139.891 205.34 140.056 206.012 140.056C206.514 140.056 206.903 139.928 207.18 139.672C207.468 139.416 207.612 139.08 207.612 138.664C207.612 138.323 207.511 138.051 207.308 137.848C207.106 137.645 206.855 137.491 206.556 137.384C206.258 137.277 205.847 137.165 205.324 137.048C204.674 136.899 204.151 136.749 203.756 136.6C203.372 136.451 203.042 136.216 202.764 135.896C202.498 135.565 202.364 135.123 202.364 134.568C202.364 133.832 202.636 133.24 203.18 132.792C203.724 132.333 204.466 132.104 205.404 132.104Z" fill="#5F5F82"></path>
<path d="M42.196 194.932H45.124V196H40.828V187.528H42.196V194.932ZM49.2192 189.304C49.8592 189.304 50.4352 189.44 50.9472 189.712C51.4592 189.984 51.8592 190.376 52.1472 190.888C52.4352 191.4 52.5792 192 52.5792 192.688C52.5792 193.384 52.4352 193.988 52.1472 194.5C51.8592 195.012 51.4592 195.404 50.9472 195.676C50.4352 195.948 49.8592 196.084 49.2192 196.084C48.5792 196.084 48.0032 195.948 47.4912 195.676C46.9872 195.404 46.5872 195.012 46.2912 194.5C46.0032 193.98 45.8592 193.376 45.8592 192.688C45.8592 192 46.0032 191.4 46.2912 190.888C46.5872 190.376 46.9872 189.984 47.4912 189.712C48.0032 189.44 48.5792 189.304 49.2192 189.304ZM49.2192 190.492C48.8672 190.492 48.5432 190.572 48.2472 190.732C47.9512 190.892 47.7112 191.14 47.5272 191.476C47.3512 191.804 47.2632 192.208 47.2632 192.688C47.2632 193.176 47.3512 193.584 47.5272 193.912C47.7112 194.24 47.9512 194.484 48.2472 194.644C48.5432 194.804 48.8672 194.884 49.2192 194.884C49.5712 194.884 49.8952 194.804 50.1912 194.644C50.4872 194.484 50.7232 194.24 50.8992 193.912C51.0832 193.584 51.1752 193.176 51.1752 192.688C51.1752 192.208 51.0832 191.804 50.8992 191.476C50.7232 191.14 50.4872 190.892 50.1912 190.732C49.8952 190.572 49.5712 190.492 49.2192 190.492ZM56.5464 189.304C57.1464 189.304 57.6584 189.452 58.0824 189.748C58.5064 190.044 58.8064 190.436 58.9824 190.924V189.388H60.3504V196H58.9824V194.464C58.8064 194.952 58.5064 195.344 58.0824 195.64C57.6584 195.936 57.1464 196.084 56.5464 196.084C55.9704 196.084 55.4544 195.948 54.9984 195.676C54.5504 195.404 54.1984 195.012 53.9424 194.5C53.6864 193.988 53.5584 193.384 53.5584 192.688C53.5584 192 53.6864 191.4 53.9424 190.888C54.1984 190.376 54.5504 189.984 54.9984 189.712C55.4544 189.44 55.9704 189.304 56.5464 189.304ZM56.9664 190.504C56.3584 190.504 55.8704 190.7 55.5024 191.092C55.1424 191.476 54.9624 192.008 54.9624 192.688C54.9624 193.368 55.1424 193.904 55.5024 194.296C55.8704 194.68 56.3584 194.872 56.9664 194.872C57.3504 194.872 57.6944 194.784 57.9984 194.608C58.3024 194.424 58.5424 194.168 58.7184 193.84C58.8944 193.512 58.9824 193.128 58.9824 192.688C58.9824 192.256 58.8944 191.876 58.7184 191.548C58.5424 191.212 58.3024 190.956 57.9984 190.78C57.6944 190.596 57.3504 190.504 56.9664 190.504ZM65.6881 189.28C66.4561 189.28 67.0721 189.528 67.5361 190.024C68.0001 190.52 68.2321 191.228 68.2321 192.148V196H66.8641V192.292C66.8641 191.7 66.7121 191.244 66.4081 190.924C66.1041 190.596 65.6881 190.432 65.1601 190.432C64.6161 190.432 64.1801 190.608 63.8521 190.96C63.5241 191.304 63.3601 191.812 63.3601 192.484V196H61.9921V189.388H63.3601V190.84C63.5361 190.344 63.8321 189.96 64.2481 189.688C64.6641 189.416 65.1441 189.28 65.6881 189.28ZM77.0964 196L74.9844 192.616H74.0124V196H72.6444V187.528H75.6324C76.6004 187.528 77.3324 187.764 77.8284 188.236C78.3324 188.708 78.5844 189.332 78.5844 190.108C78.5844 190.772 78.3964 191.316 78.0204 191.74C77.6524 192.164 77.1164 192.436 76.4124 192.556L78.6324 196H77.0964ZM74.0124 191.644H75.5244C76.6284 191.644 77.1804 191.156 77.1804 190.18C77.1804 189.716 77.0444 189.356 76.7724 189.1C76.5084 188.836 76.0924 188.704 75.5244 188.704H74.0124V191.644ZM82.4683 189.304C83.0683 189.304 83.5803 189.452 84.0043 189.748C84.4283 190.044 84.7283 190.436 84.9043 190.924V189.388H86.2723V196H84.9043V194.464C84.7283 194.952 84.4283 195.344 84.0043 195.64C83.5803 195.936 83.0683 196.084 82.4683 196.084C81.8923 196.084 81.3763 195.948 80.9203 195.676C80.4723 195.404 80.1203 195.012 79.8643 194.5C79.6083 193.988 79.4803 193.384 79.4803 192.688C79.4803 192 79.6083 191.4 79.8643 190.888C80.1203 190.376 80.4723 189.984 80.9203 189.712C81.3763 189.44 81.8923 189.304 82.4683 189.304ZM82.8883 190.504C82.2803 190.504 81.7923 190.7 81.4243 191.092C81.0643 191.476 80.8843 192.008 80.8843 192.688C80.8843 193.368 81.0643 193.904 81.4243 194.296C81.7923 194.68 82.2803 194.872 82.8883 194.872C83.2723 194.872 83.6163 194.784 83.9203 194.608C84.2243 194.424 84.4643 194.168 84.6403 193.84C84.8163 193.512 84.9043 193.128 84.9043 192.688C84.9043 192.256 84.8163 191.876 84.6403 191.548C84.4643 191.212 84.2243 190.956 83.9203 190.78C83.6163 190.596 83.2723 190.504 82.8883 190.504ZM91.6099 189.28C92.3779 189.28 92.9939 189.528 93.4579 190.024C93.9219 190.52 94.1539 191.228 94.1539 192.148V196H92.7859V192.292C92.7859 191.7 92.6339 191.244 92.3299 190.924C92.0259 190.596 91.6099 190.432 91.0819 190.432C90.5379 190.432 90.1019 190.608 89.7739 190.96C89.4459 191.304 89.2819 191.812 89.2819 192.484V196H87.9139V189.388H89.2819V190.84C89.4579 190.344 89.7539 189.96 90.1699 189.688C90.5859 189.416 91.0659 189.28 91.6099 189.28ZM98.4058 189.304C99.0058 189.304 99.5178 189.452 99.9418 189.748C100.366 190.044 100.666 190.436 100.842 190.924V189.388H102.21V196.072C102.21 196.688 102.082 197.232 101.826 197.704C101.578 198.184 101.218 198.56 100.746 198.832C100.274 199.104 99.7138 199.24 99.0658 199.24C98.1378 199.24 97.3858 199.02 96.8098 198.58C96.2418 198.14 95.8858 197.544 95.7418 196.792H97.0978C97.2098 197.184 97.4258 197.488 97.7458 197.704C98.0658 197.928 98.4738 198.04 98.9698 198.04C99.5138 198.04 99.9618 197.872 100.314 197.536C100.666 197.2 100.842 196.712 100.842 196.072V194.464C100.666 194.952 100.366 195.344 99.9418 195.64C99.5178 195.936 99.0058 196.084 98.4058 196.084C97.8298 196.084 97.3138 195.948 96.8578 195.676C96.4098 195.404 96.0578 195.012 95.8018 194.5C95.5458 193.988 95.4178 193.384 95.4178 192.688C95.4178 192 95.5458 191.4 95.8018 190.888C96.0578 190.376 96.4098 189.984 96.8578 189.712C97.3138 189.44 97.8298 189.304 98.4058 189.304ZM98.8258 190.504C98.2178 190.504 97.7298 190.7 97.3618 191.092C97.0018 191.476 96.8218 192.008 96.8218 192.688C96.8218 193.368 97.0018 193.904 97.3618 194.296C97.7298 194.68 98.2178 194.872 98.8258 194.872C99.2098 194.872 99.5538 194.784 99.8578 194.608C100.162 194.424 100.402 194.168 100.578 193.84C100.754 193.512 100.842 193.128 100.842 192.688C100.842 192.256 100.754 191.876 100.578 191.548C100.402 191.212 100.162 190.956 99.8578 190.78C99.5538 190.596 99.2098 190.504 98.8258 190.504ZM109.995 192.376C109.995 192.6 109.979 192.796 109.947 192.964H104.859C104.883 193.644 105.071 194.148 105.423 194.476C105.775 194.804 106.211 194.968 106.731 194.968C107.187 194.968 107.571 194.852 107.883 194.62C108.203 194.388 108.399 194.08 108.471 193.696H109.935C109.847 194.16 109.663 194.572 109.383 194.932C109.103 195.292 108.739 195.576 108.291 195.784C107.843 195.984 107.343 196.084 106.791 196.084C106.151 196.084 105.583 195.948 105.087 195.676C104.599 195.404 104.215 195.012 103.935 194.5C103.655 193.988 103.515 193.384 103.515 192.688C103.515 192 103.655 191.4 103.935 190.888C104.215 190.376 104.599 189.984 105.087 189.712C105.583 189.44 106.151 189.304 106.791 189.304C107.439 189.304 108.003 189.44 108.483 189.712C108.971 189.976 109.343 190.344 109.599 190.816C109.863 191.28 109.995 191.8 109.995 192.376ZM108.615 192.34C108.631 191.908 108.555 191.548 108.387 191.26C108.227 190.964 108.003 190.748 107.715 190.612C107.435 190.468 107.127 190.396 106.791 190.396C106.255 190.396 105.807 190.56 105.447 190.888C105.087 191.216 104.891 191.7 104.859 192.34H108.615ZM112.588 189.4V190.912H111.04V189.4H112.588ZM112.588 194.488V196H111.04V194.488H112.588Z" fill="#222222"></path>
<rect x="40" y="218" width="288" height="6" rx="3" fill="#E7FAF0"></rect>
<circle cx="43" cy="221" r="3" fill="#0FC15D"></circle>
<circle cx="113.5" cy="221" r="3" fill="#0FC15D" fill-opacity="0.3"></circle>
<circle cx="184" cy="221" r="3" fill="#0FC15D" fill-opacity="0.3"></circle>
<circle cx="254.5" cy="221" r="3" fill="#0FC15D" fill-opacity="0.3"></circle>
<circle cx="325" cy="221" r="3" fill="#0FC15D" fill-opacity="0.3"></circle>
<rect x="42" y="218" width="65" height="6" fill="#0FC15D"></rect>
<g filter="url('#filter0_d_693_2969')">
<circle cx="116" cy="221" r="12" fill="#0FC15D"></circle>
</g>
<path d="M87.886 246.302C88.5487 246.507 89.09 246.708 89.51 246.904C89.93 247.1 90.2847 247.394 90.574 247.786C90.8727 248.169 91.022 248.673 91.022 249.298C91.022 249.802 90.8913 250.269 90.63 250.698C90.3687 251.118 89.9767 251.459 89.454 251.72C88.9313 251.972 88.2967 252.098 87.55 252.098H87.536V253.218H87.004V252.07C86.0333 251.986 85.24 251.687 84.624 251.174C84.0173 250.651 83.6813 249.975 83.616 249.144H85.716C85.7533 249.48 85.884 249.779 86.108 250.04C86.332 250.292 86.6307 250.455 87.004 250.53V247.786L86.724 247.702C86.052 247.506 85.506 247.315 85.086 247.128C84.6753 246.932 84.3207 246.643 84.022 246.26C83.7327 245.868 83.588 245.355 83.588 244.72C83.588 244.169 83.7327 243.689 84.022 243.278C84.3207 242.867 84.7267 242.55 85.24 242.326C85.7627 242.102 86.3507 241.985 87.004 241.976V240.8H87.536V241.99C88.5067 242.055 89.2767 242.34 89.846 242.844C90.4247 243.339 90.7513 243.973 90.826 244.748H88.698C88.6513 244.44 88.5253 244.179 88.32 243.964C88.124 243.74 87.8627 243.595 87.536 243.53V246.19L87.886 246.302ZM85.702 244.636C85.702 244.972 85.814 245.247 86.038 245.462C86.262 245.667 86.584 245.849 87.004 246.008V243.488C86.5933 243.507 86.2713 243.614 86.038 243.81C85.814 244.006 85.702 244.281 85.702 244.636ZM87.536 250.586C87.9653 250.577 88.3013 250.46 88.544 250.236C88.7867 250.003 88.908 249.704 88.908 249.34C88.908 248.995 88.7867 248.719 88.544 248.514C88.3107 248.299 87.9747 248.117 87.536 247.968V250.586ZM92.1039 250.446C95.2679 248.253 96.8499 246.433 96.8499 244.986C96.8499 244.547 96.7426 244.202 96.5279 243.95C96.3226 243.698 95.9959 243.572 95.5479 243.572C94.6239 243.572 94.1339 244.202 94.0779 245.462H92.1599C92.2159 244.295 92.5706 243.413 93.2239 242.816C93.8773 242.209 94.7033 241.906 95.7019 241.906C96.7193 241.906 97.4986 242.172 98.0399 242.704C98.5906 243.227 98.8659 243.927 98.8659 244.804C98.8659 245.495 98.6606 246.19 98.2499 246.89C97.8486 247.581 97.3353 248.22 96.7099 248.808C96.0846 249.387 95.4266 249.886 94.7359 250.306H99.0619V251.916H92.1039V250.446ZM100.174 246.974C100.174 250.325 101.434 252 103.954 252C105.288 252 106.25 251.552 106.838 250.656C107.426 249.76 107.72 248.533 107.72 246.974C107.72 245.425 107.426 244.202 106.838 243.306C106.25 242.41 105.288 241.962 103.954 241.962C101.434 241.962 100.174 243.633 100.174 246.974ZM105.774 246.974C105.774 247.991 105.648 248.775 105.396 249.326C105.153 249.867 104.672 250.138 103.954 250.138C103.226 250.138 102.736 249.867 102.484 249.326C102.241 248.775 102.12 247.991 102.12 246.974C102.12 245.966 102.241 245.191 102.484 244.65C102.736 244.099 103.226 243.824 103.954 243.824C104.672 243.824 105.153 244.099 105.396 244.65C105.648 245.191 105.774 245.966 105.774 246.974ZM109.019 246.974C109.019 250.325 110.279 252 112.799 252C114.134 252 115.095 251.552 115.683 250.656C116.271 249.76 116.565 248.533 116.565 246.974C116.565 245.425 116.271 244.202 115.683 243.306C115.095 242.41 114.134 241.962 112.799 241.962C110.279 241.962 109.019 243.633 109.019 246.974ZM114.619 246.974C114.619 247.991 114.493 248.775 114.241 249.326C113.999 249.867 113.518 250.138 112.799 250.138C112.071 250.138 111.581 249.867 111.329 249.326C111.087 248.775 110.965 247.991 110.965 246.974C110.965 245.966 111.087 245.191 111.329 244.65C111.581 244.099 112.071 243.824 112.799 243.824C113.518 243.824 113.999 244.099 114.241 244.65C114.493 245.191 114.619 245.966 114.619 246.974ZM123.129 246.19V247.828H117.179V246.19H123.129ZM132.263 243.656H127.573V246.148C127.788 245.896 128.082 245.695 128.455 245.546C128.838 245.387 129.258 245.308 129.715 245.308C130.396 245.308 130.961 245.457 131.409 245.756C131.866 246.045 132.202 246.437 132.417 246.932C132.641 247.417 132.753 247.959 132.753 248.556C132.753 249.611 132.454 250.455 131.857 251.09C131.269 251.725 130.424 252.042 129.323 252.042C128.604 252.042 127.979 251.916 127.447 251.664C126.915 251.403 126.5 251.043 126.201 250.586C125.902 250.119 125.739 249.578 125.711 248.962H127.629C127.704 249.382 127.876 249.718 128.147 249.97C128.418 250.213 128.777 250.334 129.225 250.334C129.766 250.334 130.168 250.171 130.429 249.844C130.7 249.508 130.835 249.065 130.835 248.514C130.835 247.991 130.695 247.585 130.415 247.296C130.135 247.007 129.738 246.862 129.225 246.862C128.852 246.862 128.534 246.946 128.273 247.114C128.012 247.273 127.82 247.487 127.699 247.758H125.781V241.92H132.263V243.656ZM134.053 246.974C134.053 250.325 135.313 252 137.833 252C139.167 252 140.129 251.552 140.717 250.656C141.305 249.76 141.599 248.533 141.599 246.974C141.599 245.425 141.305 244.202 140.717 243.306C140.129 242.41 139.167 241.962 137.833 241.962C135.313 241.962 134.053 243.633 134.053 246.974ZM139.653 246.974C139.653 247.991 139.527 248.775 139.275 249.326C139.032 249.867 138.551 250.138 137.833 250.138C137.105 250.138 136.615 249.867 136.363 249.326C136.12 248.775 135.999 247.991 135.999 246.974C135.999 245.966 136.12 245.191 136.363 244.65C136.615 244.099 137.105 243.824 137.833 243.824C138.551 243.824 139.032 244.099 139.275 244.65C139.527 245.191 139.653 245.966 139.653 246.974ZM142.898 246.974C142.898 250.325 144.158 252 146.678 252C148.013 252 148.974 251.552 149.562 250.656C150.15 249.76 150.444 248.533 150.444 246.974C150.444 245.425 150.15 244.202 149.562 243.306C148.974 242.41 148.013 241.962 146.678 241.962C144.158 241.962 142.898 243.633 142.898 246.974ZM148.498 246.974C148.498 247.991 148.372 248.775 148.12 249.326C147.878 249.867 147.397 250.138 146.678 250.138C145.95 250.138 145.46 249.867 145.208 249.326C144.966 248.775 144.844 247.991 144.844 246.974C144.844 245.966 144.966 245.191 145.208 244.65C145.46 244.099 145.95 243.824 146.678 243.824C147.397 243.824 147.878 244.099 148.12 244.65C148.372 245.191 148.498 245.966 148.498 246.974Z" fill="#222222"></path>
<rect x="40" y="283" width="320" height="60" rx="30" fill="#FFD62C"></rect>
<path d="M162.032 307.704V309.496H157.28V312.52H161.088V314.248H157.28V319H155.024V307.704H162.032ZM163.299 307.592C163.299 307.229 163.427 306.936 163.683 306.712C163.939 306.477 164.275 306.36 164.691 306.36C165.107 306.36 165.443 306.477 165.699 306.712C165.955 306.936 166.083 307.229 166.083 307.592C166.083 307.944 165.955 308.237 165.699 308.472C165.443 308.696 165.107 308.808 164.691 308.808C164.275 308.808 163.939 308.696 163.683 308.472C163.427 308.237 163.299 307.944 163.299 307.592ZM165.811 310.136V319H163.555V310.136H165.811ZM173.132 310.008C174.156 310.008 174.972 310.344 175.58 311.016C176.188 311.688 176.492 312.632 176.492 313.848V319H174.252V314.104C174.252 313.4 174.071 312.856 173.708 312.472C173.345 312.077 172.849 311.88 172.22 311.88C171.58 311.88 171.068 312.088 170.684 312.504C170.3 312.92 170.108 313.517 170.108 314.296V319H167.852V310.136H170.108V311.912C170.343 311.315 170.727 310.851 171.26 310.52C171.804 310.179 172.428 310.008 173.132 310.008ZM181.949 310.024C182.696 310.024 183.33 310.2 183.853 310.552C184.386 310.904 184.77 311.379 185.005 311.976V307.16H187.245V319H185.005V317.144C184.77 317.741 184.386 318.221 183.853 318.584C183.33 318.936 182.696 319.112 181.949 319.112C181.202 319.112 180.53 318.931 179.933 318.568C179.336 318.205 178.866 317.683 178.525 317C178.194 316.307 178.029 315.496 178.029 314.568C178.029 313.64 178.194 312.835 178.525 312.152C178.866 311.459 179.336 310.931 179.933 310.568C180.53 310.205 181.202 310.024 181.949 310.024ZM182.653 311.992C181.949 311.992 181.384 312.221 180.957 312.68C180.53 313.139 180.317 313.768 180.317 314.568C180.317 315.368 180.53 315.997 180.957 316.456C181.384 316.904 181.949 317.128 182.653 317.128C183.336 317.128 183.896 316.899 184.333 316.44C184.781 315.971 185.005 315.347 185.005 314.568C185.005 313.779 184.781 313.155 184.333 312.696C183.896 312.227 183.336 311.992 182.653 311.992ZM196.246 310.024C196.993 310.024 197.633 310.2 198.166 310.552C198.699 310.904 199.078 311.379 199.302 311.976V310.136H201.542V319H199.302V317.144C199.078 317.741 198.699 318.221 198.166 318.584C197.633 318.936 196.993 319.112 196.246 319.112C195.499 319.112 194.827 318.931 194.23 318.568C193.633 318.205 193.163 317.683 192.822 317C192.491 316.307 192.326 315.496 192.326 314.568C192.326 313.64 192.491 312.835 192.822 312.152C193.163 311.459 193.633 310.931 194.23 310.568C194.827 310.205 195.499 310.024 196.246 310.024ZM196.95 311.992C196.246 311.992 195.681 312.221 195.254 312.68C194.827 313.139 194.614 313.768 194.614 314.568C194.614 315.368 194.827 315.997 195.254 316.456C195.681 316.904 196.246 317.128 196.95 317.128C197.633 317.128 198.193 316.899 198.63 316.44C199.078 315.971 199.302 315.347 199.302 314.568C199.302 313.779 199.078 313.155 198.63 312.696C198.193 312.227 197.633 311.992 196.95 311.992ZM209.327 317.272H213.119V319H207.071V307.704H209.327V317.272ZM218.558 310.024C219.422 310.024 220.195 310.205 220.878 310.568C221.571 310.931 222.115 311.459 222.51 312.152C222.904 312.835 223.102 313.64 223.102 314.568C223.102 315.496 222.904 316.301 222.51 316.984C222.115 317.667 221.571 318.195 220.878 318.568C220.195 318.931 219.422 319.112 218.558 319.112C217.694 319.112 216.915 318.931 216.222 318.568C215.539 318.195 215 317.667 214.606 316.984C214.211 316.301 214.014 315.496 214.014 314.568C214.014 313.64 214.211 312.835 214.606 312.152C215 311.459 215.539 310.931 216.222 310.568C216.915 310.205 217.694 310.024 218.558 310.024ZM218.558 311.976C217.928 311.976 217.395 312.2 216.958 312.648C216.52 313.085 216.302 313.725 216.302 314.568C216.302 315.411 216.52 316.056 216.958 316.504C217.395 316.941 217.928 317.16 218.558 317.16C219.187 317.16 219.72 316.941 220.158 316.504C220.595 316.056 220.814 315.411 220.814 314.568C220.814 313.725 220.595 313.085 220.158 312.648C219.72 312.2 219.187 311.976 218.558 311.976ZM228.168 310.024C228.915 310.024 229.555 310.2 230.088 310.552C230.621 310.904 231 311.379 231.224 311.976V310.136H233.464V319H231.224V317.144C231 317.741 230.621 318.221 230.088 318.584C229.555 318.936 228.915 319.112 228.168 319.112C227.421 319.112 226.749 318.931 226.152 318.568C225.555 318.205 225.085 317.683 224.744 317C224.413 316.307 224.248 315.496 224.248 314.568C224.248 313.64 224.413 312.835 224.744 312.152C225.085 311.459 225.555 310.931 226.152 310.568C226.749 310.205 227.421 310.024 228.168 310.024ZM228.872 311.992C228.168 311.992 227.603 312.221 227.176 312.68C226.749 313.139 226.536 313.768 226.536 314.568C226.536 315.368 226.749 315.997 227.176 316.456C227.603 316.904 228.168 317.128 228.872 317.128C229.555 317.128 230.115 316.899 230.552 316.44C231 315.971 231.224 315.347 231.224 314.568C231.224 313.779 231 313.155 230.552 312.696C230.115 312.227 229.555 311.992 228.872 311.992ZM240.788 310.008C241.812 310.008 242.628 310.344 243.236 311.016C243.844 311.688 244.148 312.632 244.148 313.848V319H241.908V314.104C241.908 313.4 241.727 312.856 241.364 312.472C241.002 312.077 240.506 311.88 239.876 311.88C239.236 311.88 238.724 312.088 238.34 312.504C237.956 312.92 237.764 313.517 237.764 314.296V319H235.508V310.136H237.764V311.912C237.999 311.315 238.383 310.851 238.916 310.52C239.46 310.179 240.084 310.008 240.788 310.008Z" fill="#222222"></path>
</g>
<defs>
<filter id="filter0_d_693_2969" x="98" y="205" width="36" height="36" filterUnits="userSpaceOnUse" color-interpolation-filters="sRGB">
<feFlood flood-opacity="0" result="BackgroundImageFix"></feFlood>
<feColorMatrix in="SourceAlpha" type="matrix" values="0 0 0 0 0 0 0 0 0 0 0 0 0 0 0 0 0 0 127 0" result="hardAlpha"></feColorMatrix>
<feOffset dy="2"></feOffset>
<feGaussianBlur stdDeviation="3"></feGaussianBlur>
<feComposite in2="hardAlpha" operator="out"></feComposite>
<feColorMatrix type="matrix" values="0 0 0 0 0 0 0 0 0 0 0 0 0 0 0 0 0 0 0.25 0"></feColorMatrix>
<feBlend mode="normal" in2="BackgroundImageFix" result="effect1_dropShadow_693_2969"></feBlend>
<feBlend mode="normal" in="SourceGraphic" in2="effect1_dropShadow_693_2969" result="shape"></feBlend>
</filter>
<clipPath id="clip0_693_2969">
<rect width="400" height="358" fill="white"></rect>
</clipPath>
<clipPath id="clip1_693_2969">
<rect width="20" height="20" fill="white" transform="translate(60 125)"></rect>
</clipPath>
</defs>
</svg>
