<svg width="288" height="429" viewBox="0 0 288 429" fill="none" xmlns="http://www.w3.org/2000/svg">
<path d="M11.2917 39.3216C-4.37777 33.6328 -12.7209 38.2237 -12.7209 38.2237C-12.7209 38.2237 -11.3813 30.7055 -3.35665 27.391C5.80633 23.6054 3.8575 11.7309 8.32588 4.91109C8.32588 4.91109 11.1121 5.52023 14.0167 5.09269C18.1457 4.48459 23.6321 1.52712 30.2236 1.91418C30.2236 1.91418 28.2084 3.36698 27.0825 10.9796C26.5989 14.2546 27.4177 31.545 11.2917 39.3216" fill="#58D841"></path>
<path d="M30.2267 1.91436C30.2267 1.91436 28.2115 3.36716 27.0835 10.9819C26.5999 14.2548 27.4197 31.5462 11.2916 39.3228C11.109 39.2553 10.9284 39.191 10.7468 39.1287C-4.56565 33.7378 -12.72 38.2259 -12.72 38.2259C-12.72 38.2259 -12.4024 36.4463 -11.151 34.2422C-9.83619 31.9104 -7.47954 29.0972 -3.35671 27.3933C1.76854 25.2732 3.41849 20.6212 4.65441 15.745C5.63608 11.9054 6.35935 7.91648 8.32685 4.91231C8.32685 4.91231 11.1131 5.52144 14.0145 5.09183C17.9745 4.50967 23.1755 1.77115 29.408 1.8853C29.6767 1.8853 29.9475 1.89776 30.2236 1.9154" fill="#58D841"></path>
<path d="M30.2264 1.91412C30.2264 1.91412 28.2112 3.36692 27.0832 10.9816C26.5996 14.2546 27.4194 31.5459 11.2913 39.3225C11.1087 39.2551 10.9281 39.1907 10.7465 39.1285C17.666 29.2318 4.35007 27.806 0.265642 28.3456C-4.72574 29.0129 -10.9728 34.0894 -11.1492 34.2367C-9.83439 31.905 -7.47774 29.0917 -3.35492 27.3878C1.77033 25.2678 3.42029 20.6157 4.6562 15.7395C9.87484 20.459 20.2633 21.9025 24.3031 10.1525C25.6522 6.22892 27.7193 3.55578 29.4097 1.87988C29.6785 1.87988 29.9493 1.89233 30.2254 1.90997" fill="#46B72E"></path>
<path d="M23.9571 11.0938C23.0719 17.9769 24.3535 25.162 13.498 33.2738C13.2521 33.1928 12.9397 33.0745 12.5485 32.9822C11.3292 28.6186 3.28176 27.9482 0.270329 28.3457C-0.0672866 28.3907 -0.40227 28.4538 -0.733154 28.5346C1.21151 27.5871 3.13233 26.5691 4.33919 24.8227C5.7733 22.7472 6.57027 20.1737 7.22403 17.5649C12.5817 20.5047 20.3313 20.2214 23.9571 11.0938Z" fill="#46B72E"></path>
<path d="M-4.72069 32.5173C-4.4789 32.9947 -4.50173 33.4139 -4.61692 33.8819C-1.63869 33.9359 3.05695 33.6962 7.16005 34.214C8.1272 33.61 9.14207 33.085 10.4226 32.8982C11.9595 32.673 12.9131 33.0808 13.5005 33.2717C26.0848 23.8711 22.3584 15.7137 24.604 7.82605C23.9876 7.95888 22.9571 8.28784 22.238 7.77936C21.6517 7.36427 21.66 6.84541 21.7077 6.1626C18.745 6.86098 16.0252 7.99831 13.1985 8.42585C12.9723 8.98518 12.5759 9.90355 11.3846 10.4795C10.4506 10.9278 9.63707 10.851 9.0051 10.7908C7.48278 15.1782 7.04798 20.8836 4.33541 24.8206C1.8833 28.3841 -3.55844 28.8988 -6.08423 32.0182C-5.52387 31.959 -4.99154 31.9912 -4.72692 32.5153" fill="#4BB236"></path>
<path d="M23.9571 11.0938C23.0719 17.9769 24.3535 25.162 13.498 33.2738C13.2521 33.1928 12.9397 33.0745 12.5485 32.9822C11.3292 28.6186 3.28176 27.9482 0.270329 28.3457C-0.0672866 28.3907 -0.40227 28.4538 -0.733154 28.5346C1.21151 27.5871 3.13233 26.5691 4.33919 24.8227C5.7733 22.7472 6.57027 20.1737 7.22403 17.5649C12.5817 20.5047 20.3313 20.2214 23.9571 11.0938Z" fill="#459E30"></path>
<path d="M16.9514 23.3542C15.9396 26.4486 11.8054 28.1142 9.63034 26.9332C7.53417 25.7918 8.5584 23.0304 9.483 21.2933C9.86176 20.5794 10.1793 19.6734 10.7168 18.9066C12.5619 19.3351 14.5055 19.36 16.3661 18.8184C17.1662 19.8509 17.5896 21.394 16.9514 23.3542" fill="#459E30"></path>
<path d="M18.8653 10.293C19.2544 11.3141 18.5094 12.5449 17.205 13.044C15.9006 13.5431 14.5214 13.1197 14.1323 12.0986C13.7432 11.0775 14.4882 9.84681 15.7926 9.34871C17.097 8.8506 18.4762 9.27295 18.8653 10.293Z" fill="#2E8E1A"></path>
<path d="M6.20531 29.8849C6.4305 30.8552 5.30562 31.9448 3.69302 32.3194C2.08042 32.694 0.591298 32.2156 0.366115 31.2401C0.140932 30.2647 1.26477 29.1803 2.87737 28.8067C4.48997 28.4331 5.98013 28.9105 6.20531 29.8849Z" fill="#2E8E1A"></path>
<path d="M7.15868 35.0668C7.12399 35.0663 7.08934 35.0639 7.05491 35.0596C4.12338 34.6891 0.812047 34.713 -1.84553 34.7337C-2.85522 34.741 -3.8099 34.7493 -4.63073 34.7337C-4.75913 34.7315 -4.8854 34.7004 -5.00006 34.6425C-5.11471 34.5846 -5.21478 34.5016 -5.29282 34.3996C-5.37087 34.2976 -5.42484 34.1793 -5.45071 34.0535C-5.47658 33.9277 -5.47368 33.7977 -5.44222 33.6732C-5.35298 33.3193 -5.36129 33.1315 -5.47751 32.9011C-5.48112 32.8925 -5.48601 32.8844 -5.49203 32.8773C-5.49203 32.8773 -5.5958 32.8264 -5.98598 32.8669C-6.15354 32.8845 -6.32256 32.852 -6.47167 32.7736C-6.62079 32.6952 -6.74329 32.5743 -6.8237 32.4262C-6.90411 32.2782 -6.93883 32.1096 -6.92344 31.9418C-6.90806 31.774 -6.84328 31.6146 -6.73728 31.4836C-5.42562 29.8638 -3.45189 28.908 -1.54354 27.9834C0.52358 26.982 2.47655 26.0356 3.64501 24.339C5.33752 21.8796 6.11682 18.6036 6.8702 15.4354C7.26557 13.7751 7.67444 12.0546 8.20886 10.5136C8.27113 10.3337 8.39182 10.1799 8.55169 10.0767C8.71155 9.97343 8.90138 9.92668 9.09091 9.94388C9.69382 9.99992 10.3102 10.0549 11.0242 9.71143C11.9488 9.26522 12.231 8.56996 12.4168 8.10714C12.473 7.97087 12.5635 7.85147 12.6795 7.76055C12.7955 7.66962 12.9331 7.61028 13.0788 7.58828C14.6831 7.34546 16.2552 6.86188 17.9197 6.3534C19.0778 5.99851 20.2743 5.627 21.5154 5.33852C21.6455 5.30798 21.7808 5.30839 21.9107 5.33975C22.0405 5.37111 22.1612 5.43252 22.263 5.51904C22.3648 5.60557 22.4448 5.71479 22.4966 5.83791C22.5484 5.96102 22.5707 6.09457 22.5614 6.22783C22.5116 6.93244 22.5718 6.97499 22.7326 7.0881C23.0575 7.31847 23.7102 7.16489 24.1854 7.05282L24.4252 6.99782C24.5691 6.96679 24.7186 6.97354 24.8591 7.01741C24.9997 7.06129 25.1264 7.14078 25.2272 7.24818C25.3279 7.35557 25.3991 7.4872 25.4338 7.63026C25.4686 7.77333 25.4657 7.92296 25.4255 8.06459C24.8423 10.112 24.6773 12.1781 24.503 14.3645C24.036 20.2245 23.5068 26.8669 14.0107 33.9596C13.9015 34.0414 13.7743 34.0957 13.6398 34.1181C13.5053 34.1405 13.3674 34.1303 13.2376 34.0883L13.0301 34.0198C12.477 33.832 11.7205 33.5736 10.5396 33.7458C9.35864 33.9181 8.43611 34.4224 7.60594 34.9423C7.47126 35.0244 7.31642 35.0675 7.15868 35.0668V35.0668ZM0.135469 33.0194C2.31466 33.0194 4.718 33.0692 6.96568 33.3308C7.85915 32.7922 8.94458 32.2515 10.2978 32.0533C11.3196 31.8938 12.3649 31.9854 13.3434 32.32C21.8797 25.7949 22.3487 19.9142 22.8022 14.2234C22.9412 12.4759 23.0844 10.6807 23.4622 8.89579C22.9039 8.93211 22.2875 8.85739 21.7458 8.47448C21.3167 8.18875 21.0142 7.74875 20.9011 7.24583C20.0574 7.47205 19.2262 7.72733 18.4106 7.97223C16.9111 8.43194 15.3639 8.90616 13.7969 9.18531C13.3817 10.0908 12.6583 10.8193 11.7557 11.241C11.0861 11.5613 10.3483 11.7127 9.60665 11.682C9.19779 12.9719 8.86781 14.3635 8.52017 15.8246C7.73047 19.1453 6.91379 22.579 5.04073 25.301C3.61699 27.3681 1.36826 28.4587 -0.807819 29.512C-2.12986 30.1522 -3.40209 30.7676 -4.40451 31.5625C-4.21931 31.7215 -4.06913 31.9173 -3.96349 32.1374V32.1374C-3.81912 32.4198 -3.72867 32.7267 -3.69679 33.0423C-3.12708 33.0423 -2.50758 33.0423 -1.86628 33.034C-1.22497 33.0257 -0.557721 33.0194 0.135469 33.0194Z" fill="#000072"></path>
<path d="M11.2896 40.6001C11.141 40.5999 10.9935 40.5739 10.8538 40.5233C-3.9855 35.1355 -12.033 39.305 -12.1129 39.3476C-12.3246 39.4614 -12.564 39.5134 -12.8039 39.4976C-13.0438 39.4817 -13.2743 39.3987 -13.4692 39.2579C-13.6641 39.1172 -13.8154 38.9244 -13.9059 38.7017C-13.9963 38.479 -14.0223 38.2353 -13.9807 37.9985C-13.9216 37.6634 -12.419 29.7498 -3.84543 26.2081C1.33482 24.0683 2.56972 18.9649 3.87723 13.5615C4.66797 10.2917 5.48566 6.91083 7.256 4.20863C7.39808 3.99215 7.60254 3.82388 7.84229 3.72605C8.08205 3.62822 8.34584 3.60544 8.59881 3.66072C8.62268 3.6659 11.2055 4.21279 13.8299 3.82676C15.153 3.63167 16.7158 3.15017 18.3709 2.64065C21.6542 1.62888 25.7387 0.368059 30.2973 0.636826C30.8608 0.670033 31.3911 1.03427 31.5208 1.58426C31.6505 2.13424 31.4658 2.64791 31.0019 2.93328C30.7944 3.14809 29.2752 4.90494 28.3506 11.1665C28.3028 11.4902 28.2644 12.0516 28.2188 12.7012C27.8328 18.3236 26.8044 33.2604 11.8499 40.4724C11.6752 40.5569 11.4836 40.6005 11.2896 40.6001V40.6001ZM-3.43242 35.1874C0.389467 35.1874 5.28436 35.8463 11.2097 37.9352C24.372 31.2783 25.3091 17.6823 25.6639 12.5259C25.7138 11.7995 25.7532 11.2163 25.8165 10.7929C26.3696 7.04885 27.1458 4.67663 27.8463 3.19271C24.6626 3.37846 21.7507 4.27505 19.1222 5.0855C17.3716 5.62407 15.7175 6.13358 14.2004 6.35772C12.1052 6.66904 10.091 6.47915 8.96617 6.31726C7.72091 8.53796 7.05884 11.2786 6.36046 14.1644C5.02597 19.6819 3.51299 25.9352 -2.87516 28.573C-7.47844 30.4731 -9.68047 33.8342 -10.6891 36.1047C-9.01944 35.6388 -6.59224 35.1874 -3.4293 35.1874H-3.43242Z" fill="#000072"></path>
<path d="M9.62995 26.9335C11.8091 28.1155 15.9413 26.4479 16.951 23.3524C18.2077 19.5025 15.3571 17.261 13.6199 17.342C10.7828 17.4738 10.2744 19.8086 9.48364 21.2956C8.56008 23.0317 7.53585 25.7962 9.62995 26.9335" fill="#2E8E1A"></path>
<path d="M16.9514 23.3542C15.9396 26.4486 11.8054 28.1142 9.63034 26.9332C7.53417 25.7918 8.5584 23.0304 9.483 21.2933C9.86176 20.5794 10.1793 19.6734 10.7168 18.9066C12.5619 19.3351 14.5055 19.36 16.3661 18.8184C17.1662 19.8509 17.5896 21.394 16.9514 23.3542" fill="#2A7A16"></path>
<path d="M280.716 380.667L302.024 396.102C302.024 396.102 298.269 429.843 256.802 427.181L242.66 405.973C242.66 405.973 269.096 407.403 280.706 380.665" fill="#58D841"></path>
<path d="M242.668 405.977L256.809 427.184C298.271 429.848 302.031 396.106 302.031 396.106L280.721 380.67C270.956 403.157 250.706 405.719 244.512 405.971C243.338 406.015 242.67 405.98 242.67 405.98" fill="#58D841"></path>
<path d="M242.668 405.977L256.809 427.184C298.271 429.848 302.031 396.105 302.031 396.105C302.031 396.105 293.765 417.521 270.222 418.826C255.834 419.627 248.135 411.641 244.512 405.964C243.338 406.008 242.67 405.973 242.67 405.973" fill="#46B72E"></path>
<path d="M253.39 415.308L257.067 420.697C257.067 420.697 259.479 420.325 260.926 421.339C262.145 422.197 262.562 422.828 263.111 423.653C278.261 423.206 286.88 416.989 291.752 410.565C286.765 414.922 279.739 418.737 270.217 419.269C263.059 419.667 257.559 417.892 253.39 415.308" fill="#459E30"></path>
<path d="M263.111 423.653C285.272 423.003 293.454 410.001 296.389 402.074C295.555 401.566 294.53 400.794 294.129 399.399C293.621 397.63 294.278 395.994 294.278 395.994L284.551 388.954C284.551 388.954 283.564 390.672 282.072 391.219C280.74 391.706 279.678 391.625 278.714 391.467C270.898 402.403 262.176 406.127 253.238 408.214C253.605 408.9 253.693 409.721 253.157 410.463C252.491 411.382 250.94 411.721 250.94 411.721L257.068 420.703C257.068 420.703 259.481 420.33 260.925 421.346C262.143 422.202 262.566 422.842 263.111 423.658" fill="#4BB236"></path>
<path d="M253.39 415.308L257.067 420.697C257.067 420.697 259.479 420.325 260.926 421.339C262.145 422.197 262.562 422.828 263.111 423.653C278.261 423.206 286.88 416.989 291.752 410.565C286.765 414.922 279.739 418.737 270.217 419.269C263.059 419.667 257.559 417.892 253.39 415.308" fill="#459E30"></path>
<path d="M261.308 429C259.826 429 258.292 428.95 256.705 428.85C256.449 428.833 256.2 428.758 255.978 428.629C255.755 428.501 255.565 428.324 255.423 428.11L241.28 406.902C241.109 406.644 241.012 406.344 241.001 406.035C240.99 405.725 241.065 405.419 241.218 405.15C241.369 404.879 241.594 404.657 241.867 404.508C242.139 404.359 242.448 404.291 242.758 404.31C243.789 404.363 268.193 405.318 279.19 380.003C279.289 379.774 279.439 379.57 279.627 379.407C279.816 379.244 280.039 379.125 280.28 379.059C280.52 378.993 280.773 378.982 281.018 379.027C281.263 379.072 281.496 379.171 281.698 379.318L303.008 394.753C303.246 394.926 303.435 395.159 303.553 395.429C303.672 395.699 303.718 395.995 303.685 396.288C303.645 396.651 302.623 405.275 296.297 413.647C290.883 420.814 280.494 428.999 261.308 429ZM257.732 425.568C273.851 426.426 285.895 421.777 293.542 411.757C298.211 405.635 299.77 399.213 300.214 396.857L281.382 383.214C271.59 403.481 253.084 406.976 245.713 407.548L257.732 425.568Z" fill="#000072"></path>
<path d="M282.954 397.369C282.954 398.058 283.158 398.731 283.541 399.304C283.924 399.877 284.468 400.323 285.104 400.587C285.741 400.851 286.441 400.92 287.117 400.785C287.793 400.651 288.414 400.319 288.901 399.832C289.388 399.345 289.72 398.724 289.854 398.048C289.989 397.372 289.92 396.672 289.656 396.035C289.392 395.399 288.946 394.855 288.373 394.472C287.8 394.089 287.126 393.885 286.437 393.885C285.98 393.885 285.527 393.975 285.104 394.15C284.681 394.325 284.297 394.581 283.974 394.905C283.65 395.228 283.393 395.612 283.218 396.035C283.043 396.458 282.953 396.911 282.954 397.369" fill="#2E8E1A"></path>
<path d="M255.666 413.474C255.383 414.668 256.761 416.082 258.745 416.63C260.728 417.179 262.566 416.655 262.85 415.459C263.134 414.264 261.755 412.851 259.771 412.303C257.787 411.755 255.95 412.279 255.666 413.474Z" fill="#2E8E1A"></path>
<path d="M263.112 424.765C262.929 424.765 262.749 424.72 262.587 424.634C262.426 424.548 262.288 424.423 262.187 424.271L262.171 424.248C261.66 423.484 261.325 422.979 260.286 422.251C259.411 421.635 257.788 421.709 257.236 421.797C257.029 421.827 256.818 421.799 256.627 421.715C256.435 421.632 256.271 421.497 256.152 421.325L250.024 412.342C249.922 412.192 249.858 412.02 249.837 411.839C249.817 411.658 249.841 411.475 249.908 411.306C249.975 411.137 250.082 410.987 250.22 410.869C250.359 410.751 250.524 410.669 250.701 410.63C251.071 410.546 251.944 410.233 252.254 409.805C252.344 409.681 252.585 409.349 252.254 408.734C252.173 408.584 252.128 408.417 252.122 408.246C252.116 408.075 252.15 407.906 252.22 407.75C252.29 407.594 252.396 407.457 252.528 407.349C252.66 407.24 252.815 407.164 252.981 407.126C261.189 405.21 269.878 401.906 277.806 390.814C277.927 390.646 278.092 390.514 278.284 390.434C278.475 390.355 278.685 390.33 278.89 390.364C279.86 390.521 280.667 390.544 281.688 390.17C282.587 389.841 283.364 388.774 283.584 388.392C283.662 388.258 283.768 388.141 283.894 388.05C284.02 387.959 284.163 387.895 284.315 387.863C284.467 387.83 284.625 387.83 284.777 387.862C284.929 387.894 285.073 387.957 285.199 388.048L294.926 395.089C295.127 395.235 295.273 395.443 295.342 395.682C295.411 395.92 295.398 396.175 295.306 396.405C295.306 396.412 294.804 397.726 295.193 399.089C295.485 400.107 296.251 400.686 296.962 401.119C297.182 401.254 297.349 401.461 297.434 401.704C297.518 401.948 297.516 402.214 297.427 402.456C294.448 410.498 286.036 424.089 263.139 424.761L263.112 424.765ZM258.112 419.516C259.1 419.516 260.492 419.676 261.566 420.431C262.398 420.988 263.117 421.698 263.686 422.522C284.07 421.7 292.023 410.007 295.034 402.498C294.257 401.902 293.441 401.03 293.06 399.706C292.773 398.639 292.752 397.518 292.998 396.44L284.802 390.503C284.274 391.131 283.475 391.884 282.455 392.263C281.425 392.649 280.318 392.784 279.225 392.657C271.33 403.417 262.455 407.066 254.635 409.021C254.709 409.767 254.504 410.514 254.058 411.116C253.684 411.599 253.204 411.991 252.655 412.261L257.617 419.535C257.766 419.521 257.933 419.516 258.112 419.516Z" fill="#000072"></path>
<path d="M269.213 412.641C271.27 415.422 277.82 415.654 280.577 412.037C284.306 407.146 280.983 403.618 279.502 403.021C275.823 401.541 274.11 404.09 272.105 405.316C270.1 406.543 266.898 409.514 269.213 412.641" fill="#2E8E1A"></path>
<path d="M267.356 140.733C267.659 141.168 268.076 141.51 268.562 141.723C269.047 141.935 269.582 142.01 270.107 141.937C271.957 141.685 275.153 140.732 279.695 137.573C284.236 134.414 286.236 131.747 287.115 130.102C287.365 129.634 287.481 129.107 287.451 128.578C287.42 128.049 287.243 127.538 286.941 127.103L283.835 122.64L264.252 136.27L267.356 140.733Z" fill="#FFC933"></path>
<path d="M264.251 136.27L267.356 140.727C267.659 141.162 268.076 141.505 268.562 141.718C269.047 141.931 269.582 142.006 270.107 141.935C271.831 141.697 274.721 140.856 278.77 138.186L278.777 138.18C279.078 137.989 279.381 137.783 279.69 137.569C284.231 134.409 286.23 131.742 287.109 130.099C287.361 129.632 287.478 129.104 287.448 128.574C287.419 128.044 287.243 127.532 286.941 127.096L283.836 122.639L264.251 136.27Z" fill="#FFC933"></path>
<path d="M264.249 136.27L267.354 140.727C267.658 141.162 268.075 141.504 268.561 141.717C269.046 141.93 269.581 142.005 270.106 141.934C271.829 141.697 274.72 140.854 278.768 138.185L278.776 138.179C279.076 137.988 279.38 137.782 279.688 137.568C281.108 136.594 282.451 135.513 283.707 134.336C284.959 133.146 285.832 132.086 286.434 131.203C286.679 130.848 286.903 130.479 287.107 130.098C287.358 129.631 287.476 129.103 287.446 128.573C287.416 128.043 287.241 127.531 286.939 127.095L283.834 122.638L264.249 136.27Z" fill="#FFC933"></path>
<path d="M264.251 136.27L267.356 140.728C267.659 141.163 268.076 141.505 268.562 141.719C269.047 141.932 269.582 142.007 270.107 141.935C271.831 141.697 274.721 140.856 278.77 138.187C278.144 138.454 274.344 139.661 268.696 133.17L264.251 136.27Z" fill="#FFA329"></path>
<g opacity="0.7">
<path d="M278.264 126.515L283.711 134.336C284.963 133.146 285.836 132.086 286.438 131.203L281.57 124.209L278.264 126.515Z" fill="white"></path>
</g>
<path d="M269.71 143C269.89 143 270.07 142.988 270.248 142.963C272.242 142.691 275.602 141.682 280.284 138.422C284.966 135.161 287.079 132.361 288.026 130.587C288.368 129.952 288.527 129.234 288.485 128.514C288.443 127.794 288.202 127.1 287.789 126.509L284.683 122.046C284.605 121.934 284.507 121.839 284.392 121.765C284.277 121.692 284.149 121.642 284.015 121.618C283.745 121.57 283.467 121.63 283.241 121.786L263.659 135.417C263.547 135.494 263.452 135.593 263.378 135.708C263.305 135.822 263.254 135.95 263.23 136.084C263.206 136.218 263.209 136.355 263.238 136.488C263.267 136.621 263.322 136.747 263.4 136.859L266.506 141.321C266.865 141.839 267.343 142.263 267.901 142.555C268.459 142.848 269.08 143 269.71 143V143ZM283.574 124.082L286.088 127.699C286.282 127.977 286.395 128.304 286.415 128.642C286.434 128.981 286.359 129.318 286.198 129.617C285.357 131.191 283.444 133.703 279.1 136.728C274.757 139.752 271.737 140.673 269.968 140.914C269.632 140.962 269.29 140.915 268.979 140.779C268.668 140.643 268.401 140.424 268.207 140.146V140.146L265.692 136.529L283.574 124.082Z" fill="#000072"></path>
<path d="M264.25 136.27C265.383 137.898 270.686 136.167 276.093 132.402C281.5 128.636 284.965 124.267 283.83 122.638C282.695 121.01 277.395 122.743 271.987 126.507C266.579 130.271 263.115 134.641 264.25 136.269" fill="#FFC933"></path>
<path d="M265.877 137.913C266.654 137.913 267.643 137.751 268.889 137.343C271.22 136.586 273.988 135.13 276.684 133.253C279.38 131.377 281.703 129.286 283.226 127.366C285.497 124.507 285.271 122.897 284.682 122.051C284.093 121.206 282.663 120.436 279.192 121.569C276.861 122.326 274.093 123.783 271.397 125.66C266.272 129.227 261.583 134.255 263.399 136.864C263.774 137.403 264.498 137.913 265.877 137.913ZM282.214 123.066C282.718 123.066 282.94 123.173 282.981 123.234C283.065 123.351 283.073 124.224 281.603 126.079C280.202 127.845 278.035 129.79 275.5 131.555C272.965 133.319 270.389 134.676 268.246 135.375C265.997 136.11 265.181 135.796 265.1 135.68C264.679 135.072 266.774 131.402 272.585 127.36C275.12 125.594 277.696 124.239 279.839 123.539C280.955 123.172 281.719 123.066 282.214 123.066H282.214Z" fill="#000072"></path>
<path d="M267.229 134.197C267.851 135.091 271.406 133.693 275.169 131.075C278.931 128.457 281.476 125.608 280.855 124.713C280.233 123.818 276.677 125.218 272.915 127.836C269.152 130.454 266.607 133.302 267.229 134.197Z" fill="#FFC933"></path>
<path d="M267.228 134.198C267.429 134.486 267.939 134.534 268.657 134.382C268.224 133.41 270.731 130.645 274.388 128.1C276.933 126.328 279.38 125.117 280.896 124.798C280.883 124.769 280.867 124.741 280.849 124.714C280.228 123.82 276.675 125.218 272.912 127.834C269.149 130.45 266.604 133.301 267.225 134.197" fill="#FFA329"></path>
<path d="M267.956 134.985C268.527 134.985 269.277 134.802 270.212 134.433C271.748 133.83 273.614 132.787 275.465 131.498C278.157 129.627 282.403 126.031 281.28 124.416C280.808 123.738 279.694 123.758 277.873 124.473C276.338 125.077 274.471 126.12 272.619 127.409C270.768 128.699 269.142 130.085 268.042 131.317C266.738 132.775 266.333 133.814 266.805 134.491C267.034 134.822 267.415 134.985 267.956 134.985ZM280.122 124.939C280.231 124.928 280.341 124.954 280.434 125.013C280.611 125.494 278.866 127.872 274.873 130.647C270.899 133.414 268.075 134.232 267.656 133.899C267.488 133.394 269.237 131.026 273.212 128.264C276.638 125.876 279.21 124.94 280.122 124.94V124.939Z" fill="#000072"></path>
<path d="M14.8203 282.908C14.4073 283.501 13.8384 283.968 13.1763 284.258C12.5143 284.548 11.7849 284.649 11.069 284.55C8.546 284.206 4.18806 282.907 -2.00479 278.599C-8.19765 274.292 -10.9248 270.655 -12.1232 268.411C-12.4647 267.774 -12.6232 267.055 -12.5813 266.333C-12.5394 265.612 -12.2987 264.916 -11.8858 264.323L-7.65061 258.236L19.0532 276.823L14.8203 282.908Z" fill="#FFC933"></path>
<path d="M19.0556 276.823L14.8216 282.901C14.4081 283.494 13.839 283.962 13.177 284.252C12.5149 284.543 11.7856 284.645 11.0691 284.548C8.7193 284.224 4.77767 283.077 -0.74315 279.437L-0.753467 279.429C-1.16403 279.167 -1.57689 278.887 -1.99777 278.595C-8.19063 274.286 -10.9166 270.649 -12.1151 268.409C-12.458 267.771 -12.6181 267.052 -12.5776 266.329C-12.5371 265.606 -12.2977 264.909 -11.8857 264.314L-7.65162 258.235L19.0556 276.823Z" fill="#FFC933"></path>
<path d="M19.0579 276.822L14.8238 282.9C14.4101 283.493 13.841 283.96 13.179 284.25C12.517 284.541 11.7877 284.643 11.0714 284.546C8.72159 284.222 4.77995 283.073 -0.740866 279.434L-0.751183 279.426C-1.1606 279.165 -1.5746 278.885 -1.99549 278.592C-3.93058 277.264 -5.76232 275.79 -7.47502 274.185C-9.18264 272.562 -10.3731 271.117 -11.1942 269.913C-11.5274 269.428 -11.8337 268.925 -12.1116 268.406C-12.4546 267.769 -12.6147 267.049 -12.5742 266.326C-12.5337 265.604 -12.2942 264.906 -11.8823 264.311L-7.64819 258.233L19.0579 276.822Z" fill="#FFC933"></path>
<path d="M19.0556 276.823L14.8216 282.901C14.4081 283.494 13.839 283.962 13.177 284.252C12.5149 284.543 11.7856 284.645 11.0691 284.548C8.71929 284.223 4.77765 283.077 -0.743164 279.437C0.110074 279.8 5.29143 281.447 12.9935 272.596L19.0556 276.823Z" fill="#FFA329"></path>
<path d="M11.6115 286C11.366 286 11.1208 285.983 10.8776 285.949C8.15844 285.579 3.57686 284.203 -2.80751 279.756C-9.19189 275.31 -12.0739 271.492 -13.3652 269.073C-13.8315 268.207 -14.0481 267.228 -13.991 266.246C-13.9339 265.264 -13.6053 264.318 -13.0418 263.512L-8.80655 257.427C-8.70092 257.274 -8.56604 257.144 -8.40974 257.044C-8.25343 256.943 -8.07882 256.875 -7.89598 256.843C-7.52743 256.777 -7.14781 256.86 -6.83974 257.072L19.8629 275.659C20.0153 275.765 20.1453 275.9 20.2455 276.056C20.3457 276.212 20.4141 276.386 20.4469 276.569C20.4797 276.752 20.4762 276.939 20.4366 277.12C20.397 277.302 20.3221 277.473 20.2162 277.626L15.9798 283.711C15.4913 284.417 14.8386 284.995 14.0777 285.394C13.3169 285.792 12.4706 286 11.6115 286V286ZM-7.29504 260.203L-10.7229 265.134C-10.9876 265.514 -11.1418 265.959 -11.1684 266.421C-11.1949 266.883 -11.0927 267.343 -10.8731 267.75C-9.7263 269.897 -7.11727 273.323 -1.19392 277.447C4.72943 281.571 8.84768 282.827 11.2595 283.156C11.7175 283.22 12.1845 283.156 12.6084 282.971C13.0324 282.786 13.3967 282.487 13.6609 282.107V282.107L17.0899 277.176L-7.29504 260.203Z" fill="#000072"></path>
<path d="M19.0573 276.823C17.5114 279.043 10.2807 276.682 2.90775 271.547C-4.46519 266.413 -9.19125 260.454 -7.64304 258.234C-6.09483 256.014 1.13246 258.376 8.50655 263.509C15.8806 268.643 20.6044 274.601 19.0573 276.822" fill="#FFC933"></path>
<path d="M16.8379 279.063C15.7783 279.063 14.4296 278.843 12.73 278.286C9.55215 277.254 5.77795 275.268 2.10122 272.709C-1.5755 270.151 -4.74303 267.299 -6.81993 264.682C-9.91636 260.782 -9.60786 258.586 -8.80508 257.434C-8.0023 256.281 -6.0527 255.231 -1.3186 256.776C1.85925 257.809 5.63459 259.795 9.31131 262.355C16.2989 267.218 22.6936 274.075 20.2176 277.633C19.705 278.368 18.7187 279.063 16.8379 279.063ZM-5.43915 258.817C-6.12725 258.817 -6.43001 258.963 -6.4862 259.046C-6.60089 259.205 -6.61121 260.397 -4.60656 262.926C-2.69594 265.334 0.259418 267.987 3.71595 270.393C7.17248 272.799 10.6852 274.649 13.6073 275.603C16.6739 276.604 17.7875 276.176 17.8976 276.018C18.471 275.189 15.6154 270.184 7.69085 264.672C4.23432 262.264 0.721592 260.417 -2.20052 259.462C-3.72236 258.961 -4.76482 258.817 -5.4403 258.817H-5.43915Z" fill="#000072"></path>
<path d="M14.9944 273.996C14.1457 275.215 9.29811 273.308 4.16721 269.738C-0.963685 266.168 -4.43398 262.284 -3.58647 261.063C-2.73897 259.843 2.1098 261.752 7.24069 265.322C12.3716 268.892 15.8419 272.776 14.9944 273.996Z" fill="#FFC933"></path>
<path d="M14.9963 273.997C14.7222 274.391 14.0261 274.456 13.0467 274.248C13.6373 272.923 10.2186 269.152 5.23222 265.682C1.76192 263.265 -1.57534 261.614 -3.64307 261.179C-3.62499 261.139 -3.60351 261.101 -3.57885 261.065C-2.73135 259.845 2.11399 261.753 7.24489 265.319C12.3758 268.886 15.8461 272.774 14.9997 273.996" fill="#FFA329"></path>
<path d="M14.0026 275.071C13.2239 275.071 12.2021 274.821 10.9268 274.318C8.83159 273.495 6.28794 272.073 3.76263 270.315C0.0927885 267.764 -5.69753 262.86 -4.16652 260.659C-3.52315 259.734 -2.00361 259.761 0.479268 260.737C2.57337 261.56 5.11817 262.982 7.64348 264.74C10.1688 266.498 12.3856 268.389 13.8857 270.068C15.6644 272.057 16.216 273.473 15.5726 274.397C15.2595 274.848 14.74 275.071 14.0026 275.071ZM-2.58734 261.371C-2.73646 261.356 -2.88624 261.391 -3.01281 261.472C-3.25364 262.129 -0.875127 265.371 4.57 269.155C9.98989 272.928 13.8409 274.043 14.412 273.589C14.6414 272.901 12.256 269.671 6.83613 265.905C2.16396 262.649 -1.34304 261.373 -2.58734 261.373V261.371Z" fill="#000072"></path>
</svg>
