<svg width="81" height="48" viewBox="0 0 81 48" fill="none" xmlns="http://www.w3.org/2000/svg">
<g clip-path="url(#clip0_8_391)">
<path d="M80.4754 23.4781L60.4082 3.7013C60.4082 3.7013 32.9087 35.9894 13.091 14.4355C13.091 14.4355 14.3606 13.1315 13.5557 10.5645L23.8987 5.88846C23.8987 5.88846 25.54 7.52971 28.6998 6.69338C28.6998 6.69338 35.0176 14.4972 41.5826 16.1076C41.5826 16.1076 33.7166 10.843 28.3904 0.5L5.22314 10.9669C5.22314 10.9669 17.1766 25.2125 31.0505 24.4692C44.9244 23.7259 60.1604 8.36545 60.1604 8.36545L80.4754 23.4781Z" fill="#41D5BD"/>
<path d="M1.94067 14.5178L5.61556 13.0728C5.61556 13.0728 10.8594 20.9329 23.4945 24.4969C23.4945 24.4969 11.768 23.8497 1.94067 14.5178Z" fill="#009E8A"/>
<path d="M0 18.1104L3.17937 16.8716C3.17937 16.8716 11.1486 22.9974 19.6109 24.497C19.6109 24.497 11.0656 24.8408 0 18.1104Z" fill="#005449"/>
</g>
<path d="M9.42379 39.798C9.42379 40.302 9.29779 40.7687 9.04579 41.198C8.79379 41.618 8.42046 41.9587 7.92579 42.22C7.43113 42.472 6.82913 42.598 6.11979 42.598C5.41979 42.598 4.79446 42.4813 4.24379 42.248C3.69313 42.0053 3.24979 41.66 2.91379 41.212C2.58713 40.764 2.40046 40.2413 2.35379 39.644H4.45379C4.50046 40.0453 4.65913 40.3813 4.92979 40.652C5.20979 40.9133 5.57846 41.044 6.03579 41.044C6.44646 41.044 6.75913 40.9367 6.97379 40.722C7.19779 40.498 7.30979 40.2133 7.30979 39.868C7.30979 39.56 7.22113 39.308 7.04379 39.112C6.86646 38.9067 6.64246 38.7433 6.37179 38.622C6.10113 38.5007 5.72779 38.3607 5.25179 38.202C4.63579 37.9967 4.13179 37.796 3.73979 37.6C3.34779 37.3947 3.01179 37.1007 2.73179 36.718C2.46113 36.3353 2.32579 35.836 2.32579 35.22C2.32579 34.3707 2.62913 33.7033 3.23579 33.218C3.85179 32.7233 4.66379 32.476 5.67179 32.476C6.71713 32.476 7.54779 32.728 8.16379 33.232C8.78913 33.736 9.14379 34.408 9.22779 35.248H7.09979C7.04379 34.8933 6.89446 34.604 6.65179 34.38C6.40913 34.1467 6.07779 34.03 5.65779 34.03C5.29379 34.03 4.99979 34.128 4.77579 34.324C4.55179 34.5107 4.43979 34.786 4.43979 35.15C4.43979 35.4393 4.52379 35.682 4.69179 35.878C4.86913 36.0647 5.08846 36.2187 5.34979 36.34C5.62046 36.4613 5.98446 36.5967 6.44179 36.746C7.07646 36.97 7.58979 37.18 7.98179 37.376C8.38313 37.572 8.72379 37.866 9.00379 38.258C9.28379 38.65 9.42379 39.1633 9.42379 39.798ZM11.1539 32.518C11.1539 32.2007 11.2659 31.944 11.4899 31.748C11.7139 31.5427 12.0079 31.44 12.3719 31.44C12.7359 31.44 13.0299 31.5427 13.2539 31.748C13.4779 31.944 13.5899 32.2007 13.5899 32.518C13.5899 32.826 13.4779 33.0827 13.2539 33.288C13.0299 33.484 12.7359 33.582 12.3719 33.582C12.0079 33.582 11.7139 33.484 11.4899 33.288C11.2659 33.0827 11.1539 32.826 11.1539 32.518ZM13.3519 34.744V42.5H11.3779V34.744H13.3519ZM19.7817 40.806V42.5H18.7457C17.8777 42.5 17.2104 42.29 16.7437 41.87C16.2864 41.45 16.0577 40.75 16.0577 39.77V36.41H14.9797V34.744H16.0577V32.826H18.0317V34.744H19.7677V36.41H18.0317V39.798C18.0317 40.1713 18.1064 40.4327 18.2557 40.582C18.405 40.7313 18.657 40.806 19.0117 40.806H19.7817ZM28.9962 38.328C28.9962 38.524 28.9728 38.748 28.9262 39H23.2422C23.2702 39.6907 23.4568 40.1993 23.8022 40.526C24.1475 40.8527 24.5768 41.016 25.0902 41.016C25.5475 41.016 25.9255 40.904 26.2242 40.68C26.5322 40.456 26.7282 40.1527 26.8122 39.77H28.8982C28.7955 40.3113 28.5762 40.7967 28.2402 41.226C27.9042 41.6553 27.4702 41.9913 26.9382 42.234C26.4155 42.4767 25.8322 42.598 25.1882 42.598C24.4322 42.598 23.7602 42.4393 23.1722 42.122C22.5842 41.7953 22.1268 41.3333 21.8002 40.736C21.4735 40.1387 21.3102 39.434 21.3102 38.622C21.3102 37.81 21.4735 37.1053 21.8002 36.508C22.1268 35.9013 22.5842 35.4393 23.1722 35.122C23.7602 34.8047 24.4322 34.646 25.1882 34.646C25.9535 34.646 26.6208 34.8047 27.1902 35.122C27.7688 35.4393 28.2122 35.878 28.5202 36.438C28.8375 36.9887 28.9962 37.6187 28.9962 38.328ZM27.0082 38.132C27.0362 37.4973 26.8682 37.0167 26.5042 36.69C26.1495 36.3633 25.7108 36.2 25.1882 36.2C24.6562 36.2 24.2082 36.3633 23.8442 36.69C23.4802 37.0167 23.2795 37.4973 23.2422 38.132H27.0082ZM42.8183 42.5H40.8443L36.4203 35.78V42.5H34.4463V32.616H36.4203L40.8443 39.392V32.616H42.8183V42.5ZM48.1425 34.646C48.7958 34.646 49.3558 34.8 49.8225 35.108C50.2892 35.416 50.6205 35.8313 50.8165 36.354V34.744H52.7765V42.5H50.8165V40.876C50.6205 41.3987 50.2892 41.8187 49.8225 42.136C49.3558 42.444 48.7958 42.598 48.1425 42.598C47.4892 42.598 46.9012 42.4393 46.3785 42.122C45.8558 41.8047 45.4452 41.3473 45.1465 40.75C44.8572 40.1433 44.7125 39.434 44.7125 38.622C44.7125 37.81 44.8572 37.1053 45.1465 36.508C45.4452 35.9013 45.8558 35.4393 46.3785 35.122C46.9012 34.8047 47.4892 34.646 48.1425 34.646ZM48.7585 36.368C48.1425 36.368 47.6478 36.5687 47.2745 36.97C46.9012 37.3713 46.7145 37.922 46.7145 38.622C46.7145 39.322 46.9012 39.8727 47.2745 40.274C47.6478 40.666 48.1425 40.862 48.7585 40.862C49.3558 40.862 49.8458 40.6613 50.2285 40.26C50.6205 39.8493 50.8165 39.3033 50.8165 38.622C50.8165 37.9313 50.6205 37.3853 50.2285 36.984C49.8458 36.5733 49.3558 36.368 48.7585 36.368ZM64.9354 34.632C65.8781 34.632 66.6201 34.926 67.1614 35.514C67.7121 36.0927 67.9874 36.9187 67.9874 37.992V42.5H66.0274V38.216C66.0274 37.6187 65.8734 37.1613 65.5654 36.844C65.2668 36.5173 64.8514 36.354 64.3194 36.354C63.7688 36.354 63.3301 36.5267 63.0034 36.872C62.6768 37.2173 62.5134 37.7213 62.5134 38.384V42.5H60.5534V38.216C60.5534 37.6187 60.3994 37.1613 60.0914 36.844C59.7928 36.5173 59.3774 36.354 58.8454 36.354C58.2948 36.354 57.8561 36.5267 57.5294 36.872C57.2028 37.2173 57.0394 37.7213 57.0394 38.384V42.5H55.0654V34.744H57.0394V36.214C57.2448 35.71 57.5668 35.3227 58.0054 35.052C58.4534 34.772 58.9714 34.632 59.5594 34.632C60.1848 34.632 60.7261 34.7813 61.1834 35.08C61.6501 35.3787 62.0001 35.808 62.2334 36.368C62.4761 35.836 62.8354 35.416 63.3114 35.108C63.7968 34.7907 64.3381 34.632 64.9354 34.632ZM77.5157 38.328C77.5157 38.524 77.4924 38.748 77.4457 39H71.7617C71.7897 39.6907 71.9764 40.1993 72.3217 40.526C72.667 40.8527 73.0964 41.016 73.6097 41.016C74.067 41.016 74.445 40.904 74.7437 40.68C75.0517 40.456 75.2477 40.1527 75.3317 39.77H77.4177C77.315 40.3113 77.0957 40.7967 76.7597 41.226C76.4237 41.6553 75.9897 41.9913 75.4577 42.234C74.935 42.4767 74.3517 42.598 73.7077 42.598C72.9517 42.598 72.2797 42.4393 71.6917 42.122C71.1037 41.7953 70.6464 41.3333 70.3197 40.736C69.993 40.1387 69.8297 39.434 69.8297 38.622C69.8297 37.81 69.993 37.1053 70.3197 36.508C70.6464 35.9013 71.1037 35.4393 71.6917 35.122C72.2797 34.8047 72.9517 34.646 73.7077 34.646C74.473 34.646 75.1404 34.8047 75.7097 35.122C76.2884 35.4393 76.7317 35.878 77.0397 36.438C77.357 36.9887 77.5157 37.6187 77.5157 38.328ZM75.5277 38.132C75.5557 37.4973 75.3877 37.0167 75.0237 36.69C74.669 36.3633 74.2304 36.2 73.7077 36.2C73.1757 36.2 72.7277 36.3633 72.3637 36.69C71.9997 37.0167 71.799 37.4973 71.7617 38.132H75.5277Z" fill="#363D3B"/>
<defs>
<clipPath id="clip0_8_391">
<rect width="80.4754" height="24" fill="white" transform="translate(0 0.5)"/>
</clipPath>
</defs>
</svg>
