<svg width="41" height="40" viewBox="0 0 41 40" fill="none" xmlns="http://www.w3.org/2000/svg">
<path d="M36.4072 14.8287C36.1958 14.0273 35.6747 13.3428 34.9586 12.9256C34.2425 12.5084 33.3899 12.3928 32.5885 12.6042L25.8753 14.375H24.8395C26.0349 13.5349 26.9315 12.3358 27.3994 10.9516C27.8672 9.56749 27.8819 8.07027 27.4414 6.67719C27.0008 5.28411 26.1279 4.06761 24.9492 3.20417C23.7705 2.34073 22.3474 1.87524 20.8864 1.87524C19.4253 1.87524 18.0022 2.34073 16.8235 3.20417C15.6449 4.06761 14.7719 5.28411 14.3314 6.67719C13.8908 8.07027 13.9055 9.56749 14.3733 10.9516C14.8412 12.3358 15.7378 13.5349 16.9332 14.375H15.8974L9.18417 12.6042C8.38279 12.3928 7.53026 12.5084 6.81412 12.9256C6.09799 13.3428 5.5769 14.0273 5.3655 14.8287C5.26082 15.2255 5.23532 15.6391 5.29046 16.0457C5.3456 16.4524 5.4803 16.8442 5.68687 17.1988C5.89344 17.5534 6.16782 17.8639 6.49437 18.1124C6.82091 18.361 7.19322 18.5428 7.59003 18.6475L12.149 19.85C12.6828 19.9908 13.1549 20.3043 13.4918 20.7416C13.8287 21.1789 14.0114 21.7154 14.0114 22.2674V25.2127C14.0113 25.8958 13.862 26.5706 13.5739 27.19L10.5759 33.634C10.2138 34.3795 10.1628 35.2383 10.434 36.0215C10.7052 36.8047 11.2764 37.4481 12.0219 37.8101C12.7675 38.1722 13.6263 38.2232 14.4095 37.952C15.1927 37.6809 15.836 37.1097 16.1981 36.3641L18.9738 31.7179C19.1371 31.4384 19.3589 31.1974 19.624 31.0116C19.889 30.8257 20.1911 30.6993 20.5096 30.6411C20.9485 30.565 21.4001 30.6238 21.805 30.8096C22.2099 30.9954 22.5489 31.2996 22.7774 31.682L25.5742 36.3641C25.9363 37.1097 26.5797 37.6809 27.3629 37.952C28.146 38.2232 29.0049 38.1722 29.7504 37.8101C30.496 37.4481 31.0672 36.8047 31.3383 36.0215C31.6095 35.2383 31.5585 34.3795 31.1964 33.634L28.1989 27.1903C27.9107 26.5709 27.7614 25.8961 27.7614 25.213V22.2677C27.7613 21.7157 27.944 21.1792 28.2809 20.7419C28.6178 20.3046 29.09 19.9912 29.6237 19.8504L34.1827 18.6478C34.5795 18.5431 34.9519 18.3613 35.2784 18.1127C35.605 17.8641 35.8794 17.5536 36.086 17.199C36.2925 16.8444 36.4272 16.4525 36.4824 16.0458C36.5375 15.6391 36.5119 15.2255 36.4072 14.8287Z" fill="#AD6643"/>
<path d="M20.8864 21.875C21.5767 21.875 22.1364 21.3154 22.1364 20.625C22.1364 19.9346 21.5767 19.375 20.8864 19.375C20.196 19.375 19.6364 19.9346 19.6364 20.625C19.6364 21.3154 20.196 21.875 20.8864 21.875Z" fill="#35A872"/>
<path d="M20.8864 26.875C21.5767 26.875 22.1364 26.3154 22.1364 25.625C22.1364 24.9346 21.5767 24.375 20.8864 24.375C20.196 24.375 19.6364 24.9346 19.6364 25.625C19.6364 26.3154 20.196 26.875 20.8864 26.875Z" fill="#EB423F"/>
<path d="M18.3864 8.75C18.7315 8.75 19.0114 8.47018 19.0114 8.125C19.0114 7.77982 18.7315 7.5 18.3864 7.5C18.0412 7.5 17.7614 7.77982 17.7614 8.125C17.7614 8.47018 18.0412 8.75 18.3864 8.75Z" fill="#5E3725"/>
<path d="M23.3864 8.75C23.7315 8.75 24.0114 8.47018 24.0114 8.125C24.0114 7.77982 23.7315 7.5 23.3864 7.5C23.0412 7.5 22.7614 7.77982 22.7614 8.125C22.7614 8.47018 23.0412 8.75 23.3864 8.75Z" fill="#5E3725"/>
<path d="M23.9453 10.9046H23.9449C24.0189 10.7564 24.0311 10.5849 23.9788 10.4278C23.9264 10.2706 23.8137 10.1407 23.6656 10.0667C23.5174 9.99259 23.3459 9.9804 23.1888 10.0328C23.0316 10.0852 22.9018 10.1978 22.8277 10.346H22.8272L22.8313 10.3382C22.8113 10.3755 22.3228 11.2509 20.886 11.2509C19.4493 11.2509 18.961 10.3755 18.9407 10.3382L18.9449 10.346H18.9444C18.8703 10.1978 18.7404 10.0852 18.5833 10.0328C18.4262 9.9804 18.2547 9.99259 18.1065 10.0667C17.9584 10.1407 17.8457 10.2706 17.7933 10.4278C17.7409 10.5849 17.7531 10.7564 17.8272 10.9046H17.8267C17.828 10.9071 17.8309 10.9124 17.8346 10.9195L17.838 10.9258C17.9428 11.1192 18.7621 12.5 20.8864 12.5C23.0106 12.5 23.8299 11.1192 23.9342 10.9258L23.9376 10.9195C23.941 10.9126 23.9441 10.9071 23.9453 10.9046Z" fill="#5E3725"/>
<path d="M25.2614 15.625C25.2614 15.9565 25.1297 16.2745 24.8952 16.5089C24.6608 16.7433 24.3429 16.875 24.0114 16.875C23.321 16.875 20.8864 16.3154 20.8864 15.625C20.8864 14.9346 23.321 14.375 24.0114 14.375C24.3429 14.375 24.6608 14.5067 24.8952 14.7411C25.1297 14.9755 25.2614 15.2935 25.2614 15.625Z" fill="#FBE9D8"/>
<path d="M16.5114 15.625C16.5114 15.9565 16.643 16.2745 16.8775 16.5089C17.1119 16.7433 17.4298 16.875 17.7614 16.875C18.4517 16.875 20.8864 16.3154 20.8864 15.625C20.8864 14.9346 18.4517 14.375 17.7614 14.375C17.4298 14.375 17.1119 14.5067 16.8775 14.7411C16.643 14.9755 16.5114 15.2935 16.5114 15.625Z" fill="#FBE9D8"/>
<path d="M30.1184 31.3172L29.802 31.5149C29.6879 31.586 29.6707 31.6313 29.6067 31.8305C29.5207 32.1008 29.3903 32.5094 28.8832 32.8266C28.3762 33.1438 27.952 33.0813 27.6707 33.0407C27.4637 33.0102 27.416 33.0063 27.302 33.0774C27.1879 33.1485 27.1699 33.1938 27.1067 33.393C27.0207 33.6633 26.8903 34.0719 26.3832 34.3891C25.8762 34.7063 25.452 34.6438 25.1715 34.6032C24.9637 34.5727 24.916 34.5688 24.802 34.6399L24.6145 34.7571L23.9731 33.6836L24.1395 33.5797C24.6465 33.2633 25.0707 33.325 25.3512 33.3657C25.559 33.3961 25.6067 33.4 25.7207 33.329C25.8348 33.2579 25.852 33.2126 25.916 33.0133C26.002 32.743 26.1325 32.3344 26.6395 32.018C27.1465 31.7016 27.5707 31.7625 27.8512 31.8032C28.059 31.8336 28.1067 31.8375 28.2207 31.7665C28.3348 31.6954 28.352 31.6501 28.416 31.4508C28.502 31.1805 28.6325 30.7719 29.1395 30.4547L29.5871 30.175L30.1184 31.3172Z" fill="#FBE9D8"/>
<path d="M31.9434 18.8353C31.8692 19.0306 31.8551 19.0767 31.8996 19.2032L31.9145 19.2462L30.7035 19.5657C30.5324 19.0306 30.677 18.6478 30.7746 18.3915C30.8496 18.1954 30.8637 18.1493 30.8184 18.0228C30.7731 17.8962 30.734 17.8696 30.5528 17.7642C30.3075 17.6212 29.9371 17.4056 29.7371 16.8423C29.5371 16.279 29.6895 15.8782 29.7903 15.6126C29.8645 15.4165 29.8793 15.3712 29.834 15.2438C29.7887 15.1165 29.7496 15.0907 29.5684 14.9853C29.3231 14.8423 28.952 14.6267 28.7528 14.0634L28.6082 13.654L29.8207 13.3345L29.9309 13.6454C29.9762 13.7728 30.016 13.7993 30.1965 13.9048C30.4418 14.0478 30.8129 14.2634 31.0121 14.8267C31.2114 15.3899 31.0598 15.7907 30.959 16.0563C30.8848 16.2524 30.8707 16.2978 30.9153 16.4251C30.9598 16.5524 31.0004 16.5782 31.1817 16.6837C31.427 16.8267 31.7973 17.0423 31.9965 17.6056C32.1957 18.1688 32.0442 18.5696 31.9434 18.8353Z" fill="#FBE9D8"/>
<path d="M12.5278 15.4524C12.3278 16.0165 11.9574 16.2321 11.7121 16.3743C11.5309 16.4798 11.491 16.5071 11.4465 16.6337C11.402 16.7603 11.4153 16.8063 11.4903 17.0017C11.591 17.2673 11.7426 17.6681 11.5434 18.2313C11.3442 18.7946 10.9731 19.011 10.7278 19.1532C10.5496 19.2571 10.5082 19.2845 10.4645 19.4056L9.2512 19.086L9.28401 18.9946C9.48323 18.4313 9.85432 18.2157 10.0989 18.0728C10.2801 17.9681 10.3199 17.9407 10.3653 17.8142C10.4106 17.6876 10.3957 17.6415 10.3215 17.4454C10.2207 17.1806 10.0684 16.7798 10.2684 16.2165C10.4684 15.6532 10.8387 15.4368 11.0832 15.2946C11.2645 15.1892 11.3043 15.1618 11.3496 15.0353C11.3949 14.9087 11.3801 14.8626 11.3059 14.6665C11.2051 14.4017 11.0528 14.0009 11.2528 13.4368L11.3457 13.1743L12.5582 13.4938L12.4309 13.854C12.3864 13.9813 12.4004 14.0274 12.4746 14.2228C12.5754 14.4884 12.7278 14.8892 12.5278 15.4524Z" fill="#FBE9D8"/>
<path d="M17.4785 34.2203L16.8371 35.2938L16.6395 35.1703C16.1324 34.8531 16.002 34.4445 15.916 34.1742C15.852 33.975 15.8348 33.9305 15.7207 33.8586C15.6067 33.7867 15.559 33.7914 15.352 33.8219C15.0707 33.8625 14.6465 33.9242 14.1395 33.6078C13.6324 33.2914 13.502 32.882 13.416 32.6117C13.352 32.4125 13.3348 32.368 13.2207 32.2961C13.1067 32.2242 13.059 32.2289 12.8512 32.2594C12.5707 32.3 12.1465 32.3617 11.6395 32.0453L11.3887 31.8883L11.9199 30.7461L12.302 30.9852C12.416 31.0562 12.4637 31.0523 12.6715 31.0219C12.952 30.9812 13.3762 30.9195 13.8832 31.2359C14.3903 31.5523 14.5207 31.9617 14.6067 32.232C14.6707 32.4313 14.6879 32.4766 14.802 32.5477C14.916 32.6187 14.9637 32.6148 15.1715 32.5844C15.452 32.5437 15.8762 32.482 16.3832 32.7992C16.8903 33.1164 17.0207 33.5242 17.1067 33.7945C17.1707 33.9938 17.1879 34.0391 17.302 34.1102L17.4785 34.2203Z" fill="#FBE9D8"/>
</svg>
