<svg width="41" height="40" viewBox="0 0 41 40" fill="none" xmlns="http://www.w3.org/2000/svg">
<g clip-path="url(#clip0_187_1422)">
<path d="M7.4855 7.96997V13.3191H17.6038H22.3663H32.4855V7.96997H7.4855Z" fill="#FF2E3E"/>
<path d="M8.67801 13.3149H31.2947V30.0849H8.67801V13.3149Z" fill="#0E9D6E"/>
<path d="M35.9197 39.1666C35.9197 39.3876 35.8319 39.5996 35.6756 39.7559C35.5193 39.9122 35.3074 40 35.0864 40H4.96969C3.88787 40 2.85027 39.5707 2.08469 38.8063C1.31911 38.042 0.888119 37.0051 0.886353 35.9233L0.886353 35.8333C0.886353 35.6123 0.97415 35.4003 1.13043 35.244C1.28671 35.0877 1.49867 35 1.71969 35C1.9407 35 2.15266 35.0877 2.30894 35.244C2.46522 35.4003 2.55302 35.6123 2.55302 35.8333V35.925C2.55522 36.5644 2.81081 37.177 3.26378 37.6284C3.71676 38.0798 4.33019 38.3333 4.96969 38.3333H9.11969V34.6375H10.7864V38.3333H28.3197V34.6375H29.9864V38.3333H35.0864C35.3074 38.3333 35.5193 38.4211 35.6756 38.5774C35.8319 38.7336 35.9197 38.9456 35.9197 39.1666Z" fill="#A56630"/>
<path d="M40.053 20.7733L39.5864 24.215L36.903 24.2066L35.5697 31.5317C35.3983 32.4697 34.9032 33.3179 34.1708 33.9285C33.4383 34.5391 32.5149 34.8734 31.5614 34.8733H7.46136C6.55873 34.8757 5.68107 34.577 4.96719 34.0247C4.25331 33.4723 3.74396 32.6976 3.5197 31.8233L1.7197 24.8816H5.02803L6.12803 28.4233C6.25786 28.8457 6.51977 29.2154 6.87528 29.4779C7.23078 29.7404 7.66111 29.8819 8.10303 29.8817H22.253C23.2066 29.8818 24.13 29.5474 24.8624 28.9368C25.5949 28.3262 26.0899 27.478 26.2614 26.54L26.8197 23.465C26.959 22.7091 27.3587 22.026 27.9494 21.5342C28.5401 21.0425 29.2844 20.7733 30.053 20.7733H40.053Z" fill="#D3D8DC"/>
<path d="M27.9613 2.37173C27.9652 2.05818 27.9055 1.74711 27.7859 1.45723C27.6663 1.16736 27.4893 0.904698 27.2655 0.685065C26.7947 0.217565 25.0213 -1.07494 22.0155 1.90007C21.1303 2.85161 20.4401 3.96734 19.9838 5.18423C19.5275 3.96759 18.8376 2.85193 17.953 1.90007C14.9488 -1.07494 13.1772 0.218398 12.7047 0.685065C12.4809 0.904698 12.3038 1.16736 12.1843 1.45723C12.0647 1.74711 12.005 2.05818 12.0088 2.37173C12.0088 3.45507 12.6563 4.6409 13.9313 5.90423C14.9984 6.86769 16.2469 7.60854 17.6038 8.0834V30.0834H22.3663V8.0834C23.7227 7.60979 24.9709 6.87036 26.038 5.9084C27.3138 4.6409 27.9605 3.45257 27.9613 2.37173ZM13.6755 2.37173C13.6726 2.27888 13.6891 2.18644 13.7239 2.10033C13.7588 2.01423 13.8113 1.93637 13.878 1.87173C13.948 1.80507 14.0307 1.75322 14.1212 1.71929C14.2117 1.68535 14.3081 1.67003 14.4047 1.67423C15.337 1.85584 16.1769 2.35681 16.7797 3.0909C17.703 4.14694 18.3855 5.39129 18.7797 6.73757C17.4259 6.33489 16.1731 5.64952 15.1038 4.72673C13.8155 3.4434 13.6755 2.65257 13.6755 2.37173ZM21.1888 6.73007C21.582 5.38363 22.2646 4.13934 23.1888 3.08423C23.7911 2.34994 24.6308 1.84889 25.563 1.66757C25.6596 1.66336 25.756 1.67869 25.8465 1.71262C25.937 1.74656 26.0197 1.79841 26.0897 1.86507C26.1564 1.9297 26.2089 2.00756 26.2438 2.09367C26.2786 2.17977 26.2951 2.27221 26.2922 2.36507C26.2922 2.6459 26.1522 3.43673 24.8622 4.7134C23.7939 5.63751 22.542 6.32482 21.1888 6.73007Z" fill="#FBCE6A"/>
<path d="M30.0438 20.7733C29.2763 20.7734 28.5332 21.0429 27.944 21.5348C27.3548 22.0267 26.9569 22.7098 26.8197 23.465L26.2622 26.535C26.0918 27.4741 25.597 28.3235 24.8643 28.9352C24.1316 29.5468 23.2074 29.8818 22.253 29.8816H8.10301C7.6611 29.8819 7.23076 29.7404 6.87526 29.4779C6.51975 29.2154 6.25784 28.8457 6.12801 28.4233L5.02801 24.8816H3.09634L4.53718 30.4391C4.76144 31.3135 5.27079 32.0881 5.98467 32.6405C6.69855 33.1929 7.57621 33.4915 8.47884 33.4891H32.5788C33.5675 33.4874 34.5216 33.1257 35.263 32.4716C35.4035 32.1721 35.5065 31.8564 35.5697 31.5316L36.903 24.2066C36.9649 23.8208 37.1626 23.4697 37.4603 23.2165C37.758 22.9634 38.1364 22.8248 38.5272 22.8258H39.7772L40.053 20.7733H30.0438Z" fill="#D3D8DC"/>
<path d="M27.2655 0.685065C26.7947 0.217565 25.0213 -1.07494 22.0155 1.90007C21.1303 2.85161 20.4401 3.96734 19.9838 5.18423C19.5275 3.96759 18.8376 2.85193 17.953 1.90007C14.9488 -1.07494 13.1772 0.218398 12.7047 0.685065C12.4809 0.904698 12.3038 1.16736 12.1843 1.45723C12.0647 1.74711 12.005 2.05818 12.0088 2.37173C12.0088 3.45507 12.6563 4.6409 13.9313 5.90423C14.9984 6.86769 16.2469 7.60854 17.6038 8.0834H18.2555C18.5533 8.08362 18.8388 8.20207 19.0493 8.41271C19.2598 8.62335 19.378 8.90895 19.378 9.20673V26.6234C19.378 27.0466 19.5461 27.4525 19.8454 27.7518C20.1447 28.0511 20.5506 28.2192 20.9738 28.2192H22.363V8.0834C23.7194 7.60979 24.9676 6.87036 26.0347 5.9084C27.3105 4.64507 27.9572 3.45673 27.958 2.3759C27.9628 2.06189 27.904 1.75016 27.785 1.45955C27.6659 1.16893 27.4892 0.905467 27.2655 0.685065ZM15.1047 4.72007C13.8155 3.4434 13.6755 2.65257 13.6755 2.37173C13.6726 2.27888 13.6891 2.18644 13.7239 2.10033C13.7588 2.01423 13.8113 1.93637 13.878 1.87173C13.948 1.80507 14.0307 1.75322 14.1212 1.71929C14.2117 1.68535 14.3081 1.67003 14.4047 1.67423C15.337 1.85584 16.1769 2.35681 16.7797 3.0909C17.703 4.14694 18.3855 5.39129 18.7797 6.73757C17.4257 6.3328 16.173 5.64514 15.1047 4.72007ZM24.8647 4.72007C23.7951 5.64209 22.5423 6.32713 21.1888 6.73007C21.582 5.38363 22.2646 4.13934 23.1888 3.08423C23.7911 2.34994 24.6308 1.84889 25.563 1.66757C25.6596 1.66336 25.756 1.67869 25.8465 1.71262C25.937 1.74656 26.0197 1.79841 26.0897 1.86507C26.1564 1.9297 26.2089 2.00756 26.2438 2.09367C26.2786 2.17977 26.2951 2.27221 26.2922 2.36507C26.2947 2.65257 26.1547 3.4434 24.8647 4.72007Z" fill="#FBCE6A"/>
</g>
<defs>
<clipPath id="clip0_187_1422">
<rect width="40" height="40" fill="white" transform="translate(0.886353)"/>
</clipPath>
</defs>
</svg>
