<svg width="41" height="40" viewBox="0 0 41 40" fill="none" xmlns="http://www.w3.org/2000/svg">
<path d="M36.347 18.3638C37.2621 19.5489 37.7584 21.004 37.7584 22.5013C37.7584 23.9986 37.2621 25.4537 36.347 26.6388L36.3414 26.645C36.3839 26.9494 36.4048 27.2564 36.4039 27.5638C36.4034 28.9057 36.003 30.2169 35.2538 31.3302C34.5046 32.4434 33.4405 33.3081 32.1976 33.8138C31.6919 35.0567 30.8272 36.1207 29.714 36.87C28.6008 37.6192 27.2895 38.0196 25.9476 38.02C25.6405 38.0207 25.3337 37.9998 25.0295 37.9575L25.0232 37.9632C23.838 38.8779 22.3829 39.3741 20.8857 39.3741C19.3885 39.3741 17.9335 38.8779 16.7482 37.9632L16.742 37.9575C16.4376 37.9998 16.1306 38.0207 15.8232 38.02C14.4814 38.0196 13.1701 37.6192 12.0568 36.87C10.9436 36.1207 10.0789 35.0567 9.57322 33.8138C8.33017 33.3082 7.26602 32.4436 6.51669 31.3303C5.76736 30.2171 5.36687 28.9057 5.36635 27.5638C5.36541 27.2564 5.38629 26.9494 5.42885 26.645L5.42197 26.6388C4.5075 25.4534 4.01151 23.9984 4.01151 22.5013C4.01151 21.0041 4.5075 19.5492 5.42197 18.3638L5.42885 18.3575C5.38629 18.0534 5.36541 17.7465 5.36635 17.4394C5.36687 16.0975 5.76736 14.7861 6.51669 13.6729C7.26602 12.5596 8.33017 11.695 9.57322 11.1894C10.0788 9.94635 10.9434 8.8822 12.0567 8.13288C13.1699 7.38355 14.4813 6.98305 15.8232 6.98253C16.1306 6.98126 16.4376 7.00215 16.742 7.04504L16.7482 7.03816C17.9335 6.12338 19.3885 5.6272 20.8857 5.6272C22.3829 5.6272 23.838 6.12338 25.0232 7.03816L25.0295 7.04504C25.3336 7.00217 25.6405 6.98128 25.9476 6.98253C27.2895 6.98305 28.6009 7.38355 29.7141 8.13288C30.8274 8.8822 31.692 9.94635 32.1976 11.1894C33.4405 11.6951 34.5046 12.5598 35.2538 13.673C36.003 14.7863 36.4034 16.0975 36.4039 17.4394C36.4048 17.7465 36.3839 18.0534 36.3414 18.3575L36.347 18.3638ZM30.1095 22.5L30.1039 22.4882C28.9965 20.9016 28.3853 19.0219 28.3476 17.0875V17.075C26.5121 16.4433 24.9078 15.2766 23.7414 13.725H23.7351C21.8774 14.2917 19.8928 14.2917 18.0351 13.725C17.4524 14.4953 16.7595 15.1757 15.9788 15.7444C15.1986 16.3141 14.3368 16.7627 13.4226 17.075V17.0875C13.3849 19.0219 12.7737 20.9016 11.6663 22.4882L11.6595 22.5L11.6663 22.5132C12.7735 24.0993 13.3847 25.9785 13.4226 27.9125V27.925C15.2576 28.5576 16.8617 29.7242 18.0288 31.275H18.0351C19.893 30.7092 21.8772 30.7092 23.7351 31.275C24.3175 30.505 25.0101 29.825 25.7907 29.2569C26.571 28.6865 27.433 28.2375 28.3476 27.925V27.9125C28.3855 25.9785 28.9967 24.0993 30.1039 22.5132L30.1095 22.5Z" fill="#038C3B"/>
<path d="M10.8864 12.5032L8.55949 12.9688C8.51949 13.0382 8.47637 13.1107 8.43949 13.1775C8.29387 13.4419 8.17387 13.6819 8.07824 13.8875C8.04488 13.958 8.0321 14.0365 8.04135 14.114C8.0506 14.1914 8.08152 14.2646 8.13055 14.3253C8.17958 14.3859 8.24473 14.4315 8.31851 14.4568C8.39228 14.4821 8.4717 14.486 8.54762 14.4682L11.1607 13.8738L10.8864 12.5032Z" fill="#036B2D"/>
<path d="M33.3332 13.1775C33.2963 13.1107 33.2532 13.0382 33.2132 12.9688L30.8863 12.5032L30.612 13.875L33.2251 14.4694C33.301 14.4873 33.3804 14.4833 33.4542 14.4581C33.528 14.4328 33.5931 14.3872 33.6422 14.3265C33.6912 14.2659 33.7221 14.1926 33.7314 14.1152C33.7406 14.0378 33.7278 13.9593 33.6945 13.8888C33.5988 13.6819 33.4788 13.4419 33.3332 13.1775Z" fill="#025022"/>
<path d="M5.88635 16.8782C6.36274 16.8773 6.82168 17.0574 7.17031 17.382C7.51894 17.7067 7.73122 18.1516 7.7642 18.6269C7.79718 19.1021 7.64839 19.5721 7.34794 19.9418C7.04749 20.3115 6.61782 20.5533 6.14588 20.6182C5.67393 20.6831 5.19496 20.5662 4.80588 20.2914C4.4168 20.0165 4.14668 19.6041 4.05017 19.1375C3.95365 18.671 4.03796 18.1853 4.28603 17.7786C4.5341 17.3719 4.9274 17.0746 5.38635 16.9469C5.54916 16.9016 5.71735 16.8785 5.88635 16.8782Z" fill="#FC9E15"/>
<path d="M9.63635 31.8782C10.0556 31.8792 10.4624 32.0207 10.7918 32.28C11.1212 32.5394 11.3542 32.9017 11.4535 33.309C11.5528 33.7163 11.5127 34.1452 11.3397 34.5271C11.1666 34.9089 10.8706 35.2218 10.4988 35.4157C10.2334 35.5568 9.937 35.6298 9.63635 35.6282C9.13907 35.6282 8.66215 35.4306 8.31052 35.079C7.95889 34.7274 7.76135 34.2505 7.76135 33.7532C7.75973 33.4525 7.83274 33.1562 7.97385 32.8907C8.13223 32.5863 8.37087 32.3311 8.66391 32.1526C8.95695 31.9741 9.29324 31.8792 9.63635 31.8782Z" fill="#D81919"/>
<path d="M12.1176 23.2282C12.4878 23.3547 12.8092 23.5938 13.0367 23.9121C13.2643 24.2304 13.3865 24.6119 13.3864 25.0032C13.3889 25.3107 13.3136 25.6138 13.1676 25.8844C13.0117 26.1773 12.7808 26.4235 12.4986 26.598C12.2163 26.7725 11.8929 26.869 11.5612 26.8775C11.2295 26.8861 10.9014 26.8066 10.6105 26.6469C10.3197 26.4873 10.0763 26.2533 9.90545 25.9689C9.73455 25.6845 9.64218 25.3599 9.63777 25.0281C9.63336 24.6963 9.71708 24.3693 9.88036 24.0805C10.0437 23.7916 10.2807 23.5513 10.5672 23.384C10.8537 23.2167 11.1795 23.1284 11.5114 23.1282C11.7175 23.1289 11.9222 23.1626 12.1176 23.2282Z" fill="#D81919"/>
<path d="M17.7614 35.6282C18.7969 35.6282 19.6364 34.7887 19.6364 33.7532C19.6364 32.7176 18.7969 31.8782 17.7614 31.8782C16.7258 31.8782 15.8864 32.7176 15.8864 33.7532C15.8864 34.7887 16.7258 35.6282 17.7614 35.6282Z" fill="#FC9E15"/>
<path d="M30.2239 36.4907C30.249 36.6183 30.2616 36.7481 30.2614 36.8782C30.2573 37.3544 30.0707 37.811 29.74 38.1537C29.4093 38.4964 28.9597 38.6992 28.4839 38.7201C28.0081 38.7411 27.5424 38.5787 27.1828 38.2664C26.8232 37.9541 26.5972 37.5157 26.5513 37.0417C26.5054 36.5676 26.6432 36.094 26.9362 35.7186C27.2293 35.3431 27.6552 35.0944 28.1262 35.0238C28.5972 34.9531 29.0773 35.0659 29.4676 35.3388C29.8579 35.6117 30.1286 36.024 30.2239 36.4907Z" fill="#D81919"/>
<path d="M28.6176 25.8344C29.026 26.0437 29.3435 26.3954 29.51 26.823C29.6764 27.2506 29.6803 27.7245 29.5208 28.1548C29.3613 28.585 29.0496 28.9419 28.6447 29.1578C28.2398 29.3736 27.7697 29.4335 27.3236 29.326C26.8775 29.2186 26.4862 28.9512 26.224 28.5747C25.9618 28.1981 25.8467 27.7384 25.9007 27.2827C25.9546 26.827 26.1738 26.407 26.5167 26.102C26.8596 25.7971 27.3025 25.6285 27.7613 25.6282C28.0591 25.6277 28.3527 25.6985 28.6176 25.8344Z" fill="#D81919"/>
<path d="M37.2176 25.1407C37.6208 25.3042 37.9545 25.6029 38.1617 25.9855C38.3688 26.3682 38.4365 26.8109 38.353 27.2379C38.2695 27.6649 38.0401 28.0496 37.7041 28.3261C37.3681 28.6025 36.9464 28.7535 36.5113 28.7532C36.4426 28.7532 36.3676 28.7469 36.2988 28.7407C35.8238 28.6856 35.3878 28.451 35.08 28.085C34.7722 27.719 34.6158 27.2492 34.643 26.7717C34.6701 26.2943 34.8787 25.8452 35.226 25.5165C35.5733 25.1877 36.0331 25.0041 36.5113 25.0032C36.7534 25.0035 36.9931 25.0502 37.2176 25.1407Z" fill="#FC9E15"/>
<path d="M36.4051 17.503V17.5155H36.4114C36.4769 17.7131 36.5107 17.9198 36.5114 18.128C36.5126 18.2647 36.4979 18.401 36.4676 18.5343C36.3687 18.9739 36.1143 19.3631 35.7514 19.6302C35.3884 19.8973 34.9412 20.0244 34.492 19.9881C34.0428 19.9518 33.6219 19.7546 33.3065 19.4327C32.9911 19.1108 32.8025 18.6859 32.7754 18.236C32.7483 17.7862 32.8845 17.3417 33.159 16.9843C33.4334 16.6268 33.8277 16.3805 34.2693 16.2906C34.7109 16.2006 35.1701 16.2731 35.5625 16.4947C35.9549 16.7163 36.2541 17.0722 36.4051 17.4968V17.503Z" fill="#D81919"/>
<path d="M35.8864 5.62823C35.4519 6.56813 34.7556 7.36282 33.881 7.91707C33.0064 8.47133 31.9905 8.76165 30.9551 8.75323C29.5969 7.54521 27.9501 6.70783 26.1739 6.32198C30.1676 4.86573 35.8864 5.62823 35.8864 5.62823Z" fill="#A51717"/>
<path d="M34.0114 13.128L30.8864 12.503L30.2614 15.628C27.7614 8.12803 23.3864 8.12803 23.3864 8.12803C24.1403 7.2911 25.1019 6.66802 26.1739 6.32178C27.9501 6.70763 29.5969 7.545 30.9551 8.75303C31.9437 9.63639 32.7762 10.6802 33.4176 11.8405C33.6502 12.2528 33.8488 12.6834 34.0114 13.128Z" fill="#EF4545"/>
<path d="M35.8864 5.62813C35.8864 5.62813 30.1676 4.86562 26.1739 6.32187C25.1019 6.66812 24.1403 7.29119 23.3864 8.12813L22.7614 4.37813C25.0183 2.6911 27.5581 1.42016 30.2614 0.625C30.2614 0.625 34.6364 0.625 35.8864 5.62813Z" fill="#D81919"/>
<path d="M22.7614 4.3781L23.3864 8.1281C22.6347 8.5827 21.7635 8.80048 20.8864 8.7531C20.0092 8.80048 19.138 8.5827 18.3864 8.1281L19.0114 4.3781C19.5367 3.94354 20.2053 3.72067 20.8864 3.7531C21.5674 3.72067 22.236 3.94354 22.7614 4.3781Z" fill="#EF4545"/>
<path d="M17.7613 11.8782C18.2586 11.8782 18.7355 12.0757 19.0872 12.4274C19.4388 12.779 19.6363 13.2559 19.6363 13.7532C19.6383 13.8603 19.6279 13.9673 19.6051 14.0719C19.5443 14.4241 19.3842 14.7516 19.1435 15.0158C18.9029 15.28 18.5917 15.4699 18.2467 15.5632C17.9017 15.6565 17.5373 15.6492 17.1963 15.5422C16.8553 15.4353 16.5519 15.2331 16.322 14.9595C16.0921 14.686 15.9451 14.3524 15.8984 13.998C15.8518 13.6437 15.9073 13.2834 16.0586 12.9596C16.2098 12.6359 16.4505 12.362 16.7521 12.1704C17.0538 11.9788 17.404 11.8774 17.7613 11.8782Z" fill="#FC9E15"/>
<path d="M26.5113 14.3782C27.0086 14.3782 27.4855 14.5757 27.8372 14.9274C28.1888 15.279 28.3863 15.7559 28.3863 16.2532C28.3874 16.5201 28.3321 16.7842 28.2238 17.0282H28.2176C28.0401 17.4176 27.7348 17.7347 27.3523 17.9266C26.9697 18.1186 26.5331 18.1739 26.1148 18.0834C25.6965 17.9928 25.3217 17.7619 25.0528 17.429C24.7838 17.0961 24.6369 16.6812 24.6363 16.2532C24.6345 15.8413 24.7709 15.4407 25.0238 15.1157C25.198 14.8862 25.4229 14.7002 25.681 14.5723C25.9391 14.4443 26.2233 14.3779 26.5113 14.3782Z" fill="#D81919"/>
<path d="M5.88635 5.62823C6.32081 6.56813 7.01706 7.36282 7.89168 7.91707C8.7663 8.47133 9.78219 8.76165 10.8176 8.75323C12.1758 7.54521 13.8226 6.70783 15.5989 6.32198C11.6051 4.86573 5.88635 5.62823 5.88635 5.62823Z" fill="#A51717"/>
<path d="M7.76135 13.128L10.8864 12.503L11.5114 15.628C14.0114 8.12803 18.3864 8.12803 18.3864 8.12803C17.6324 7.2911 16.6708 6.66802 15.5989 6.32178C13.8226 6.70763 12.1758 7.545 10.8176 8.75303C9.82898 9.63639 8.99646 10.6802 8.3551 11.8405C8.12247 12.2528 7.92389 12.6834 7.76135 13.128Z" fill="#EF4545"/>
<path d="M5.88635 5.62813C5.88635 5.62813 11.6051 4.86562 15.5989 6.32187C16.6708 6.66812 17.6324 7.29119 18.3864 8.12813L19.0114 4.37813C16.7544 2.6911 14.2146 1.42016 11.5114 0.625C11.5114 0.625 7.13635 0.625 5.88635 5.62813Z" fill="#D81919"/>
</svg>
