<svg width="1440" height="700" viewBox="0 0 1440 700" fill="none" xmlns="http://www.w3.org/2000/svg">
<path d="M317.701 514.759L352.951 540.293C352.951 540.293 346.738 596.109 278.141 591.706L254.746 556.621C254.746 556.621 298.479 558.986 317.685 514.754" fill="#58D841"></path>
<path d="M254.758 556.628L278.151 591.71C346.741 596.116 352.961 540.297 352.961 540.297L317.709 514.763C301.555 551.962 268.056 556.2 257.809 556.617C255.867 556.69 254.763 556.632 254.763 556.632" fill="#58D841"></path>
<path d="M254.758 556.628L278.151 591.71C346.741 596.116 352.961 540.297 352.961 540.297C352.961 540.297 339.287 575.725 300.341 577.884C276.538 579.208 263.803 565.997 257.809 556.605C255.867 556.679 254.763 556.621 254.763 556.621" fill="#46B72E"></path>
<path d="M272.496 572.065L278.579 580.979C278.579 580.979 282.568 580.363 284.963 582.041C286.978 583.461 287.668 584.505 288.578 585.869C313.639 585.13 327.898 574.844 335.957 564.219C327.707 571.426 316.085 577.736 300.332 578.616C288.49 579.275 279.392 576.338 272.496 572.065Z" fill="#459E30"></path>
<path d="M288.578 585.869C325.237 584.794 338.773 563.284 343.629 550.17C342.249 549.33 340.553 548.054 339.89 545.747C339.051 542.819 340.137 540.113 340.137 540.113L324.046 528.466C324.046 528.466 322.413 531.309 319.945 532.213C317.741 533.02 315.985 532.885 314.39 532.623C301.459 550.715 287.03 556.876 272.245 560.328C272.852 561.463 272.998 562.821 272.111 564.048C271.009 565.569 268.444 566.129 268.444 566.129L278.582 580.988C278.582 580.988 282.573 580.372 284.961 582.052C286.977 583.468 287.675 584.527 288.578 585.878" fill="#4BB236"></path>
<path d="M272.496 572.065L278.579 580.979C278.579 580.979 282.568 580.363 284.963 582.041C286.978 583.461 287.668 584.505 288.578 585.869C313.639 585.13 327.898 574.844 335.957 564.219C327.707 571.426 316.085 577.736 300.332 578.616C288.49 579.275 279.392 576.338 272.496 572.065Z" fill="#459E30"></path>
<path d="M285.595 594.714C283.144 594.714 280.605 594.631 277.98 594.465C277.556 594.438 277.145 594.313 276.777 594.101C276.409 593.889 276.095 593.595 275.859 593.242L252.464 558.158C252.18 557.731 252.02 557.235 252.002 556.723C251.984 556.211 252.108 555.704 252.361 555.259C252.611 554.811 252.983 554.443 253.434 554.197C253.884 553.952 254.395 553.838 254.908 553.871C256.614 553.958 296.985 555.537 315.177 513.659C315.341 513.28 315.589 512.943 315.901 512.673C316.213 512.403 316.581 512.206 316.979 512.097C317.377 511.989 317.795 511.971 318.201 512.045C318.607 512.119 318.991 512.283 319.325 512.525L354.578 538.06C354.972 538.346 355.284 538.732 355.481 539.178C355.677 539.625 355.752 540.115 355.698 540.6C355.633 541.2 353.942 555.465 343.477 569.316C334.52 581.172 317.334 594.712 285.595 594.714ZM279.68 589.036C306.345 590.456 326.269 582.764 338.919 566.19C346.642 556.061 349.222 545.438 349.957 541.54L318.803 518.972C302.605 552.498 271.991 558.281 259.797 559.226L279.68 589.036Z" fill="#000072"></path>
<path d="M321.403 542.387C321.403 543.527 321.741 544.641 322.374 545.589C323.007 546.536 323.907 547.275 324.96 547.711C326.014 548.148 327.172 548.262 328.29 548.039C329.408 547.817 330.435 547.268 331.241 546.462C332.047 545.656 332.596 544.629 332.818 543.511C333.041 542.393 332.927 541.235 332.49 540.182C332.054 539.128 331.315 538.228 330.368 537.595C329.42 536.962 328.306 536.624 327.166 536.624C326.409 536.624 325.659 536.772 324.96 537.062C324.261 537.351 323.625 537.776 323.09 538.311C322.555 538.846 322.13 539.482 321.841 540.181C321.551 540.881 321.403 541.63 321.403 542.387Z" fill="#2E8E1A"></path>
<path d="M276.261 569.03C275.793 571.005 278.073 573.344 281.354 574.251C284.636 575.158 287.675 574.291 288.146 572.313C288.616 570.335 286.334 567.999 283.052 567.092C279.771 566.185 276.731 567.052 276.261 569.03Z" fill="#2E8E1A"></path>
<path d="M288.579 587.708C288.276 587.708 287.978 587.634 287.712 587.491C287.445 587.349 287.217 587.142 287.049 586.89L287.022 586.852C286.178 585.589 285.623 584.754 283.905 583.548C282.458 582.529 279.772 582.653 278.858 582.798C278.516 582.848 278.167 582.801 277.851 582.663C277.534 582.525 277.262 582.301 277.066 582.016L266.929 567.157C266.759 566.909 266.653 566.623 266.619 566.324C266.586 566.026 266.626 565.723 266.737 565.443C266.847 565.164 267.025 564.915 267.253 564.72C267.482 564.525 267.755 564.389 268.049 564.324C268.66 564.185 270.105 563.668 270.618 562.96C270.766 562.754 271.164 562.205 270.618 561.188C270.484 560.94 270.409 560.663 270.399 560.381C270.389 560.099 270.445 559.818 270.561 559.56C270.677 559.303 270.852 559.076 271.07 558.896C271.289 558.717 271.545 558.591 271.821 558.527C285.399 555.358 299.772 549.893 312.888 531.544C313.087 531.265 313.361 531.047 313.678 530.915C313.994 530.784 314.341 530.743 314.68 530.798C316.286 531.058 317.621 531.096 319.31 530.478C320.797 529.934 322.082 528.169 322.445 527.537C322.575 527.315 322.749 527.122 322.958 526.971C323.166 526.82 323.404 526.715 323.656 526.661C323.907 526.608 324.167 526.607 324.419 526.66C324.671 526.713 324.909 526.818 325.118 526.968L341.208 538.615C341.54 538.856 341.783 539.202 341.897 539.596C342.011 539.99 341.99 540.411 341.838 540.792C341.838 540.804 341.007 542.978 341.65 545.232C342.133 546.916 343.401 547.875 344.577 548.591C344.941 548.814 345.217 549.156 345.357 549.559C345.497 549.962 345.493 550.402 345.345 550.802C340.418 564.107 326.502 586.59 288.624 587.701L288.579 587.708ZM280.307 579.024C281.943 579.024 284.245 579.288 286.021 580.538C287.398 581.46 288.588 582.633 289.529 583.996C323.249 582.637 336.406 563.294 341.388 550.872C340.102 549.886 338.751 548.444 338.122 546.253C337.648 544.488 337.612 542.633 338.019 540.851L324.461 531.029C323.588 532.068 322.266 533.314 320.577 533.941C318.874 534.579 317.043 534.802 315.235 534.592C302.175 552.392 287.493 558.429 274.556 561.663C274.679 562.897 274.339 564.132 273.601 565.128C272.982 565.928 272.189 566.576 271.281 567.023L279.49 579.055C279.736 579.033 280.012 579.024 280.307 579.024Z" fill="#000072"></path>
<path d="M298.673 567.652C302.075 572.253 312.911 572.636 317.472 566.653C323.64 558.561 318.144 552.726 315.693 551.738C309.608 549.29 306.774 553.505 303.457 555.535C300.14 557.564 294.843 562.478 298.673 567.652Z" fill="#2E8E1A"></path>
<path d="M1154.87 445.814C1130.91 430.24 1115.19 434.671 1115.19 434.671C1115.19 434.671 1120.35 422.631 1135.03 420.205C1151.8 417.434 1153.15 396.842 1163.26 387.183C1163.26 387.183 1167.68 389.279 1172.69 389.691C1179.83 390.278 1190.13 387.463 1201 390.664C1201 390.664 1197.07 392.306 1192.23 404.592C1190.16 409.873 1184.82 439.073 1154.86 445.814" fill="#58D841"></path>
<path d="M1201 390.666C1201 390.666 1197.07 392.308 1192.23 404.594C1190.15 409.873 1184.82 439.077 1154.86 445.814C1154.58 445.636 1154.3 445.458 1154.03 445.28C1130.54 430.332 1115.18 434.676 1115.18 434.676C1115.18 434.676 1116.39 431.829 1119.34 428.626C1122.44 425.245 1127.47 421.454 1135.02 420.212C1144.4 418.659 1148.96 411.528 1152.91 403.861C1156.04 397.821 1158.8 391.443 1163.25 387.19C1163.25 387.19 1167.66 389.287 1172.68 389.694C1179.52 390.258 1189.27 387.699 1199.64 390.304C1200.08 390.413 1200.53 390.534 1200.99 390.671" fill="#58D841"></path>
<path d="M1201 390.666C1201 390.666 1197.07 392.308 1192.23 404.594C1190.15 409.873 1184.82 439.076 1154.86 445.814C1154.58 445.636 1154.3 445.458 1154.02 445.28C1169.42 431.434 1147.73 423.889 1140.71 423.214C1132.11 422.394 1119.71 428.453 1119.35 428.629C1122.45 425.248 1127.48 421.458 1135.03 420.216C1144.41 418.662 1148.97 411.532 1152.92 403.864C1159.81 413.77 1176.6 420.209 1187.91 402.147C1191.68 396.116 1196.17 392.452 1199.65 390.308C1200.1 390.417 1200.54 390.538 1201 390.675" fill="#46B72E"></path>
<path d="M1186.97 403.565C1182.82 414.721 1182.18 427.218 1160.9 436.56C1160.42 436.251 1159.93 435.966 1159.43 435.706C1159.08 427.942 1145.9 423.703 1140.71 423.2C1140.13 423.15 1139.55 423.13 1138.97 423.139C1142.59 422.312 1146.19 421.36 1148.88 418.906C1152.09 415.989 1154.41 412.005 1156.52 407.902C1164.33 414.89 1177.38 417.42 1186.98 403.579" fill="#46B72E"></path>
<path d="M1130.76 428.238C1130.98 429.127 1130.78 429.823 1130.4 430.551C1135.36 431.797 1143.29 433.22 1149.95 435.672C1151.79 435.037 1153.69 434.555 1155.91 434.736C1158.56 434.957 1160 436.007 1160.9 436.555C1185.57 425.73 1182.5 410.66 1189.31 398.353C1188.23 398.337 1186.39 398.486 1185.38 397.36C1184.56 396.442 1184.78 395.568 1185.12 394.452C1179.9 394.47 1174.92 395.315 1170.04 394.938C1169.45 395.783 1168.44 397.164 1166.21 397.664C1164.49 398.052 1163.15 397.607 1162.12 397.266C1157.88 404.005 1154.94 413.365 1148.89 418.892C1143.41 423.892 1134.12 422.645 1128.69 426.875C1129.65 426.994 1130.53 427.254 1130.77 428.231" fill="#4BB236"></path>
<path d="M1186.97 403.565C1182.82 414.721 1182.18 427.218 1160.9 436.56C1160.42 436.251 1159.93 435.966 1159.43 435.706C1159.08 427.942 1145.9 423.703 1140.71 423.2C1140.13 423.15 1139.55 423.13 1138.97 423.139C1142.59 422.312 1146.19 421.36 1148.88 418.906C1152.09 415.989 1154.41 412.005 1156.52 407.902C1164.33 414.89 1177.38 417.42 1186.98 403.579" fill="#459E30"></path>
<path d="M1170.51 421.333C1167.62 426.109 1160.07 427.291 1156.89 424.474C1153.83 421.76 1156.62 417.534 1158.84 414.996C1159.75 413.95 1160.63 412.56 1161.82 411.487C1164.74 412.92 1167.97 413.713 1171.29 413.53C1172.23 415.566 1172.34 418.306 1170.51 421.333Z" fill="#459E30"></path>
<path d="M1178.78 400.259C1179.03 402.115 1177.31 403.882 1174.93 404.209C1172.55 404.537 1170.42 403.295 1170.16 401.439C1169.91 399.583 1171.63 397.816 1174.01 397.49C1176.39 397.164 1178.52 398.405 1178.78 400.259Z" fill="#2E8E1A"></path>
<path d="M1150.03 428.079C1150.03 429.788 1147.73 431.17 1144.9 431.17C1142.06 431.17 1139.76 429.788 1139.76 428.079C1139.76 426.371 1142.06 424.987 1144.9 424.987C1147.73 424.987 1150.03 426.371 1150.03 428.079Z" fill="#2E8E1A"></path>
<path d="M1160.9 438.023C1160.63 438.023 1160.37 437.951 1160.14 437.815L1159.83 437.621C1158.98 437.087 1157.81 436.375 1155.78 436.197C1153.75 436.019 1152.01 436.514 1150.42 437.058C1150.1 437.168 1149.75 437.165 1149.44 437.05C1144.68 435.291 1139.14 434.048 1134.68 433.051C1133 432.674 1131.4 432.316 1130.04 431.973C1129.83 431.92 1129.63 431.819 1129.46 431.678C1129.29 431.537 1129.16 431.36 1129.07 431.159C1128.98 430.959 1128.93 430.741 1128.94 430.521C1128.94 430.301 1129 430.085 1129.1 429.889C1129.38 429.328 1129.44 429.012 1129.34 428.585C1129.34 428.568 1129.33 428.552 1129.32 428.537C1129.32 428.537 1129.18 428.414 1128.5 428.33C1128.22 428.294 1127.95 428.173 1127.73 427.984C1127.51 427.794 1127.35 427.545 1127.28 427.266C1127.2 426.987 1127.21 426.693 1127.3 426.419C1127.39 426.145 1127.56 425.904 1127.79 425.727C1130.61 423.531 1134.28 422.702 1137.82 421.894C1141.66 421.022 1145.3 420.2 1147.9 417.819C1151.68 414.365 1154.25 409.194 1156.74 404.191C1158.04 401.568 1159.39 398.853 1160.88 396.492C1161.06 396.216 1161.32 396.007 1161.63 395.897C1161.93 395.787 1162.27 395.782 1162.58 395.883C1163.56 396.209 1164.57 396.54 1165.9 396.239C1167.62 395.853 1168.36 394.798 1168.85 394.104C1168.99 393.896 1169.19 393.731 1169.42 393.622C1169.65 393.514 1169.9 393.467 1170.16 393.486C1172.93 393.7 1175.74 393.504 1178.72 393.297C1180.79 393.153 1182.93 393.004 1185.12 392.997C1185.35 392.99 1185.58 393.04 1185.79 393.143C1185.99 393.246 1186.17 393.399 1186.3 393.587C1186.44 393.772 1186.53 393.985 1186.57 394.211C1186.61 394.437 1186.59 394.669 1186.53 394.888C1186.17 396.047 1186.25 396.134 1186.48 396.392C1186.93 396.901 1188.08 396.899 1188.93 396.896H1189.33C1189.58 396.899 1189.83 396.968 1190.05 397.095C1190.27 397.223 1190.45 397.405 1190.57 397.623C1190.7 397.841 1190.77 398.089 1190.77 398.341C1190.77 398.593 1190.71 398.842 1190.59 399.063C1188.82 402.266 1187.74 405.647 1186.61 409.231C1183.56 418.84 1180.1 429.729 1161.48 437.897C1161.3 437.978 1161.1 438.021 1160.9 438.023ZM1154.97 433.243C1155.31 433.243 1155.66 433.257 1156.02 433.288C1157.79 433.417 1159.5 433.975 1161.01 434.914C1177.8 427.323 1180.86 417.68 1183.82 408.35C1184.73 405.485 1185.67 402.544 1186.99 399.707C1186.04 399.552 1185.04 399.189 1184.29 398.339C1183.68 397.694 1183.35 396.842 1183.35 395.958C1181.85 396.011 1180.37 396.114 1178.91 396.216C1176.23 396.394 1173.46 396.593 1170.73 396.454C1169.68 397.805 1168.19 398.742 1166.52 399.097C1165.28 399.371 1163.99 399.337 1162.76 398.999C1161.58 400.995 1160.49 403.19 1159.34 405.494C1156.73 410.736 1154.04 416.157 1149.86 419.979C1146.68 422.88 1142.5 423.828 1138.45 424.746C1136 425.303 1133.64 425.839 1131.65 426.777C1131.9 427.108 1132.08 427.488 1132.17 427.891C1132.3 428.419 1132.33 428.968 1132.26 429.508C1133.22 429.731 1134.24 429.962 1135.31 430.2C1139.7 431.184 1145.13 432.402 1149.95 434.131C1151.57 433.568 1153.26 433.269 1154.97 433.243Z" fill="#000072"></path>
<path d="M1154.87 448.006C1154.44 448.006 1154.03 447.882 1153.67 447.65C1130.98 432.898 1115.92 436.744 1115.77 436.783C1115.37 436.89 1114.95 436.884 1114.56 436.765C1114.17 436.646 1113.82 436.419 1113.55 436.11C1113.27 435.801 1113.1 435.423 1113.03 435.017C1112.96 434.612 1113.01 434.196 1113.17 433.816C1113.4 433.283 1118.98 420.648 1134.67 418.05C1144.15 416.484 1148.19 408.441 1152.47 399.919C1155.05 394.758 1157.73 389.432 1161.73 385.607C1162.06 385.3 1162.46 385.098 1162.9 385.028C1163.34 384.957 1163.79 385.021 1164.19 385.212C1164.23 385.231 1168.33 387.144 1172.86 387.514C1175.15 387.703 1177.95 387.504 1180.91 387.294C1186.78 386.877 1194.11 386.359 1201.61 388.571C1202.54 388.845 1203.28 389.658 1203.29 390.628C1203.29 391.598 1202.78 392.383 1201.89 392.68C1201.46 392.958 1198.24 395.307 1194.27 405.403C1194.06 405.927 1193.78 406.848 1193.45 407.916C1190.63 417.159 1183.12 441.71 1155.34 447.954C1155.19 447.99 1155.03 448.007 1154.87 448.006ZM1121.07 431.884C1127.97 431.884 1139.98 433.727 1155.27 443.466C1179.84 437.45 1186.67 415.102 1189.26 406.631C1189.63 405.428 1189.92 404.478 1190.19 403.795C1192.56 397.744 1194.78 394.093 1196.53 391.885C1191.14 390.959 1185.93 391.331 1181.22 391.664C1178.09 391.886 1175.13 392.098 1172.5 391.881C1168.88 391.584 1165.59 390.493 1163.77 389.788C1160.84 393.015 1158.67 397.335 1156.38 401.889C1152.01 410.589 1147.06 420.447 1135.38 422.378C1127.02 423.759 1122.02 428.529 1119.44 431.93C1119.95 431.898 1120.49 431.884 1121.07 431.884Z" fill="#000072"></path>
<path d="M1156.89 424.474C1160.07 427.293 1167.62 426.11 1170.51 421.33C1174.1 415.386 1170.21 410.537 1167.28 409.998C1162.48 409.119 1160.73 412.822 1158.83 415C1156.62 417.543 1153.83 421.762 1156.89 424.474Z" fill="#2E8E1A"></path>
<path d="M1170.51 421.333C1167.62 426.109 1160.07 427.291 1156.89 424.474C1153.83 421.76 1156.62 417.534 1158.84 414.996C1159.75 413.95 1160.63 412.56 1161.82 411.487C1164.74 412.92 1167.97 413.713 1171.29 413.53C1172.23 415.566 1172.34 418.306 1170.51 421.333Z" fill="#2A7A16"></path>
<path d="M291.868 124.181L259.189 147.848C259.189 147.848 264.951 199.59 328.532 195.508L350.221 162.984C350.221 162.984 309.679 165.189 291.868 124.181Z" fill="#58D841"></path>
<path d="M333.77 177.307L328.134 185.573C328.134 185.573 324.436 185.004 322.217 186.557C320.353 187.874 319.707 188.851 318.867 190.106C295.636 189.42 282.418 179.888 274.947 170.036C282.599 176.718 293.368 182.568 307.969 183.383C318.947 183.993 327.382 181.272 333.772 177.309" fill="#459E30"></path>
<path d="M333.77 177.307L328.134 185.573C328.134 185.573 324.436 185.004 322.217 186.557C320.353 187.874 319.707 188.851 318.867 190.106C295.636 189.42 282.418 179.888 274.947 170.036C282.599 176.718 293.368 182.568 307.969 183.383C318.947 183.993 327.382 181.272 333.772 177.309" fill="#459E30"></path>
<path d="M350.217 162.999L328.532 195.519C264.951 199.611 259.189 147.86 259.189 147.86L291.866 124.193C306.84 158.674 337.896 162.611 347.395 162.986C349.192 163.054 350.217 163 350.217 163" fill="#58D841"></path>
<path d="M350.217 162.999L328.532 195.519C264.951 199.611 259.189 147.861 259.189 147.861C259.189 147.861 271.865 180.701 307.967 182.701C330.032 183.931 341.838 171.684 347.395 162.984C349.192 163.052 350.217 162.999 350.217 162.999Z" fill="#46B72E"></path>
<path d="M318.868 190.104C284.88 189.109 272.338 169.17 267.838 157.005C269.117 156.226 270.685 155.048 271.303 152.904C272.08 150.192 271.075 147.684 271.075 147.684L285.989 136.879C285.989 136.879 287.501 139.513 289.791 140.351C291.834 141.099 293.462 140.97 294.939 140.73C306.928 157.502 320.302 163.212 334.008 166.412C333.444 167.467 333.31 168.725 334.133 169.862C335.152 171.271 337.53 171.789 337.53 171.789L328.137 185.573C328.137 185.573 324.436 185.002 322.221 186.559C320.352 187.87 319.706 188.853 318.87 190.105" fill="#4BB236"></path>
<path d="M321.636 197.937C292.36 197.937 276.524 185.463 268.271 174.54C258.631 161.783 257.076 148.654 257.014 148.103C256.97 147.718 257.03 147.328 257.186 146.974C257.343 146.619 257.59 146.312 257.903 146.085L290.58 122.418C290.846 122.225 291.151 122.094 291.474 122.036C291.796 121.977 292.128 121.991 292.445 122.077C292.761 122.164 293.054 122.32 293.302 122.535C293.55 122.75 293.747 123.017 293.877 123.318C300.995 139.689 312.576 150.975 328.314 156.854C340.133 161.269 350.002 160.817 350.102 160.813C350.508 160.792 350.912 160.884 351.268 161.079C351.625 161.274 351.92 161.564 352.122 161.917C352.323 162.271 352.422 162.673 352.408 163.079C352.394 163.485 352.267 163.879 352.042 164.218L330.353 196.741C330.166 197.022 329.917 197.255 329.625 197.424C329.333 197.592 329.006 197.691 328.67 197.713C326.245 197.865 323.9 197.939 321.636 197.937ZM261.566 148.846C262.188 152.292 264.544 162.41 271.887 172.053C283.715 187.586 302.36 194.766 327.316 193.396L346.178 165.118C339.611 164.691 333.14 163.313 326.969 161.025C315.74 156.867 300.593 147.693 290.991 127.535L261.566 148.846Z" fill="#000072"></path>
<path d="M288.441 149.805C288.441 150.861 288.127 151.893 287.541 152.771C286.954 153.649 286.121 154.334 285.145 154.738C284.17 155.142 283.096 155.247 282.061 155.041C281.025 154.835 280.074 154.327 279.327 153.58C278.581 152.834 278.072 151.883 277.866 150.847C277.66 149.811 277.766 148.738 278.17 147.763C278.574 146.787 279.258 145.953 280.136 145.367C281.014 144.78 282.046 144.467 283.102 144.467C284.518 144.467 285.876 145.029 286.877 146.031C287.878 147.032 288.441 148.39 288.441 149.805Z" fill="#2E8E1A"></path>
<path d="M330.283 174.494C330.717 176.327 328.603 178.494 325.562 179.334C322.521 180.174 319.704 179.372 319.268 177.539C318.832 175.706 320.946 173.54 323.989 172.699C327.032 171.857 329.849 172.661 330.283 174.494Z" fill="#2E8E1A"></path>
<path d="M318.861 191.566H318.826C283.857 190.543 271.011 169.796 266.468 157.521C266.35 157.204 266.347 156.855 266.458 156.535C266.569 156.215 266.787 155.943 267.077 155.767C268.207 155.078 269.426 154.151 269.897 152.51C270.52 150.339 269.719 148.252 269.719 148.231C269.601 147.929 269.586 147.596 269.677 147.285C269.768 146.973 269.959 146.701 270.221 146.51L285.135 135.705C285.301 135.585 285.49 135.5 285.691 135.458C285.891 135.416 286.098 135.416 286.299 135.459C286.499 135.502 286.688 135.587 286.854 135.708C287.019 135.828 287.157 135.983 287.259 136.16C287.615 136.764 288.847 138.456 290.299 138.988C291.913 139.581 293.183 139.545 294.708 139.296C294.977 139.252 295.253 139.284 295.505 139.389C295.756 139.493 295.974 139.667 296.132 139.888C308.339 156.971 321.712 162.048 334.345 164.997C334.563 165.048 334.766 165.148 334.94 165.291C335.113 165.433 335.251 165.613 335.343 165.817C335.436 166.022 335.48 166.244 335.472 166.468C335.465 166.692 335.406 166.912 335.3 167.109C334.724 168.189 335.174 168.81 335.322 169.013C335.818 169.7 337.137 170.211 337.85 170.373C338.083 170.425 338.299 170.533 338.481 170.688C338.662 170.843 338.802 171.04 338.89 171.262C338.978 171.484 339.01 171.724 338.984 171.961C338.958 172.198 338.874 172.425 338.74 172.622L329.344 186.397C329.19 186.624 328.974 186.803 328.722 186.913C328.47 187.022 328.192 187.059 327.921 187.018C327.052 186.888 324.477 186.764 323.068 187.755C321.445 188.894 320.92 189.68 320.123 190.872C319.984 191.081 319.796 191.252 319.577 191.373C319.357 191.494 319.112 191.56 318.861 191.566ZM317.653 189.292L318.868 190.105L317.653 189.292ZM269.619 157.578C274.214 169.161 286.457 187.393 318.11 188.616C318.838 187.563 319.65 186.575 321.379 185.361C323.337 183.989 326.006 183.938 327.417 184.03L335.259 172.533C334.444 172.142 333.553 171.56 332.946 170.725C332.256 169.791 331.963 168.621 332.133 167.472C320.107 164.493 306.423 158.931 294.267 142.307C292.584 142.521 290.874 142.324 289.285 141.732C287.671 141.139 286.425 139.908 285.642 138.938L272.762 148.27C273.031 149.418 273.276 151.311 272.702 153.315C272.12 155.363 270.824 156.688 269.619 157.578Z" fill="#000072"></path>
<path d="M309.509 173.217C306.356 177.487 296.311 177.843 292.083 172.291C286.365 164.791 291.454 159.381 293.732 158.466C299.373 156.198 302 160.104 305.075 161.984C308.15 163.865 313.057 168.417 309.509 173.217Z" fill="#2E8E1A"></path>
<path d="M88.7196 636.752C88.0788 637.672 87.196 638.398 86.1687 638.847C85.1414 639.297 84.0097 639.454 82.8989 639.3C78.984 638.767 72.222 636.75 62.6128 630.067C53.0036 623.383 48.772 617.74 46.9124 614.258C46.3826 613.269 46.1366 612.153 46.2016 611.034C46.2666 609.914 46.6401 608.834 47.2808 607.914L53.8524 598.47L95.2876 627.31L88.7196 636.752Z" fill="#FFC933"></path>
<path d="M95.2908 627.31L88.721 636.742C88.0794 637.662 87.1964 638.387 86.1692 638.838C85.1419 639.289 84.0102 639.448 82.8985 639.297C79.2524 638.793 73.1363 637.014 64.5698 631.366L64.5538 631.353C63.9168 630.948 63.2762 630.513 62.6231 630.06C53.0139 623.374 48.7841 617.73 46.9245 614.254C46.3924 613.265 46.144 612.148 46.2068 611.027C46.2696 609.905 46.6412 608.823 47.2804 607.9L53.8502 598.468L95.2908 627.31Z" fill="#FFC933"></path>
<path d="M95.2949 627.308L88.7251 636.74C88.0832 637.66 87.2 638.385 86.1728 638.835C85.1456 639.286 84.0141 639.444 82.9026 639.293C79.2565 638.791 73.1404 637.008 64.5739 631.362L64.5579 631.35C63.9227 630.944 63.2803 630.51 62.6272 630.056C59.6246 627.994 56.7823 625.708 54.1248 623.217C51.4752 620.699 49.6281 618.457 48.3539 616.589C47.8368 615.836 47.3616 615.056 46.9304 614.251C46.3982 613.262 46.1499 612.145 46.2127 611.023C46.2755 609.902 46.647 608.82 47.2863 607.896L53.8561 598.465L95.2949 627.308Z" fill="#FFC933"></path>
<path d="M95.2913 627.31L88.7215 636.741C88.0799 637.662 87.1969 638.387 86.1696 638.838C85.1424 639.289 84.0106 639.448 82.899 639.297C79.2528 638.793 73.1367 637.014 64.5703 631.366C65.8942 631.93 73.934 634.485 85.885 620.751L95.2913 627.31Z" fill="#FFA329"></path>
<g opacity="0.7">
<path d="M65.6405 606.668L54.1166 623.217C51.4669 620.7 49.6198 618.457 48.3457 616.589L58.6454 601.791L65.6405 606.668Z" fill="white"></path>
</g>
<path d="M83.7404 641.55C83.3594 641.55 82.9789 641.524 82.6015 641.471C78.3824 640.897 71.2733 638.761 61.3669 631.862C51.4606 624.963 46.9887 619.039 44.985 615.285C44.2615 613.941 43.9253 612.423 44.0139 610.899C44.1025 609.376 44.6124 607.907 45.4868 606.656L52.0585 597.214C52.2224 596.977 52.4317 596.775 52.6742 596.62C52.9167 596.464 53.1877 596.358 53.4714 596.308C54.0432 596.206 54.6323 596.334 55.1103 596.664L96.5438 625.504C96.7802 625.669 96.9819 625.878 97.1373 626.12C97.2928 626.363 97.399 626.633 97.4499 626.917C97.5008 627.2 97.4954 627.491 97.434 627.772C97.3725 628.053 97.2563 628.32 97.0919 628.556L90.5184 637.998C89.7605 639.094 88.7477 639.99 87.5671 640.609C86.3865 641.228 85.0733 641.551 83.7404 641.55ZM54.4038 601.522L49.085 609.174C48.6742 609.763 48.4349 610.454 48.3937 611.17C48.3526 611.887 48.5112 612.601 48.8518 613.233C50.6313 616.564 54.6797 621.879 63.8707 628.278C73.0617 634.677 79.4518 636.626 83.1941 637.137C83.9048 637.237 84.6294 637.138 85.2872 636.85C85.945 636.563 86.5104 636.099 86.9203 635.51L92.241 627.858L54.4038 601.522Z" fill="#000072"></path>
<path d="M95.2939 627.31C92.8951 630.755 81.6755 627.091 70.2352 619.125C58.7949 611.158 51.4617 601.912 53.864 598.467C56.2663 595.022 67.4806 598.687 78.9226 606.652C90.3647 614.617 97.6944 623.863 95.2939 627.308" fill="#FFC933"></path>
<path d="M91.8499 630.786C90.2057 630.786 88.113 630.444 85.4758 629.581C80.5449 627.979 74.6886 624.897 68.9836 620.927C63.2786 616.957 58.3636 612.532 55.141 608.471C50.3364 602.421 50.8151 599.013 52.0607 597.224C53.3063 595.436 56.3315 593.806 63.6772 596.205C68.6081 597.806 74.4662 600.888 80.1712 604.86C91.0136 612.407 100.936 623.047 97.0941 628.567C96.2986 629.707 94.7683 630.786 91.8499 630.786ZM57.2835 599.371C56.2158 599.371 55.746 599.598 55.6588 599.726C55.4809 599.974 55.4649 601.823 58.5754 605.746C61.54 609.483 66.1257 613.599 71.4891 617.333C76.8525 621.066 82.303 623.936 86.8371 625.417C91.5955 626.97 93.3234 626.307 93.4942 626.061C94.3839 624.774 89.953 617.009 77.6568 608.457C72.2934 604.72 66.8429 601.853 62.3087 600.372C59.9474 599.595 58.3298 599.371 57.2817 599.371H57.2835Z" fill="#000072"></path>
<path d="M88.9898 622.924C87.673 624.815 80.1511 621.856 72.1897 616.317C64.2283 610.777 58.8436 604.75 60.1586 602.857C61.4736 600.963 68.9973 603.924 76.9587 609.464C84.9201 615.003 90.3048 621.03 88.9898 622.924Z" fill="#FFC933"></path>
<path d="M88.9922 622.926C88.5669 623.536 87.4868 623.637 85.9671 623.315C86.8836 621.258 81.5789 615.407 73.8417 610.023C68.457 606.273 63.2787 603.711 60.0703 603.036C60.0984 602.974 60.1317 602.915 60.17 602.858C61.485 600.967 69.0033 603.926 76.9647 609.46C84.9261 614.994 90.3108 621.027 88.9976 622.924" fill="#FFA329"></path>
<path d="M87.4508 624.591C86.2426 624.591 84.657 624.203 82.6783 623.424C79.4271 622.146 75.4803 619.94 71.5618 617.212C65.8675 613.254 56.8829 605.645 59.2585 602.228C60.2568 600.794 62.6146 600.835 66.4672 602.35C69.7165 603.627 73.6652 605.834 77.5836 608.562C81.502 611.29 84.9418 614.224 87.2693 616.829C90.0293 619.915 90.8852 622.112 89.8869 623.547C89.4011 624.246 88.5951 624.591 87.4508 624.591ZM61.7088 603.334C61.4775 603.311 61.2451 603.366 61.0487 603.49C60.675 604.51 64.3656 609.54 72.8146 615.413C81.2244 621.267 87.1999 622.997 88.0861 622.292C88.442 621.224 84.7407 616.213 76.3309 610.37C69.0812 605.318 63.6396 603.337 61.7088 603.337V603.334Z" fill="#000072"></path>
<path d="M1284.61 110.198L1323.08 111.472C1323.08 111.472 1346.14 155.449 1293.7 186.155L1259.21 172.021C1259.21 172.021 1292.42 152.116 1284.62 110.198" fill="#58D841"></path>
<path d="M1259.2 172.019L1293.7 186.163C1346.14 155.458 1323.08 111.481 1323.08 111.481L1284.62 110.205C1291.18 145.457 1268.73 165.14 1261.43 170.51C1260.04 171.525 1259.2 172.026 1259.2 172.026" fill="#58D841"></path>
<path d="M1259.2 172.019L1293.7 186.163C1346.14 155.458 1323.08 111.481 1323.08 111.481C1323.08 111.481 1330.59 144.206 1303.12 165.054C1286.33 177.799 1270.46 174.418 1261.43 170.503C1260.04 171.517 1259.2 172.019 1259.2 172.019" fill="#46B72E"></path>
<path d="M1279.85 174.553L1288.71 178.078C1288.71 178.078 1291.33 175.653 1293.91 175.697C1296.09 175.744 1297.12 176.171 1298.46 176.715C1316.46 163.775 1321.82 149.185 1322.47 137.41C1319.99 146.774 1314.59 157.148 1303.48 165.583C1295.13 171.925 1287.01 174.276 1279.85 174.553Z" fill="#459E30"></path>
<path d="M1298.45 176.715C1324.79 157.792 1324.06 135.333 1321.13 123.322C1319.71 123.389 1317.83 123.293 1316.2 121.929C1314.14 120.199 1313.6 117.681 1313.6 117.681L1296.04 117.099C1296.04 117.099 1296.25 119.989 1294.89 121.873C1293.67 123.555 1292.32 124.322 1291.02 124.922C1290.49 144.576 1282.97 156.23 1273.84 166.072C1274.85 166.606 1275.62 167.528 1275.59 168.866C1275.53 170.524 1273.93 172.204 1273.93 172.204L1288.71 178.077C1288.71 178.077 1291.33 175.649 1293.91 175.697C1296.09 175.738 1297.11 176.171 1298.45 176.713" fill="#4BB236"></path>
<path d="M1279.85 174.553L1288.71 178.078C1288.71 178.078 1291.33 175.653 1293.91 175.697C1296.09 175.744 1297.12 176.171 1298.46 176.715C1316.46 163.775 1321.82 149.185 1322.47 137.41C1319.99 146.774 1314.59 157.148 1303.48 165.583C1295.13 171.925 1287.01 174.276 1279.85 174.553Z" fill="#459E30"></path>
<path d="M1293.7 188.346C1293.42 188.346 1293.13 188.291 1292.87 188.182L1258.37 174.05C1257.99 173.896 1257.66 173.64 1257.42 173.31C1257.18 172.981 1257.04 172.59 1257.01 172.184C1256.98 171.777 1257.06 171.37 1257.25 171.008C1257.44 170.646 1257.72 170.343 1258.07 170.135C1258.15 170.088 1266.18 165.182 1273.15 155.399C1282.44 142.377 1285.57 127.303 1282.46 110.595C1282.4 110.272 1282.41 109.94 1282.5 109.624C1282.58 109.307 1282.74 109.013 1282.95 108.764C1283.16 108.512 1283.43 108.312 1283.73 108.18C1284.03 108.048 1284.36 107.987 1284.69 108.002L1323.15 109.276C1323.54 109.289 1323.92 109.405 1324.24 109.611C1324.57 109.817 1324.84 110.106 1325.02 110.449C1325.27 110.921 1331.05 122.153 1330.24 137.41C1329.49 151.48 1322.74 171.686 1294.81 188.042C1294.47 188.24 1294.09 188.345 1293.7 188.346ZM1263.73 171.508L1293.52 183.712C1313.99 171.455 1324.87 155.805 1325.86 137.182C1326.47 125.772 1323.02 116.697 1321.67 113.62L1287.22 112.478C1290.34 133.508 1283.27 148.829 1276.61 158.107C1272.98 163.17 1268.65 167.683 1263.73 171.508Z" fill="#000072"></path>
<path d="M1300.99 128.616C1301.56 129.451 1302.36 130.1 1303.29 130.48C1304.22 130.861 1305.25 130.957 1306.23 130.756C1307.22 130.554 1308.12 130.065 1308.83 129.349C1309.54 128.633 1310.02 127.723 1310.22 126.734C1310.41 125.745 1310.3 124.721 1309.91 123.792C1309.52 122.863 1308.86 122.07 1308.02 121.515C1307.18 120.959 1306.2 120.665 1305.19 120.669C1304.18 120.674 1303.2 120.977 1302.36 121.541C1301.81 121.915 1301.33 122.395 1300.96 122.953C1300.6 123.511 1300.34 124.137 1300.21 124.794C1300.08 125.451 1300.09 126.127 1300.22 126.783C1300.36 127.438 1300.62 128.061 1300.99 128.616Z" fill="#2E8E1A"></path>
<path d="M1281.09 170.467C1281.73 172.149 1284.55 172.734 1287.41 171.775C1290.26 170.816 1292.06 168.677 1291.43 166.997C1290.79 165.318 1287.96 164.73 1285.11 165.689C1282.26 166.649 1280.46 168.788 1281.09 170.467Z" fill="#2E8E1A"></path>
<path d="M1288.7 179.539C1288.52 179.539 1288.34 179.504 1288.17 179.438L1273.39 173.566C1273.17 173.477 1272.97 173.336 1272.82 173.153C1272.66 172.971 1272.55 172.754 1272.5 172.52C1272.45 172.286 1272.46 172.044 1272.52 171.813C1272.59 171.583 1272.71 171.372 1272.87 171.199C1273.34 170.701 1274.1 169.612 1274.12 168.823C1274.12 168.592 1274.15 167.894 1273.16 167.369C1272.96 167.265 1272.78 167.116 1272.65 166.934C1272.52 166.753 1272.43 166.543 1272.4 166.322C1272.36 166.101 1272.37 165.874 1272.44 165.659C1272.5 165.444 1272.61 165.247 1272.77 165.083C1281.17 156.02 1289.02 144.879 1289.55 124.886C1289.56 124.614 1289.64 124.349 1289.79 124.121C1289.94 123.893 1290.15 123.712 1290.4 123.598C1291.73 122.984 1292.75 122.338 1293.7 121.021C1294.55 119.843 1294.62 117.866 1294.58 117.204C1294.56 117 1294.59 116.795 1294.66 116.603C1294.73 116.411 1294.84 116.236 1294.98 116.089C1295.13 115.941 1295.3 115.826 1295.49 115.749C1295.68 115.672 1295.88 115.635 1296.08 115.642L1313.64 116.223C1313.97 116.234 1314.28 116.353 1314.53 116.561C1314.78 116.77 1314.95 117.056 1315.02 117.375C1315.02 117.389 1315.5 119.444 1317.14 120.813C1318.37 121.845 1319.81 121.927 1321.05 121.866C1321.39 121.85 1321.72 121.952 1322 122.155C1322.27 122.358 1322.46 122.65 1322.54 122.98C1325.5 135.123 1326.43 158.41 1299.3 177.907C1299.09 178.051 1298.86 178.142 1298.61 178.171C1298.37 178.2 1298.12 178.166 1297.89 178.073L1297.85 178.057C1296.59 177.541 1295.76 177.199 1293.87 177.167C1292.27 177.178 1290.31 178.591 1289.69 179.16C1289.42 179.405 1289.07 179.54 1288.7 179.539ZM1276.21 171.532L1288.44 176.391C1289.53 175.553 1291.64 174.167 1293.93 174.229C1295.94 174.267 1297.11 174.61 1298.25 175.05C1322.52 157.241 1322.5 136.373 1319.97 124.777C1318.54 124.71 1316.82 124.343 1315.26 123.039C1314.03 121.974 1313.09 120.619 1312.52 119.097L1297.47 118.599C1297.36 119.786 1297.02 121.405 1296.07 122.72C1295.13 124.036 1293.89 125.105 1292.45 125.836C1291.71 145.434 1283.88 157.127 1275.97 165.896C1276.71 166.723 1277.09 167.802 1277.04 168.905C1277.01 169.878 1276.64 170.798 1276.21 171.541V171.532Z" fill="#000072"></path>
<path d="M1296.84 158.372C1301.61 160.059 1309.74 154.979 1310.12 148.34C1310.64 139.359 1303.73 137.8 1301.44 138.291C1295.77 139.51 1295.78 143.998 1294.35 147.126C1292.92 150.254 1291.47 156.472 1296.84 158.372" fill="#2E8E1A"></path>
<path d="M1370.82 556.569L1332.38 553.188C1332.38 553.188 1304.12 594.182 1352.61 631.08L1388.66 621.175C1388.66 621.175 1357.99 597.351 1370.82 556.569Z" fill="#58D841"></path>
<path d="M1388.65 621.175L1352.61 631.08C1304.12 594.184 1332.38 553.194 1332.38 553.194L1370.81 556.575C1360.02 590.869 1379.99 613.175 1386.62 619.401C1387.87 620.577 1388.65 621.181 1388.65 621.181" fill="#58D841"></path>
<path d="M1388.65 621.175L1352.61 631.08C1304.12 594.184 1332.38 553.194 1332.38 553.194C1332.38 553.194 1320.96 584.868 1345.78 608.932C1360.95 623.647 1377.16 622.197 1386.62 619.396C1387.88 620.572 1388.65 621.175 1388.65 621.175Z" fill="#46B72E"></path>
<path d="M1367.81 621.213L1358.55 623.65C1358.55 623.65 1356.24 620.921 1353.66 620.652C1351.49 620.435 1350.41 620.736 1349.02 621.116C1332.66 606.062 1329.09 590.892 1329.86 579.092C1331.2 588.712 1335.32 599.69 1345.36 609.429C1352.91 616.75 1360.7 620.07 1367.81 621.213Z" fill="#459E30"></path>
<path d="M1349.01 621.109C1325.09 599.094 1328.52 576.825 1332.89 565.223C1334.3 565.461 1336.18 565.591 1337.96 564.431C1340.22 562.958 1341.07 560.516 1341.07 560.516L1358.61 562.057C1358.61 562.057 1358.06 564.904 1359.18 566.949C1360.19 568.769 1361.45 569.698 1362.67 570.449C1360.82 590.079 1366.9 602.585 1374.8 613.486C1373.73 613.895 1372.84 614.719 1372.73 616.057C1372.58 617.714 1373.97 619.581 1373.97 619.581L1358.55 623.643C1358.55 623.643 1356.24 620.91 1353.66 620.647C1351.49 620.424 1350.41 620.729 1349.01 621.109Z" fill="#4BB236"></path>
<path d="M1367.81 621.213L1358.55 623.65C1358.55 623.65 1356.24 620.921 1353.66 620.652C1351.49 620.435 1350.41 620.736 1349.02 621.116C1332.66 606.062 1329.09 590.892 1329.86 579.092C1331.2 588.712 1335.32 599.69 1345.36 609.429C1352.91 616.75 1360.7 620.07 1367.81 621.213Z" fill="#459E30"></path>
<path d="M1352.6 633.272C1352.12 633.272 1351.66 633.115 1351.28 632.825C1325.45 613.175 1321.17 592.253 1322.12 578.151C1323.15 562.867 1330.27 552.386 1330.57 551.948C1330.79 551.629 1331.09 551.374 1331.44 551.209C1331.79 551.044 1332.18 550.975 1332.57 551.008L1371.01 554.389C1371.33 554.418 1371.65 554.519 1371.93 554.687C1372.22 554.854 1372.46 555.083 1372.64 555.356C1372.82 555.63 1372.94 555.941 1372.99 556.266C1373.03 556.592 1373.01 556.923 1372.91 557.237C1367.79 573.496 1369.09 588.879 1376.76 602.969C1382.52 613.552 1389.93 619.403 1390 619.462C1390.32 619.711 1390.56 620.045 1390.7 620.427C1390.85 620.808 1390.88 621.221 1390.8 621.619C1390.72 622.018 1390.53 622.387 1390.25 622.685C1389.98 622.983 1389.62 623.197 1389.23 623.305L1353.18 633.21C1352.99 633.256 1352.8 633.277 1352.6 633.272ZM1333.52 555.493C1331.8 558.416 1327.21 567.155 1326.48 578.642C1325.29 597.225 1334.24 614.055 1353.07 628.686L1384.22 620.131C1379.78 615.727 1376.01 610.709 1373 605.229C1367.5 595.189 1362.3 579.085 1367.96 558.527L1333.52 555.493Z" fill="#000072"></path>
<path d="M1352.29 572.923C1351.63 573.686 1350.76 574.236 1349.78 574.503C1348.81 574.77 1347.78 574.742 1346.82 574.422C1345.86 574.103 1345.02 573.506 1344.4 572.708C1343.78 571.91 1343.41 570.946 1343.34 569.938C1343.27 568.93 1343.49 567.924 1343.99 567.046C1344.49 566.168 1345.24 565.458 1346.15 565.006C1347.05 564.554 1348.07 564.38 1349.07 564.507C1350.07 564.633 1351.02 565.054 1351.78 565.716C1352.29 566.155 1352.7 566.691 1353 567.291C1353.3 567.891 1353.48 568.544 1353.53 569.213C1353.58 569.882 1353.49 570.554 1353.28 571.191C1353.07 571.827 1352.73 572.416 1352.29 572.923Z" fill="#2E8E1A"></path>
<path d="M1367.05 616.986C1366.21 618.588 1363.33 618.824 1360.6 617.52C1357.88 616.216 1356.34 613.874 1357.18 612.278C1358.01 610.682 1360.9 610.441 1363.62 611.744C1366.35 613.047 1367.88 615.388 1367.05 616.984" fill="#2E8E1A"></path>
<path d="M1358.55 625.104C1358.34 625.105 1358.13 625.059 1357.94 624.969C1357.74 624.88 1357.57 624.75 1357.44 624.588C1356.9 623.955 1355.12 622.275 1353.51 622.097C1351.63 621.905 1350.76 622.145 1349.44 622.505C1349.2 622.573 1348.94 622.579 1348.69 622.523C1348.44 622.467 1348.21 622.35 1348.02 622.182C1323.38 599.503 1327.1 576.439 1331.52 564.709C1331.64 564.391 1331.87 564.125 1332.16 563.956C1332.45 563.786 1332.8 563.725 1333.13 563.782C1334.37 563.992 1335.81 564.088 1337.17 563.205C1338.96 562.041 1339.68 560.052 1339.69 560.032C1339.8 559.727 1340 559.465 1340.28 559.29C1340.55 559.114 1340.87 559.033 1341.2 559.061L1358.74 560.602C1358.95 560.62 1359.15 560.681 1359.32 560.781C1359.5 560.88 1359.66 561.016 1359.78 561.18C1359.91 561.344 1359.99 561.531 1360.04 561.731C1360.09 561.93 1360.09 562.137 1360.05 562.338C1359.93 562.988 1359.76 564.967 1360.46 566.243C1361.25 567.666 1362.19 568.435 1363.44 569.207C1363.67 569.35 1363.86 569.555 1363.98 569.799C1364.1 570.042 1364.15 570.315 1364.12 570.586C1362.24 590.552 1368.71 602.592 1375.98 612.63C1376.11 612.812 1376.2 613.021 1376.24 613.242C1376.28 613.463 1376.26 613.689 1376.2 613.904C1376.13 614.118 1376.02 614.315 1375.87 614.48C1375.72 614.644 1375.53 614.771 1375.32 614.851C1374.26 615.255 1374.2 615.956 1374.18 616.186C1374.11 616.976 1374.74 618.154 1375.15 618.711C1375.29 618.903 1375.38 619.126 1375.42 619.362C1375.45 619.598 1375.43 619.84 1375.35 620.065C1375.27 620.29 1375.14 620.492 1374.96 620.654C1374.79 620.816 1374.58 620.933 1374.34 620.994L1358.93 625.056C1358.8 625.089 1358.68 625.105 1358.55 625.104ZM1352.28 619.109C1352.79 619.111 1353.3 619.139 1353.81 619.193C1356.07 619.424 1358.03 621.045 1359.02 622.01L1371.78 618.647C1371.45 617.857 1371.18 616.894 1371.27 615.929C1371.35 614.826 1371.87 613.799 1372.69 613.064C1365.88 603.377 1359.5 590.791 1361.13 571.195C1359.78 570.291 1358.68 569.074 1357.91 567.65C1357.12 566.227 1356.98 564.572 1357.02 563.379L1341.96 562.057C1341.21 563.503 1340.11 564.738 1338.76 565.65C1337.06 566.76 1335.3 566.915 1333.87 566.812C1329.96 578.05 1327.41 598.823 1349.42 619.485C1350.36 619.233 1351.32 619.107 1352.28 619.109ZM1348.63 619.702L1349.01 621.111L1348.63 619.702Z" fill="#000072"></path>
<path d="M1352.84 603.044C1347.89 604.149 1340.41 598.111 1340.83 591.456C1341.4 582.452 1348.46 581.735 1350.68 582.502C1356.18 584.397 1355.63 588.865 1356.67 592.152C1357.71 595.438 1358.41 601.802 1352.84 603.044Z" fill="#2E8E1A"></path>
<path d="M1037.83 647.655C1037.93 648.772 1037.71 649.894 1037.21 650.896C1036.71 651.898 1035.94 652.742 1034.98 653.334C1031.63 655.423 1025.14 658.196 1013.49 659.191C1001.83 660.186 994.959 658.556 991.315 657.067C990.275 656.646 989.373 655.945 988.707 655.043C988.041 654.14 987.638 653.071 987.542 651.954L986.564 640.491L1036.86 636.194L1037.83 647.655Z" fill="#FFC933"></path>
<path d="M1036.86 636.181L1037.84 647.641C1037.93 648.759 1037.71 649.881 1037.21 650.884C1036.71 651.887 1035.94 652.732 1034.99 653.327C1031.86 655.269 1026.02 657.808 1015.82 658.944L1015.8 658.939C1015.05 659.033 1014.28 659.108 1013.49 659.175C1001.83 660.171 994.962 658.536 991.316 657.053C990.275 656.631 989.371 655.929 988.704 655.026C988.037 654.122 987.633 653.051 987.537 651.932L986.557 640.472L1036.86 636.181Z" fill="#FFC933"></path>
<path d="M1036.86 636.178L1037.84 647.636C1037.93 648.754 1037.72 649.876 1037.21 650.879C1036.71 651.882 1035.94 652.727 1034.99 653.322C1031.87 655.266 1026.02 657.805 1015.82 658.939L1015.8 658.934C1015.05 659.028 1014.28 659.103 1013.49 659.172C1009.86 659.507 1006.21 659.566 1002.58 659.349C998.932 659.105 996.078 658.561 993.908 657.94C993.029 657.691 992.164 657.394 991.317 657.049C990.276 656.627 989.373 655.926 988.706 655.023C988.039 654.119 987.634 653.049 987.537 651.93L986.559 640.471L1036.86 636.178Z" fill="#FFC933"></path>
<path d="M1036.86 636.182L1037.84 647.641C1037.93 648.759 1037.72 649.881 1037.21 650.885C1036.71 651.888 1035.94 652.733 1034.99 653.327C1031.86 655.27 1026.02 657.808 1015.82 658.944C1017.2 658.532 1025.01 655.359 1025.43 637.16L1036.86 636.182Z" fill="#FFA329"></path>
<g opacity="0.7">
<path d="M1000.86 639.254L1002.58 659.354C998.931 659.11 996.078 658.566 993.907 657.945L992.372 639.98L1000.86 639.254Z" fill="white"></path>
</g>
<path d="M993.223 660.032C992.292 659.765 991.377 659.449 990.48 659.086C989.065 658.515 987.837 657.562 986.931 656.334C986.026 655.106 985.479 653.65 985.352 652.13L984.373 640.667C984.349 640.38 984.381 640.091 984.468 639.816C984.555 639.542 984.696 639.288 984.881 639.067C985.067 638.847 985.294 638.666 985.549 638.533C985.805 638.401 986.084 638.32 986.371 638.296L1036.67 633.999C1036.96 633.974 1037.25 634.006 1037.52 634.093C1037.8 634.18 1038.05 634.321 1038.27 634.506C1038.49 634.692 1038.67 634.919 1038.8 635.175C1038.94 635.43 1039.02 635.71 1039.04 635.997L1040.02 647.46C1040.15 648.98 1039.86 650.507 1039.18 651.871C1038.49 653.235 1037.44 654.383 1036.15 655.186C1032.53 657.439 1025.7 660.34 1013.67 661.367C1004.03 662.192 997.474 661.262 993.223 660.032ZM988.929 642.478L989.726 651.758C989.786 652.473 990.044 653.157 990.47 653.734C990.896 654.312 991.474 654.759 992.14 655.028C995.634 656.454 1002.14 657.954 1013.31 657C1024.47 656.046 1030.63 653.468 1033.83 651.467C1034.44 651.09 1034.94 650.55 1035.26 649.908C1035.58 649.267 1035.72 648.548 1035.66 647.833L1034.86 638.554L988.929 642.478Z" fill="#000072"></path>
<path d="M1036.86 636.183C1037.22 640.362 1026.24 644.714 1012.35 645.904C998.47 647.093 986.917 644.656 986.559 640.477C986.201 636.297 997.179 631.944 1011.06 630.756C1024.94 629.568 1036.5 632.004 1036.86 636.183Z" fill="#FFC933"></path>
<path d="M991.755 646.814C987.497 645.581 984.62 643.585 984.372 640.666C984.185 638.495 985.472 635.309 992.656 632.458C997.471 630.545 1003.95 629.166 1010.87 628.576C1024.04 627.449 1038.47 629.291 1039.04 635.988C1039.23 638.159 1037.94 641.345 1030.76 644.196C1025.94 646.109 1019.47 647.488 1012.54 648.079C1005.11 648.721 997.273 648.41 991.755 646.814ZM1030.67 634.124C1026.8 633.003 1020.2 632.178 1011.24 632.947C1004.73 633.503 998.706 634.778 994.273 636.538C989.619 638.383 988.715 639.997 988.739 640.296C988.873 641.859 997.246 644.996 1012.16 643.722C1018.68 643.167 1024.7 641.89 1029.13 640.13C1033.79 638.286 1034.69 636.673 1034.67 636.373C1034.62 635.744 1033.25 634.869 1030.67 634.124Z" fill="#000072"></path>
<path d="M1029.21 636.837C1029.41 639.134 1021.73 641.664 1012.07 642.491C1002.4 643.318 994.406 642.123 994.209 639.826C994.012 637.53 1001.69 634.998 1011.35 634.173C1021.02 633.349 1029.01 634.539 1029.21 636.837Z" fill="#FFC933"></path>
<path d="M1029.21 636.835C1029.27 637.578 1028.51 638.348 1027.13 639.073C1026.52 636.903 1018.7 635.794 1009.3 636.598C1002.77 637.155 997.145 638.494 994.249 640.021C994.23 639.957 994.217 639.891 994.209 639.825C994.014 637.529 1001.68 634.997 1011.35 634.17C1021.01 633.343 1029.01 634.541 1029.21 636.835Z" fill="#FFA329"></path>
<path d="M996.757 642.867C994.658 642.259 993.235 641.321 993.114 639.919C992.761 635.775 1004.35 633.67 1011.26 633.08C1016.01 632.671 1020.54 632.733 1023.99 633.246C1028.09 633.857 1030.15 635.001 1030.3 636.739C1030.45 638.479 1028.61 639.955 1024.68 641.251C1021.36 642.345 1016.91 643.172 1012.15 643.575C1007.58 643.973 1000.87 644.058 996.757 642.867ZM1026.25 635.939C1023.69 635.197 1018.59 634.647 1011.44 635.264C1001.18 636.139 995.479 638.647 995.295 639.746C995.659 640.778 1001.71 642.274 1011.96 641.399C1022.17 640.524 1027.87 638.037 1028.11 636.928C1027.99 636.614 1027.35 636.258 1026.25 635.939Z" fill="#000072"></path>
<path d="M1062.47 114.124C1062.99 115.115 1063.23 116.231 1063.16 117.351C1063.09 118.47 1062.72 119.548 1062.07 120.466C1059.81 123.701 1054.92 128.794 1044.58 134.275C1034.25 139.755 1027.29 140.944 1023.34 141.005C1022.22 141.023 1021.11 140.732 1020.14 140.162C1019.18 139.592 1018.39 138.766 1017.86 137.775L1012.48 127.612L1057.08 103.961L1062.47 114.124Z" fill="#FFC933"></path>
<path d="M1057.08 103.959L1062.47 114.12C1062.99 115.112 1063.23 116.229 1063.16 117.348C1063.09 118.468 1062.72 119.546 1062.07 120.466C1059.96 123.478 1055.58 128.101 1046.63 133.143H1046.62C1045.96 133.524 1045.28 133.895 1044.58 134.267C1034.24 139.75 1027.29 140.935 1023.35 140.997C1022.22 141.017 1021.12 140.725 1020.15 140.155C1019.18 139.585 1018.39 138.758 1017.86 137.766L1012.48 127.614L1057.08 103.959Z" fill="#FFC933"></path>
<path d="M1057.08 103.956L1062.47 114.115C1062.99 115.107 1063.23 116.224 1063.16 117.344C1063.1 118.464 1062.72 119.543 1062.07 120.462C1059.96 123.475 1055.58 128.098 1046.63 133.138H1046.62C1045.96 133.518 1045.29 133.89 1044.58 134.262C1041.38 135.991 1038.05 137.473 1034.62 138.697C1031.17 139.9 1028.33 140.517 1026.08 140.797C1025.17 140.911 1024.26 140.976 1023.34 140.992C1022.22 141.012 1021.11 140.72 1020.15 140.15C1019.18 139.579 1018.39 138.753 1017.86 137.761L1012.48 127.609L1057.08 103.956Z" fill="#FFC933"></path>
<path d="M1057.08 103.959L1062.47 114.12C1062.99 115.112 1063.23 116.229 1063.16 117.348C1063.09 118.468 1062.72 119.546 1062.08 120.466C1059.96 123.478 1055.58 128.101 1046.63 133.143C1047.74 132.225 1053.69 126.244 1046.95 109.333L1057.08 103.959Z" fill="#FFA329"></path>
<g opacity="0.7">
<path d="M1025.16 120.882L1034.61 138.706C1031.16 139.908 1028.32 140.526 1026.07 140.805L1017.62 124.875L1025.16 120.882Z" fill="white"></path>
</g>
<path d="M1023.25 143.197C1021.74 143.202 1020.27 142.795 1018.98 142.02C1017.69 141.246 1016.64 140.133 1015.93 138.803L1010.54 128.639C1010.27 128.125 1010.22 127.525 1010.39 126.97C1010.56 126.414 1010.94 125.949 1011.45 125.676L1056.05 102.025C1056.31 101.89 1056.58 101.806 1056.87 101.779C1057.16 101.752 1057.45 101.781 1057.72 101.866C1058 101.95 1058.25 102.088 1058.48 102.271C1058.7 102.455 1058.88 102.68 1059.02 102.934L1064.41 113.097C1065.12 114.444 1065.45 115.963 1065.36 117.486C1065.27 119.009 1064.75 120.476 1063.87 121.724C1061.43 125.212 1056.28 130.557 1045.62 136.212C1034.95 141.868 1027.64 143.131 1023.38 143.195L1023.25 143.197ZM1015.44 128.522L1019.81 136.748C1020.15 137.38 1020.65 137.906 1021.27 138.27C1021.89 138.634 1022.59 138.822 1023.31 138.812C1027.09 138.755 1033.66 137.584 1043.56 132.339C1053.45 127.093 1058.11 122.302 1060.28 119.209C1060.7 118.623 1060.94 117.933 1060.99 117.217C1061.03 116.501 1060.88 115.786 1060.54 115.152L1056.18 106.924L1015.44 128.522Z" fill="#000072"></path>
<path d="M1057.08 103.961C1059.04 107.668 1050.65 115.969 1038.34 122.5C1026.02 129.03 1014.44 131.319 1012.48 127.612C1010.53 123.906 1018.91 115.604 1031.22 109.072C1043.54 102.539 1055.12 100.253 1057.08 103.961" fill="#FFC933"></path>
<path d="M1017.18 131.573C1013.1 131.573 1011.31 130.091 1010.54 128.639C1007.39 122.697 1018.52 113.336 1030.19 107.136C1036.33 103.879 1042.52 101.532 1047.6 100.527C1055.18 99.0285 1057.99 101.009 1059.01 102.934C1060.04 104.86 1060.1 108.296 1054.61 113.731C1050.92 117.378 1045.51 121.179 1039.37 124.438C1033.23 127.696 1027.04 130.04 1021.95 131.047C1020.38 131.376 1018.78 131.552 1017.18 131.573ZM1052.41 104.379C1051.08 104.402 1049.75 104.552 1048.45 104.828C1043.77 105.753 1038.01 107.947 1032.24 111.01C1019.01 118.024 1013.68 125.199 1014.41 126.586C1014.55 126.851 1016.19 127.716 1021.1 126.746C1025.78 125.82 1031.53 123.624 1037.31 120.564C1043.08 117.503 1048.13 113.969 1051.52 110.613C1055.08 107.091 1055.28 105.255 1055.14 104.988C1055.05 104.821 1054.31 104.379 1052.41 104.379H1052.41Z" fill="#000072"></path>
<path d="M1050.3 107.558C1051.38 109.595 1045.31 114.93 1036.74 119.48C1028.16 124.03 1020.34 126.064 1019.26 124.02C1018.18 121.975 1024.25 116.649 1032.82 112.097C1041.4 107.545 1049.22 105.513 1050.3 107.556" fill="#FFC933"></path>
<path d="M1050.3 107.556C1050.65 108.214 1050.25 109.223 1049.26 110.431C1047.85 108.673 1040.22 110.714 1031.89 115.131C1026.09 118.204 1021.44 121.637 1019.38 124.18C1019.34 124.127 1019.3 124.071 1019.26 124.012C1018.19 121.977 1024.25 116.642 1032.82 112.099C1041.39 107.556 1049.22 105.515 1050.3 107.556Z" fill="#FFA329"></path>
<path d="M1021.47 125.9C1019.95 125.9 1018.81 125.502 1018.3 124.528C1016.35 120.852 1026.19 114.385 1032.31 111.131C1036.53 108.894 1040.71 107.178 1044.09 106.299C1048.1 105.257 1050.45 105.502 1051.26 107.045C1052.08 108.588 1050.97 110.666 1047.86 113.4C1045.24 115.713 1041.47 118.204 1037.25 120.443C1032.75 122.829 1025.68 125.9 1021.47 125.9ZM1048.22 107.823C1045.95 107.823 1040.57 109.23 1033.34 113.067C1024.25 117.889 1019.98 122.432 1020.24 123.516C1020.97 124.311 1027.13 123.338 1036.22 118.507C1045.27 113.702 1049.55 109.18 1049.33 108.074C1049.17 107.912 1048.79 107.823 1048.22 107.823Z" fill="#000072"></path>
<path d="M75.3706 337.4C48.5004 327.645 34.1934 335.518 34.1934 335.518C34.1934 335.518 36.4907 322.625 50.2514 316.942C65.9643 310.45 62.6224 290.088 70.2848 278.393C70.2848 278.393 75.0627 279.437 80.0435 278.704C87.1241 277.661 96.5322 272.59 107.835 273.254C107.835 273.254 104.38 275.745 102.449 288.799C101.62 294.415 103.024 324.065 75.3706 337.4Z" fill="#58D841"></path>
<path d="M107.841 273.254C107.841 273.254 104.385 275.745 102.451 288.803C101.622 294.415 103.027 324.067 75.3708 337.402C75.0576 337.287 74.7479 337.176 74.4365 337.069C48.1785 327.825 34.1953 335.521 34.1953 335.521C34.1953 335.521 34.7398 332.47 36.8859 328.69C39.1405 324.691 43.1817 319.867 50.2516 316.945C59.0405 313.31 61.8698 305.332 63.9892 296.971C65.6726 290.387 66.9129 283.546 70.2868 278.395C70.2868 278.395 75.0647 279.439 80.0401 278.702C86.8306 277.704 95.7494 273.008 106.437 273.204C106.898 273.204 107.362 273.225 107.836 273.255" fill="#58D841"></path>
<path d="M107.84 273.254C107.84 273.254 104.384 275.745 102.45 288.803C101.621 294.415 103.027 324.067 75.37 337.402C75.0568 337.287 74.7472 337.176 74.4358 337.069C86.3014 320.099 63.467 317.654 56.463 318.579C47.9037 319.723 37.1912 328.428 36.8887 328.681C39.1433 324.682 43.1845 319.858 50.2544 316.936C59.0433 313.301 61.8726 305.324 63.992 296.962C72.941 305.055 90.7554 307.53 97.6829 287.381C99.9962 280.653 103.541 276.069 106.44 273.195C106.901 273.195 107.365 273.216 107.838 273.247" fill="#46B72E"></path>
<path d="M97.0893 288.995C95.5714 300.798 97.769 313.119 79.1539 327.03C78.7321 326.891 78.1965 326.688 77.5256 326.53C75.4347 319.047 61.6349 317.897 56.4708 318.579C55.8918 318.656 55.3174 318.764 54.75 318.903C58.0848 317.278 61.3786 315.532 63.4481 312.538C65.9074 308.979 67.274 304.565 68.3951 300.092C77.5826 305.133 90.8718 304.647 97.0893 288.995Z" fill="#46B72E"></path>
<path d="M47.9124 325.732C48.3271 326.551 48.2879 327.27 48.0904 328.072C53.1975 328.165 61.2497 327.754 68.2857 328.642C69.9442 327.606 71.6845 326.706 73.8804 326.385C76.5158 325.999 78.1512 326.699 79.1584 327.026C100.738 310.906 94.3481 296.917 98.1989 283.391C97.1419 283.619 95.3748 284.183 94.1416 283.311C93.1362 282.599 93.1504 281.71 93.2323 280.539C88.1519 281.736 83.4879 283.687 78.6405 284.42C78.2526 285.379 77.5729 286.954 75.53 287.941C73.9285 288.71 72.5334 288.579 71.4497 288.475C68.8392 295.999 68.0936 305.783 63.442 312.534C59.2371 318.645 49.9055 319.527 45.5742 324.876C46.5351 324.775 47.448 324.83 47.9018 325.729" fill="#4BB236"></path>
<path d="M97.0893 288.995C95.5714 300.798 97.769 313.119 79.1539 327.03C78.7321 326.891 78.1965 326.688 77.5256 326.53C75.4347 319.047 61.6349 317.897 56.4708 318.579C55.8918 318.656 55.3174 318.764 54.75 318.903C58.0848 317.278 61.3786 315.532 63.4481 312.538C65.9074 308.979 67.274 304.565 68.3951 300.092C77.5826 305.133 90.8718 304.647 97.0893 288.995Z" fill="#459E30"></path>
<path d="M85.0762 310.02C83.3412 315.326 76.2517 318.182 72.522 316.157C68.9274 314.2 70.6838 309.464 72.2693 306.485C72.9188 305.261 73.4633 303.708 74.3851 302.393C77.549 303.128 80.8819 303.17 84.0726 302.241C85.4445 304.012 86.1706 306.658 85.0762 310.02Z" fill="#459E30"></path>
<path d="M88.3577 287.621C89.025 289.372 87.7474 291.483 85.5106 292.339C83.2738 293.194 80.9088 292.468 80.2415 290.717C79.5742 288.966 80.8519 286.856 83.0887 286.002C85.3255 285.148 87.6904 285.872 88.3577 287.621Z" fill="#2E8E1A"></path>
<path d="M66.6483 321.218C67.0345 322.882 65.1055 324.75 62.3402 325.392C59.5749 326.035 57.0213 325.214 56.6352 323.542C56.249 321.869 58.1762 320.01 60.9415 319.369C63.7068 318.728 66.2622 319.547 66.6483 321.218Z" fill="#2E8E1A"></path>
<path d="M68.2833 330.104C68.2238 330.104 68.1644 330.099 68.1053 330.092C63.0783 329.457 57.4 329.498 52.8427 329.533C51.1113 329.546 49.4742 329.56 48.0666 329.533C47.8464 329.53 47.6299 329.476 47.4333 329.377C47.2367 329.278 47.065 329.135 46.9312 328.96C46.7974 328.785 46.7048 328.583 46.6605 328.367C46.6161 328.151 46.6211 327.928 46.675 327.715C46.8281 327.108 46.8138 326.786 46.6145 326.391C46.6083 326.376 46.5999 326.362 46.5896 326.35C46.5896 326.35 46.4117 326.263 45.7426 326.332C45.4552 326.362 45.1654 326.307 44.9097 326.172C44.654 326.037 44.4439 325.83 44.306 325.576C44.1682 325.322 44.1086 325.033 44.135 324.746C44.1614 324.458 44.2725 324.185 44.4542 323.96C46.7035 321.182 50.0881 319.543 53.3606 317.958C56.9053 316.241 60.2543 314.618 62.258 311.708C65.1603 307.491 66.4967 301.873 67.7886 296.44C68.4666 293.593 69.1677 290.643 70.0841 288C70.1909 287.692 70.3979 287.428 70.672 287.251C70.9462 287.074 71.2717 286.994 71.5967 287.023C72.6306 287.119 73.6876 287.214 74.9119 286.625C76.4974 285.859 76.9814 284.667 77.2999 283.874C77.3963 283.64 77.5515 283.435 77.7505 283.279C77.9494 283.123 78.1853 283.022 78.4352 282.984C81.1863 282.567 83.8822 281.738 86.7365 280.866C88.7224 280.258 90.7742 279.621 92.9024 279.126C93.1254 279.073 93.3576 279.074 93.5803 279.128C93.8029 279.182 94.0099 279.287 94.1844 279.435C94.3589 279.584 94.4961 279.771 94.585 279.982C94.6739 280.193 94.712 280.422 94.6962 280.651C94.6108 281.859 94.714 281.932 94.9898 282.126C95.5468 282.521 96.6661 282.258 97.4811 282.066L97.8921 281.971C98.1389 281.918 98.3953 281.93 98.6363 282.005C98.8773 282.08 99.0947 282.216 99.2674 282.401C99.4401 282.585 99.5622 282.81 99.6218 283.056C99.6814 283.301 99.6765 283.558 99.6075 283.801C98.6075 287.311 98.3245 290.854 98.0256 294.604C97.2248 304.653 96.3173 316.043 80.0332 328.206C79.846 328.346 79.6279 328.439 79.3972 328.478C79.1665 328.516 78.93 328.498 78.7075 328.426L78.3516 328.309C77.4031 327.987 76.1059 327.544 74.0808 327.839C72.0558 328.135 70.4738 328.999 69.0502 329.891C68.8193 330.032 68.5538 330.106 68.2833 330.104ZM56.2398 326.594C59.9767 326.594 64.098 326.679 67.9523 327.127C69.4845 326.204 71.3458 325.277 73.6662 324.937C75.4185 324.663 77.211 324.82 78.889 325.394C93.527 314.205 94.3314 304.12 95.109 294.362C95.3474 291.365 95.593 288.287 96.2408 285.226C95.2834 285.288 94.2264 285.16 93.2975 284.503C92.5617 284.013 92.043 283.259 91.849 282.397C90.4023 282.784 88.9769 283.222 87.5782 283.642C85.0069 284.43 82.3536 285.244 79.6666 285.722C78.9545 287.275 77.7141 288.524 76.1664 289.248C75.0181 289.797 73.7529 290.056 72.4811 290.004C71.78 292.216 71.2141 294.602 70.618 297.108C69.2638 302.802 67.8633 308.69 64.6514 313.358C62.2099 316.903 58.3538 318.773 54.6222 320.579C52.3551 321.677 50.1735 322.732 48.4545 324.095C48.7721 324.368 49.0296 324.704 49.2108 325.081C49.4584 325.565 49.6135 326.092 49.6681 326.633C50.6451 326.633 51.7074 326.633 52.8071 326.618C53.9068 326.604 55.0511 326.594 56.2398 326.594Z" fill="#000072"></path>
<path d="M75.367 339.593C75.1121 339.592 74.8593 339.548 74.6196 339.461C49.173 330.222 35.3731 337.372 35.2361 337.445C34.8731 337.64 34.4624 337.729 34.0511 337.702C33.6398 337.675 33.2444 337.532 32.9102 337.291C32.576 337.05 32.3165 336.719 32.1614 336.337C32.0063 335.955 31.9618 335.538 32.033 335.132C32.1345 334.557 34.7111 320.986 49.4132 314.913C58.2964 311.244 60.414 302.492 62.6562 293.226C64.0121 287.619 65.4143 281.822 68.4501 277.188C68.6938 276.817 69.0444 276.528 69.4555 276.36C69.8667 276.193 70.319 276.154 70.7528 276.248C70.7938 276.257 75.2229 277.195 79.7232 276.533C81.992 276.199 84.6719 275.373 87.5102 274.499C93.1405 272.764 100.145 270.602 107.962 271.063C108.928 271.12 109.837 271.745 110.06 272.688C110.282 273.631 109.965 274.512 109.17 275.001C108.814 275.369 106.209 278.382 104.623 289.119C104.542 289.675 104.476 290.637 104.397 291.751C103.736 301.392 101.972 327.006 76.3279 339.374C76.0283 339.519 75.6998 339.593 75.367 339.593ZM50.1215 330.311C56.6753 330.311 65.0691 331.441 75.23 335.023C97.8009 323.608 99.4078 300.293 100.016 291.451C100.102 290.205 100.169 289.205 100.278 288.479C101.226 282.058 102.558 277.991 103.759 275.446C98.2992 275.764 93.306 277.302 88.7985 278.692C85.7966 279.615 82.9601 280.489 80.3585 280.873C76.7657 281.407 73.3117 281.081 71.3828 280.804C69.2474 284.612 68.1121 289.312 66.9145 294.26C64.6261 303.722 62.0316 314.445 51.0771 318.968C43.1833 322.227 39.4072 327.99 37.6776 331.884C40.5407 331.085 44.7029 330.311 50.1268 330.311H50.1215Z" fill="#000072"></path>
<path d="M72.5211 316.157C76.2581 318.184 83.344 315.324 85.0754 310.016C87.2304 303.414 82.3421 299.57 79.3632 299.709C74.4981 299.935 73.6262 303.939 72.2702 306.489C70.6865 309.466 68.9301 314.207 72.5211 316.157Z" fill="#2E8E1A"></path>
<path d="M85.0762 310.02C83.3412 315.326 76.2517 318.182 72.522 316.157C68.9274 314.2 70.6838 309.464 72.2693 306.485C72.9188 305.261 73.4633 303.708 74.3851 302.393C77.549 303.128 80.8819 303.17 84.0726 302.241C85.4445 304.012 86.1706 306.658 85.0762 310.02Z" fill="#2A7A16"></path>
<path d="M507.674 68.2879C507.673 69.4094 507.363 70.509 506.777 71.465C506.19 72.421 505.351 73.1961 504.351 73.7046C500.835 75.5001 494.132 77.712 482.433 77.712C470.735 77.712 464.03 75.5001 460.514 73.7046C459.514 73.1958 458.675 72.4206 458.089 71.4647C457.503 70.5087 457.192 69.4093 457.191 68.2879V56.7836H507.674V68.2879Z" fill="#FFC933"></path>
<path d="M507.675 56.7836V68.2826C507.674 69.4046 507.364 70.5047 506.778 71.4616C506.192 72.4186 505.354 73.1953 504.355 73.7064C501.075 75.3756 495.037 77.4095 484.781 77.6711H484.761C484.006 77.6996 483.231 77.7103 482.435 77.7103C470.735 77.7103 464.034 75.4966 460.523 73.7064C459.521 73.1976 458.68 72.4216 458.092 71.4644C457.504 70.5071 457.192 69.4059 457.191 68.2826V56.7836H507.675Z" fill="#FFC933"></path>
<path d="M507.679 56.78V68.279C507.678 69.4011 507.368 70.5011 506.782 71.4581C506.196 72.415 505.358 73.1918 504.359 73.7029C501.079 75.372 495.043 77.406 484.784 77.6676H484.765C484.01 77.6961 483.236 77.7067 482.441 77.7067C478.798 77.7307 475.159 77.4785 471.554 76.9522C467.942 76.3988 465.148 75.6141 463.032 74.8168C462.177 74.4939 461.341 74.1244 460.526 73.71C459.525 73.2012 458.684 72.4252 458.096 71.468C457.508 70.5107 457.196 69.4095 457.195 68.2862V56.7872L507.679 56.78Z" fill="#FFC933"></path>
<path d="M507.674 56.7836V68.2826C507.673 69.4046 507.363 70.5047 506.777 71.4616C506.191 72.4186 505.352 73.1953 504.354 73.7064C501.074 75.3756 495.036 77.4095 484.779 77.6711C486.189 77.3793 494.248 74.8827 496.209 56.7836H507.674Z" fill="#FFA329"></path>
<g opacity="0.7">
<path d="M471.547 56.78V76.9522C467.937 76.3988 465.141 75.6141 463.025 74.8168V56.78H471.547Z" fill="white"></path>
</g>
<path d="M482.434 79.9026C470.362 79.9026 463.308 77.5892 459.518 75.6549C458.157 74.9656 457.014 73.9119 456.216 72.6111C455.418 71.3104 454.997 69.8137 455 68.2879V56.7835C455 56.2022 455.232 55.6449 455.643 55.2338C456.054 54.8228 456.611 54.5917 457.192 54.5912H507.674C508.256 54.5912 508.814 54.8222 509.225 55.2333C509.636 55.6444 509.867 56.2021 509.867 56.7835V68.2879C509.869 69.8137 509.448 71.3103 508.651 72.6112C507.854 73.9121 506.711 74.9664 505.35 75.6567C501.558 77.5945 494.505 79.9026 482.434 79.9026ZM459.385 58.9758V68.2879C459.384 69.0063 459.584 69.7107 459.961 70.3222C460.338 70.9337 460.878 71.4283 461.52 71.7507C464.881 73.4697 471.241 75.5197 482.441 75.5197C493.641 75.5197 500 73.4697 503.361 71.7507C504.003 71.4283 504.543 70.9337 504.92 70.3222C505.297 69.7107 505.497 69.0063 505.496 68.2879V58.9758H459.385Z" fill="#000072"></path>
<path d="M507.674 56.7836C507.674 60.9796 496.372 64.3819 482.433 64.3819C468.495 64.3819 457.191 60.9796 457.191 56.7836C457.191 52.5875 468.493 49.1833 482.433 49.1833C496.374 49.1833 507.674 52.5858 507.674 56.7836Z" fill="#FFC933"></path>
<path d="M482.434 66.5743C469.222 66.5743 455 63.5118 455 56.7872C455 50.0625 469.222 47 482.434 47C495.647 47 509.867 50.0643 509.867 56.7872C509.867 63.51 495.643 66.5743 482.434 66.5743ZM482.434 51.3757C467.462 51.3757 459.385 55.2141 459.385 56.7836C459.385 58.3531 467.462 62.1896 482.434 62.1896C497.407 62.1896 505.482 58.3531 505.482 56.7836C505.482 55.2141 497.405 51.3757 482.434 51.3757Z" fill="#000072"></path>
<path d="M482.433 62.0526C475.502 62.0526 463.773 60.944 463.773 56.7835C463.773 52.6231 475.502 51.5127 482.433 51.5127C489.364 51.5127 501.091 52.6231 501.091 56.7835C501.091 60.944 489.362 62.0526 482.433 62.0526ZM482.433 53.705C472.141 53.705 466.24 55.7176 465.964 56.7978C466.242 57.8476 472.141 59.862 482.433 59.862C492.678 59.862 498.571 57.8655 498.897 56.7835C498.571 55.6998 492.678 53.705 482.433 53.705Z" fill="#000072"></path>
</svg>
