<svg width="400" height="358" viewBox="0 0 400 358" fill="none" xmlns="http://www.w3.org/2000/svg">
<rect width="400" height="358" rx="24" fill="white"></rect>
<path d="M161.681 71L157.457 64.232H155.513V71H152.777V54.056H158.753C160.689 54.056 162.153 54.528 163.145 55.472C164.153 56.416 164.657 57.664 164.657 59.216C164.657 60.544 164.281 61.632 163.529 62.48C162.793 63.328 161.721 63.872 160.313 64.112L164.753 71H161.681ZM155.513 62.288H158.537C160.745 62.288 161.849 61.312 161.849 59.36C161.849 58.432 161.577 57.712 161.033 57.2C160.505 56.672 159.673 56.408 158.537 56.408H155.513V62.288ZM179.409 63.752C179.409 64.2 179.377 64.592 179.313 64.928H169.137C169.185 66.288 169.561 67.296 170.265 67.952C170.969 68.608 171.841 68.936 172.881 68.936C173.793 68.936 174.561 68.704 175.185 68.24C175.825 67.776 176.217 67.16 176.361 66.392H179.289C179.113 67.32 178.745 68.144 178.185 68.864C177.625 69.584 176.897 70.152 176.001 70.568C175.105 70.968 174.105 71.168 173.001 71.168C171.721 71.168 170.585 70.896 169.593 70.352C168.617 69.808 167.849 69.024 167.289 68C166.729 66.976 166.449 65.768 166.449 64.376C166.449 63 166.729 61.8 167.289 60.776C167.849 59.752 168.617 58.968 169.593 58.424C170.585 57.88 171.721 57.608 173.001 57.608C174.297 57.608 175.425 57.88 176.385 58.424C177.361 58.952 178.105 59.688 178.617 60.632C179.145 61.56 179.409 62.6 179.409 63.752ZM176.649 63.68C176.681 62.816 176.529 62.096 176.193 61.52C175.873 60.928 175.425 60.496 174.849 60.224C174.289 59.936 173.673 59.792 173.001 59.792C171.929 59.792 171.033 60.12 170.313 60.776C169.593 61.432 169.201 62.4 169.137 63.68H176.649ZM187.547 57.632C188.667 57.632 189.627 57.888 190.427 58.4C191.227 58.912 191.827 59.624 192.227 60.536V57.776H194.963V77.288H192.227V68.096C191.811 69.056 191.203 69.808 190.403 70.352C189.603 70.896 188.651 71.168 187.547 71.168C186.395 71.168 185.347 70.888 184.403 70.328C183.459 69.768 182.715 68.984 182.171 67.976C181.643 66.952 181.379 65.768 181.379 64.424C181.379 63.08 181.643 61.896 182.171 60.872C182.715 59.848 183.459 59.056 184.403 58.496C185.347 57.92 186.395 57.632 187.547 57.632ZM188.195 60.032C187.027 60.032 186.067 60.424 185.315 61.208C184.563 61.976 184.187 63.048 184.187 64.424C184.187 65.8 184.555 66.864 185.291 67.616C186.043 68.368 187.011 68.744 188.195 68.744C188.931 68.744 189.603 68.576 190.211 68.24C190.819 67.888 191.307 67.384 191.675 66.728C192.043 66.072 192.227 65.288 192.227 64.376C192.227 63.48 192.043 62.704 191.675 62.048C191.307 61.392 190.819 60.896 190.211 60.56C189.603 60.208 188.931 60.032 188.195 60.032ZM210.438 57.776V71H207.678V68.12C207.342 69.096 206.758 69.856 205.926 70.4C205.094 70.928 204.126 71.192 203.022 71.192C201.486 71.192 200.254 70.696 199.326 69.704C198.398 68.712 197.934 67.296 197.934 65.456V57.776H200.67V65.168C200.67 66.368 200.974 67.296 201.582 67.952C202.19 68.592 203.022 68.912 204.078 68.912C205.166 68.912 206.038 68.56 206.694 67.856C207.35 67.152 207.678 66.128 207.678 64.784V57.776H210.438ZM226.003 63.752C226.003 64.2 225.971 64.592 225.907 64.928H215.731C215.779 66.288 216.155 67.296 216.859 67.952C217.563 68.608 218.435 68.936 219.475 68.936C220.387 68.936 221.155 68.704 221.779 68.24C222.419 67.776 222.811 67.16 222.955 66.392H225.883C225.707 67.32 225.339 68.144 224.779 68.864C224.219 69.584 223.491 70.152 222.595 70.568C221.699 70.968 220.699 71.168 219.595 71.168C218.315 71.168 217.179 70.896 216.187 70.352C215.211 69.808 214.443 69.024 213.883 68C213.323 66.976 213.043 65.768 213.043 64.376C213.043 63 213.323 61.8 213.883 60.776C214.443 59.752 215.211 58.968 216.187 58.424C217.179 57.88 218.315 57.608 219.595 57.608C220.891 57.608 222.019 57.88 222.979 58.424C223.955 58.952 224.699 59.688 225.211 60.632C225.739 61.56 226.003 62.6 226.003 63.752ZM223.243 63.68C223.275 62.816 223.123 62.096 222.787 61.52C222.467 60.928 222.019 60.496 221.443 60.224C220.883 59.936 220.267 59.792 219.595 59.792C218.523 59.792 217.627 60.12 216.907 60.776C216.187 61.432 215.795 62.4 215.731 63.68H223.243ZM232.988 57.608C234.54 57.608 235.78 58.008 236.708 58.808C237.652 59.592 238.228 60.648 238.436 61.976H235.844C235.732 61.256 235.42 60.68 234.908 60.248C234.412 59.8 233.748 59.576 232.916 59.576C232.228 59.576 231.692 59.744 231.308 60.08C230.94 60.4 230.756 60.84 230.756 61.4C230.756 61.816 230.892 62.152 231.164 62.408C231.436 62.664 231.772 62.864 232.172 63.008C232.588 63.152 233.172 63.312 233.924 63.488C234.916 63.712 235.716 63.944 236.324 64.184C236.948 64.424 237.476 64.808 237.908 65.336C238.356 65.848 238.58 66.552 238.58 67.448C238.58 68.552 238.156 69.448 237.308 70.136C236.476 70.824 235.348 71.168 233.924 71.168C232.276 71.168 230.94 70.784 229.916 70.016C228.908 69.248 228.3 68.176 228.092 66.8H230.756C230.836 67.52 231.156 68.104 231.716 68.552C232.276 69 233.012 69.224 233.924 69.224C234.58 69.224 235.092 69.056 235.46 68.72C235.844 68.368 236.036 67.928 236.036 67.4C236.036 66.936 235.892 66.568 235.604 66.296C235.316 66.024 234.956 65.816 234.524 65.672C234.092 65.512 233.5 65.352 232.748 65.192C231.788 64.968 231.004 64.744 230.396 64.52C229.804 64.296 229.292 63.936 228.86 63.44C228.444 62.928 228.236 62.24 228.236 61.376C228.236 60.256 228.652 59.352 229.484 58.664C230.332 57.96 231.5 57.608 232.988 57.608ZM247.972 68.624V71H246.292C244.884 71 243.812 70.664 243.076 69.992C242.356 69.304 241.996 68.168 241.996 66.584V60.104H240.1V57.776H241.996V54.488H244.756V57.776H247.948V60.104H244.756V66.632C244.756 67.384 244.892 67.904 245.164 68.192C245.452 68.48 245.948 68.624 246.652 68.624H247.972Z" fill="black"></path>
<rect x="40" y="105" width="320" height="60" rx="30" fill="#F4F4F5"></rect>
<g clip-path="url('#clip0_499_3318')">
<path d="M71.6714 137.254C71.1739 137.585 70.5959 137.761 70 137.761C69.4041 137.761 68.8262 137.585 68.3286 137.254L60.1332 131.79C60.0877 131.76 60.0434 131.728 60 131.695V140.648C60 141.675 60.833 142.49 61.8411 142.49H78.1588C79.1853 142.49 80 141.657 80 140.648V131.695C79.9565 131.728 79.9121 131.76 79.8665 131.79L71.6714 137.254Z" fill="#5F5F82"></path>
<path d="M60.7832 130.815L68.9786 136.279C69.2889 136.485 69.6444 136.589 70 136.589C70.3555 136.589 70.7111 136.485 71.0214 136.279L79.2168 130.815C79.7072 130.488 80 129.941 80 129.351C80 128.336 79.1743 127.51 78.1595 127.51H61.8405C60.8257 127.51 60 128.336 60 129.352C60 129.941 60.2928 130.488 60.7832 130.815Z" fill="#5F5F82"></path>
</g>
<path d="M92.688 131.032V134.76H96.752V135.96H92.688V139.8H97.232V141H91.232V129.832H97.232V131.032H92.688ZM105.515 134.52V135.752H99.1311V134.52H105.515ZM118.792 132.072C119.474 132.072 120.082 132.216 120.616 132.504C121.149 132.781 121.57 133.203 121.88 133.768C122.189 134.333 122.344 135.021 122.344 135.832V141H120.904V136.04C120.904 135.165 120.685 134.499 120.248 134.04C119.821 133.571 119.24 133.336 118.504 133.336C117.746 133.336 117.144 133.581 116.696 134.072C116.248 134.552 116.024 135.251 116.024 136.168V141H114.584V136.04C114.584 135.165 114.365 134.499 113.928 134.04C113.501 133.571 112.92 133.336 112.184 133.336C111.426 133.336 110.824 133.581 110.376 134.072C109.928 134.552 109.704 135.251 109.704 136.168V141H108.248V132.232H109.704V133.496C109.992 133.037 110.376 132.685 110.856 132.44C111.346 132.195 111.885 132.072 112.472 132.072C113.208 132.072 113.858 132.237 114.424 132.568C114.989 132.899 115.41 133.384 115.688 134.024C115.933 133.405 116.338 132.925 116.904 132.584C117.469 132.243 118.098 132.072 118.792 132.072ZM124.188 136.584C124.188 135.688 124.369 134.904 124.732 134.232C125.095 133.549 125.591 133.021 126.22 132.648C126.86 132.275 127.569 132.088 128.348 132.088C129.116 132.088 129.783 132.253 130.348 132.584C130.913 132.915 131.335 133.331 131.612 133.832V132.232H133.084V141H131.612V139.368C131.324 139.88 130.892 140.307 130.316 140.648C129.751 140.979 129.089 141.144 128.332 141.144C127.553 141.144 126.849 140.952 126.22 140.568C125.591 140.184 125.095 139.645 124.732 138.952C124.369 138.259 124.188 137.469 124.188 136.584ZM131.612 136.6C131.612 135.939 131.479 135.363 131.212 134.872C130.945 134.381 130.583 134.008 130.124 133.752C129.676 133.485 129.18 133.352 128.636 133.352C128.092 133.352 127.596 133.48 127.148 133.736C126.7 133.992 126.343 134.365 126.076 134.856C125.809 135.347 125.676 135.923 125.676 136.584C125.676 137.256 125.809 137.843 126.076 138.344C126.343 138.835 126.7 139.213 127.148 139.48C127.596 139.736 128.092 139.864 128.636 139.864C129.18 139.864 129.676 139.736 130.124 139.48C130.583 139.213 130.945 138.835 131.212 138.344C131.479 137.843 131.612 137.261 131.612 136.6ZM136.297 130.808C136.019 130.808 135.785 130.712 135.593 130.52C135.401 130.328 135.305 130.093 135.305 129.816C135.305 129.539 135.401 129.304 135.593 129.112C135.785 128.92 136.019 128.824 136.297 128.824C136.563 128.824 136.787 128.92 136.969 129.112C137.161 129.304 137.257 129.539 137.257 129.816C137.257 130.093 137.161 130.328 136.969 130.52C136.787 130.712 136.563 130.808 136.297 130.808ZM137.001 132.232V141H135.545V132.232H137.001ZM140.938 129.16V141H139.482V129.16H140.938ZM147.141 136.584C147.141 135.688 147.322 134.904 147.685 134.232C148.048 133.549 148.544 133.021 149.173 132.648C149.813 132.275 150.522 132.088 151.301 132.088C152.069 132.088 152.736 132.253 153.301 132.584C153.866 132.915 154.288 133.331 154.565 133.832V132.232H156.037V141H154.565V139.368C154.277 139.88 153.845 140.307 153.269 140.648C152.704 140.979 152.042 141.144 151.285 141.144C150.506 141.144 149.802 140.952 149.173 140.568C148.544 140.184 148.048 139.645 147.685 138.952C147.322 138.259 147.141 137.469 147.141 136.584ZM154.565 136.6C154.565 135.939 154.432 135.363 154.165 134.872C153.898 134.381 153.536 134.008 153.077 133.752C152.629 133.485 152.133 133.352 151.589 133.352C151.045 133.352 150.549 133.48 150.101 133.736C149.653 133.992 149.296 134.365 149.029 134.856C148.762 135.347 148.629 135.923 148.629 136.584C148.629 137.256 148.762 137.843 149.029 138.344C149.296 138.835 149.653 139.213 150.101 139.48C150.549 139.736 151.045 139.864 151.589 139.864C152.133 139.864 152.629 139.736 153.077 139.48C153.536 139.213 153.898 138.835 154.165 138.344C154.432 137.843 154.565 137.261 154.565 136.6ZM157.954 136.584C157.954 135.688 158.135 134.904 158.498 134.232C158.86 133.549 159.356 133.021 159.986 132.648C160.626 132.275 161.34 132.088 162.13 132.088C162.812 132.088 163.447 132.248 164.034 132.568C164.62 132.877 165.068 133.288 165.378 133.8V129.16H166.85V141H165.378V139.352C165.09 139.875 164.663 140.307 164.098 140.648C163.532 140.979 162.871 141.144 162.114 141.144C161.335 141.144 160.626 140.952 159.986 140.568C159.356 140.184 158.86 139.645 158.498 138.952C158.135 138.259 157.954 137.469 157.954 136.584ZM165.378 136.6C165.378 135.939 165.244 135.363 164.978 134.872C164.711 134.381 164.348 134.008 163.89 133.752C163.442 133.485 162.946 133.352 162.402 133.352C161.858 133.352 161.362 133.48 160.914 133.736C160.466 133.992 160.108 134.365 159.842 134.856C159.575 135.347 159.442 135.923 159.442 136.584C159.442 137.256 159.575 137.843 159.842 138.344C160.108 138.835 160.466 139.213 160.914 139.48C161.362 139.736 161.858 139.864 162.402 139.864C162.946 139.864 163.442 139.736 163.89 139.48C164.348 139.213 164.711 138.835 164.978 138.344C165.244 137.843 165.378 137.261 165.378 136.6ZM168.766 136.584C168.766 135.688 168.947 134.904 169.31 134.232C169.673 133.549 170.169 133.021 170.798 132.648C171.438 132.275 172.153 132.088 172.942 132.088C173.625 132.088 174.259 132.248 174.846 132.568C175.433 132.877 175.881 133.288 176.19 133.8V129.16H177.662V141H176.19V139.352C175.902 139.875 175.475 140.307 174.91 140.648C174.345 140.979 173.683 141.144 172.926 141.144C172.147 141.144 171.438 140.952 170.798 140.568C170.169 140.184 169.673 139.645 169.31 138.952C168.947 138.259 168.766 137.469 168.766 136.584ZM176.19 136.6C176.19 135.939 176.057 135.363 175.79 134.872C175.523 134.381 175.161 134.008 174.702 133.752C174.254 133.485 173.758 133.352 173.214 133.352C172.67 133.352 172.174 133.48 171.726 133.736C171.278 133.992 170.921 134.365 170.654 134.856C170.387 135.347 170.254 135.923 170.254 136.584C170.254 137.256 170.387 137.843 170.654 138.344C170.921 138.835 171.278 139.213 171.726 139.48C172.174 139.736 172.67 139.864 173.214 139.864C173.758 139.864 174.254 139.736 174.702 139.48C175.161 139.213 175.523 138.835 175.79 138.344C176.057 137.843 176.19 137.261 176.19 136.6ZM181.579 133.656C181.835 133.155 182.197 132.765 182.667 132.488C183.147 132.211 183.728 132.072 184.411 132.072V133.576H184.027C182.395 133.576 181.579 134.461 181.579 136.232V141H180.123V132.232H181.579V133.656ZM194.091 136.28C194.091 136.557 194.075 136.851 194.043 137.16H187.035C187.089 138.024 187.382 138.701 187.915 139.192C188.459 139.672 189.115 139.912 189.883 139.912C190.513 139.912 191.035 139.768 191.451 139.48C191.878 139.181 192.177 138.787 192.347 138.296H193.915C193.681 139.139 193.211 139.827 192.507 140.36C191.803 140.883 190.929 141.144 189.883 141.144C189.051 141.144 188.305 140.957 187.643 140.584C186.993 140.211 186.481 139.683 186.107 139C185.734 138.307 185.547 137.507 185.547 136.6C185.547 135.693 185.729 134.899 186.091 134.216C186.454 133.533 186.961 133.011 187.611 132.648C188.273 132.275 189.03 132.088 189.883 132.088C190.715 132.088 191.451 132.269 192.091 132.632C192.731 132.995 193.222 133.496 193.563 134.136C193.915 134.765 194.091 135.48 194.091 136.28ZM192.587 135.976C192.587 135.421 192.465 134.947 192.219 134.552C191.974 134.147 191.638 133.843 191.211 133.64C190.795 133.427 190.331 133.32 189.819 133.32C189.083 133.32 188.454 133.555 187.931 134.024C187.419 134.493 187.126 135.144 187.051 135.976H192.587ZM199.117 141.144C198.445 141.144 197.843 141.032 197.309 140.808C196.776 140.573 196.355 140.253 196.045 139.848C195.736 139.432 195.565 138.957 195.533 138.424H197.037C197.08 138.861 197.283 139.219 197.645 139.496C198.019 139.773 198.504 139.912 199.101 139.912C199.656 139.912 200.093 139.789 200.413 139.544C200.733 139.299 200.893 138.989 200.893 138.616C200.893 138.232 200.723 137.949 200.381 137.768C200.04 137.576 199.512 137.389 198.797 137.208C198.147 137.037 197.613 136.867 197.197 136.696C196.792 136.515 196.44 136.253 196.141 135.912C195.853 135.56 195.709 135.101 195.709 134.536C195.709 134.088 195.843 133.677 196.109 133.304C196.376 132.931 196.755 132.637 197.245 132.424C197.736 132.2 198.296 132.088 198.925 132.088C199.896 132.088 200.68 132.333 201.277 132.824C201.875 133.315 202.195 133.987 202.237 134.84H200.781C200.749 134.381 200.563 134.013 200.221 133.736C199.891 133.459 199.443 133.32 198.877 133.32C198.355 133.32 197.939 133.432 197.629 133.656C197.32 133.88 197.165 134.173 197.165 134.536C197.165 134.824 197.256 135.064 197.437 135.256C197.629 135.437 197.864 135.587 198.141 135.704C198.429 135.811 198.824 135.933 199.325 136.072C199.955 136.243 200.467 136.413 200.861 136.584C201.256 136.744 201.592 136.989 201.869 137.32C202.157 137.651 202.307 138.083 202.317 138.616C202.317 139.096 202.184 139.528 201.917 139.912C201.651 140.296 201.272 140.6 200.781 140.824C200.301 141.037 199.747 141.144 199.117 141.144ZM207.477 141.144C206.805 141.144 206.202 141.032 205.669 140.808C205.135 140.573 204.714 140.253 204.405 139.848C204.095 139.432 203.925 138.957 203.893 138.424H205.397C205.439 138.861 205.642 139.219 206.005 139.496C206.378 139.773 206.863 139.912 207.461 139.912C208.015 139.912 208.453 139.789 208.773 139.544C209.093 139.299 209.253 138.989 209.253 138.616C209.253 138.232 209.082 137.949 208.741 137.768C208.399 137.576 207.871 137.389 207.157 137.208C206.506 137.037 205.973 136.867 205.557 136.696C205.151 136.515 204.799 136.253 204.501 135.912C204.213 135.56 204.069 135.101 204.069 134.536C204.069 134.088 204.202 133.677 204.469 133.304C204.735 132.931 205.114 132.637 205.605 132.424C206.095 132.2 206.655 132.088 207.285 132.088C208.255 132.088 209.039 132.333 209.637 132.824C210.234 133.315 210.554 133.987 210.597 134.84H209.141C209.109 134.381 208.922 134.013 208.581 133.736C208.25 133.459 207.802 133.32 207.237 133.32C206.714 133.32 206.298 133.432 205.989 133.656C205.679 133.88 205.525 134.173 205.525 134.536C205.525 134.824 205.615 135.064 205.797 135.256C205.989 135.437 206.223 135.587 206.501 135.704C206.789 135.811 207.183 135.933 207.685 136.072C208.314 136.243 208.826 136.413 209.221 136.584C209.615 136.744 209.951 136.989 210.229 137.32C210.517 137.651 210.666 138.083 210.677 138.616C210.677 139.096 210.543 139.528 210.277 139.912C210.01 140.296 209.631 140.6 209.141 140.824C208.661 141.037 208.106 141.144 207.477 141.144Z" fill="#5F5F82"></path>
<path d="M42.196 194.932H45.124V196H40.828V187.528H42.196V194.932ZM49.2192 189.304C49.8592 189.304 50.4352 189.44 50.9472 189.712C51.4592 189.984 51.8592 190.376 52.1472 190.888C52.4352 191.4 52.5792 192 52.5792 192.688C52.5792 193.384 52.4352 193.988 52.1472 194.5C51.8592 195.012 51.4592 195.404 50.9472 195.676C50.4352 195.948 49.8592 196.084 49.2192 196.084C48.5792 196.084 48.0032 195.948 47.4912 195.676C46.9872 195.404 46.5872 195.012 46.2912 194.5C46.0032 193.98 45.8592 193.376 45.8592 192.688C45.8592 192 46.0032 191.4 46.2912 190.888C46.5872 190.376 46.9872 189.984 47.4912 189.712C48.0032 189.44 48.5792 189.304 49.2192 189.304ZM49.2192 190.492C48.8672 190.492 48.5432 190.572 48.2472 190.732C47.9512 190.892 47.7112 191.14 47.5272 191.476C47.3512 191.804 47.2632 192.208 47.2632 192.688C47.2632 193.176 47.3512 193.584 47.5272 193.912C47.7112 194.24 47.9512 194.484 48.2472 194.644C48.5432 194.804 48.8672 194.884 49.2192 194.884C49.5712 194.884 49.8952 194.804 50.1912 194.644C50.4872 194.484 50.7232 194.24 50.8992 193.912C51.0832 193.584 51.1752 193.176 51.1752 192.688C51.1752 192.208 51.0832 191.804 50.8992 191.476C50.7232 191.14 50.4872 190.892 50.1912 190.732C49.8952 190.572 49.5712 190.492 49.2192 190.492ZM56.5464 189.304C57.1464 189.304 57.6584 189.452 58.0824 189.748C58.5064 190.044 58.8064 190.436 58.9824 190.924V189.388H60.3504V196H58.9824V194.464C58.8064 194.952 58.5064 195.344 58.0824 195.64C57.6584 195.936 57.1464 196.084 56.5464 196.084C55.9704 196.084 55.4544 195.948 54.9984 195.676C54.5504 195.404 54.1984 195.012 53.9424 194.5C53.6864 193.988 53.5584 193.384 53.5584 192.688C53.5584 192 53.6864 191.4 53.9424 190.888C54.1984 190.376 54.5504 189.984 54.9984 189.712C55.4544 189.44 55.9704 189.304 56.5464 189.304ZM56.9664 190.504C56.3584 190.504 55.8704 190.7 55.5024 191.092C55.1424 191.476 54.9624 192.008 54.9624 192.688C54.9624 193.368 55.1424 193.904 55.5024 194.296C55.8704 194.68 56.3584 194.872 56.9664 194.872C57.3504 194.872 57.6944 194.784 57.9984 194.608C58.3024 194.424 58.5424 194.168 58.7184 193.84C58.8944 193.512 58.9824 193.128 58.9824 192.688C58.9824 192.256 58.8944 191.876 58.7184 191.548C58.5424 191.212 58.3024 190.956 57.9984 190.78C57.6944 190.596 57.3504 190.504 56.9664 190.504ZM65.6881 189.28C66.4561 189.28 67.0721 189.528 67.5361 190.024C68.0001 190.52 68.2321 191.228 68.2321 192.148V196H66.8641V192.292C66.8641 191.7 66.7121 191.244 66.4081 190.924C66.1041 190.596 65.6881 190.432 65.1601 190.432C64.6161 190.432 64.1801 190.608 63.8521 190.96C63.5241 191.304 63.3601 191.812 63.3601 192.484V196H61.9921V189.388H63.3601V190.84C63.5361 190.344 63.8321 189.96 64.2481 189.688C64.6641 189.416 65.1441 189.28 65.6881 189.28ZM77.0964 196L74.9844 192.616H74.0124V196H72.6444V187.528H75.6324C76.6004 187.528 77.3324 187.764 77.8284 188.236C78.3324 188.708 78.5844 189.332 78.5844 190.108C78.5844 190.772 78.3964 191.316 78.0204 191.74C77.6524 192.164 77.1164 192.436 76.4124 192.556L78.6324 196H77.0964ZM74.0124 191.644H75.5244C76.6284 191.644 77.1804 191.156 77.1804 190.18C77.1804 189.716 77.0444 189.356 76.7724 189.1C76.5084 188.836 76.0924 188.704 75.5244 188.704H74.0124V191.644ZM82.4683 189.304C83.0683 189.304 83.5803 189.452 84.0043 189.748C84.4283 190.044 84.7283 190.436 84.9043 190.924V189.388H86.2723V196H84.9043V194.464C84.7283 194.952 84.4283 195.344 84.0043 195.64C83.5803 195.936 83.0683 196.084 82.4683 196.084C81.8923 196.084 81.3763 195.948 80.9203 195.676C80.4723 195.404 80.1203 195.012 79.8643 194.5C79.6083 193.988 79.4803 193.384 79.4803 192.688C79.4803 192 79.6083 191.4 79.8643 190.888C80.1203 190.376 80.4723 189.984 80.9203 189.712C81.3763 189.44 81.8923 189.304 82.4683 189.304ZM82.8883 190.504C82.2803 190.504 81.7923 190.7 81.4243 191.092C81.0643 191.476 80.8843 192.008 80.8843 192.688C80.8843 193.368 81.0643 193.904 81.4243 194.296C81.7923 194.68 82.2803 194.872 82.8883 194.872C83.2723 194.872 83.6163 194.784 83.9203 194.608C84.2243 194.424 84.4643 194.168 84.6403 193.84C84.8163 193.512 84.9043 193.128 84.9043 192.688C84.9043 192.256 84.8163 191.876 84.6403 191.548C84.4643 191.212 84.2243 190.956 83.9203 190.78C83.6163 190.596 83.2723 190.504 82.8883 190.504ZM91.6099 189.28C92.3779 189.28 92.9939 189.528 93.4579 190.024C93.9219 190.52 94.1539 191.228 94.1539 192.148V196H92.7859V192.292C92.7859 191.7 92.6339 191.244 92.3299 190.924C92.0259 190.596 91.6099 190.432 91.0819 190.432C90.5379 190.432 90.1019 190.608 89.7739 190.96C89.4459 191.304 89.2819 191.812 89.2819 192.484V196H87.9139V189.388H89.2819V190.84C89.4579 190.344 89.7539 189.96 90.1699 189.688C90.5859 189.416 91.0659 189.28 91.6099 189.28ZM98.4058 189.304C99.0058 189.304 99.5178 189.452 99.9418 189.748C100.366 190.044 100.666 190.436 100.842 190.924V189.388H102.21V196.072C102.21 196.688 102.082 197.232 101.826 197.704C101.578 198.184 101.218 198.56 100.746 198.832C100.274 199.104 99.7138 199.24 99.0658 199.24C98.1378 199.24 97.3858 199.02 96.8098 198.58C96.2418 198.14 95.8858 197.544 95.7418 196.792H97.0978C97.2098 197.184 97.4258 197.488 97.7458 197.704C98.0658 197.928 98.4738 198.04 98.9698 198.04C99.5138 198.04 99.9618 197.872 100.314 197.536C100.666 197.2 100.842 196.712 100.842 196.072V194.464C100.666 194.952 100.366 195.344 99.9418 195.64C99.5178 195.936 99.0058 196.084 98.4058 196.084C97.8298 196.084 97.3138 195.948 96.8578 195.676C96.4098 195.404 96.0578 195.012 95.8018 194.5C95.5458 193.988 95.4178 193.384 95.4178 192.688C95.4178 192 95.5458 191.4 95.8018 190.888C96.0578 190.376 96.4098 189.984 96.8578 189.712C97.3138 189.44 97.8298 189.304 98.4058 189.304ZM98.8258 190.504C98.2178 190.504 97.7298 190.7 97.3618 191.092C97.0018 191.476 96.8218 192.008 96.8218 192.688C96.8218 193.368 97.0018 193.904 97.3618 194.296C97.7298 194.68 98.2178 194.872 98.8258 194.872C99.2098 194.872 99.5538 194.784 99.8578 194.608C100.162 194.424 100.402 194.168 100.578 193.84C100.754 193.512 100.842 193.128 100.842 192.688C100.842 192.256 100.754 191.876 100.578 191.548C100.402 191.212 100.162 190.956 99.8578 190.78C99.5538 190.596 99.2098 190.504 98.8258 190.504ZM109.995 192.376C109.995 192.6 109.979 192.796 109.947 192.964H104.859C104.883 193.644 105.071 194.148 105.423 194.476C105.775 194.804 106.211 194.968 106.731 194.968C107.187 194.968 107.571 194.852 107.883 194.62C108.203 194.388 108.399 194.08 108.471 193.696H109.935C109.847 194.16 109.663 194.572 109.383 194.932C109.103 195.292 108.739 195.576 108.291 195.784C107.843 195.984 107.343 196.084 106.791 196.084C106.151 196.084 105.583 195.948 105.087 195.676C104.599 195.404 104.215 195.012 103.935 194.5C103.655 193.988 103.515 193.384 103.515 192.688C103.515 192 103.655 191.4 103.935 190.888C104.215 190.376 104.599 189.984 105.087 189.712C105.583 189.44 106.151 189.304 106.791 189.304C107.439 189.304 108.003 189.44 108.483 189.712C108.971 189.976 109.343 190.344 109.599 190.816C109.863 191.28 109.995 191.8 109.995 192.376ZM108.615 192.34C108.631 191.908 108.555 191.548 108.387 191.26C108.227 190.964 108.003 190.748 107.715 190.612C107.435 190.468 107.127 190.396 106.791 190.396C106.255 190.396 105.807 190.56 105.447 190.888C105.087 191.216 104.891 191.7 104.859 192.34H108.615ZM112.588 189.4V190.912H111.04V189.4H112.588ZM112.588 194.488V196H111.04V194.488H112.588Z" fill="black"></path>
<rect x="40" y="218" width="288" height="6" rx="3" fill="#E7FAF0"></rect>
<circle cx="43" cy="221" r="3" fill="#0FC15D"></circle>
<circle cx="113.5" cy="221" r="3" fill="#0FC15D" fill-opacity="0.3"></circle>
<circle cx="184" cy="221" r="3" fill="#0FC15D" fill-opacity="0.3"></circle>
<circle cx="254.5" cy="221" r="3" fill="#0FC15D" fill-opacity="0.3"></circle>
<circle cx="325" cy="221" r="3" fill="#0FC15D" fill-opacity="0.3"></circle>
<rect x="42" y="218" width="65" height="6" fill="#0FC15D"></rect>
<g filter="url('#filter0_d_499_3318')">
<circle cx="116" cy="221" r="12" fill="#0FC15D"></circle>
</g>
<path d="M87.886 246.302C88.5487 246.507 89.09 246.708 89.51 246.904C89.93 247.1 90.2847 247.394 90.574 247.786C90.8727 248.169 91.022 248.673 91.022 249.298C91.022 249.802 90.8913 250.269 90.63 250.698C90.3687 251.118 89.9767 251.459 89.454 251.72C88.9313 251.972 88.2967 252.098 87.55 252.098H87.536V253.218H87.004V252.07C86.0333 251.986 85.24 251.687 84.624 251.174C84.0173 250.651 83.6813 249.975 83.616 249.144H85.716C85.7533 249.48 85.884 249.779 86.108 250.04C86.332 250.292 86.6307 250.455 87.004 250.53V247.786L86.724 247.702C86.052 247.506 85.506 247.315 85.086 247.128C84.6753 246.932 84.3207 246.643 84.022 246.26C83.7327 245.868 83.588 245.355 83.588 244.72C83.588 244.169 83.7327 243.689 84.022 243.278C84.3207 242.867 84.7267 242.55 85.24 242.326C85.7627 242.102 86.3507 241.985 87.004 241.976V240.8H87.536V241.99C88.5067 242.055 89.2767 242.34 89.846 242.844C90.4247 243.339 90.7513 243.973 90.826 244.748H88.698C88.6513 244.44 88.5253 244.179 88.32 243.964C88.124 243.74 87.8627 243.595 87.536 243.53V246.19L87.886 246.302ZM85.702 244.636C85.702 244.972 85.814 245.247 86.038 245.462C86.262 245.667 86.584 245.849 87.004 246.008V243.488C86.5933 243.507 86.2713 243.614 86.038 243.81C85.814 244.006 85.702 244.281 85.702 244.636ZM87.536 250.586C87.9653 250.577 88.3013 250.46 88.544 250.236C88.7867 250.003 88.908 249.704 88.908 249.34C88.908 248.995 88.7867 248.719 88.544 248.514C88.3107 248.299 87.9747 248.117 87.536 247.968V250.586ZM92.1039 250.446C95.2679 248.253 96.8499 246.433 96.8499 244.986C96.8499 244.547 96.7426 244.202 96.5279 243.95C96.3226 243.698 95.9959 243.572 95.5479 243.572C94.6239 243.572 94.1339 244.202 94.0779 245.462H92.1599C92.2159 244.295 92.5706 243.413 93.2239 242.816C93.8773 242.209 94.7033 241.906 95.7019 241.906C96.7193 241.906 97.4986 242.172 98.0399 242.704C98.5906 243.227 98.8659 243.927 98.8659 244.804C98.8659 245.495 98.6606 246.19 98.2499 246.89C97.8486 247.581 97.3353 248.22 96.7099 248.808C96.0846 249.387 95.4266 249.886 94.7359 250.306H99.0619V251.916H92.1039V250.446ZM100.174 246.974C100.174 250.325 101.434 252 103.954 252C105.288 252 106.25 251.552 106.838 250.656C107.426 249.76 107.72 248.533 107.72 246.974C107.72 245.425 107.426 244.202 106.838 243.306C106.25 242.41 105.288 241.962 103.954 241.962C101.434 241.962 100.174 243.633 100.174 246.974ZM105.774 246.974C105.774 247.991 105.648 248.775 105.396 249.326C105.153 249.867 104.672 250.138 103.954 250.138C103.226 250.138 102.736 249.867 102.484 249.326C102.241 248.775 102.12 247.991 102.12 246.974C102.12 245.966 102.241 245.191 102.484 244.65C102.736 244.099 103.226 243.824 103.954 243.824C104.672 243.824 105.153 244.099 105.396 244.65C105.648 245.191 105.774 245.966 105.774 246.974ZM109.019 246.974C109.019 250.325 110.279 252 112.799 252C114.134 252 115.095 251.552 115.683 250.656C116.271 249.76 116.565 248.533 116.565 246.974C116.565 245.425 116.271 244.202 115.683 243.306C115.095 242.41 114.134 241.962 112.799 241.962C110.279 241.962 109.019 243.633 109.019 246.974ZM114.619 246.974C114.619 247.991 114.493 248.775 114.241 249.326C113.999 249.867 113.518 250.138 112.799 250.138C112.071 250.138 111.581 249.867 111.329 249.326C111.087 248.775 110.965 247.991 110.965 246.974C110.965 245.966 111.087 245.191 111.329 244.65C111.581 244.099 112.071 243.824 112.799 243.824C113.518 243.824 113.999 244.099 114.241 244.65C114.493 245.191 114.619 245.966 114.619 246.974ZM123.129 246.19V247.828H117.179V246.19H123.129ZM132.263 243.656H127.573V246.148C127.788 245.896 128.082 245.695 128.455 245.546C128.838 245.387 129.258 245.308 129.715 245.308C130.396 245.308 130.961 245.457 131.409 245.756C131.866 246.045 132.202 246.437 132.417 246.932C132.641 247.417 132.753 247.959 132.753 248.556C132.753 249.611 132.454 250.455 131.857 251.09C131.269 251.725 130.424 252.042 129.323 252.042C128.604 252.042 127.979 251.916 127.447 251.664C126.915 251.403 126.5 251.043 126.201 250.586C125.902 250.119 125.739 249.578 125.711 248.962H127.629C127.704 249.382 127.876 249.718 128.147 249.97C128.418 250.213 128.777 250.334 129.225 250.334C129.766 250.334 130.168 250.171 130.429 249.844C130.7 249.508 130.835 249.065 130.835 248.514C130.835 247.991 130.695 247.585 130.415 247.296C130.135 247.007 129.738 246.862 129.225 246.862C128.852 246.862 128.534 246.946 128.273 247.114C128.012 247.273 127.82 247.487 127.699 247.758H125.781V241.92H132.263V243.656ZM134.053 246.974C134.053 250.325 135.313 252 137.833 252C139.167 252 140.129 251.552 140.717 250.656C141.305 249.76 141.599 248.533 141.599 246.974C141.599 245.425 141.305 244.202 140.717 243.306C140.129 242.41 139.167 241.962 137.833 241.962C135.313 241.962 134.053 243.633 134.053 246.974ZM139.653 246.974C139.653 247.991 139.527 248.775 139.275 249.326C139.032 249.867 138.551 250.138 137.833 250.138C137.105 250.138 136.615 249.867 136.363 249.326C136.12 248.775 135.999 247.991 135.999 246.974C135.999 245.966 136.12 245.191 136.363 244.65C136.615 244.099 137.105 243.824 137.833 243.824C138.551 243.824 139.032 244.099 139.275 244.65C139.527 245.191 139.653 245.966 139.653 246.974ZM142.898 246.974C142.898 250.325 144.158 252 146.678 252C148.013 252 148.974 251.552 149.562 250.656C150.15 249.76 150.444 248.533 150.444 246.974C150.444 245.425 150.15 244.202 149.562 243.306C148.974 242.41 148.013 241.962 146.678 241.962C144.158 241.962 142.898 243.633 142.898 246.974ZM148.498 246.974C148.498 247.991 148.372 248.775 148.12 249.326C147.878 249.867 147.397 250.138 146.678 250.138C145.95 250.138 145.46 249.867 145.208 249.326C144.966 248.775 144.844 247.991 144.844 246.974C144.844 245.966 144.966 245.191 145.208 244.65C145.46 244.099 145.95 243.824 146.678 243.824C147.397 243.824 147.878 244.099 148.12 244.65C148.372 245.191 148.498 245.966 148.498 246.974Z" fill="black"></path>
<rect x="40" y="283" width="320" height="60" rx="30" fill="#FFD62C"></rect>
<path d="M162.032 307.704V309.496H157.28V312.52H161.088V314.248H157.28V319H155.024V307.704H162.032ZM163.299 307.592C163.299 307.229 163.427 306.936 163.683 306.712C163.939 306.477 164.275 306.36 164.691 306.36C165.107 306.36 165.443 306.477 165.699 306.712C165.955 306.936 166.083 307.229 166.083 307.592C166.083 307.944 165.955 308.237 165.699 308.472C165.443 308.696 165.107 308.808 164.691 308.808C164.275 308.808 163.939 308.696 163.683 308.472C163.427 308.237 163.299 307.944 163.299 307.592ZM165.811 310.136V319H163.555V310.136H165.811ZM173.132 310.008C174.156 310.008 174.972 310.344 175.58 311.016C176.188 311.688 176.492 312.632 176.492 313.848V319H174.252V314.104C174.252 313.4 174.071 312.856 173.708 312.472C173.345 312.077 172.849 311.88 172.22 311.88C171.58 311.88 171.068 312.088 170.684 312.504C170.3 312.92 170.108 313.517 170.108 314.296V319H167.852V310.136H170.108V311.912C170.343 311.315 170.727 310.851 171.26 310.52C171.804 310.179 172.428 310.008 173.132 310.008ZM181.949 310.024C182.696 310.024 183.33 310.2 183.853 310.552C184.386 310.904 184.77 311.379 185.005 311.976V307.16H187.245V319H185.005V317.144C184.77 317.741 184.386 318.221 183.853 318.584C183.33 318.936 182.696 319.112 181.949 319.112C181.202 319.112 180.53 318.931 179.933 318.568C179.336 318.205 178.866 317.683 178.525 317C178.194 316.307 178.029 315.496 178.029 314.568C178.029 313.64 178.194 312.835 178.525 312.152C178.866 311.459 179.336 310.931 179.933 310.568C180.53 310.205 181.202 310.024 181.949 310.024ZM182.653 311.992C181.949 311.992 181.384 312.221 180.957 312.68C180.53 313.139 180.317 313.768 180.317 314.568C180.317 315.368 180.53 315.997 180.957 316.456C181.384 316.904 181.949 317.128 182.653 317.128C183.336 317.128 183.896 316.899 184.333 316.44C184.781 315.971 185.005 315.347 185.005 314.568C185.005 313.779 184.781 313.155 184.333 312.696C183.896 312.227 183.336 311.992 182.653 311.992ZM196.246 310.024C196.993 310.024 197.633 310.2 198.166 310.552C198.699 310.904 199.078 311.379 199.302 311.976V310.136H201.542V319H199.302V317.144C199.078 317.741 198.699 318.221 198.166 318.584C197.633 318.936 196.993 319.112 196.246 319.112C195.499 319.112 194.827 318.931 194.23 318.568C193.633 318.205 193.163 317.683 192.822 317C192.491 316.307 192.326 315.496 192.326 314.568C192.326 313.64 192.491 312.835 192.822 312.152C193.163 311.459 193.633 310.931 194.23 310.568C194.827 310.205 195.499 310.024 196.246 310.024ZM196.95 311.992C196.246 311.992 195.681 312.221 195.254 312.68C194.827 313.139 194.614 313.768 194.614 314.568C194.614 315.368 194.827 315.997 195.254 316.456C195.681 316.904 196.246 317.128 196.95 317.128C197.633 317.128 198.193 316.899 198.63 316.44C199.078 315.971 199.302 315.347 199.302 314.568C199.302 313.779 199.078 313.155 198.63 312.696C198.193 312.227 197.633 311.992 196.95 311.992ZM209.327 317.272H213.119V319H207.071V307.704H209.327V317.272ZM218.558 310.024C219.422 310.024 220.195 310.205 220.878 310.568C221.571 310.931 222.115 311.459 222.51 312.152C222.904 312.835 223.102 313.64 223.102 314.568C223.102 315.496 222.904 316.301 222.51 316.984C222.115 317.667 221.571 318.195 220.878 318.568C220.195 318.931 219.422 319.112 218.558 319.112C217.694 319.112 216.915 318.931 216.222 318.568C215.539 318.195 215 317.667 214.606 316.984C214.211 316.301 214.014 315.496 214.014 314.568C214.014 313.64 214.211 312.835 214.606 312.152C215 311.459 215.539 310.931 216.222 310.568C216.915 310.205 217.694 310.024 218.558 310.024ZM218.558 311.976C217.928 311.976 217.395 312.2 216.958 312.648C216.52 313.085 216.302 313.725 216.302 314.568C216.302 315.411 216.52 316.056 216.958 316.504C217.395 316.941 217.928 317.16 218.558 317.16C219.187 317.16 219.72 316.941 220.158 316.504C220.595 316.056 220.814 315.411 220.814 314.568C220.814 313.725 220.595 313.085 220.158 312.648C219.72 312.2 219.187 311.976 218.558 311.976ZM228.168 310.024C228.915 310.024 229.555 310.2 230.088 310.552C230.621 310.904 231 311.379 231.224 311.976V310.136H233.464V319H231.224V317.144C231 317.741 230.621 318.221 230.088 318.584C229.555 318.936 228.915 319.112 228.168 319.112C227.421 319.112 226.749 318.931 226.152 318.568C225.555 318.205 225.085 317.683 224.744 317C224.413 316.307 224.248 315.496 224.248 314.568C224.248 313.64 224.413 312.835 224.744 312.152C225.085 311.459 225.555 310.931 226.152 310.568C226.749 310.205 227.421 310.024 228.168 310.024ZM228.872 311.992C228.168 311.992 227.603 312.221 227.176 312.68C226.749 313.139 226.536 313.768 226.536 314.568C226.536 315.368 226.749 315.997 227.176 316.456C227.603 316.904 228.168 317.128 228.872 317.128C229.555 317.128 230.115 316.899 230.552 316.44C231 315.971 231.224 315.347 231.224 314.568C231.224 313.779 231 313.155 230.552 312.696C230.115 312.227 229.555 311.992 228.872 311.992ZM240.788 310.008C241.812 310.008 242.628 310.344 243.236 311.016C243.844 311.688 244.148 312.632 244.148 313.848V319H241.908V314.104C241.908 313.4 241.727 312.856 241.364 312.472C241.002 312.077 240.506 311.88 239.876 311.88C239.236 311.88 238.724 312.088 238.34 312.504C237.956 312.92 237.764 313.517 237.764 314.296V319H235.508V310.136H237.764V311.912C237.999 311.315 238.383 310.851 238.916 310.52C239.46 310.179 240.084 310.008 240.788 310.008Z" fill="black"></path>
<defs>
<filter id="filter0_d_499_3318" x="98" y="205" width="36" height="36" filterUnits="userSpaceOnUse" color-interpolation-filters="sRGB">
<feFlood flood-opacity="0" result="BackgroundImageFix"></feFlood>
<feColorMatrix in="SourceAlpha" type="matrix" values="0 0 0 0 0 0 0 0 0 0 0 0 0 0 0 0 0 0 127 0" result="hardAlpha"></feColorMatrix>
<feOffset dy="2"></feOffset>
<feGaussianBlur stdDeviation="3"></feGaussianBlur>
<feComposite in2="hardAlpha" operator="out"></feComposite>
<feColorMatrix type="matrix" values="0 0 0 0 0 0 0 0 0 0 0 0 0 0 0 0 0 0 0.25 0"></feColorMatrix>
<feBlend mode="normal" in2="BackgroundImageFix" result="effect1_dropShadow_499_3318"></feBlend>
<feBlend mode="normal" in="SourceGraphic" in2="effect1_dropShadow_499_3318" result="shape"></feBlend>
</filter>
<clipPath id="clip0_499_3318">
<rect width="20" height="20" fill="white" transform="translate(60 125)"></rect>
</clipPath>
</defs>
</svg>
