<svg width="1180" height="380" viewBox="0 0 1180 380" fill="none" xmlns="http://www.w3.org/2000/svg">
<g clip-path="url('#clip0_499_4412')">
<path d="M1157.35 238.66L1191.34 263.279C1191.34 263.279 1185.34 317.097 1119.2 312.851L1096.65 279.023C1096.65 279.023 1138.81 281.303 1157.33 238.656" fill="#58D841"></path>
<path d="M1096.66 279.029L1119.22 312.855C1185.35 317.103 1191.35 263.284 1191.35 263.284L1157.36 238.664C1141.78 274.531 1109.48 278.617 1099.6 279.018C1097.73 279.09 1096.66 279.033 1096.66 279.033" fill="#58D841"></path>
<path d="M1096.66 279.029L1119.22 312.855C1185.35 317.103 1191.35 263.283 1191.35 263.283C1191.35 263.283 1178.16 297.442 1140.61 299.524C1117.66 300.8 1105.38 288.063 1099.6 279.008C1097.73 279.079 1096.66 279.023 1096.66 279.023" fill="#46B72E"></path>
<path d="M1113.76 293.913L1119.63 302.508C1119.63 302.508 1123.47 301.914 1125.78 303.532C1127.73 304.901 1128.39 305.907 1129.27 307.223C1153.43 306.51 1167.18 296.593 1174.95 286.348C1167 293.297 1155.79 299.381 1140.6 300.23C1129.18 300.865 1120.41 298.034 1113.76 293.913" fill="#459E30"></path>
<path d="M1129.27 307.223C1164.61 306.186 1177.66 285.447 1182.35 272.803C1181.02 271.993 1179.38 270.762 1178.74 268.538C1177.93 265.715 1178.98 263.106 1178.98 263.106L1163.47 251.876C1163.47 251.876 1161.89 254.617 1159.51 255.489C1157.39 256.267 1155.69 256.137 1154.16 255.885C1141.69 273.328 1127.78 279.269 1113.52 282.597C1114.11 283.692 1114.25 285 1113.39 286.184C1112.33 287.65 1109.86 288.19 1109.86 288.19L1119.63 302.517C1119.63 302.517 1123.48 301.923 1125.78 303.543C1127.72 304.908 1128.4 305.929 1129.27 307.231" fill="#4BB236"></path>
<path d="M1113.76 293.913L1119.63 302.508C1119.63 302.508 1123.47 301.914 1125.78 303.532C1127.73 304.901 1128.39 305.907 1129.27 307.223C1153.43 306.51 1167.18 296.593 1174.95 286.348C1167 293.297 1155.79 299.381 1140.6 300.23C1129.18 300.865 1120.41 298.034 1113.76 293.913" fill="#459E30"></path>
<path d="M1126.39 315.751C1124.03 315.751 1121.58 315.671 1119.05 315.511C1118.64 315.485 1118.24 315.364 1117.89 315.16C1117.53 314.955 1117.23 314.672 1117 314.332L1094.45 280.504C1094.17 280.093 1094.02 279.614 1094 279.121C1093.98 278.628 1094.1 278.139 1094.35 277.71C1094.59 277.278 1094.95 276.923 1095.38 276.686C1095.82 276.449 1096.31 276.34 1096.8 276.371C1098.45 276.455 1137.37 277.977 1154.91 237.599C1155.07 237.234 1155.31 236.91 1155.61 236.649C1155.91 236.389 1156.27 236.199 1156.65 236.094C1157.04 235.989 1157.44 235.972 1157.83 236.043C1158.22 236.115 1158.59 236.273 1158.91 236.507L1192.9 261.126C1193.28 261.402 1193.58 261.775 1193.77 262.205C1193.96 262.635 1194.04 263.108 1193.98 263.575C1193.92 264.154 1192.29 277.908 1182.2 291.263C1173.56 302.694 1156.99 315.749 1126.39 315.751ZM1120.69 310.276C1146.4 311.646 1165.61 304.23 1177.81 288.249C1185.25 278.483 1187.74 268.24 1188.45 264.482L1158.41 242.722C1142.79 275.047 1113.27 280.623 1101.52 281.534L1120.69 310.276Z" fill="#000072"></path>
<path d="M1160.92 265.298C1160.92 266.397 1161.24 267.472 1161.85 268.385C1162.46 269.299 1163.33 270.011 1164.35 270.432C1165.36 270.853 1166.48 270.963 1167.56 270.748C1168.64 270.534 1169.63 270.005 1170.4 269.227C1171.18 268.45 1171.71 267.46 1171.92 266.382C1172.14 265.304 1172.03 264.187 1171.61 263.172C1171.19 262.157 1170.48 261.289 1169.56 260.678C1168.65 260.068 1167.57 259.742 1166.47 259.742C1165.74 259.741 1165.02 259.885 1164.35 260.164C1163.67 260.443 1163.06 260.853 1162.54 261.369C1162.03 261.885 1161.62 262.497 1161.34 263.172C1161.06 263.846 1160.92 264.569 1160.92 265.298" fill="#2E8E1A"></path>
<path d="M1117.39 290.987C1116.94 292.892 1119.14 295.146 1122.3 296.021C1125.47 296.896 1128.4 296.06 1128.85 294.153C1129.3 292.246 1127.1 289.994 1123.94 289.119C1120.78 288.244 1117.85 289.08 1117.39 290.987Z" fill="#2E8E1A"></path>
<path d="M1129.27 308.996C1128.98 308.996 1128.69 308.925 1128.43 308.787C1128.17 308.65 1127.95 308.451 1127.79 308.208L1127.77 308.171C1126.95 306.953 1126.42 306.148 1124.76 304.986C1123.37 304.003 1120.78 304.122 1119.9 304.262C1119.57 304.31 1119.23 304.265 1118.92 304.132C1118.62 303.999 1118.36 303.783 1118.17 303.508L1108.39 289.182C1108.23 288.942 1108.13 288.667 1108.1 288.378C1108.06 288.09 1108.1 287.799 1108.21 287.529C1108.31 287.259 1108.49 287.02 1108.71 286.832C1108.93 286.644 1109.19 286.513 1109.47 286.45C1110.06 286.316 1111.46 285.817 1111.95 285.135C1112.09 284.936 1112.48 284.407 1111.95 283.426C1111.82 283.187 1111.75 282.92 1111.74 282.648C1111.73 282.376 1111.78 282.105 1111.9 281.857C1112.01 281.608 1112.18 281.389 1112.39 281.217C1112.6 281.044 1112.84 280.922 1113.11 280.861C1126.2 277.805 1140.06 272.535 1152.71 254.844C1152.9 254.575 1153.16 254.365 1153.47 254.238C1153.77 254.111 1154.11 254.072 1154.43 254.125C1155.98 254.375 1157.27 254.412 1158.9 253.816C1160.33 253.291 1161.57 251.59 1161.92 250.981C1162.05 250.766 1162.21 250.58 1162.42 250.435C1162.62 250.29 1162.85 250.188 1163.09 250.136C1163.33 250.085 1163.58 250.084 1163.82 250.135C1164.07 250.186 1164.3 250.287 1164.5 250.432L1180.01 261.662C1180.33 261.895 1180.57 262.227 1180.68 262.607C1180.79 262.988 1180.77 263.393 1180.62 263.761C1180.62 263.772 1179.82 265.869 1180.44 268.041C1180.9 269.665 1182.13 270.59 1183.26 271.281C1183.61 271.495 1183.88 271.825 1184.01 272.214C1184.15 272.603 1184.14 273.026 1184 273.412C1179.25 286.24 1165.83 307.918 1129.31 308.99L1129.27 308.996ZM1121.29 300.623C1122.87 300.623 1125.09 300.878 1126.8 302.083C1128.13 302.972 1129.28 304.103 1130.18 305.418C1162.7 304.107 1175.38 285.456 1180.19 273.479C1178.95 272.529 1177.64 271.138 1177.04 269.026C1176.58 267.324 1176.55 265.536 1176.94 263.817L1163.86 254.347C1163.02 255.349 1161.75 256.55 1160.12 257.155C1158.48 257.77 1156.71 257.986 1154.97 257.783C1142.38 274.946 1128.22 280.766 1115.75 283.884C1115.87 285.073 1115.54 286.264 1114.83 287.225C1114.23 287.997 1113.46 288.622 1112.59 289.052L1120.5 300.654C1120.74 300.632 1121.01 300.623 1121.29 300.623Z" fill="#000072"></path>
<path d="M1139 289.659C1142.28 294.095 1152.73 294.464 1157.13 288.695C1163.07 280.893 1157.77 275.267 1155.41 274.315C1149.54 271.954 1146.81 276.019 1143.61 277.975C1140.42 279.932 1135.31 284.67 1139 289.659" fill="#2E8E1A"></path>
<path d="M578.45 248.218L545.227 272.279C545.227 272.279 551.085 324.884 615.726 320.734L637.776 287.668C637.776 287.668 596.558 289.91 578.45 248.218Z" fill="#58D841"></path>
<path d="M621.05 302.23L615.32 310.633C615.32 310.633 611.561 310.054 609.305 311.634C607.409 312.972 606.752 313.966 605.898 315.241C582.28 314.545 568.841 304.853 561.247 294.837C569.026 301.631 579.975 307.577 594.819 308.406C605.98 309.027 614.555 306.26 621.052 302.231" fill="#459E30"></path>
<path d="M621.05 302.23L615.32 310.633C615.32 310.633 611.561 310.054 609.305 311.634C607.409 312.972 606.752 313.966 605.898 315.241C582.28 314.545 568.841 304.853 561.247 294.837C569.026 301.631 579.975 307.577 594.819 308.406C605.98 309.027 614.555 306.26 621.052 302.231" fill="#459E30"></path>
<path d="M637.772 287.682L615.726 320.745C551.085 324.906 545.227 272.292 545.227 272.292L578.448 248.23C593.672 283.286 625.246 287.288 634.903 287.67C636.73 287.738 637.772 287.684 637.772 287.684" fill="#58D841"></path>
<path d="M637.772 287.682L615.726 320.745C551.085 324.906 545.227 272.292 545.227 272.292C545.227 272.292 558.113 305.68 594.817 307.713C617.251 308.964 629.253 296.513 634.903 287.668C636.73 287.737 637.772 287.682 637.772 287.682" fill="#46B72E"></path>
<path d="M605.9 315.239C571.345 314.228 558.594 293.956 554.019 281.589C555.32 280.797 556.914 279.599 557.541 277.419C558.332 274.662 557.31 272.113 557.31 272.113L572.472 261.127C572.472 261.127 574.01 263.805 576.339 264.657C578.416 265.417 580.071 265.287 581.572 265.042C593.761 282.094 607.358 287.899 621.293 291.152C620.719 292.225 620.583 293.504 621.419 294.66C622.456 296.093 624.873 296.619 624.873 296.619L615.324 310.633C615.324 310.633 611.561 310.052 609.309 311.635C607.409 312.969 606.752 313.967 605.902 315.241" fill="#4BB236"></path>
<path d="M608.713 323.203C578.949 323.203 562.85 310.521 554.459 299.416C544.658 286.447 543.077 273.099 543.014 272.538C542.97 272.146 543.031 271.75 543.189 271.39C543.348 271.03 543.6 270.718 543.918 270.486L577.14 246.424C577.41 246.229 577.72 246.096 578.049 246.036C578.377 245.976 578.714 245.991 579.036 246.079C579.357 246.167 579.655 246.325 579.907 246.544C580.159 246.762 580.359 247.034 580.492 247.34C587.729 263.984 599.503 275.458 615.503 281.435C627.52 285.924 637.553 285.464 637.655 285.461C638.067 285.439 638.478 285.533 638.84 285.731C639.203 285.929 639.503 286.224 639.708 286.583C639.912 286.942 640.013 287.351 639.999 287.764C639.984 288.177 639.855 288.578 639.626 288.922L617.576 321.988C617.386 322.273 617.133 322.51 616.836 322.681C616.539 322.853 616.207 322.953 615.865 322.975C613.4 323.13 611.016 323.206 608.713 323.203ZM547.642 273.294C548.275 276.797 550.67 287.083 558.135 296.887C570.16 312.679 589.117 319.979 614.488 318.586L633.665 289.837C626.988 289.403 620.41 288.002 614.135 285.676C602.72 281.448 587.32 272.122 577.558 251.628L547.642 273.294Z" fill="#000072"></path>
<path d="M574.965 274.269C574.965 275.342 574.646 276.392 574.05 277.284C573.454 278.177 572.606 278.873 571.614 279.283C570.623 279.694 569.531 279.802 568.478 279.592C567.426 279.383 566.459 278.866 565.7 278.107C564.94 277.348 564.424 276.381 564.214 275.328C564.005 274.275 564.112 273.184 564.523 272.192C564.934 271.2 565.629 270.353 566.522 269.756C567.415 269.16 568.464 268.842 569.537 268.842C570.977 268.842 572.357 269.413 573.375 270.431C574.393 271.449 574.965 272.83 574.965 274.269Z" fill="#2E8E1A"></path>
<path d="M617.505 299.37C617.947 301.233 615.797 303.437 612.705 304.29C609.614 305.144 606.75 304.328 606.306 302.465C605.863 300.602 608.012 298.4 611.106 297.544C614.2 296.688 617.064 297.506 617.505 299.37Z" fill="#2E8E1A"></path>
<path d="M605.893 316.726H605.857C570.305 315.686 557.245 294.593 552.626 282.114C552.506 281.791 552.502 281.436 552.615 281.111C552.728 280.785 552.951 280.509 553.244 280.33C554.393 279.63 555.633 278.687 556.112 277.019C556.745 274.812 555.931 272.69 555.931 272.668C555.811 272.361 555.796 272.023 555.888 271.706C555.98 271.39 556.175 271.113 556.441 270.919L571.604 259.933C571.773 259.811 571.965 259.726 572.169 259.683C572.373 259.64 572.583 259.64 572.787 259.684C572.991 259.727 573.183 259.813 573.351 259.936C573.52 260.059 573.66 260.216 573.764 260.397C574.126 261.01 575.378 262.73 576.854 263.271C578.495 263.874 579.787 263.838 581.337 263.584C581.611 263.54 581.891 263.572 582.147 263.679C582.403 263.785 582.623 263.961 582.784 264.187C595.195 281.555 608.791 286.716 621.634 289.714C621.856 289.766 622.063 289.868 622.239 290.013C622.415 290.157 622.556 290.341 622.65 290.548C622.744 290.756 622.788 290.982 622.781 291.21C622.773 291.438 622.713 291.661 622.606 291.861C622.02 292.96 622.477 293.591 622.627 293.797C623.132 294.496 624.473 295.015 625.198 295.179C625.435 295.233 625.655 295.343 625.839 295.5C626.023 295.658 626.166 295.858 626.256 296.084C626.345 296.309 626.378 296.553 626.351 296.794C626.324 297.035 626.239 297.266 626.103 297.466L616.551 311.471C616.393 311.702 616.174 311.883 615.918 311.995C615.662 312.107 615.379 312.144 615.103 312.102C614.22 311.97 611.602 311.844 610.17 312.851C608.52 314.009 607.986 314.809 607.175 316.021C607.034 316.233 606.843 316.407 606.62 316.53C606.397 316.653 606.147 316.72 605.893 316.726V316.726ZM604.664 314.414L605.9 315.241L604.664 314.414ZM555.83 282.172C560.501 293.947 572.948 312.484 605.129 313.727C605.869 312.656 606.694 311.652 608.453 310.418C610.443 309.023 613.157 308.971 614.591 309.065L622.564 297.376C621.736 296.978 620.829 296.386 620.212 295.538C619.511 294.588 619.213 293.399 619.385 292.231C607.159 289.202 593.247 283.547 580.888 266.645C579.177 266.864 577.439 266.663 575.823 266.061C574.182 265.459 572.915 264.207 572.119 263.221L559.025 272.708C559.298 273.875 559.548 275.8 558.963 277.837C558.372 279.919 557.055 281.267 555.83 282.172Z" fill="#000072"></path>
<path d="M596.384 298.071C593.179 302.413 582.966 302.775 578.667 297.13C572.854 289.504 578.029 284.005 580.344 283.075C586.079 280.768 588.75 284.739 591.876 286.651C595.002 288.564 599.992 293.191 596.384 298.071Z" fill="#2E8E1A"></path>
<path d="M9.26035 275.763C-18.1612 265.807 -32.7617 273.841 -32.7617 273.841C-32.7617 273.841 -30.4173 260.684 -16.3742 254.884C-0.338975 248.259 -3.74944 227.479 4.07023 215.544C4.07023 215.544 8.94618 216.61 14.0291 215.862C21.255 214.798 30.8561 209.622 42.3913 210.3C42.3913 210.3 38.8647 212.842 36.8943 226.164C36.0481 231.895 37.4809 262.154 9.26035 275.763" fill="#58D841"></path>
<path d="M42.3969 210.3C42.3969 210.3 38.8702 212.842 36.8963 226.168C36.05 231.896 37.4846 262.156 9.26048 275.765C8.94087 275.647 8.62488 275.534 8.30708 275.425C-18.4897 265.991 -32.7598 273.845 -32.7598 273.845C-32.7598 273.845 -32.2041 270.731 -30.014 266.874C-27.7131 262.793 -23.589 257.87 -16.3741 254.888C-7.40487 251.178 -4.51745 243.037 -2.3546 234.504C-0.636674 227.784 0.629053 220.804 4.07218 215.546C4.07218 215.546 8.94813 216.612 14.0256 215.861C20.9555 214.842 30.0572 210.049 40.9641 210.249C41.4344 210.249 41.9084 210.271 42.3915 210.302" fill="#58D841"></path>
<path d="M42.396 210.3C42.396 210.3 38.8694 212.842 36.8954 226.168C36.0491 231.895 37.4838 262.155 9.25961 275.764C8.94 275.646 8.62402 275.534 8.30622 275.425C20.4153 258.106 -2.88756 255.61 -10.0353 256.555C-18.7702 257.722 -29.7025 266.606 -30.0112 266.864C-27.7104 262.784 -23.5862 257.861 -16.3713 254.879C-7.4021 251.169 -4.51468 243.027 -2.35183 234.494C6.78079 242.753 24.9607 245.279 32.0303 224.717C34.3911 217.851 38.0086 213.173 40.9669 210.24C41.4372 210.24 41.9112 210.262 42.3942 210.292" fill="#46B72E"></path>
<path d="M31.4247 226.364C29.8757 238.409 32.1184 250.983 13.1213 265.179C12.691 265.037 12.1443 264.83 11.4597 264.669C9.32589 257.032 -4.7571 255.859 -10.0271 256.555C-10.6179 256.633 -11.2042 256.744 -11.7832 256.885C-8.38003 255.227 -5.01861 253.446 -2.90661 250.389C-0.396906 246.757 0.997786 242.254 2.14186 237.688C11.5178 242.833 25.0797 242.337 31.4247 226.364Z" fill="#46B72E"></path>
<path d="M-18.7613 263.855C-18.3381 264.691 -18.3781 265.424 -18.5797 266.243C-13.3678 266.338 -5.1504 265.918 2.03003 266.824C3.72254 265.767 5.49857 264.848 7.7395 264.522C10.429 264.128 12.0979 264.841 13.1258 265.175C35.1483 248.724 28.6271 234.449 32.5569 220.645C31.4782 220.878 29.6749 221.454 28.4164 220.564C27.3904 219.837 27.4049 218.929 27.4884 217.734C22.3038 218.957 17.544 220.947 12.5973 221.695C12.2014 222.674 11.5077 224.281 9.42293 225.289C7.78854 226.073 6.36481 225.939 5.25887 225.834C2.59481 233.512 1.83391 243.496 -2.9131 250.386C-7.20429 256.622 -16.7273 257.523 -21.1475 262.982C-20.1668 262.878 -19.2353 262.934 -18.7722 263.852" fill="#4BB236"></path>
<path d="M31.4247 226.364C29.8757 238.409 32.1184 250.983 13.1213 265.179C12.691 265.037 12.1443 264.83 11.4597 264.669C9.32589 257.032 -4.7571 255.859 -10.0271 256.555C-10.6179 256.633 -11.2042 256.744 -11.7832 256.885C-8.38003 255.227 -5.01861 253.446 -2.90661 250.389C-0.396906 246.757 0.997786 242.254 2.14186 237.688C11.5178 242.833 25.0797 242.337 31.4247 226.364Z" fill="#459E30"></path>
<path d="M19.1651 247.82C17.3945 253.235 10.1596 256.15 6.35328 254.083C2.68498 252.086 4.47738 247.253 6.09543 244.213C6.75827 242.964 7.31394 241.379 8.25462 240.037C11.4835 240.787 14.8848 240.83 18.1409 239.882C19.541 241.689 20.282 244.39 19.1651 247.82" fill="#459E30"></path>
<path d="M22.5142 224.962C23.1952 226.749 21.8913 228.903 19.6086 229.776C17.3259 230.65 14.9125 229.909 14.2315 228.122C13.5505 226.335 14.8543 224.181 17.137 223.31C19.4197 222.438 21.8332 223.177 22.5142 224.962Z" fill="#2E8E1A"></path>
<path d="M0.359174 259.248C0.753244 260.946 -1.21528 262.853 -4.03734 263.509C-6.85939 264.164 -9.46535 263.327 -9.85942 261.62C-10.2535 259.913 -8.28678 258.015 -5.46473 257.361C-2.64267 256.708 -0.0348967 257.543 0.359174 259.248Z" fill="#2E8E1A"></path>
<path d="M2.02788 268.317C1.96716 268.316 1.90653 268.312 1.84628 268.305C-3.2839 267.656 -9.07874 267.698 -13.7295 267.734C-15.4965 267.747 -17.1671 267.762 -18.6036 267.734C-18.8283 267.731 -19.0493 267.676 -19.2499 267.575C-19.4506 267.473 -19.6257 267.328 -19.7623 267.15C-19.8988 266.971 -19.9933 266.764 -20.0386 266.544C-20.0838 266.324 -20.0788 266.096 -20.0237 265.878C-19.8675 265.259 -19.8821 264.93 -20.0855 264.527C-20.0918 264.512 -20.1003 264.498 -20.1109 264.486C-20.1109 264.486 -20.2925 264.397 -20.9753 264.467C-21.2685 264.498 -21.5643 264.441 -21.8252 264.304C-22.0862 264.167 -22.3006 263.955 -22.4413 263.696C-22.582 263.437 -22.6428 263.142 -22.6158 262.849C-22.5889 262.555 -22.4756 262.276 -22.2901 262.047C-19.9946 259.212 -16.5406 257.539 -13.201 255.921C-9.58355 254.169 -6.16585 252.513 -4.12105 249.544C-1.15916 245.24 0.204618 239.507 1.52303 233.962C2.21492 231.057 2.93045 228.046 3.86569 225.349C3.97466 225.034 4.18588 224.765 4.46564 224.585C4.7454 224.404 5.0776 224.322 5.40928 224.352C6.46437 224.45 7.54305 224.546 8.79245 223.945C10.4105 223.164 10.9045 221.948 11.2295 221.138C11.3279 220.899 11.4863 220.69 11.6893 220.531C11.8923 220.372 12.1331 220.268 12.3881 220.23C15.1957 219.805 17.9469 218.959 20.8597 218.069C22.8864 217.448 24.9802 216.798 27.1522 216.293C27.3797 216.239 27.6167 216.24 27.8439 216.295C28.0711 216.35 28.2823 216.457 28.4604 216.609C28.6385 216.76 28.7785 216.951 28.8692 217.167C28.96 217.382 28.9988 217.616 28.9827 217.849C28.8955 219.082 29.0008 219.157 29.2823 219.354C29.8507 219.758 30.993 219.489 31.8247 219.293L32.2442 219.196C32.4961 219.142 32.7577 219.154 33.0036 219.231C33.2496 219.308 33.4715 219.447 33.6477 219.635C33.8239 219.823 33.9485 220.053 34.0094 220.303C34.0702 220.554 34.0652 220.815 33.9948 221.063C32.9742 224.646 32.6855 228.262 32.3804 232.088C31.5632 242.343 30.637 253.967 14.0189 266.38C13.8279 266.523 13.6053 266.618 13.3699 266.657C13.1344 266.696 12.893 266.678 12.666 266.605L12.3028 266.485C11.3349 266.156 10.011 265.704 7.9444 266.006C5.8778 266.307 4.26338 267.19 2.81058 268.099C2.57489 268.243 2.30392 268.319 2.02788 268.317V268.317ZM-10.2627 264.734C-6.44916 264.734 -2.24331 264.822 1.69013 265.279C3.2537 264.337 5.1532 263.39 7.52126 263.044C9.30946 262.765 11.1387 262.925 12.8512 263.51C27.7896 252.091 28.6104 241.8 29.404 231.841C29.6473 228.783 29.8979 225.641 30.559 222.518C29.582 222.582 28.5033 222.451 27.5553 221.781C26.8045 221.281 26.2751 220.511 26.0771 219.631C24.6007 220.026 23.1461 220.473 21.7187 220.902C19.0946 221.706 16.3869 222.536 13.6448 223.025C12.9181 224.609 11.6521 225.884 10.0727 226.622C8.90092 227.183 7.60968 227.448 6.31182 227.394C5.59632 229.651 5.01884 232.086 4.41048 234.643C3.02851 240.455 1.59932 246.464 -1.67854 251.227C-4.17009 254.844 -8.10536 256.753 -11.9135 258.596C-14.2271 259.717 -16.4535 260.794 -18.2077 262.185C-17.8836 262.463 -17.6208 262.806 -17.4359 263.191V263.191C-17.1833 263.685 -17.025 264.222 -16.9692 264.774C-15.9722 264.774 -14.8881 264.774 -13.7658 264.76C-12.6435 264.745 -11.4758 264.734 -10.2627 264.734Z" fill="#000072"></path>
<path d="M9.25678 278C8.99668 278 8.73863 277.954 8.49407 277.866C-17.4746 268.437 -31.5577 275.734 -31.6975 275.808C-32.068 276.007 -32.4871 276.098 -32.9068 276.071C-33.3266 276.043 -33.7301 275.898 -34.0711 275.651C-34.4121 275.405 -34.677 275.068 -34.8353 274.678C-34.9936 274.288 -35.039 273.862 -34.9663 273.447C-34.8628 272.861 -32.2332 259.012 -17.2295 252.814C-8.16406 249.069 -6.003 240.138 -3.71485 230.682C-2.33106 224.96 -0.900092 219.044 2.19799 214.315C2.44665 213.936 2.80444 213.642 3.22401 213.47C3.64358 213.299 4.10521 213.259 4.54792 213.356C4.58969 213.365 9.10968 214.322 13.7023 213.647C16.0177 213.305 18.7526 212.463 21.6491 211.571C27.3949 209.8 34.5426 207.594 42.5203 208.064C43.5064 208.122 44.4344 208.76 44.6614 209.722C44.8884 210.685 44.5651 211.584 43.7534 212.083C43.3902 212.459 40.7315 215.533 39.1135 226.491C39.03 227.058 38.9628 228.04 38.8829 229.177C38.2073 239.016 36.4077 265.155 10.2374 277.777C9.93164 277.924 9.59635 278.001 9.25678 278V278ZM-16.5067 268.528C-9.81843 268.528 -1.25238 269.681 9.11694 273.337C32.151 261.687 33.7908 237.894 34.4119 228.87C34.4991 227.599 34.5681 226.578 34.6789 225.837C35.6468 219.285 37.0052 215.134 38.2309 212.537C32.6595 212.862 27.5638 214.431 22.9639 215.849C19.9003 216.792 17.0056 217.684 14.3506 218.076C10.6842 218.621 7.15932 218.288 5.19079 218.005C3.0116 221.891 1.85297 226.687 0.630811 231.738C-1.70456 241.393 -4.35227 252.336 -15.5315 256.953C-23.5873 260.278 -27.4408 266.16 -29.206 270.133C-26.284 269.318 -22.0364 268.528 -16.5013 268.528H-16.5067Z" fill="#000072"></path>
<path d="M6.35242 254.083C10.166 256.152 17.3973 253.233 19.1643 247.816C21.3634 241.079 16.3749 237.156 13.3349 237.298C8.36998 237.529 7.48016 241.615 6.09638 244.217C4.48014 247.255 2.68774 252.093 6.35242 254.083" fill="#2E8E1A"></path>
<path d="M19.1651 247.82C17.3945 253.235 10.1596 256.15 6.35328 254.083C2.68498 252.086 4.47738 247.253 6.09543 244.213C6.75827 242.964 7.31394 241.379 8.25462 240.037C11.4835 240.787 14.8848 240.83 18.1409 239.882C19.541 241.689 20.282 244.39 19.1651 247.82" fill="#2A7A16"></path>
<path d="M1115.92 89.8774C1116.47 90.6683 1117.23 91.2914 1118.11 91.6778C1118.99 92.0643 1119.97 92.199 1120.92 92.0671C1124.29 91.6084 1130.1 89.8759 1138.35 84.1326C1146.61 78.3893 1150.25 73.5406 1151.84 70.5481C1152.3 69.6987 1152.51 68.7399 1152.46 67.7778C1152.4 66.8157 1152.08 65.8879 1151.53 65.0969L1145.88 56.9819L1110.28 81.764L1115.92 89.8774Z" fill="#FFC933"></path>
<path d="M1110.27 81.7639L1115.92 89.8681C1116.47 90.6589 1117.23 91.2823 1118.11 91.6697C1118.99 92.0571 1119.97 92.1935 1120.92 92.0639C1124.05 91.6311 1129.31 90.102 1136.67 85.2487L1136.69 85.238C1137.23 84.8893 1137.78 84.5162 1138.34 84.1263C1146.6 78.3815 1150.24 73.5312 1151.83 70.5449C1152.29 69.6949 1152.5 68.7352 1152.45 67.7716C1152.4 66.8079 1152.08 65.878 1151.53 65.0844L1145.88 56.9802L1110.27 81.7639Z" fill="#FFC933"></path>
<path d="M1110.27 81.7625L1115.92 89.8667C1116.47 90.6571 1117.23 91.28 1118.11 91.6672C1118.99 92.0543 1119.96 92.1905 1120.92 92.0609C1124.05 91.6297 1129.31 90.0976 1136.67 85.2457L1136.68 85.235C1137.23 84.8864 1137.78 84.5133 1138.34 84.1234C1140.92 82.3517 1143.36 80.3874 1145.65 78.2471C1147.92 76.0834 1149.51 74.1567 1150.61 72.5512C1151.05 71.9044 1151.46 71.2336 1151.83 70.5419C1152.29 69.692 1152.5 68.7322 1152.45 67.7686C1152.39 66.805 1152.07 65.8751 1151.52 65.0815L1145.88 56.9773L1110.27 81.7625Z" fill="#FFC933"></path>
<path d="M1110.27 81.7639L1115.92 89.8682C1116.47 90.6589 1117.23 91.2823 1118.11 91.6697C1118.99 92.0571 1119.97 92.1935 1120.92 92.0639C1124.06 91.6312 1129.31 90.1021 1136.67 85.2487C1135.53 85.7335 1128.63 87.9293 1118.36 76.1277L1110.27 81.7639Z" fill="#FFA329"></path>
<g opacity="0.7">
<path d="M1135.75 64.0267L1145.65 78.2473C1147.93 76.0837 1149.52 74.157 1150.61 72.5514L1141.76 59.8354L1135.75 64.0267Z" fill="white"></path>
</g>
<path d="M1120.2 94C1120.53 94.0003 1120.85 93.9778 1121.18 93.9327C1124.8 93.4388 1130.91 91.6039 1139.42 85.6756C1147.94 79.7473 1151.78 74.6569 1153.5 71.4305C1154.12 70.2759 1154.41 68.9713 1154.34 67.6621C1154.26 66.353 1153.82 65.0907 1153.07 64.0159L1147.42 55.9025C1147.28 55.6989 1147.1 55.5253 1146.89 55.3917C1146.69 55.2581 1146.45 55.1672 1146.21 55.1242C1145.72 55.0365 1145.21 55.1464 1144.8 55.43L1109.2 80.2121C1108.99 80.3534 1108.82 80.5332 1108.69 80.7415C1108.55 80.9497 1108.46 81.1822 1108.42 81.4258C1108.37 81.6693 1108.38 81.919 1108.43 82.1607C1108.48 82.4025 1108.58 82.6314 1108.73 82.8345L1114.37 90.9479C1115.03 91.8901 1115.9 92.6601 1116.91 93.1917C1117.93 93.7233 1119.05 94.0007 1120.2 94V94ZM1145.41 59.6044L1149.98 66.1796C1150.33 66.6854 1150.54 67.2793 1150.57 67.8952C1150.61 68.511 1150.47 69.1245 1150.18 69.6674C1148.65 72.5299 1145.17 77.0973 1137.27 82.596C1129.38 88.0946 1123.88 89.769 1120.67 90.2078C1120.06 90.2937 1119.44 90.2086 1118.87 89.9619C1118.3 89.7151 1117.82 89.3165 1117.47 88.8102V88.8102L1112.89 82.2351L1145.41 59.6044Z" fill="#000072"></path>
<path d="M1110.27 81.7641C1112.33 84.7245 1121.97 81.5761 1131.8 74.7303C1141.63 67.8845 1147.94 59.9393 1145.87 56.979C1143.81 54.0186 1134.17 57.1686 1124.34 64.0128C1114.51 70.8571 1108.21 78.8023 1110.27 81.7626" fill="#FFC933"></path>
<path d="M1113.23 84.7503C1114.64 84.7503 1116.44 84.4567 1118.71 83.7151C1122.94 82.3389 1127.98 79.6905 1132.88 76.2791C1137.78 72.8677 1142 69.0648 1144.77 65.5754C1148.9 60.3765 1148.49 57.4482 1147.42 55.9115C1146.35 54.3747 1143.75 52.9741 1137.44 55.0353C1133.2 56.4115 1128.17 59.0599 1123.27 62.4729C1113.95 68.9578 1105.42 78.1002 1108.72 82.8435C1109.41 83.8237 1110.72 84.7503 1113.23 84.7503ZM1142.93 57.7556C1143.85 57.7556 1144.25 57.9513 1144.33 58.0614C1144.48 58.274 1144.5 59.8627 1141.82 63.2343C1139.28 66.4454 1135.33 69.9823 1130.73 73.1903C1126.12 76.3983 1121.43 78.8648 1117.54 80.137C1113.45 81.4719 1111.96 80.9016 1111.82 80.6905C1111.05 79.585 1114.86 72.912 1125.43 65.5632C1130.03 62.352 1134.72 59.8887 1138.61 58.6165C1140.64 57.9483 1142.03 57.7556 1142.93 57.7556H1142.93Z" fill="#000072"></path>
<path d="M1115.69 77.9949C1116.82 79.6204 1123.28 77.0775 1130.12 72.3174C1136.97 67.5573 1141.59 62.3782 1140.46 60.7513C1139.33 59.1243 1132.87 61.6687 1126.03 66.4288C1119.19 71.1889 1114.56 76.368 1115.69 77.9949Z" fill="#FFC933"></path>
<path d="M1115.69 77.9963C1116.05 78.5208 1116.98 78.608 1118.29 78.3312C1117.5 76.5636 1122.06 71.5359 1128.7 66.9088C1133.33 63.687 1137.78 61.4851 1140.54 60.9056C1140.51 60.8523 1140.49 60.8011 1140.45 60.7527C1139.32 59.1273 1132.86 61.6701 1126.02 66.4256C1119.18 71.1811 1114.55 76.3648 1115.68 77.9948" fill="#FFA329"></path>
<path d="M1117.01 79.4276C1118.05 79.4276 1119.41 79.0942 1121.11 78.4245C1123.91 77.3266 1127.3 75.4305 1130.66 73.0864C1135.56 69.6857 1143.28 63.1472 1141.24 60.2114C1140.38 58.9789 1138.35 59.0141 1135.04 60.3154C1132.25 61.4132 1128.86 63.3093 1125.49 65.6534C1122.12 67.9976 1119.17 70.519 1117.17 72.7576C1114.79 75.4091 1114.06 77.2975 1114.92 78.53C1115.33 79.1309 1116.03 79.4276 1117.01 79.4276ZM1139.13 61.1609C1139.33 61.1412 1139.53 61.1886 1139.7 61.2955C1140.02 62.1717 1136.85 66.4944 1129.59 71.5405C1122.36 76.5712 1117.23 78.0575 1116.46 77.452C1116.16 76.5345 1119.34 72.2286 1126.57 67.207C1132.8 62.8659 1137.47 61.164 1139.13 61.164V61.1609Z" fill="#000072"></path>
<path d="M592.82 72.9082C592.407 73.5013 591.838 73.9687 591.176 74.2585C590.514 74.5484 589.785 74.6494 589.069 74.5505C586.546 74.2064 582.188 72.9071 575.995 68.5996C569.802 64.2921 567.075 60.6556 565.877 58.4112C565.535 57.7742 565.377 57.0551 565.419 56.3335C565.461 55.6119 565.701 54.916 566.114 54.3228L570.349 48.2366L597.053 66.8232L592.82 72.9082Z" fill="#FFC933"></path>
<path d="M597.056 66.8229L592.822 72.901C592.408 73.4941 591.839 73.9617 591.177 74.2522C590.515 74.5428 589.786 74.6451 589.069 74.5479C586.72 74.2233 582.778 73.0765 577.257 69.4365L577.247 69.4284C576.836 69.167 576.423 68.8871 576.002 68.5947C569.81 64.2861 567.084 60.6484 565.885 58.4086C565.542 57.7712 565.382 57.0513 565.423 56.3286C565.463 55.6059 565.703 54.9084 566.115 54.3133L570.349 48.2351L597.056 66.8229Z" fill="#FFC933"></path>
<path d="M597.058 66.822L592.824 72.9002C592.41 73.493 591.841 73.9602 591.179 74.2506C590.517 74.5409 589.788 74.6431 589.071 74.5459C586.721 74.2225 582.78 73.0734 577.259 69.4345L577.249 69.4265C576.839 69.165 576.425 68.8852 576.004 68.5927C574.069 67.264 572.237 65.7907 570.525 64.1855C568.817 62.5627 567.627 61.1177 566.806 59.9136C566.472 59.4285 566.166 58.9254 565.888 58.4066C565.545 57.7692 565.385 57.0494 565.426 56.3266C565.466 55.6039 565.706 54.9065 566.117 54.3113L570.352 48.2332L597.058 66.822Z" fill="#FFC933"></path>
<path d="M597.056 66.8229L592.822 72.9011C592.408 73.4942 591.839 73.9617 591.177 74.2523C590.515 74.5428 589.786 74.6451 589.069 74.5479C586.719 74.2234 582.778 73.0765 577.257 69.4365C578.11 69.8 583.291 71.4469 590.994 62.5957L597.056 66.8229Z" fill="#FFA329"></path>
<g opacity="0.7">
<path d="M577.947 53.5199L570.52 64.1854C568.812 62.5626 567.622 61.1176 566.801 59.9135L573.439 50.3765L577.947 53.5199Z" fill="white"></path>
</g>
<path d="M589.612 76C589.366 76.0002 589.121 75.9834 588.878 75.9496C586.158 75.5791 581.577 74.2029 575.192 69.7567C568.808 65.3105 565.926 61.4927 564.635 59.0729C564.169 58.2069 563.952 57.2285 564.009 56.2466C564.066 55.2647 564.395 54.318 564.958 53.5119L569.193 47.4269C569.299 47.2742 569.434 47.144 569.59 47.0438C569.747 46.9436 569.921 46.8754 570.104 46.8431C570.473 46.7774 570.852 46.8598 571.16 47.0725L597.863 65.6591C598.015 65.765 598.145 65.9 598.245 66.0561C598.346 66.2123 598.414 66.3867 598.447 66.5693C598.48 66.752 598.476 66.9393 598.437 67.1206C598.397 67.3019 598.322 67.4736 598.216 67.6259L593.98 73.711C593.491 74.4176 592.839 74.9951 592.078 75.3938C591.317 75.7925 590.471 76.0006 589.612 76V76ZM570.705 50.2033L567.277 55.1347C567.012 55.5141 566.858 55.9595 566.832 56.4214C566.805 56.8832 566.907 57.3434 567.127 57.7506C568.274 59.8975 570.883 63.323 576.806 67.447C582.729 71.571 586.848 72.8268 589.259 73.1559C589.718 73.2203 590.184 73.1565 590.608 72.9714C591.032 72.7864 591.397 72.4874 591.661 72.1077V72.1077L595.09 67.1763L570.705 50.2033Z" fill="#000072"></path>
<path d="M597.057 66.8231C595.511 69.0434 588.28 66.6821 580.908 61.5477C573.535 56.4134 568.809 50.4545 570.357 48.2342C571.905 46.014 579.132 48.3764 586.506 53.5096C593.88 58.6428 598.604 64.6017 597.057 66.822" fill="#FFC933"></path>
<path d="M594.838 69.0627C593.778 69.0627 592.429 68.8426 590.73 68.2863C587.552 67.2542 583.778 65.2679 580.101 62.7093C576.424 60.1508 573.257 57.2986 571.18 54.6816C568.083 50.7824 568.392 48.5862 569.195 47.4336C569.997 46.2811 571.947 45.2306 576.681 46.7765C579.859 47.8086 583.634 49.7949 587.311 52.3546C594.299 57.2183 600.693 64.0752 598.217 67.6326C597.705 68.3678 596.718 69.0627 594.838 69.0627ZM572.561 48.8167C571.873 48.8167 571.57 48.9635 571.514 49.0461C571.399 49.2055 571.389 50.397 573.393 52.9258C575.304 55.3341 578.259 57.9867 581.716 60.3927C585.172 62.7988 588.685 64.6486 591.607 65.6028C594.674 66.6039 595.787 66.1762 595.897 66.0179C596.471 65.1888 593.615 60.184 585.691 54.6724C582.234 52.264 578.721 50.4165 575.799 49.4624C574.277 48.9612 573.235 48.8167 572.559 48.8167H572.561Z" fill="#000072"></path>
<path d="M592.994 63.9962C592.146 65.2153 587.298 63.3081 582.167 59.7381C577.036 56.168 573.566 52.2837 574.414 51.0635C575.261 49.8432 580.11 51.7516 585.241 55.3216C590.372 58.8917 593.842 62.776 592.994 63.9962Z" fill="#FFC933"></path>
<path d="M592.996 63.9973C592.722 64.3906 592.026 64.456 591.047 64.2484C591.637 62.9227 588.219 59.1519 583.232 55.6816C579.762 53.2653 576.425 51.6138 574.357 51.1792C574.375 51.1392 574.396 51.1008 574.421 51.0645C575.269 49.8454 580.114 51.7526 585.245 55.3192C590.376 58.8859 593.846 62.7736 593 63.9961" fill="#FFA329"></path>
<path d="M592.003 65.0707C591.224 65.0707 590.202 64.8207 588.927 64.3184C586.832 63.4949 584.288 62.0729 581.763 60.3148C578.093 57.7643 572.303 52.8604 573.834 50.6585C574.477 49.7342 575.997 49.7606 578.48 50.7365C580.574 51.5599 583.118 52.982 585.644 54.7401C588.169 56.4982 590.386 58.3893 591.886 60.0682C593.665 62.0568 594.216 63.4732 593.573 64.3975C593.26 64.8482 592.74 65.0707 592.003 65.0707ZM575.413 51.3707C575.264 51.3559 575.114 51.3914 574.987 51.4716C574.747 52.1288 577.125 55.3708 582.57 59.1554C587.99 62.9284 591.841 64.0431 592.412 63.589C592.642 62.9009 590.256 59.6714 584.836 55.9053C580.164 52.6494 576.657 51.373 575.413 51.373V51.3707Z" fill="#000072"></path>
<path d="M425.772 361.448C425.959 362.453 425.865 363.49 425.499 364.445C425.134 365.4 424.511 366.235 423.7 366.858C420.849 369.056 415.21 372.159 404.725 374.116C394.239 376.072 387.86 375.211 384.408 374.189C383.427 373.9 382.545 373.346 381.86 372.587C381.174 371.828 380.712 370.895 380.524 369.89L378.6 359.578L423.848 351.136L425.772 361.448Z" fill="#FFC933"></path>
<path d="M423.85 351.136L425.773 361.443C425.959 362.448 425.865 363.486 425.5 364.442C425.135 365.398 424.513 366.234 423.703 366.859C421.043 368.904 415.971 371.737 406.822 373.686L406.804 373.69C406.133 373.841 405.439 373.981 404.726 374.114C394.239 376.07 387.862 375.207 384.416 374.19C383.433 373.901 382.549 373.346 381.862 372.586C381.175 371.827 380.712 370.892 380.523 369.885L378.6 359.578L423.85 351.136Z" fill="#FFC933"></path>
<path d="M423.853 351.132L425.776 361.439C425.962 362.445 425.868 363.483 425.503 364.438C425.138 365.394 424.516 366.23 423.706 366.856C421.046 368.9 415.976 371.733 406.825 373.683L406.807 373.686C406.136 373.838 405.444 373.977 404.731 374.11C401.47 374.74 398.165 375.123 394.846 375.254C391.516 375.362 388.881 375.126 386.851 374.765C386.031 374.619 385.219 374.427 384.42 374.192C383.437 373.903 382.553 373.349 381.866 372.589C381.179 371.829 380.716 370.894 380.527 369.888L378.604 359.581L423.853 351.132Z" fill="#FFC933"></path>
<path d="M423.849 351.136L425.772 361.443C425.958 362.448 425.864 363.486 425.499 364.442C425.134 365.398 424.512 366.234 423.702 366.859C421.042 368.904 415.97 371.737 406.821 373.686C408.035 373.189 414.841 369.604 413.572 353.053L423.849 351.136Z" fill="#FFA329"></path>
<g opacity="0.7">
<path d="M391.467 357.174L394.841 375.255C391.512 375.363 388.875 375.127 386.845 374.766L383.829 358.599L391.467 357.174Z" fill="white"></path>
</g>
<path d="M405.092 376.079C394.272 378.098 387.562 377.204 383.842 376.104C382.506 375.714 381.305 374.96 380.373 373.928C379.44 372.896 378.813 371.624 378.56 370.256L376.636 359.945C376.539 359.424 376.653 358.885 376.953 358.448C377.253 358.011 377.714 357.711 378.235 357.613L423.483 349.171C424.004 349.074 424.542 349.187 424.979 349.487C425.417 349.787 425.717 350.248 425.814 350.769L427.738 361.081C427.995 362.448 427.868 363.86 427.371 365.159C426.874 366.459 426.026 367.595 424.922 368.441C421.847 370.812 415.911 374.06 405.092 376.079ZM380.933 361.177L382.49 369.523C382.61 370.167 382.907 370.765 383.347 371.25C383.787 371.735 384.354 372.088 384.983 372.27C388.284 373.248 394.327 374.022 404.366 372.149C414.404 370.276 419.76 367.376 422.486 365.273C423.007 364.876 423.408 364.343 423.644 363.732C423.88 363.12 423.941 362.456 423.821 361.812L422.264 353.465L380.933 361.177Z" fill="#000072"></path>
<path d="M423.848 351.136C424.55 354.897 414.989 359.837 402.496 362.168C390.002 364.499 379.302 363.339 378.6 359.578C377.898 355.817 387.459 350.876 399.954 348.545C412.449 346.214 423.146 347.374 423.848 351.136Z" fill="#FFC933"></path>
<path d="M402.863 364.132C391.02 366.342 377.761 365.975 376.637 359.948C375.512 353.92 387.747 348.797 399.59 346.588C411.433 344.378 424.69 344.747 425.815 350.773C426.939 356.798 414.703 361.923 402.863 364.132ZM400.322 350.51C386.901 353.014 380.304 357.805 380.566 359.211C380.829 360.618 388.71 362.706 402.13 360.202C415.55 357.699 422.147 352.909 421.884 351.503C421.622 350.096 413.74 348.006 400.322 350.51V350.51Z" fill="#000072"></path>
<path d="M402.106 360.08C395.893 361.239 385.195 362.207 384.5 358.478C383.804 354.748 394.131 351.792 400.343 350.633C406.556 349.474 417.252 348.508 417.948 352.237C418.644 355.966 408.317 358.921 402.106 360.08ZM400.71 352.598C391.484 354.319 386.532 357.11 386.465 358.124C386.89 359.019 392.514 359.838 401.739 358.116C410.922 356.403 415.87 353.628 415.981 352.604C415.508 351.687 409.892 350.885 400.71 352.598Z" fill="#000072"></path>
<path d="M394.831 -11.5811L366.919 -8.01269C366.919 -8.01269 353.155 25.5914 393.44 44.3408L417.586 31.6774C417.586 31.6774 392.034 19.4712 394.831 -11.5811Z" fill="#58D841"></path>
<path d="M417.584 31.6778L393.441 44.3406C353.156 25.5925 366.915 -8.00792 366.915 -8.00792L394.828 -11.5763C392.472 14.5366 410.168 27.3245 415.857 30.7305C416.935 31.3733 417.58 31.6827 417.58 31.6827" fill="#58D841"></path>
<path d="M417.584 31.6778L393.441 44.3406C353.156 25.5925 366.915 -8.00792 366.915 -8.00792C366.915 -8.00792 363.702 16.3369 385.134 29.6217C398.233 37.7465 409.553 34.1932 415.861 30.7256C416.939 31.3684 417.584 31.6778 417.584 31.6778Z" fill="#46B72E"></path>
<path d="M402.736 34.9467L396.522 38.1227C396.522 38.1227 394.449 36.5375 392.571 36.7468C390.989 36.93 390.267 37.3123 389.333 37.8003C375.34 29.617 370.432 19.3645 369.153 10.8359C371.6 17.4826 376.242 24.6636 384.909 30.0417C391.426 34.0839 397.498 35.2372 402.736 34.9467Z" fill="#459E30"></path>
<path d="M389.33 37.7956C368.86 25.8299 367.841 9.42992 369.15 0.48388C370.192 0.43433 371.55 0.234941 372.64 -0.86901C374.022 -2.27055 374.245 -4.14155 374.245 -4.14155L386.987 -5.77241C386.987 -5.77241 387.032 -3.65687 388.154 -2.37551C389.155 -1.23509 390.195 -0.768904 391.179 -0.423137C392.915 13.8505 399.195 21.8151 406.515 28.3544C405.818 28.812 405.313 29.5374 405.439 30.5086C405.593 31.7117 406.875 32.8253 406.875 32.8253L396.52 38.1178C396.52 38.1178 394.447 36.5301 392.569 36.7434C390.986 36.9228 390.263 37.3079 389.33 37.7956" fill="#4BB236"></path>
<path d="M402.736 34.9467L396.522 38.1227C396.522 38.1227 394.449 36.5375 392.571 36.7468C390.989 36.93 390.267 37.3123 389.333 37.8003C375.34 29.617 370.432 19.3645 369.153 10.8359C371.6 17.4826 376.242 24.6636 384.909 30.0417C391.426 34.0839 397.498 35.2372 402.736 34.9467Z" fill="#459E30"></path>
<path d="M393.78 45.9031C393.439 45.9773 393.082 45.9381 392.765 45.7913C371.308 35.8061 365.001 21.5659 363.488 11.3695C361.846 0.31903 365.288 -8.25579 365.436 -8.61473C365.543 -8.87634 365.717 -9.10486 365.942 -9.27701C366.166 -9.44915 366.432 -9.55877 366.712 -9.59468L394.624 -13.1631C394.862 -13.1938 395.104 -13.1706 395.331 -13.0954C395.559 -13.0201 395.767 -12.8946 395.939 -12.7282C396.112 -12.5618 396.245 -12.3587 396.328 -12.134C396.411 -11.9093 396.443 -11.6687 396.421 -11.43C395.306 0.950078 398.621 11.7096 406.277 20.556C412.028 27.2001 418.215 30.2172 418.275 30.248C418.542 30.3761 418.769 30.576 418.929 30.8255C419.09 31.0749 419.177 31.3641 419.183 31.6606C419.188 31.9571 419.111 32.2493 418.96 32.5045C418.809 32.7597 418.59 32.9678 418.327 33.1056L394.18 45.7693C394.053 45.8317 393.919 45.8767 393.78 45.9031ZM368.09 -6.54818C367.314 -4.19633 365.407 2.74315 366.672 11.0411C368.715 24.4666 377.71 35.0664 393.402 42.5626L414.259 31.6238C410.416 29.1758 406.946 26.1872 403.954 22.7499C398.47 16.4526 392.265 5.78597 393.096 -9.74118L368.09 -6.54818Z" fill="#000072"></path>
<path d="M384.173 2.95234C383.82 3.5992 383.284 4.12686 382.631 4.46859C381.978 4.81033 381.238 4.9508 380.506 4.87223C379.773 4.79367 379.08 4.4996 378.514 4.02721C377.949 3.55483 377.536 2.92534 377.328 2.21835C377.12 1.51136 377.127 0.758632 377.347 0.0553423C377.567 -0.647948 377.991 -1.2702 378.564 -1.73275C379.138 -2.19529 379.836 -2.47735 380.57 -2.54324C381.304 -2.60913 382.041 -2.4559 382.688 -2.10293C383.117 -1.86856 383.496 -1.55189 383.803 -1.171C384.11 -0.790109 384.339 -0.352458 384.477 0.116968C384.615 0.586394 384.66 1.0784 384.607 1.5649C384.555 2.05139 384.408 2.52284 384.173 2.95234" fill="#2E8E1A"></path>
<path d="M401.537 32.0535C401.192 33.3244 399.173 33.9416 397.029 33.4359C394.885 32.9302 393.428 31.5002 393.775 30.2331C394.121 28.9661 396.14 28.346 398.284 28.8505C400.428 29.3549 401.883 30.7852 401.537 32.0522" fill="#2E8E1A"></path>
<path d="M396.748 39.1585C396.596 39.1917 396.44 39.1915 396.289 39.158C396.138 39.1244 395.996 39.0583 395.872 38.9643C395.394 38.596 393.864 37.6758 392.688 37.7998C391.318 37.9553 390.737 38.2615 389.853 38.7227C389.689 38.8095 389.506 38.8543 389.32 38.8528C389.134 38.8514 388.952 38.8039 388.789 38.7146C367.704 26.3875 366.773 9.37455 368.096 0.329755C368.132 0.0848282 368.251 -0.140084 368.435 -0.306373C368.618 -0.472661 368.853 -0.569947 369.101 -0.581531C370.013 -0.623971 371.056 -0.779932 371.884 -1.6194C372.979 -2.72699 373.187 -4.25742 373.189 -4.27247C373.218 -4.50719 373.325 -4.72541 373.492 -4.89306C373.659 -5.06072 373.877 -5.16834 374.111 -5.19912L386.854 -6.82997C387.002 -6.84856 387.152 -6.83588 387.295 -6.79273C387.438 -6.74958 387.571 -6.67692 387.684 -6.57944C387.797 -6.48197 387.888 -6.36184 387.952 -6.22683C388.016 -6.09182 388.051 -5.94493 388.054 -5.79563C388.068 -5.31375 388.256 -3.87785 388.957 -3.07835C389.74 -2.18663 390.525 -1.78418 391.535 -1.42818C391.723 -1.3624 391.888 -1.24553 392.012 -1.09076C392.137 -0.935986 392.215 -0.749493 392.239 -0.55238C394.004 13.9659 400.485 21.5385 407.227 27.56C407.349 27.6689 407.444 27.8043 407.505 27.9559C407.566 28.1074 407.591 28.2709 407.579 28.4338C407.567 28.5967 407.517 28.7546 407.434 28.8953C407.351 29.036 407.237 29.1557 407.101 29.2453C406.412 29.6972 406.476 30.2064 406.498 30.373C406.571 30.9468 407.198 31.6893 407.578 32.0222C407.709 32.1369 407.809 32.2819 407.871 32.4446C407.933 32.6073 407.955 32.7826 407.933 32.9553C407.912 33.1281 407.849 33.293 407.749 33.4356C407.649 33.5783 407.516 33.6943 407.361 33.7737L397.007 39.0662C396.925 39.1084 396.838 39.1394 396.748 39.1585V39.1585ZM391.349 35.8619C391.712 35.7838 392.079 35.7245 392.448 35.6843C394.099 35.4966 395.748 36.347 396.599 36.8811L405.169 32.5001C404.809 31.9889 404.472 31.344 404.383 30.6435C404.272 29.844 404.476 29.0328 404.951 28.3808C398.591 22.5377 392.089 14.562 390.199 0.347261C389.101 -0.0880816 388.124 -0.782789 387.353 -1.67751C386.57 -2.56923 386.215 -3.72706 386.055 -4.58208L375.125 -3.18354C374.814 -2.03664 374.222 -0.985512 373.402 -0.125544C372.36 0.93073 371.13 1.31473 370.097 1.46313C369.055 10.0787 370.469 25.2766 389.37 36.5741C389.995 36.2498 390.66 36.0102 391.349 35.8619ZM388.837 36.8525L389.331 37.7967L388.837 36.8525Z" fill="#000072"></path>
<path d="M389.245 24.3292C385.89 25.8865 379.621 22.7479 378.886 17.9404C377.893 11.436 382.815 9.82642 384.515 10.0278C388.728 10.523 389.03 13.7925 390.284 15.9721C391.538 18.1517 393.023 22.5775 389.245 24.3292" fill="#2E8E1A"></path>
</g>
<defs>
<clipPath id="clip0_499_4412">
<rect width="1180" height="380" fill="white"></rect>
</clipPath>
</defs>
</svg>
