<svg width="176" height="51" viewBox="0 0 176 51" fill="none" xmlns="http://www.w3.org/2000/svg">
<path d="M81.7888 3.40942H0.969849V43.8189H81.7888V3.40942Z" fill="#5DA34F"/>
<path d="M46.7673 39.778H81.7888V3.40942H6.55981C7.56159 13.377 12.23 22.6171 19.6594 29.3371C27.0888 36.0572 36.7495 39.7781 46.7673 39.778Z" fill="#406B36"/>
<path d="M6.35779 33.0431C7.78676 33.0431 9.1572 33.6107 10.1676 34.6211C11.1781 35.6316 11.7457 37.002 11.7457 38.431H71.013C71.013 37.002 71.5806 35.6316 72.5911 34.6211C73.6015 33.6107 74.9719 33.0431 76.4009 33.0431V14.1853C74.9719 14.1853 73.6015 13.6176 72.5911 12.6072C71.5806 11.5968 71.013 10.2263 71.013 8.79736H11.7457C11.7457 10.2263 11.1781 11.5968 10.1676 12.6072C9.1572 13.6176 7.78676 14.1853 6.35779 14.1853V33.0431Z" fill="#FFECC2"/>
<path d="M41.3793 38.431C46.5867 38.431 50.8082 31.7973 50.8082 23.6142C50.8082 15.4311 46.5867 8.79736 41.3793 8.79736C36.1719 8.79736 31.9504 15.4311 31.9504 23.6142C31.9504 31.7973 36.1719 38.431 41.3793 38.431Z" fill="#5DA34F"/>
<path d="M68.319 26.3081C69.8068 26.3081 71.0129 25.102 71.0129 23.6141C71.0129 22.1263 69.8068 20.9202 68.319 20.9202C66.8311 20.9202 65.625 22.1263 65.625 23.6141C65.625 25.102 66.8311 26.3081 68.319 26.3081Z" fill="#5DA34F"/>
<path d="M43.3998 38.0809C47.4913 38.0809 50.8082 31.604 50.8082 23.6143C50.8082 15.6246 47.4913 9.14771 43.3998 9.14771C39.3083 9.14771 35.9914 15.6246 35.9914 23.6143C35.9914 31.604 39.3083 38.0809 43.3998 38.0809Z" fill="#517F44"/>
<path d="M14.4397 26.3081C15.9275 26.3081 17.1337 25.102 17.1337 23.6141C17.1337 22.1263 15.9275 20.9202 14.4397 20.9202C12.9519 20.9202 11.7457 22.1263 11.7457 23.6141C11.7457 25.102 12.9519 26.3081 14.4397 26.3081Z" fill="#5DA34F"/>
<path d="M45.4203 2.0625H37.3384V43.819H45.4203V2.0625Z" fill="#91562D"/>
<path d="M50.7005 18.9266V14.1745C50.7005 13.2914 50.3497 12.4444 49.7252 11.82C49.1008 11.1955 48.2538 10.8447 47.3707 10.8447C46.7522 10.8445 46.1459 11.0167 45.6198 11.3419C45.0938 11.6672 44.6688 12.1326 44.3926 12.6861L41.2716 18.9266H50.7005Z" fill="#5DA34F"/>
<path d="M41.2716 27.0084L45.3126 49.9071L46.1652 49.3953C47.9589 48.3191 49.4435 46.7969 50.4743 44.9767C51.5051 43.1566 52.0471 41.1005 52.0475 39.0087C52.0476 37.3135 51.6919 35.6372 51.0036 34.0882L46.6595 24.3145L41.2716 27.0084Z" fill="#B70202"/>
<path d="M45.3125 27.0084L52.0191 32.597C52.9077 33.3377 54.0278 33.7433 55.1845 33.7433C56.4959 33.743 57.7534 33.2219 58.6806 32.2946C59.6079 31.3674 60.129 30.1099 60.1293 28.7985V17.7964C60.1293 16.6671 59.6807 15.5842 58.8822 14.7857C58.0837 13.9872 57.0007 13.5386 55.8715 13.5386C55.1308 13.539 54.4029 13.7321 53.7594 14.0989L45.3125 18.9265V27.0084Z" fill="#B70202"/>
<path d="M60.1293 28.7987C60.1293 29.7385 59.8614 30.6588 59.3571 31.4518C58.8528 32.2448 58.1329 32.8777 57.2818 33.2763C56.4308 33.6749 55.4837 33.8228 54.5517 33.7025C53.6196 33.5822 52.7411 33.1988 52.0191 32.5972L45.3125 27.0085H60.1293V28.7987Z" fill="#EF4545"/>
<path d="M41.2716 27.0084L37.2306 49.9071L36.378 49.3953C34.5842 48.3191 33.0997 46.7969 32.0689 44.9767C31.0381 43.1566 30.4961 41.1005 30.4957 39.0087C30.4956 37.3135 30.8513 35.6372 31.5396 34.0882L35.8837 24.3145L41.2716 27.0084Z" fill="#B70202"/>
<path d="M31.8427 18.9266V14.1745C31.8427 13.2914 32.1935 12.4444 32.818 11.82C33.4424 11.1955 34.2894 10.8447 35.1725 10.8447C35.791 10.8445 36.3973 11.0167 36.9234 11.3419C37.4494 11.6672 37.8744 12.1326 38.1506 12.6861L41.2716 18.9266H31.8427Z" fill="#5DA34F"/>
<path d="M45.3125 18.9265H37.2307V27.0084H45.3125V18.9265Z" fill="#EF4545"/>
<path d="M37.2306 27.0084L30.524 32.597C29.6355 33.3377 28.5153 33.7433 27.3586 33.7433C26.0473 33.743 24.7898 33.2219 23.8625 32.2946C22.9353 31.3674 22.4142 30.1099 22.4138 28.7985V17.7964C22.4138 17.2372 22.5239 16.6836 22.7379 16.167C22.9519 15.6504 23.2655 15.181 23.6609 14.7857C24.0563 14.3903 24.5257 14.0767 25.0422 13.8627C25.5588 13.6487 26.1125 13.5386 26.6716 13.5386C27.4123 13.539 28.1402 13.7321 28.7837 14.0989L37.2306 18.9265V27.0084Z" fill="#B70202"/>
<path d="M22.4138 29.8763C22.4139 30.8161 22.6818 31.7364 23.1861 32.5294C23.6904 33.3225 24.4102 33.9554 25.2613 34.354C26.1124 34.7526 27.0594 34.9004 27.9915 34.7801C28.9235 34.6598 29.802 34.2764 30.524 33.6748L37.2306 28.0862H22.4138V29.8763Z" fill="#EF4545"/>
<path d="M104.46 16.506V22.5H104.892C104.982 22.248 105.081 22.086 105.189 22.014C105.297 21.924 105.477 21.879 105.729 21.879C105.909 21.879 106.179 21.933 106.539 22.041C106.917 22.149 107.34 22.266 107.808 22.392C108.294 22.5 108.807 22.608 109.347 22.716C109.905 22.824 110.463 22.878 111.021 22.878C112.137 22.878 113.145 22.707 114.045 22.365C114.963 22.005 115.746 21.528 116.394 20.934C117.06 20.34 117.573 19.647 117.933 18.855C118.293 18.063 118.473 17.226 118.473 16.344C118.473 15.444 118.302 14.688 117.96 14.076C117.636 13.464 117.204 12.942 116.664 12.51C116.124 12.078 115.503 11.727 114.801 11.457C114.117 11.169 113.406 10.908 112.668 10.674C111.948 10.44 111.237 10.215 110.535 9.999C109.851 9.783 109.239 9.531 108.699 9.243C108.159 8.937 107.718 8.577 107.376 8.163C107.052 7.749 106.89 7.227 106.89 6.597C106.89 6.183 106.989 5.778 107.187 5.382C107.385 4.986 107.673 4.626 108.051 4.302C108.429 3.978 108.888 3.717 109.428 3.519C109.986 3.321 110.625 3.222 111.345 3.222C112.227 3.222 112.956 3.375 113.532 3.681C114.108 3.987 114.585 4.392 114.963 4.896C115.341 5.382 115.647 5.931 115.881 6.543C116.133 7.155 116.367 7.776 116.583 8.406H116.934V3.276H116.502C116.412 3.492 116.322 3.645 116.232 3.735C116.16 3.807 115.998 3.843 115.746 3.843C115.53 3.843 115.287 3.789 115.017 3.681C114.765 3.573 114.468 3.465 114.126 3.357C113.784 3.231 113.388 3.114 112.938 3.006C112.488 2.898 111.966 2.844 111.372 2.844C110.436 2.844 109.563 3.006 108.753 3.33C107.961 3.636 107.277 4.05 106.701 4.572C106.125 5.076 105.675 5.661 105.351 6.327C105.027 6.993 104.865 7.686 104.865 8.406C104.865 9.378 105.018 10.188 105.324 10.836C105.648 11.484 106.071 12.033 106.593 12.483C107.115 12.915 107.709 13.275 108.375 13.563C109.041 13.833 109.725 14.076 110.427 14.292C111.129 14.49 111.813 14.688 112.479 14.886C113.145 15.084 113.739 15.327 114.261 15.615C114.783 15.903 115.197 16.263 115.503 16.695C115.827 17.127 115.989 17.676 115.989 18.342C115.989 18.702 115.917 19.125 115.773 19.611C115.629 20.079 115.377 20.529 115.017 20.961C114.675 21.393 114.198 21.762 113.586 22.068C112.974 22.356 112.191 22.5 111.237 22.5C110.967 22.5 110.67 22.5 110.346 22.5C110.04 22.482 109.707 22.428 109.347 22.338C109.005 22.23 108.636 22.068 108.24 21.852C107.862 21.636 107.466 21.321 107.052 20.907C106.674 20.547 106.35 20.16 106.08 19.746C105.828 19.314 105.612 18.9 105.432 18.504C105.27 18.09 105.144 17.712 105.054 17.37C104.964 17.01 104.901 16.722 104.865 16.506H104.46ZM128.501 15.804V19.368C128.501 19.89 128.447 20.34 128.339 20.718C128.231 21.078 128.087 21.375 127.907 21.609C127.727 21.825 127.52 21.987 127.286 22.095C127.07 22.203 126.845 22.257 126.611 22.257C126.197 22.257 125.873 22.167 125.639 21.987C125.405 21.789 125.225 21.555 125.099 21.285C124.991 21.015 124.919 20.736 124.883 20.448C124.865 20.16 124.856 19.908 124.856 19.692C124.856 19.152 124.937 18.711 125.099 18.369C125.279 18.027 125.504 17.739 125.774 17.505C126.044 17.271 126.35 17.082 126.692 16.938C127.034 16.776 127.376 16.614 127.718 16.452C127.97 16.326 128.141 16.218 128.231 16.128C128.339 16.02 128.411 15.912 128.447 15.804H128.501ZM133.955 22.068L133.712 21.825C133.568 21.987 133.415 22.113 133.253 22.203C133.109 22.293 132.92 22.338 132.686 22.338C132.29 22.338 132.038 22.212 131.93 21.96C131.84 21.69 131.795 21.384 131.795 21.042V14.346C131.795 13.59 131.66 12.969 131.39 12.483C131.138 11.979 130.787 11.583 130.337 11.295C129.905 11.007 129.383 10.809 128.771 10.701C128.177 10.593 127.538 10.539 126.854 10.539C126.26 10.539 125.684 10.602 125.126 10.728C124.586 10.854 124.1 11.043 123.668 11.295C123.236 11.529 122.885 11.835 122.615 12.213C122.363 12.573 122.237 12.987 122.237 13.455C122.237 13.761 122.282 14.004 122.372 14.184C122.48 14.364 122.606 14.508 122.75 14.616C122.894 14.706 123.056 14.769 123.236 14.805C123.434 14.823 123.623 14.832 123.803 14.832C123.929 14.832 124.082 14.832 124.262 14.832C124.46 14.814 124.64 14.769 124.802 14.697C124.982 14.625 125.135 14.517 125.261 14.373C125.387 14.211 125.45 13.995 125.45 13.725C125.45 13.671 125.441 13.572 125.423 13.428C125.405 13.284 125.387 13.131 125.369 12.969C125.351 12.807 125.333 12.663 125.315 12.537C125.297 12.393 125.288 12.294 125.288 12.24C125.288 11.736 125.441 11.394 125.747 11.214C126.053 11.016 126.413 10.917 126.827 10.917C127.475 10.917 127.916 11.115 128.15 11.511C128.384 11.907 128.501 12.348 128.501 12.834V14.481C128.501 14.823 128.447 15.102 128.339 15.318C128.249 15.534 128.078 15.732 127.826 15.912C127.574 16.074 127.214 16.236 126.746 16.398C126.296 16.542 125.702 16.722 124.964 16.938C124.514 17.082 124.073 17.235 123.641 17.397C123.227 17.541 122.849 17.739 122.507 17.991C122.183 18.225 121.913 18.522 121.697 18.882C121.499 19.224 121.4 19.656 121.4 20.178C121.4 20.682 121.517 21.114 121.751 21.474C121.985 21.816 122.291 22.086 122.669 22.284C123.047 22.482 123.461 22.626 123.911 22.716C124.361 22.806 124.802 22.851 125.234 22.851C126.188 22.851 126.917 22.725 127.421 22.473C127.925 22.221 128.321 21.735 128.609 21.015H128.663C128.771 21.591 129.041 22.041 129.473 22.365C129.923 22.689 130.607 22.851 131.525 22.851C131.939 22.851 132.38 22.815 132.848 22.743C133.334 22.671 133.703 22.446 133.955 22.068ZM135.401 22.122V22.5H142.178V22.122H140.477V16.344C140.477 15.516 140.567 14.796 140.747 14.184C140.927 13.572 141.161 13.059 141.449 12.645C141.755 12.231 142.106 11.925 142.502 11.727C142.898 11.511 143.312 11.403 143.744 11.403C144.266 11.403 144.68 11.583 144.986 11.943C145.292 12.285 145.445 12.834 145.445 13.59V22.122H143.771V22.5H150.548V22.122H148.739V14.508C148.739 13.32 148.406 12.384 147.74 11.7C147.092 11.016 146.174 10.674 144.986 10.674C144.176 10.674 143.501 10.8 142.961 11.052C142.421 11.286 141.98 11.565 141.638 11.889C141.296 12.213 141.035 12.546 140.855 12.888C140.675 13.212 140.549 13.455 140.477 13.617H140.423V10.917H135.401V11.295H137.183V22.122H135.401ZM154.001 7.434V10.917H152.192V11.295H154.001V19.611C154.001 19.935 154.019 20.286 154.055 20.664C154.091 21.042 154.226 21.393 154.46 21.717C154.712 22.041 155.09 22.311 155.594 22.527C156.116 22.743 156.845 22.851 157.781 22.851C158.123 22.851 158.483 22.815 158.861 22.743C159.239 22.689 159.59 22.563 159.914 22.365C160.256 22.167 160.553 21.888 160.805 21.528C161.075 21.15 161.264 20.655 161.372 20.043L160.967 19.962C160.895 20.232 160.796 20.511 160.67 20.799C160.562 21.087 160.418 21.348 160.238 21.582C160.058 21.798 159.842 21.978 159.59 22.122C159.356 22.266 159.068 22.338 158.726 22.338C158.42 22.338 158.168 22.284 157.97 22.176C157.79 22.068 157.646 21.924 157.538 21.744C157.448 21.546 157.385 21.33 157.349 21.096C157.313 20.862 157.295 20.61 157.295 20.34V11.295H160.454V10.917H157.295V7.434C157.025 7.542 156.746 7.632 156.458 7.704C156.188 7.776 155.918 7.812 155.648 7.812C155.378 7.812 155.099 7.776 154.811 7.704C154.541 7.632 154.271 7.542 154.001 7.434ZM169.502 15.804V19.368C169.502 19.89 169.448 20.34 169.34 20.718C169.232 21.078 169.088 21.375 168.908 21.609C168.728 21.825 168.521 21.987 168.287 22.095C168.071 22.203 167.846 22.257 167.612 22.257C167.198 22.257 166.874 22.167 166.64 21.987C166.406 21.789 166.226 21.555 166.1 21.285C165.992 21.015 165.92 20.736 165.884 20.448C165.866 20.16 165.857 19.908 165.857 19.692C165.857 19.152 165.938 18.711 166.1 18.369C166.28 18.027 166.505 17.739 166.775 17.505C167.045 17.271 167.351 17.082 167.693 16.938C168.035 16.776 168.377 16.614 168.719 16.452C168.971 16.326 169.142 16.218 169.232 16.128C169.34 16.02 169.412 15.912 169.448 15.804H169.502ZM174.956 22.068L174.713 21.825C174.569 21.987 174.416 22.113 174.254 22.203C174.11 22.293 173.921 22.338 173.687 22.338C173.291 22.338 173.039 22.212 172.931 21.96C172.841 21.69 172.796 21.384 172.796 21.042V14.346C172.796 13.59 172.661 12.969 172.391 12.483C172.139 11.979 171.788 11.583 171.338 11.295C170.906 11.007 170.384 10.809 169.772 10.701C169.178 10.593 168.539 10.539 167.855 10.539C167.261 10.539 166.685 10.602 166.127 10.728C165.587 10.854 165.101 11.043 164.669 11.295C164.237 11.529 163.886 11.835 163.616 12.213C163.364 12.573 163.238 12.987 163.238 13.455C163.238 13.761 163.283 14.004 163.373 14.184C163.481 14.364 163.607 14.508 163.751 14.616C163.895 14.706 164.057 14.769 164.237 14.805C164.435 14.823 164.624 14.832 164.804 14.832C164.93 14.832 165.083 14.832 165.263 14.832C165.461 14.814 165.641 14.769 165.803 14.697C165.983 14.625 166.136 14.517 166.262 14.373C166.388 14.211 166.451 13.995 166.451 13.725C166.451 13.671 166.442 13.572 166.424 13.428C166.406 13.284 166.388 13.131 166.37 12.969C166.352 12.807 166.334 12.663 166.316 12.537C166.298 12.393 166.289 12.294 166.289 12.24C166.289 11.736 166.442 11.394 166.748 11.214C167.054 11.016 167.414 10.917 167.828 10.917C168.476 10.917 168.917 11.115 169.151 11.511C169.385 11.907 169.502 12.348 169.502 12.834V14.481C169.502 14.823 169.448 15.102 169.34 15.318C169.25 15.534 169.079 15.732 168.827 15.912C168.575 16.074 168.215 16.236 167.747 16.398C167.297 16.542 166.703 16.722 165.965 16.938C165.515 17.082 165.074 17.235 164.642 17.397C164.228 17.541 163.85 17.739 163.508 17.991C163.184 18.225 162.914 18.522 162.698 18.882C162.5 19.224 162.401 19.656 162.401 20.178C162.401 20.682 162.518 21.114 162.752 21.474C162.986 21.816 163.292 22.086 163.67 22.284C164.048 22.482 164.462 22.626 164.912 22.716C165.362 22.806 165.803 22.851 166.235 22.851C167.189 22.851 167.918 22.725 168.422 22.473C168.926 22.221 169.322 21.735 169.61 21.015H169.664C169.772 21.591 170.042 22.041 170.474 22.365C170.924 22.689 171.608 22.851 172.526 22.851C172.94 22.851 173.381 22.815 173.849 22.743C174.335 22.671 174.704 22.446 174.956 22.068ZM104.001 27.276V27.654H106.485V46.122H104.001V46.5H121.119V40.398H120.768C120.534 41.442 120.201 42.333 119.769 43.071C119.355 43.791 118.878 44.385 118.338 44.853C117.816 45.303 117.249 45.627 116.637 45.825C116.043 46.023 115.449 46.122 114.855 46.122H110.4V27.654H112.884V27.276H104.001ZM129.75 46.5C129.048 46.5 128.499 46.338 128.103 46.014C127.707 45.672 127.41 45.231 127.212 44.691C127.032 44.151 126.915 43.53 126.861 42.828C126.825 42.126 126.807 41.415 126.807 40.695C126.807 39.975 126.825 39.273 126.861 38.589C126.915 37.887 127.032 37.266 127.212 36.726C127.41 36.186 127.707 35.754 128.103 35.43C128.499 35.088 129.048 34.917 129.75 34.917C130.452 34.917 131.001 35.088 131.397 35.43C131.793 35.754 132.081 36.186 132.261 36.726C132.459 37.266 132.576 37.887 132.612 38.589C132.666 39.273 132.693 39.975 132.693 40.695C132.693 41.415 132.666 42.126 132.612 42.828C132.576 43.53 132.459 44.151 132.261 44.691C132.081 45.231 131.793 45.672 131.397 46.014C131.001 46.338 130.452 46.5 129.75 46.5ZM129.75 34.539C128.814 34.539 127.941 34.71 127.131 35.052C126.339 35.376 125.646 35.817 125.052 36.375C124.458 36.933 123.99 37.59 123.648 38.346C123.324 39.084 123.162 39.867 123.162 40.695C123.162 41.541 123.324 42.342 123.648 43.098C123.99 43.836 124.458 44.484 125.052 45.042C125.646 45.6 126.339 46.041 127.131 46.365C127.941 46.689 128.814 46.851 129.75 46.851C130.686 46.851 131.55 46.689 132.342 46.365C133.152 46.041 133.854 45.6 134.448 45.042C135.042 44.484 135.501 43.836 135.825 43.098C136.167 42.342 136.338 41.541 136.338 40.695C136.338 39.867 136.167 39.084 135.825 38.346C135.501 37.59 135.042 36.933 134.448 36.375C133.854 35.817 133.152 35.376 132.342 35.052C131.55 34.71 130.686 34.539 129.75 34.539ZM145.482 39.804V43.368C145.482 43.89 145.428 44.34 145.32 44.718C145.212 45.078 145.068 45.375 144.888 45.609C144.708 45.825 144.501 45.987 144.267 46.095C144.051 46.203 143.826 46.257 143.592 46.257C143.178 46.257 142.854 46.167 142.62 45.987C142.386 45.789 142.206 45.555 142.08 45.285C141.972 45.015 141.9 44.736 141.864 44.448C141.846 44.16 141.837 43.908 141.837 43.692C141.837 43.152 141.918 42.711 142.08 42.369C142.26 42.027 142.485 41.739 142.755 41.505C143.025 41.271 143.331 41.082 143.673 40.938C144.015 40.776 144.357 40.614 144.699 40.452C144.951 40.326 145.122 40.218 145.212 40.128C145.32 40.02 145.392 39.912 145.428 39.804H145.482ZM150.936 46.068L150.693 45.825C150.549 45.987 150.396 46.113 150.234 46.203C150.09 46.293 149.901 46.338 149.667 46.338C149.271 46.338 149.019 46.212 148.911 45.96C148.821 45.69 148.776 45.384 148.776 45.042V38.346C148.776 37.59 148.641 36.969 148.371 36.483C148.119 35.979 147.768 35.583 147.318 35.295C146.886 35.007 146.364 34.809 145.752 34.701C145.158 34.593 144.519 34.539 143.835 34.539C143.241 34.539 142.665 34.602 142.107 34.728C141.567 34.854 141.081 35.043 140.649 35.295C140.217 35.529 139.866 35.835 139.596 36.213C139.344 36.573 139.218 36.987 139.218 37.455C139.218 37.761 139.263 38.004 139.353 38.184C139.461 38.364 139.587 38.508 139.731 38.616C139.875 38.706 140.037 38.769 140.217 38.805C140.415 38.823 140.604 38.832 140.784 38.832C140.91 38.832 141.063 38.832 141.243 38.832C141.441 38.814 141.621 38.769 141.783 38.697C141.963 38.625 142.116 38.517 142.242 38.373C142.368 38.211 142.431 37.995 142.431 37.725C142.431 37.671 142.422 37.572 142.404 37.428C142.386 37.284 142.368 37.131 142.35 36.969C142.332 36.807 142.314 36.663 142.296 36.537C142.278 36.393 142.269 36.294 142.269 36.24C142.269 35.736 142.422 35.394 142.728 35.214C143.034 35.016 143.394 34.917 143.808 34.917C144.456 34.917 144.897 35.115 145.131 35.511C145.365 35.907 145.482 36.348 145.482 36.834V38.481C145.482 38.823 145.428 39.102 145.32 39.318C145.23 39.534 145.059 39.732 144.807 39.912C144.555 40.074 144.195 40.236 143.727 40.398C143.277 40.542 142.683 40.722 141.945 40.938C141.495 41.082 141.054 41.235 140.622 41.397C140.208 41.541 139.83 41.739 139.488 41.991C139.164 42.225 138.894 42.522 138.678 42.882C138.48 43.224 138.381 43.656 138.381 44.178C138.381 44.682 138.498 45.114 138.732 45.474C138.966 45.816 139.272 46.086 139.65 46.284C140.028 46.482 140.442 46.626 140.892 46.716C141.342 46.806 141.783 46.851 142.215 46.851C143.169 46.851 143.898 46.725 144.402 46.473C144.906 46.221 145.302 45.735 145.59 45.015H145.644C145.752 45.591 146.022 46.041 146.454 46.365C146.904 46.689 147.588 46.851 148.506 46.851C148.92 46.851 149.361 46.815 149.829 46.743C150.315 46.671 150.684 46.446 150.936 46.068ZM152.382 46.122V46.5H159.159V46.122H157.458V40.344C157.458 39.516 157.548 38.796 157.728 38.184C157.908 37.572 158.142 37.059 158.43 36.645C158.736 36.231 159.087 35.925 159.483 35.727C159.879 35.511 160.293 35.403 160.725 35.403C161.247 35.403 161.661 35.583 161.967 35.943C162.273 36.285 162.426 36.834 162.426 37.59V46.122H160.752V46.5H167.529V46.122H165.72V38.508C165.72 37.32 165.387 36.384 164.721 35.7C164.073 35.016 163.155 34.674 161.967 34.674C161.157 34.674 160.482 34.8 159.942 35.052C159.402 35.286 158.961 35.565 158.619 35.889C158.277 36.213 158.016 36.546 157.836 36.888C157.656 37.212 157.53 37.455 157.458 37.617H157.404V34.917H152.382V35.295H154.164V46.122H152.382Z" fill="black"/>
</svg>
