<svg width="40" height="40" viewBox="0 0 40 40" fill="none" xmlns="http://www.w3.org/2000/svg">
<g clip-path="url('#clip0_499_3205')">
<path d="M19.9997 38.8137C30.3902 38.8137 38.8134 30.3905 38.8134 20C38.8134 9.60944 30.3902 1.18626 19.9997 1.18626C9.60921 1.18626 1.18604 9.60944 1.18604 20C1.18604 30.3905 9.60921 38.8137 19.9997 38.8137Z" fill="#FEF2F3"></path>
<path d="M20 1.18626V38.8137C30.3905 38.8137 38.8137 30.3905 38.8137 20C38.8137 9.60946 30.3906 1.18626 20 1.18626Z" fill="#E7E7FF"></path>
<path d="M20 40C14.6578 40 9.63532 37.9196 5.85794 34.1421C2.08039 30.3646 0 25.3422 0 20C0 14.6578 2.08039 9.6354 5.85786 5.85786C9.63532 2.08039 14.6577 0 20 0C25.3422 0 30.3646 2.08039 34.1421 5.85786C37.9196 9.6354 39.9999 14.6578 39.9999 20C39.9999 25.3422 37.9195 30.3647 34.1421 34.1421C30.3645 37.9196 25.3422 40 20 40ZM20 4.95598C11.7046 4.95598 4.95598 11.7047 4.95598 20C4.95598 28.2954 11.7046 35.044 20 35.044C28.2953 35.044 35.044 28.2953 35.044 20C35.044 11.7048 28.2953 4.95598 20 4.95598Z" fill="#FF3333"></path>
<path d="M34.1421 5.85786C30.3646 2.08039 25.3422 0 20 0V4.95598C28.2953 4.95598 35.0441 11.7047 35.0441 20C35.0441 28.2954 28.2953 35.044 20 35.044V40C25.3422 40 30.3646 37.9196 34.1421 34.1421C37.9196 30.3646 40 25.3422 40 20C40 14.6578 37.9196 9.63532 34.1421 5.85786Z" fill="#B32424"></path>
<path d="M20 35.4322C11.4907 35.4322 4.56787 28.5094 4.56787 20C4.56787 11.4907 11.4907 4.56784 20 4.56784C28.5094 4.56784 35.4322 11.4906 35.4322 20C35.4322 28.5093 28.5093 35.4322 20 35.4322ZM20 6.94037C12.7989 6.94037 6.9404 12.7989 6.9404 20C6.9404 27.2011 12.7989 33.0596 20 33.0596C27.2012 33.0596 33.0597 27.2012 33.0597 20C33.0597 12.7989 27.2011 6.94037 20 6.94037Z" fill="#E7E7FF"></path>
<path d="M19.9997 26.1363H17.6272V16.6134H15.5918V14.2409H19.9997V26.1363Z" fill="#246BB3"></path>
<path d="M28.7571 19.6334C29.1179 19.1161 29.3303 18.488 29.3303 17.8108C29.3303 16.0497 27.8976 14.6169 26.1364 14.6169C24.3752 14.6169 22.9424 16.0497 22.9424 17.8108C22.9424 18.4879 23.1549 19.1161 23.5157 19.6334C22.7068 20.3555 22.1963 21.4052 22.1963 22.5723C22.1963 24.7448 23.9638 26.5123 26.1364 26.5123C28.3089 26.5123 30.0764 24.7448 30.0764 22.5723C30.0766 21.4052 29.566 20.3555 28.7571 19.6334ZM25.3151 17.8109C25.3151 17.358 25.6835 16.9895 26.1365 16.9895C26.5894 16.9895 26.9579 17.358 26.9579 17.8109C26.9579 18.2638 26.5894 18.6323 26.1365 18.6323C25.6835 18.6323 25.3151 18.2638 25.3151 17.8109ZM26.1365 24.1399C25.2721 24.1399 24.569 23.4367 24.569 22.5723C24.569 21.708 25.2722 21.0048 26.1365 21.0048C27.0008 21.0048 27.704 21.708 27.704 22.5723C27.704 23.4367 27.0008 24.1399 26.1365 24.1399Z" fill="#193C80"></path>
<path d="M15.8001 19.3521H13.7887V17.3407H11.4162V19.3521H9.40479V21.7246H11.4162V23.736H13.7887V21.7246H15.8001V19.3521Z" fill="#246BB3"></path>
<path d="M20 4.56784V6.94037C27.2012 6.94037 33.0597 12.7989 33.0597 20C33.0597 27.2011 27.2011 33.0596 20 33.0596V35.4322C28.5094 35.4322 35.4322 28.5094 35.4322 20C35.4322 11.4907 28.5093 4.56784 20 4.56784Z" fill="#D0D0DF"></path>
</g>
<defs>
<clipPath id="clip0_499_3205">
<rect width="40" height="40" fill="white"></rect>
</clipPath>
</defs>
</svg>
