<svg width="20" height="20" viewBox="0 0 20 20" fill="none" xmlns="http://www.w3.org/2000/svg">
<path d="M10 20C4.47039 20 0 15.5328 0 10C0 4.47047 4.46719 0 10 0C15.5296 0 20 4.46719 20 10C20 15.5295 15.5328 20 10 20Z" fill="#7FE881"></path>
<path d="M20 10C20 4.46719 15.5296 0 10 0V20C15.5328 20 20 15.5295 20 10Z" fill="#1FBF66"></path>
<path d="M8.82809 16.0013L3.65527 10.8285L6.14102 8.34277L8.82809 11.0298L13.8589 5.99902L16.3446 8.48477L8.82809 16.0013Z" fill="#F0F7FF"></path>
<path d="M10 9.85797V14.8295L16.3447 8.48477L13.8589 5.99902L10 9.85797Z" fill="#DFE7F4"></path>
</svg>
