<svg width="40" height="40" viewBox="0 0 40 40" fill="none" xmlns="http://www.w3.org/2000/svg">
<path d="M21.2305 35.625H2.48047C1.83328 35.625 1.30859 35.1003 1.30859 34.4531V1.17188C1.30859 0.524687 1.83328 0 2.48047 0H28.2617C28.9089 0 29.4336 0.524687 29.4336 1.17188V18.3502C29.4336 18.5115 29.4002 18.6712 29.3356 18.8191L22.3044 34.922C22.118 35.3491 21.6964 35.625 21.2305 35.625Z" fill="#FFF4F4"></path>
<path d="M28.2617 0H15.3711V35.625H21.2305C21.6964 35.625 22.118 35.3491 22.3044 34.922L29.3356 18.8191C29.4002 18.6712 29.4336 18.5115 29.4336 18.3502V1.17188C29.4336 0.524687 28.909 0 28.2617 0Z" fill="#F6EFEA"></path>
<path d="M11.6463 15.1514H4.45654C3.80936 15.1514 3.28467 14.6267 3.28467 13.9795C3.28467 11.4088 5.42303 9.31727 8.05147 9.31727C10.6799 9.31727 12.8183 11.4088 12.8183 13.9795C12.8182 14.6267 12.2935 15.1514 11.6463 15.1514Z" fill="#FF5B5B"></path>
<path d="M8.05121 10.5502C6.5416 10.5502 5.31348 9.32211 5.31348 7.8125C5.31348 6.30289 6.5416 5.07477 8.05121 5.07477C9.56082 5.07477 10.7889 6.30289 10.7889 7.8125C10.7889 9.32211 9.56074 10.5502 8.05121 10.5502Z" fill="#FFDECF"></path>
<path d="M12.9715 21.5625H4.45654C3.80936 21.5625 3.28467 21.0378 3.28467 20.3906C3.28467 19.7434 3.80936 19.2188 4.45654 19.2188H12.9715C13.6187 19.2188 14.1434 19.7434 14.1434 20.3906C14.1434 21.0378 13.6187 21.5625 12.9715 21.5625Z" fill="#007A9F"></path>
<path d="M12.9715 26.2499H4.45654C3.80936 26.2499 3.28467 25.7252 3.28467 25.078C3.28467 24.4309 3.80936 23.9062 4.45654 23.9062H12.9715C13.6187 23.9062 14.1434 24.4309 14.1434 25.078C14.1434 25.7252 13.6187 26.2499 12.9715 26.2499Z" fill="#007A9F"></path>
<path d="M12.9715 30.9374H4.45654C3.80936 30.9374 3.28467 30.4127 3.28467 29.7655C3.28467 29.1184 3.80936 28.5937 4.45654 28.5937H12.9715C13.6187 28.5937 14.1434 29.1184 14.1434 29.7655C14.1434 30.4127 13.6187 30.9374 12.9715 30.9374Z" fill="#007A9F"></path>
<path d="M23.7305 7.03133H19.043C18.3958 7.03133 17.8711 6.50664 17.8711 5.85945C17.8711 5.21226 18.3958 4.68758 19.043 4.68758H23.7305C24.3777 4.68758 24.9023 5.21226 24.9023 5.85945C24.9023 6.50664 24.3777 7.03133 23.7305 7.03133Z" fill="#00607F"></path>
<path d="M23.7305 11.7188H19.043C18.3958 11.7188 17.8711 11.1941 17.8711 10.547C17.8711 9.89976 18.3958 9.37508 19.043 9.37508H23.7305C24.3777 9.37508 24.9023 9.89976 24.9023 10.547C24.9023 11.1941 24.3777 11.7188 23.7305 11.7188Z" fill="#00607F"></path>
<path d="M23.7305 16.4063H19.043C18.3958 16.4063 17.8711 15.8816 17.8711 15.2345C17.8711 14.5873 18.3958 14.0626 19.043 14.0626H23.7305C24.3777 14.0626 24.9023 14.5873 24.9023 15.2345C24.9023 15.8816 24.3777 16.4063 23.7305 16.4063Z" fill="#00607F"></path>
<path d="M29.4335 40C29.3831 40 29.3327 39.9967 29.2827 39.9902C24.0909 39.3164 20.1758 34.8589 20.1758 29.6218V21.9323C20.1758 21.4362 20.4882 20.9938 20.9556 20.8279L29.0415 17.9577C29.2951 17.8677 29.5719 17.8677 29.8255 17.9577L37.9113 20.8279C38.3788 20.9938 38.6912 21.4362 38.6912 21.9323V29.6218C38.6912 34.8589 34.7761 39.3164 29.5843 39.9902C29.5344 39.9967 29.4839 40 29.4335 40Z" fill="#77DD00"></path>
<path d="M37.9115 20.8279L29.8256 17.9577C29.6988 17.9127 29.5663 17.8902 29.4336 17.8902V40C29.484 40 29.5344 39.9967 29.5845 39.9902C34.7763 39.3164 38.6913 34.8589 38.6913 29.6218V21.9323C38.6914 21.4362 38.379 20.9938 37.9115 20.8279Z" fill="#00AB5E"></path>
<path d="M29.4336 31.9922C29.1336 31.9922 28.8337 31.8778 28.605 31.6489L26.8471 29.8911C26.3895 29.4334 26.3895 28.6915 26.8471 28.2338C27.3047 27.7762 28.0468 27.7762 28.5044 28.2338L29.4336 29.163L31.8863 26.7104C32.3439 26.2527 33.0859 26.2527 33.5436 26.7104C34.0012 27.168 34.0012 27.91 33.5436 28.3677L30.2623 31.6489C30.0334 31.8778 29.7335 31.9922 29.4336 31.9922Z" fill="#F2FDE0"></path>
<path d="M33.5433 26.7105C33.0857 26.2528 32.3437 26.2528 31.886 26.7105L29.4336 29.1629V31.9922C29.7334 31.9921 30.0333 31.8777 30.262 31.649L33.5433 28.3677C34.001 27.9101 34.001 27.168 33.5433 26.7105Z" fill="#A8FFCB"></path>
</svg>
