<svg width="92" height="80" viewBox="0 0 92 80" fill="none" xmlns="http://www.w3.org/2000/svg">
<path d="M36.6074 44.7006H6.17725V76.4523H45.9999L47.7737 72.9454V38.4745L45.9999 35.2195L36.6074 44.7006Z" fill="#FFE994"></path>
<path d="M85.8226 44.7006H55.765L46 35.2195V76.4523H85.8226V44.7006Z" fill="#FDC273"></path>
<path d="M69.9557 2.66075V11.7073H53.9912V2.66075C53.9912 1.19202 55.1832 0 56.652 0H67.295C68.7637 0 69.9557 1.19202 69.9557 2.66075Z" fill="#3E406D"></path>
<path d="M40.6876 53.3925C39.2189 53.3925 38.0269 54.5845 38.0269 56.0532V76.4523H46.0002L47.7741 64.0355L46.0002 53.3925H40.6876Z" fill="#FDC273"></path>
<path d="M53.9734 56.0532C53.9734 54.5845 52.7814 53.3925 51.3126 53.3925H46V76.4523H53.9734V56.0532Z" fill="#FD9A5E"></path>
<path d="M72.6163 53.3925H61.9733C60.5038 53.3925 59.3125 54.5838 59.3125 56.0532V66.6962C59.3125 68.1657 60.5038 69.357 61.9733 69.357H72.6163C74.0857 69.357 75.277 68.1657 75.277 66.6962V56.0532C75.277 54.5838 74.0857 53.3925 72.6163 53.3925Z" fill="#FD9A5E"></path>
<path d="M64.6343 58.714H69.9558V64.0355H64.6343V58.714Z" fill="#FF7232"></path>
<path d="M30.0445 53.3925H19.4015C17.932 53.3925 16.7407 54.5838 16.7407 56.0532V66.6962C16.7407 68.1657 17.932 69.357 19.4015 69.357H30.0445C31.5139 69.357 32.7052 68.1657 32.7052 66.6962V56.0532C32.7052 54.5838 31.5139 53.3925 30.0445 53.3925Z" fill="#FDC273"></path>
<path d="M22.062 58.714H27.3835V64.0355H22.062V58.714Z" fill="#FD9A5E"></path>
<path d="M14.0797 10.8204C12.932 10.8204 11.9156 11.5548 11.5538 12.6439L1.51562 42.9269L3.25044 44.7007H35.9726L45.9999 35.2197L47.7737 32.0178V13.9672L45.9999 10.8204H14.0797Z" fill="#FF8398"></path>
<path d="M80.4461 12.6439C80.0843 11.5548 79.0679 10.8204 77.9202 10.8204H46V35.2197L56.4048 44.7007H88.7494L90.4843 42.9269L80.4461 12.6439Z" fill="#FF6174"></path>
<path d="M44.1019 32.8142L34.1614 42.9268H1.51569L0.910808 44.7503C0.341939 46.472 1.62353 48.2483 3.43675 48.2483H35.2771C35.9902 48.2483 36.6749 47.9609 37.1751 47.4518L45.9999 38.4745L47.7738 35.2195L45.9999 32.0177C45.2869 32.0177 44.6022 32.3051 44.1019 32.8142Z" fill="#FF6174"></path>
<path d="M91.0891 44.7503L90.4843 42.9268H57.8439L47.8962 32.8124C47.396 32.3033 46.7131 32.0177 46 32.0177V38.4745L54.8319 47.4536C55.3322 47.9609 56.0151 48.2483 56.7282 48.2483H88.5632C90.3764 48.2483 91.658 46.472 91.0891 44.7503Z" fill="#D9396F"></path>
<path d="M3.2506 74.6785C1.78115 74.6785 0.589844 75.8698 0.589844 77.3392C0.589844 78.8087 1.78115 80 3.2506 80H46L47.7739 77.3392L46 74.6785H3.2506Z" fill="#2CE7B6"></path>
<path d="M88.7494 74.6785H46V80H88.7494C90.2189 80 91.4102 78.8087 91.4102 77.3392C91.4102 75.8698 90.2189 74.6785 88.7494 74.6785Z" fill="#25BDBF"></path>
</svg>
