<svg width="40" height="40" viewBox="0 0 40 40" fill="none" xmlns="http://www.w3.org/2000/svg">
<g clip-path="url('#clip0_499_3241')">
<path d="M38.9999 26.1582C38.996 26.1605 33.7218 30.0105 31.1421 31.8637C30.5265 32.3059 29.9585 32.6723 29.428 32.977C27.8976 33.8574 26.1585 34.309 24.3929 34.309H12.439L8.1499 26.9629L10.9937 25.8559C12.2194 23.3574 14.789 21.6363 17.7601 21.6363C19.4312 21.6363 20.9749 22.1809 22.2241 23.102C22.5874 23.3699 22.9265 23.6699 23.2358 23.9973H27.8054C28.6444 23.9973 29.3601 24.6473 29.3944 25.4855C29.4312 26.3691 28.7249 27.1035 27.8429 27.1035H21.8397C21.1937 27.1035 20.6679 27.627 20.6679 28.2754C20.6679 28.923 21.1929 29.4473 21.8397 29.4473H27.453C28.2694 29.4473 29.0515 29.2207 29.7257 28.7965C29.8976 28.6895 30.0624 28.5684 30.2194 28.4348C30.5601 28.1887 34.8476 25.0996 37.0804 23.491C37.8163 22.9605 38.8429 23.127 39.3733 23.8637C39.9046 24.6004 39.7374 25.6285 38.9999 26.1582Z" fill="#D58678"></path>
<path d="M27.8429 27.1035H22.2241V23.102C22.5874 23.3699 22.9265 23.6699 23.2358 23.9973H27.8429C28.6999 23.9973 29.396 24.6934 29.396 25.5504C29.396 26.4053 28.7029 27.1035 27.8429 27.1035Z" fill="#B95D4C"></path>
<path d="M38.9999 26.1582C38.996 26.1605 33.7218 30.0105 31.1421 31.8637C30.5265 32.3059 29.9585 32.6723 29.428 32.977C27.8976 33.8574 26.1585 34.309 24.3929 34.309H22.2241V29.4473H27.453C28.2694 29.4473 29.0515 29.2207 29.7257 28.7965C29.8976 28.6895 30.0624 28.5684 30.2194 28.4348C30.5601 28.1887 34.8476 25.0996 37.0804 23.491C37.8163 22.9605 38.8429 23.127 39.3733 23.8637C39.9046 24.6004 39.7374 25.6285 38.9999 26.1582Z" fill="#B95D4C"></path>
<path d="M33.2391 9.89531C33.2391 15.3516 28.8008 19.7906 23.3445 19.7906C17.8883 19.7906 13.4492 15.3516 13.4492 9.89531C13.4492 4.43906 17.8883 0 23.3445 0C28.8008 0 33.2391 4.43906 33.2391 9.89531Z" fill="#FABE2C"></path>
<path d="M33.2388 9.89531C33.2388 15.3516 28.8005 19.7906 23.3442 19.7906V0C28.8005 0 33.2388 4.43906 33.2388 9.89531Z" fill="#FF9100"></path>
<path d="M26.9662 12.6477V12.6586C26.9717 13.4852 26.6553 14.2648 26.074 14.8531C25.6428 15.2898 25.1037 15.5828 24.5162 15.7063V15.9805C24.5162 16.6281 23.9912 17.1523 23.3443 17.1523C22.6967 17.1523 22.1725 16.6281 22.1725 15.9805V15.7102C21.6006 15.5883 21.0748 15.307 20.6498 14.8867C20.0615 14.3063 19.735 13.5313 19.7303 12.7047C19.7264 12.0578 20.2475 11.5297 20.8943 11.5258H20.9021C21.5459 11.5258 22.0701 12.0461 22.074 12.6906C22.0748 12.8906 22.1537 13.0789 22.2967 13.2195C22.4381 13.3594 22.6248 13.4359 22.8232 13.4359H22.8279L23.3443 13.4328L23.8771 13.4297C24.0779 13.4281 24.2654 13.3492 24.4068 13.2063C24.5475 13.0633 24.624 12.875 24.6225 12.6742V12.6633C24.6209 12.4289 24.5076 12.2055 24.3186 12.0656L23.3443 11.3445L20.9748 9.59141C20.1904 9.01016 19.7217 8.08047 19.7217 7.10469C19.7217 5.61875 20.774 4.37578 22.1725 4.07891V3.81016C22.1725 3.1625 22.6967 2.63828 23.3443 2.63828C23.9912 2.63828 24.5162 3.1625 24.5162 3.81016V4.08047C25.9107 4.37969 26.96 5.62188 26.96 7.10469C26.96 7.75156 26.435 8.27656 25.7881 8.27656C25.1404 8.27656 24.6162 7.75156 24.6162 7.10469C24.6162 6.69141 24.2795 6.35469 23.8662 6.35469H22.8154C22.4021 6.35469 22.0654 6.69141 22.0654 7.10469C22.0654 7.34141 22.1787 7.56641 22.3693 7.70703L23.3443 8.42891L25.7131 10.182C26.4912 10.7578 26.96 11.6789 26.9662 12.6477Z" fill="#F0F7FF"></path>
<path d="M23.8661 6.35469H23.3442V2.63828C23.9911 2.63828 24.5161 3.1625 24.5161 3.81016V4.08047C25.9106 4.37969 26.9599 5.62188 26.9599 7.10469C26.9599 7.75156 26.4349 8.27656 25.788 8.27656C25.1403 8.27656 24.6161 7.75156 24.6161 7.10469C24.6161 6.69141 24.2794 6.35469 23.8661 6.35469Z" fill="#DFE7F4"></path>
<path d="M26.9661 12.6477V12.6586C26.9716 13.4852 26.6552 14.2648 26.0739 14.8531C25.6427 15.2898 25.1036 15.5828 24.5161 15.7063V15.9805C24.5161 16.6281 23.9911 17.1523 23.3442 17.1523V13.4328L23.877 13.4297C24.0778 13.4281 24.2653 13.3492 24.4067 13.2063C24.5474 13.0633 24.6239 12.875 24.6224 12.6742V12.6633C24.6208 12.4289 24.5075 12.2055 24.3185 12.0656L23.3442 11.3445V8.42891L25.713 10.182C26.4911 10.7578 26.9599 11.6789 26.9661 12.6477Z" fill="#DFE7F4"></path>
<path d="M13.1006 36.6709L7.5883 39.8537C7.4165 39.9527 7.22869 40.0001 7.04377 40.0001C6.66596 40.0001 6.29901 39.8042 6.09666 39.4541L0.462755 29.696C0.161348 29.1734 0.340489 28.5058 0.862442 28.2037L6.37479 25.0216C6.62596 24.8768 6.92369 24.8374 7.20322 24.9124C7.48354 24.9874 7.72158 25.1702 7.86643 25.4213L13.5003 35.1792C13.8017 35.702 13.6233 36.3695 13.1006 36.6709Z" fill="#7DD5F4"></path>
</g>
<defs>
<clipPath id="clip0_499_3241">
<rect width="40" height="40" fill="white"></rect>
</clipPath>
</defs>
</svg>
