<svg width="80" height="80" viewBox="0 0 80 80" fill="none" xmlns="http://www.w3.org/2000/svg">
<g clip-path="url('#clip0_542_2908')">
<path d="M36.7188 20.625H24.2188C23.2546 20.625 22.3888 20.0345 22.0368 19.137L15.7868 3.19953C15.5038 2.47812 15.5959 1.66344 16.0324 1.02328C16.4692 0.382969 17.194 0 17.9688 0H21.8981C25.0282 0 27.971 1.21891 30.1845 3.43234L30.4688 3.71656L30.7531 3.43234C32.9667 1.21891 35.9095 0 39.0396 0H42.9688C43.7437 0 44.4687 0.382969 44.9053 1.02328C45.3418 1.66344 45.4338 2.47812 45.1509 3.19953L38.9009 19.137C38.5488 20.0345 37.6831 20.625 36.7188 20.625Z" fill="#B48E6E"></path>
<path d="M44.9052 1.02328C44.4686 0.382969 43.7436 0 42.9688 0H39.0395C35.9094 0 32.9666 1.21891 30.753 3.43234L30.4688 3.71656V20.625H36.7188C37.683 20.625 38.5487 20.0345 38.9008 19.137L45.1508 3.19953C45.4336 2.47797 45.3417 1.66344 44.9052 1.02328Z" fill="#AF705C"></path>
<path d="M53.9062 80H7.03125C3.15422 80 0 76.8458 0 72.9688C0 69.3558 2.73937 66.3705 6.25 65.9806V52.6562C6.25 47.4681 7.47641 42.2731 9.79656 37.6327C12.1167 32.9922 15.537 28.8941 19.6875 25.7812C20.0933 25.477 20.5866 25.3125 21.0938 25.3125H39.8438C40.3508 25.3125 40.8442 25.477 41.25 25.7812C45.4005 28.8941 48.8206 32.9922 51.1409 37.6327C53.4611 42.2731 54.6875 47.4681 54.6875 52.6562V65.9806C58.1983 66.3705 60.9375 69.3558 60.9375 72.9688C60.9375 76.8458 57.7833 80 53.9062 80Z" fill="#B48E6E"></path>
<path d="M54.6875 65.9806V52.6562C54.6875 47.4681 53.4611 42.2731 51.1409 37.6327C48.8206 32.9922 45.4005 28.8941 41.25 25.7812C40.8442 25.477 40.3508 25.3125 39.8438 25.3125H30.4688V80H53.9062C57.7833 80 60.9375 76.8458 60.9375 72.9688C60.9375 69.3558 58.1983 66.3705 54.6875 65.9806Z" fill="#AF705C"></path>
<path d="M42.1875 27.6562H18.75C16.1611 27.6562 14.0625 25.5577 14.0625 22.9688C14.0625 20.3798 16.1611 18.2812 18.75 18.2812H42.1875C44.7764 18.2812 46.875 20.3798 46.875 22.9688C46.875 25.5577 44.7764 27.6562 42.1875 27.6562Z" fill="#FFB454"></path>
<path d="M42.1875 18.2812H30.4688V27.6562H42.1875C44.7764 27.6562 46.875 25.5577 46.875 22.9688C46.875 20.3798 44.7764 18.2812 42.1875 18.2812Z" fill="#FF8659"></path>
<path d="M33.9194 50.3066C33.5551 50.1778 33.1844 50.0442 32.8132 49.9069V43.0541C33.3974 43.2956 33.7751 43.5822 33.879 43.6666V43.6642C34.2957 44.045 34.8502 44.2792 35.4593 44.2792C36.7536 44.2792 37.803 43.2298 37.803 41.9355C37.803 41.2542 37.5115 40.6419 37.0474 40.2136C36.2527 39.4808 34.7615 38.5722 32.8132 38.1763V37.0312C32.8132 35.7369 31.7638 34.6875 30.4694 34.6875C29.1751 34.6875 28.1257 35.7369 28.1257 37.0312V38.3363C28.0138 38.3661 27.9018 38.3969 27.7886 38.4309C25.1029 39.24 23.0972 41.5316 22.5546 44.4114C22.056 47.0575 22.9174 49.6198 24.8027 51.0986C25.6704 51.7791 26.7236 52.4033 28.1257 53.0502V62.2758C27.1944 62.1244 26.4636 61.7822 25.3282 61.0394C24.2449 60.3306 22.7924 60.6345 22.0838 61.7177C21.3752 62.8009 21.679 64.2534 22.7621 64.9622C24.7938 66.2912 26.2794 66.8117 28.1257 66.9912V68.2812C28.1257 69.5756 29.1751 70.625 30.4694 70.625C31.7638 70.625 32.8132 69.5756 32.8132 68.2812V66.7706C34.2152 66.405 35.4919 65.7131 36.5782 64.7152C38.0751 63.3398 39.0854 61.4764 39.4229 59.4684C40.1077 55.3939 37.8961 51.7122 33.9194 50.3066ZM28.1257 47.7194C27.9744 47.6175 27.8288 47.5147 27.6957 47.4102C27.2002 47.0216 26.9904 46.1852 27.1611 45.2794C27.2741 44.6795 27.5821 43.9969 28.1258 43.4991V47.7194H28.1257ZM34.8002 58.6912C34.6108 59.8172 33.9382 61.0002 32.8132 61.7158V54.9111C34.9986 55.9208 34.9391 57.8648 34.8002 58.6912Z" fill="#FFF16B"></path>
<path d="M33.9194 50.3066C33.555 50.1778 33.1844 50.0442 32.8131 49.9069V43.0541C33.3973 43.2956 33.775 43.5822 33.8789 43.6666V43.6642C34.2956 44.045 34.8502 44.2792 35.4592 44.2792C36.7536 44.2792 37.803 43.2298 37.803 41.9355C37.803 41.2542 37.5114 40.6419 37.0473 40.2136C36.2527 39.4808 34.7614 38.5722 32.8131 38.1763V37.0312C32.8131 35.7369 31.7637 34.6875 30.4694 34.6875C30.4692 34.6875 30.4689 34.6875 30.4688 34.6875V70.625H30.4694C31.7637 70.625 32.8131 69.5756 32.8131 68.2812V66.7706C34.2152 66.405 35.4919 65.7131 36.5781 64.7152C38.075 63.3398 39.0853 61.4764 39.4228 59.4684C40.1077 55.3939 37.8961 51.7122 33.9194 50.3066ZM34.8002 58.6912C34.6108 59.8172 33.9381 61.0002 32.8131 61.7158V54.9111C34.9986 55.9208 34.9391 57.8648 34.8002 58.6912Z" fill="#FFD845"></path>
<path d="M77.6562 80H46.4062C45.1119 80 44.0625 78.9506 44.0625 77.6562V69.4531H80V77.6562C80 78.9506 78.9506 80 77.6562 80Z" fill="#FFD845"></path>
<path d="M80 69.4531H62.0312V80H77.6562C78.9506 80 80 78.9506 80 77.6562V69.4531Z" fill="#FFB454"></path>
<path d="M80 69.4531H44.0625V58.9062H80V69.4531Z" fill="#FFF16B"></path>
<path d="M62.0312 58.9062H80V69.4531H62.0312V58.9062Z" fill="#FFD845"></path>
<path d="M80 58.9062H44.0625V48.3594H80V58.9062Z" fill="#FFD845"></path>
<path d="M62.0312 48.3594H80V58.9062H62.0312V48.3594Z" fill="#FFB454"></path>
<path d="M80 48.3594H44.0625V40.1562C44.0625 38.8619 45.1119 37.8125 46.4062 37.8125H77.6562C78.9506 37.8125 80 38.8619 80 40.1562V48.3594Z" fill="#FFF16B"></path>
<path d="M77.6562 37.8125H62.0312V48.3594H80V40.1562C80 38.8619 78.9506 37.8125 77.6562 37.8125Z" fill="#FFD845"></path>
</g>
<defs>
<clipPath id="clip0_542_2908">
<rect width="80" height="80" fill="white"></rect>
</clipPath>
</defs>
</svg>
