<svg width="15" height="11" viewBox="0 0 15 11" fill="none" xmlns="http://www.w3.org/2000/svg">
<path d="M14.0484 0.485401C13.9587 0.394952 13.852 0.32316 13.7344 0.274167C13.6168 0.225175 13.4906 0.199951 13.3632 0.199951C13.2358 0.199951 13.1097 0.225175 12.9921 0.274167C12.8745 0.32316 12.7678 0.394952 12.6781 0.485401L5.48871 7.68442L2.46821 4.65427C2.37506 4.56429 2.26511 4.49354 2.14462 4.44606C2.02413 4.39858 1.89547 4.37529 1.76599 4.37753C1.6365 4.37977 1.50872 4.40749 1.38995 4.45912C1.27118 4.51074 1.16374 4.58525 1.07376 4.67839C0.983783 4.77154 0.913034 4.88149 0.865551 5.00198C0.818069 5.12247 0.794782 5.25113 0.797023 5.38061C0.799263 5.5101 0.826986 5.63788 0.878608 5.75665C0.93023 5.87542 1.00474 5.98287 1.09788 6.07284L4.80354 9.7785C4.89326 9.86895 4.99999 9.94074 5.11758 9.98974C5.23518 10.0387 5.36131 10.064 5.48871 10.064C5.6161 10.064 5.74223 10.0387 5.85983 9.98974C5.97742 9.94074 6.08416 9.86895 6.17387 9.7785L14.0484 1.90397C14.1463 1.81361 14.2245 1.70393 14.278 1.58186C14.3315 1.45978 14.3591 1.32796 14.3591 1.19469C14.3591 1.06142 14.3315 0.929591 14.278 0.807517C14.2245 0.685443 14.1463 0.575767 14.0484 0.485401V0.485401Z" fill="#00CDB3"/>
</svg>
