<svg width="41" height="40" viewBox="0 0 41 40" fill="none" xmlns="http://www.w3.org/2000/svg">
<path d="M16.0799 14.329C14.3867 13.6731 13.1381 11.3274 11.9634 8.89274C14.1706 7.17087 14.7264 4.88784 14.752 4.77839C14.9165 4.07214 14.4774 3.36621 13.7711 3.20176C13.0651 3.03746 12.3589 3.47636 12.1945 4.18261C12.191 4.19769 11.8843 5.3837 10.7804 6.44736C9.42489 3.748 7.86631 1.29185 5.29945 0.627241C4.5975 0.445367 3.88102 0.867083 3.6993 1.56919C3.5175 2.27114 3.93922 2.98762 4.64133 3.16934C5.52007 3.39683 6.28202 4.12144 6.97694 5.10464C5.1857 5.07628 3.51415 4.27558 3.49438 4.26597C2.84415 3.94511 2.05681 4.21206 1.73587 4.86229C1.41502 5.51252 1.68197 6.29986 2.3322 6.6208C2.45134 6.67955 4.61086 7.72689 7.08748 7.72689C7.5274 7.72689 7.9774 7.6922 8.42771 7.6147C8.70099 8.15813 8.96841 8.71758 9.23388 9.27344C9.38974 9.59977 9.5463 9.92726 9.70458 10.2534C8.5213 10.3011 6.92663 10.1956 5.55062 9.51766C4.90039 9.19711 4.11305 9.46453 3.7925 10.1151C3.47204 10.7655 3.73946 11.5526 4.38992 11.8732C6.02022 12.6765 7.80279 12.8896 9.23505 12.8896C9.93997 12.8896 10.5596 12.8379 11.0349 12.7797C12.1023 14.5821 13.3693 16.0954 15.131 16.7778C15.287 16.8383 15.4473 16.8669 15.605 16.8669C16.1313 16.8669 16.6281 16.5482 16.8296 16.0279C17.0918 15.3515 16.7561 14.591 16.0799 14.329Z" fill="#FBE9D8"/>
<path d="M24.1471 14.329C25.8402 13.6731 27.0889 11.3274 28.2635 8.89273C26.0563 7.17087 25.5005 4.88784 25.475 4.77838C25.3104 4.07214 25.7496 3.3662 26.4558 3.20175C27.1618 3.03746 27.868 3.47636 28.0324 4.18261C28.036 4.19768 28.3426 5.38369 29.4466 6.44736C30.802 3.748 32.3605 1.29184 34.9274 0.627236C35.6293 0.445362 36.3458 0.867156 36.5275 1.56926C36.7093 2.27121 36.2876 2.98769 35.5855 3.16941C34.7069 3.39691 33.9448 4.12151 33.2499 5.10471C35.0411 5.07635 36.7126 4.27565 36.7324 4.26604C37.3826 3.94518 38.17 4.21214 38.4909 4.86237C38.8118 5.5126 38.5448 6.29994 37.8946 6.62087C37.7754 6.67962 35.6159 7.72696 33.1393 7.72696C32.6994 7.72696 32.2494 7.69227 31.7991 7.61477C31.5258 8.15821 31.2584 8.71766 30.9929 9.27351C30.837 9.59984 30.6805 9.92734 30.5222 10.2535C31.7055 10.3012 33.3001 10.1957 34.6762 9.51773C35.3264 9.19719 36.1137 9.46461 36.4343 10.1151C36.7547 10.7655 36.4873 11.5527 35.8368 11.8733C34.2065 12.6765 32.424 12.8897 30.9916 12.8897C30.2867 12.8897 29.6671 12.838 29.1918 12.7798C28.1244 14.5822 26.8574 16.0954 25.0957 16.7779C24.9397 16.8384 24.7794 16.867 24.6217 16.867C24.0954 16.867 23.5986 16.5482 23.3971 16.028C23.1351 15.3515 23.4709 14.591 24.1471 14.329Z" fill="#FBE9D8"/>
<path d="M11.4186 18.3107L7.5074 16.6476L5.66335 18.0037C6.1253 20.2268 8.28318 21.3261 11.5211 21.0687L13.4732 20.8783L11.4186 18.3107Z" fill="#FBE9D8"/>
<path d="M28.8084 18.3107L32.7195 16.6476L34.5636 18.0037C34.1016 20.2268 31.9438 21.3261 28.7058 21.0687L26.7539 20.8783L28.8084 18.3107Z" fill="#FBE9D8"/>
<path d="M5.66335 18.0037C9.9727 17.6974 13.4732 20.8784 13.4732 20.8784L12.0819 18.011C9.60825 16.2611 8.11537 15.4124 7.23037 15.0032C6.59514 14.7094 5.84827 15.0827 5.70812 15.7684C5.5464 16.5597 5.52929 17.2696 5.64226 17.8939L5.66335 18.0037Z" fill="#AD6643"/>
<path d="M34.5637 18.0037C30.2543 17.6974 26.7539 20.8784 26.7539 20.8784L28.1452 18.011C30.6188 16.2611 32.1117 15.4124 32.9967 15.0032C33.6319 14.7094 34.3788 15.0827 34.519 15.7684C34.6807 16.5597 34.6978 17.2696 34.5848 17.8939L34.5637 18.0037Z" fill="#AD6643"/>
<path d="M29.9587 28.6138C29.1617 27.7046 28.7057 26.5467 28.7057 25.3377V21.0687C28.7057 16.3234 24.8589 12.4764 20.1134 12.4764C15.3681 12.4764 11.5211 16.3233 11.5211 21.0687V25.3377C11.5211 26.5467 11.0652 27.7046 10.2682 28.6138C9.34833 29.6632 8.82349 30.8743 8.82349 32.1643C8.82349 36.1686 13.8781 39.4146 20.1133 39.4146C26.3484 39.4146 31.403 36.1685 31.403 32.1643C31.4034 30.8744 30.8785 29.6632 29.9587 28.6138Z" fill="#AD6643"/>
<path d="M20.1134 31.177C23.929 31.177 24.9099 27.6022 20.1134 27.6022C15.317 27.6022 16.2978 31.177 20.1134 31.177Z" fill="#EB423F"/>
<path d="M16.1908 24.8136C16.716 24.8136 17.1418 24.3879 17.1418 23.8626C17.1418 23.3374 16.716 22.9116 16.1908 22.9116C15.6656 22.9116 15.2398 23.3374 15.2398 23.8626C15.2398 24.3879 15.6656 24.8136 16.1908 24.8136Z" fill="#5E3725"/>
<path d="M22.4119 33.0504C22.09 33.4912 21.2544 33.936 20.1135 33.936C18.9726 33.936 18.137 33.4912 17.8152 33.0504C17.6243 32.7891 17.2577 32.732 16.9964 32.9227C16.7351 33.1136 16.678 33.4802 16.8688 33.7415C17.4842 34.5843 18.7277 35.1079 20.1136 35.1079C21.4996 35.1079 22.743 34.5843 23.3585 33.7414C23.5493 33.48 23.4922 33.1134 23.2308 32.9227C22.9693 32.7319 22.6027 32.7891 22.4119 33.0504Z" fill="#5E3725"/>
<path d="M24.0364 24.8136C24.5617 24.8136 24.9875 24.3879 24.9875 23.8626C24.9875 23.3374 24.5617 22.9116 24.0364 22.9116C23.5112 22.9116 23.0854 23.3374 23.0854 23.8626C23.0854 24.3879 23.5112 24.8136 24.0364 24.8136Z" fill="#5E3725"/>
</svg>
