<svg width="1067" height="600" viewBox="0 0 1067 600" fill="none" xmlns="http://www.w3.org/2000/svg">

<path d="M1089.21 47.5C984.297 47.5 660.91 101.729 536.294 326C443.5 493 173.155 610.5 105 623.5" stroke="#D1F2EA"/>
<path d="M1073.15 1C968.24 1 642.534 53.9565 520.236 279.5C414.5 474.5 69.1551 591.5 1 604.5" stroke="#D1F2EA"/>
<path d="M1129.88 81C1024.98 81 717.743 145 576.972 359.5C464.356 531.1 299.891 600 231.736 613" stroke="#D1F2EA"/>
<path d="M1162 121C1057.09 121 749.858 185 609.087 399.5C496.471 571.1 332.006 640 263.851 653" stroke="#D1F2EA"/>
<path d="M1193.21 215.5C1088.3 215.5 781.064 279.5 640.294 494C527.677 665.6 363.213 734.5 295.058 747.5" stroke="#D1F2EA"/>
<path d="M1177.15 169C1072.24 169 765.007 233 624.236 447.5C511.619 619.1 347.155 688 279 701" stroke="#D1F2EA"/>
<path d="M1233.88 249C1128.98 249 821.743 313 680.972 527.5C568.356 699.1 403.891 768 335.736 781" stroke="#D1F2EA"/>
<path d="M1266 289C1161.09 289 853.858 353 713.087 567.5C600.471 739.1 436.007 808 367.852 821" stroke="#D1F2EA"/>
</svg>
