<svg width="375" height="436" viewBox="0 0 375 436" fill="none" xmlns="http://www.w3.org/2000/svg">
<path d="M402.362 25.6284C346.798 25.6284 175.517 54.3505 109.515 173.134C60.3676 261.585 -82.819 323.818 -118.917 330.704" stroke="#C8F0E6"/>
<path d="M393.857 1C338.293 1 165.785 29.0481 101.01 148.506C45.0079 251.787 -137.902 313.755 -174 320.64" stroke="#C8F0E6"/>
<path d="M423.908 43.3716C368.343 43.3716 205.619 77.2688 131.06 190.878C71.4138 281.764 -15.6938 318.257 -51.7917 325.142" stroke="#C8F0E6"/>
<path d="M440.917 64.5574C385.353 64.5574 222.628 98.4546 148.07 212.063C88.4233 302.95 1.31573 339.443 -34.7822 346.328" stroke="#C8F0E6"/>
<path d="M457.445 114.609C401.881 114.609 239.156 148.506 164.598 262.115C104.951 353.002 17.8438 389.494 -18.2542 396.379" stroke="#C8F0E6"/>
<path d="M448.94 89.9802C393.376 89.9802 230.652 123.877 156.093 237.486C96.4468 328.373 9.33917 364.866 -26.7588 371.751" stroke="#C8F0E6"/>
<path d="M478.991 132.352C423.426 132.352 260.702 166.249 186.143 279.858C126.497 370.745 39.3892 407.237 3.29126 414.123" stroke="#C8F0E6"/>
<path d="M496 153.538C440.436 153.538 277.711 187.435 203.153 301.044C143.506 391.93 56.3987 428.423 20.3008 435.308" stroke="#C8F0E6"/>
</svg>
