<svg width="20" height="32" viewBox="0 0 20 32" fill="none" xmlns="http://www.w3.org/2000/svg">
<path d="M6.81773 31.924C7.24105 32.105 7.73323 31.9539 7.98048 31.5634L19.2305 13.6884C19.4127 13.399 19.4237 13.0337 19.2589 12.7353C19.0941 12.4359 18.7791 12.25 18.4376 12.25H10.9294L13.7217 1.16823C13.8344 0.720546 13.6064 0.258171 13.1825 0.0759835C12.7614 -0.105267 12.266 0.046671 12.0197 0.436671L0.769731 18.3117C0.587544 18.601 0.576544 18.9663 0.741356 19.2647C0.906169 19.5641 1.22111 19.75 1.56261 19.75H9.07086L6.27848 30.8318C6.16586 31.2796 6.3938 31.7419 6.81773 31.924Z" fill="#41D5BD"/>
</svg>
