<svg width="1440" height="362" viewBox="0 0 1440 362" fill="none" xmlns="http://www.w3.org/2000/svg">
<path d="M1513.93 67.7499C1478.59 85.8571 1399.53 140.79 1366.02 215.662C1324.14 309.252 1201.09 441.457 1116.67 446.692" stroke="#BEEDE3"/>
<path d="M1549.28 107.019C1513.93 125.126 1434.87 180.058 1401.36 254.931C1359.48 348.521 1236.44 480.725 1152.01 485.961" stroke="#BEEDE3"/>
<path d="M1582 148.905C1546.66 167.012 1467.6 221.945 1434.09 296.817C1392.2 390.407 1269.16 522.612 1184.73 527.848" stroke="#BEEDE3"/>
<path d="M1470.74 40.2619C1435.4 58.3691 1356.34 113.302 1322.83 188.174C1280.94 281.764 1157.9 413.969 1073.47 419.204" stroke="#BEEDE3"/>
<path d="M1441.94 0.993286C1406.6 19.1005 1327.54 74.033 1294.03 148.905C1252.14 242.495 1129.1 374.7 1044.67 379.936" stroke="#BEEDE3"/>
<path d="M-73.8725 67.4839C-38.4986 85.6076 40.6342 140.59 74.174 215.53C116.099 309.206 239.252 441.531 323.757 446.771" stroke="#BEEDE3"/>
<path d="M-109.247 106.788C-73.8726 124.912 5.26022 179.894 38.8 254.834C80.7246 348.51 203.878 480.835 288.383 486.075" stroke="#BEEDE3"/>
<path d="M-142 148.713C-106.626 166.836 -27.4932 221.819 6.04654 296.759C47.9712 390.435 171.125 522.759 255.629 528" stroke="#BEEDE3"/>
<path d="M-30.6377 39.9703C4.73627 58.094 83.8691 113.077 117.409 188.017C159.334 281.692 282.487 414.017 366.992 419.258" stroke="#BEEDE3"/>
<path d="M-1.81443 0.666077C33.5595 18.7898 112.692 73.7722 146.232 148.713C188.157 242.388 311.311 374.713 395.815 379.953" stroke="#BEEDE3"/>
</svg>
