<svg width="375" height="711" viewBox="0 0 375 711" fill="none" xmlns="http://www.w3.org/2000/svg">
<path d="M-40.0223 34.3245C-22.38 43.3634 17.0863 70.7851 33.8138 108.16C54.7231 154.88 116.144 220.875 158.29 223.488" stroke="#C8F0E6"/>
<path d="M-57.6643 53.9266C-40.0221 62.9656 -0.555771 90.3873 16.1717 127.763C37.081 174.482 98.5021 240.477 140.647 243.091" stroke="#C8F0E6"/>
<path d="M-73.9998 74.8359C-56.3576 83.8748 -16.8912 111.297 -0.163766 148.672C20.7456 195.391 82.1667 261.386 124.312 264" stroke="#C8F0E6"/>
<path d="M-18.4595 20.6025C-0.817272 29.6414 38.6491 57.0631 55.3765 94.4385C76.2858 141.158 137.707 207.153 179.852 209.766" stroke="#C8F0E6"/>
<path d="M-4.08426 1C13.558 10.0389 53.0243 37.4606 69.7518 74.836C90.6611 121.555 152.082 187.55 194.228 190.164" stroke="#C8F0E6"/>
<path d="M407.209 434.143C385.427 445.302 336.702 479.158 316.05 525.302C290.235 582.982 214.403 664.461 162.37 667.688" stroke="#C8F0E6"/>
<path d="M428.99 458.344C407.209 469.504 358.483 503.359 337.831 549.504C312.016 607.184 236.184 688.663 184.151 691.889" stroke="#C8F0E6"/>
<path d="M449.158 484.159C427.377 495.319 378.651 529.174 357.999 575.319C332.184 632.999 256.352 714.478 204.319 717.705" stroke="#C8F0E6"/>
<path d="M380.587 417.202C358.806 428.361 310.08 462.216 289.428 508.361C263.613 566.041 187.781 647.52 135.748 650.747" stroke="#C8F0E6"/>
<path d="M362.839 393C341.058 404.16 292.332 438.015 271.68 484.159C245.865 541.84 170.033 623.318 118 626.545" stroke="#C8F0E6"/>
</svg>
